<?xml version="1.0" encoding="UTF-8"?>
<svg version="1.1" xmlns="http://www.w3.org/2000/svg" width="256" height="256">
<path d="M0 0 C3.1502202 0.25542326 4.81416064 0.86306573 7.375 2.75 C9 5 9 5 8.75 7.5 C8.5025 8.325 8.255 9.15 8 10 C7.60545198 13.83681428 7.60545198 13.83681428 9.32873535 15.80975342 C9.95050659 16.42264221 10.57227783 17.03553101 11.21289062 17.66699219 C11.91361694 18.36741638 12.61434326 19.06784058 13.33630371 19.78948975 C14.10188599 20.53442688 14.86746826 21.27936401 15.65625 22.046875 C16.43311157 22.81807678 17.20997314 23.58927856 18.01037598 24.3838501 C20.49770403 26.8487591 22.99856847 29.29941253 25.5 31.75 C27.18710694 33.41704929 28.87331673 35.08500705 30.55859375 36.75390625 C34.69537054 40.84654218 38.84335139 44.9275536 43 49 C48.70484313 46.91627377 52.0072852 43.35513575 56.28125 39.1171875 C59 37 59 37 61.71875 36.5078125 C64 37 64 37 66 40 C66.50390625 42.26171875 66.50390625 42.26171875 66 45 C64.23062057 47.51715749 62.10537838 49.63725289 59.9375 51.8125 C58.73369482 53.06314774 57.53056377 54.31444472 56.328125 55.56640625 C55.45897461 56.45996826 55.45897461 56.45996826 54.57226562 57.37158203 C52.19439553 59.83437606 49.92233434 62.37324802 47.72363281 64.99658203 C46.58888439 66.31552617 45.4112042 67.5988899 44.19140625 68.83959961 C36.70331439 77.03676254 34.11933713 86.96142746 30.8125 97.3125 C30.16474921 99.28529343 29.51456575 101.25728962 28.86206055 103.22851562 C27.86629952 106.23770829 26.87204648 109.24730001 25.88557434 112.259552 C23.08663026 120.80217304 20.12893396 129.28221723 17.1133728 137.75036621 C13.54900779 147.7625878 10.04322659 157.79071156 6.69921875 167.87890625 C6.42886307 168.69442963 6.15850739 169.509953 5.87995911 170.35018921 C4.59274674 174.24045368 3.31334885 178.13310672 2.04418945 182.02929688 C1.14141264 184.79632636 0.21308614 187.55239667 -0.73999023 190.30249023 C-1.49910864 192.53012988 -2.21383986 194.77463348 -2.84008789 197.04321289 C-6.17144082 207.3950606 -14.43273032 214.48467701 -22.0012207 221.91381836 C-24.45302811 224.32778847 -26.86481676 226.77734812 -29.27539062 229.23242188 C-30.82588281 230.77829382 -32.37854217 232.32199586 -33.93359375 233.86328125 C-34.65252304 234.59638016 -35.37145233 235.32947906 -36.11216736 236.08479309 C-41.1765297 240.98581656 -41.1765297 240.98581656 -45.14672852 241.05419922 C-46.08830811 240.70631348 -47.0298877 240.35842773 -48 240 C-48.92748047 239.74452393 -49.85496094 239.48904785 -50.81054688 239.22583008 C-70.44817513 232.76842663 -84.36215027 223.45809892 -97 207 C-97 205 -97 205 -95 203 C-96.66545339 200.83358335 -96.66545339 200.83358335 -99 199 C-99.76948975 199.23066162 -100.53897949 199.46132324 -101.33178711 199.69897461 C-102.21229736 199.79831299 -103.09280762 199.89765137 -104 200 C-106.43969727 197.93188477 -106.43969727 197.93188477 -109.00390625 194.87890625 C-109.97148254 193.7595952 -110.94180454 192.64265303 -111.91455078 191.52783203 C-112.41835266 190.94447083 -112.92215454 190.36110962 -113.44122314 189.7600708 C-115.98601589 186.88665413 -118.6873294 184.17648864 -121.40234375 181.46484375 C-122.20679428 180.65873154 -122.20679428 180.65873154 -123.02749634 179.83633423 C-124.11426846 178.74919602 -125.20219005 177.66320567 -126.29125977 176.57836914 C-127.96425847 174.91082884 -129.63171458 173.23787506 -131.29882812 171.56445312 C-132.37467879 170.48926183 -133.45083883 169.41437999 -134.52734375 168.33984375 C-135.01903549 167.84612778 -135.51072723 167.3524118 -136.01731873 166.84373474 C-138.54289744 164.33528713 -141.08693599 162.04913956 -144 160 C-143.773125 159.236875 -143.54625 158.47375 -143.3125 157.6875 C-142.72590357 155.02467776 -142.72590357 155.02467776 -144.125 153.125 C-145.053125 152.568125 -145.053125 152.568125 -146 152 C-146.76304443 152.2172876 -147.52608887 152.4345752 -148.31225586 152.65844727 C-151 153 -151 153 -153.39672852 151.57006836 C-156.17215868 149.07635787 -158.90872746 146.55975899 -161.5625 143.9375 C-162.29509033 143.22294647 -162.29509033 143.22294647 -163.04248047 142.49395752 C-171.28232898 134.30389763 -176.34830776 125.68040419 -180.5 114.875 C-180.75701691 114.2136203 -181.01403381 113.5522406 -181.27883911 112.87081909 C-185.40773861 102.00771843 -185.40773861 102.00771843 -184.20518494 99.03562927 C-168.48980986 72.49142302 -142.62705737 57.27873285 -113.91305542 49.49595642 C-102.85349032 46.49448863 -92.0788944 42.69684925 -81.25695801 38.94216919 C-75.63584331 36.99663241 -70.00406743 35.08275553 -64.37109375 33.171875 C-63.30239044 32.80868668 -62.23368713 32.44549835 -61.13259888 32.07130432 C-55.5232292 30.1709909 -49.90440257 28.30949008 -44.26060486 26.51397705 C-41.29350706 25.56929197 -38.33266455 24.60586965 -35.37216187 23.64074707 C-33.47066497 23.03069208 -31.55934498 22.45150973 -29.64770508 21.87402344 C-20.88556898 19.00829391 -15.4364009 14.49234099 -9 8 C-7.46998168 6.63268606 -5.93047944 5.27577769 -4.375 3.9375 C-2.13987546 2.01973521 -2.13987546 2.01973521 0 0 Z " fill="#FFFFFF" transform="translate(188,7)"/>
</svg>
