<?xml version="1.0" encoding="UTF-8"?>
<svg version="1.1" xmlns="http://www.w3.org/2000/svg" width="256" height="256">
<path d="M0 0 C1.98 1.65 3.96 3.3 6 5 C5.42308522 8.16854747 4.58353113 9.78226459 2.27734375 12.015625 C1.73916016 12.54414063 1.20097656 13.07265625 0.64648438 13.6171875 C0.08251953 14.15601563 -0.48144531 14.69484375 -1.0625 15.25 C-1.63033203 15.80429687 -2.19816406 16.35859375 -2.78320312 16.9296875 C-4.18212469 18.29334214 -5.59019114 19.64760417 -7 21 C-5.41219641 24.86466333 -2.94066771 27.30059155 0.00048828 30.22753906 C0.507966 30.73530884 1.01544373 31.24307861 1.53829956 31.76623535 C3.21093869 33.43748509 4.89054217 35.10154556 6.5703125 36.765625 C7.73374278 37.92532377 8.89673126 39.08546592 10.05929565 40.24603271 C13.115982 43.29509352 16.17862744 46.33809963 19.24255371 49.37988281 C22.36975165 52.48659913 25.49127507 55.59900545 28.61328125 58.7109375 C34.7366488 64.81287417 40.8663236 70.90842598 47 77 C48.11750703 76.04563526 49.23451704 75.09068852 50.35131836 74.13549805 C50.97340683 73.60377487 51.5954953 73.0720517 52.23643494 72.5242157 C54.38756633 70.6650338 56.47524004 68.74293542 58.5625 66.8125 C64.19277849 61.74185763 70.05223276 57.03491331 76.08740234 52.45898438 C77.36631703 51.48339155 78.63750765 50.49759222 79.90087891 49.50195312 C91.20569804 40.61816605 103.06439166 35.10977684 116.46191406 29.98925781 C118.65783208 29.13336518 120.80912227 28.221513 122.9609375 27.26171875 C126.8780838 25.6354485 129.85756453 24.88348419 134 26 C137.02265924 27.88916203 139.29960099 29.85426184 141 33 C142.25640089 41.02235237 138.66529106 47.87113729 135.5625 55.125 C135.15309174 56.09759766 135.15309174 56.09759766 134.7354126 57.08984375 C130.67020646 66.7216495 126.33225615 75.62835175 120 84 C119.23429688 85.05058594 118.46859375 86.10117188 117.6796875 87.18359375 C113.15478572 93.29941759 108.27728796 99.11347362 103.3125 104.875 C102.52891113 105.78463501 102.52891113 105.78463501 101.72949219 106.71264648 C97.99338469 110.99179287 94.05174295 115.02039208 90 119 C95.31014254 125.44690639 101.17126884 131.29949437 107.0859375 137.18359375 C108.15375345 138.24954109 109.22134622 139.31571205 110.28872681 140.38209534 C113.07792318 143.16750139 115.870111 145.94988929 118.66296387 148.73162842 C121.52063575 151.57901064 124.37542502 154.42927986 127.23046875 157.27929688 C132.81751842 162.85567081 138.40773634 168.42885494 144 174 C148.63039905 171.89129457 151.57916193 168.44007677 154.93359375 164.72460938 C156.34375 163.23828125 156.34375 163.23828125 159 161 C162.13987665 161.05567157 162.90621816 161.91403331 165.25 164.0625 C165.8275 164.701875 166.405 165.34125 167 166 C165.21106261 172.82032379 162.7921865 179.29568262 160.125 185.8125 C159.79757813 186.63661377 159.47015625 187.46072754 159.1328125 188.30981445 C157.09430439 193.19656033 155.03651305 196.4322433 151 200 C150.0262591 201.13276894 149.06559521 202.27706153 148.125 203.4375 C145.54506102 206.50159206 142.73541197 208.99179363 139.65234375 211.53515625 C137.74858008 213.14903343 137.74858008 213.14903343 135.5 216 C133.07918825 218.9049741 130.58218698 221.10439698 127.6875 223.5 C125.75444683 225.14332242 125.75444683 225.14332242 123.5 228 C121.07918825 230.9049741 118.58218698 233.10439698 115.6875 235.5 C113.75444683 237.14332242 113.75444683 237.14332242 111.5 240 C109.07069543 242.91516549 106.56666853 245.208822 103.6484375 247.60546875 C101.95859919 248.96000938 101.95859919 248.96000938 100.58984375 250.64453125 C97.84604605 252.98383789 94.97967181 252.5278362 91.51953125 252.40625 C87.21132369 251.71159328 85.72375299 250.4405301 83 247 C82.06554919 243.10514622 82.36643363 240.17618728 84.26708984 236.64770508 C86.04262839 233.93486829 87.92437624 231.84760073 90.23046875 229.57421875 C91.03291016 228.77822266 91.83535156 227.98222656 92.66210938 227.16210938 C93.91217773 225.93717773 93.91217773 225.93717773 95.1875 224.6875 C96.03248047 223.85154297 96.87746094 223.01558594 97.74804688 222.15429688 C99.82757725 220.09826402 101.91163963 218.04705704 104 216 C100.24368654 214.37481826 96.59831622 213.37660072 92.59594727 212.53540039 C91.32014297 212.264944 90.04433868 211.99448761 88.72987366 211.71583557 C87.34206901 211.42635701 85.95424606 211.13696618 84.56640625 210.84765625 C83.12727057 210.54421801 81.68822063 210.2403729 80.24925232 209.93614197 C76.45953641 209.13601488 72.66871474 208.34125469 68.87762451 207.54766846 C65.06685318 206.74906517 61.25708652 205.94570113 57.44726562 205.14257812 C53.13871534 204.23454435 48.8300791 203.32694291 44.52064514 202.42311096 C36.0089016 200.6376432 27.50238146 198.82953882 19 197 C18.40167358 197.72872314 18.40167358 197.72872314 17.79125977 198.47216797 C14.49200176 202.46813189 10.99600297 205.68416775 7 209 C5.23959026 210.94060916 3.62665485 212.94276005 2 215 C-1.43595166 213.47291037 -4.11912454 211.40072955 -7 209 C-7 209.66 -7 210.32 -7 211 C-7.94875 211.721875 -8.8975 212.44375 -9.875 213.1875 C-14.3471654 216.86461377 -17.11881829 221.43076695 -20.22265625 226.2421875 C-23.80728462 231.78306123 -27.65680938 237.0214518 -32 242 C-32.63164063 242.76957031 -33.26328125 243.53914062 -33.9140625 244.33203125 C-36 246 -36 246 -38.37588501 245.82539368 C-41.42894462 244.86507902 -42.80700321 243.70539635 -45.07177734 241.46166992 C-45.83541595 240.71386765 -46.59905457 239.96606537 -47.38583374 239.19560242 C-48.5986351 237.97536125 -48.5986351 237.97536125 -49.8359375 236.73046875 C-50.67468414 235.89792068 -51.51343079 235.06537262 -52.37759399 234.20759583 C-54.1458987 232.44639088 -55.90908121 230.68003025 -57.66748047 228.90893555 C-60.37003343 226.19249209 -63.0957395 223.50091888 -65.82421875 220.81054688 C-67.53791055 219.09780596 -69.25019957 217.38366009 -70.9609375 215.66796875 C-71.78161713 214.86054733 -72.60229675 214.05312592 -73.44784546 213.22123718 C-74.19257111 212.46397842 -74.93729675 211.70671967 -75.70458984 210.92651367 C-76.36679535 210.26334641 -77.02900085 209.60017914 -77.71127319 208.91691589 C-79 207 -79 207 -78.78048706 204.84962463 C-77.32415483 201.39835927 -74.47445873 199.23533825 -71.75 196.75 C-71.12464355 196.1722583 -70.49928711 195.5945166 -69.85498047 194.99926758 C-64.8774633 190.52325874 -59.73982711 187.18854518 -53.93359375 183.85546875 C-49.66134285 181.15331272 -46.32591414 177.7780777 -43 174 C-44.37405423 171.04049858 -46.01776932 168.58504604 -48 166 C-47.41610504 165.67107254 -46.83221008 165.34214508 -46.23062134 165.00325012 C-39.1888783 160.68561106 -33.20134075 155.7838069 -30 148 C-28.42884744 135.43817704 -33.4771768 121.51505293 -36.64459229 109.50695801 C-37.86226985 104.80658218 -38.96660099 100.07990791 -40.078125 95.35351562 C-41.33181972 90.04436611 -42.59634817 84.74010621 -43.94638062 79.45451355 C-44.15010788 78.65316483 -44.35383514 77.8518161 -44.56373596 77.02618408 C-44.94436947 75.5369583 -45.32983861 74.04895609 -45.72120667 72.56251526 C-46.63985012 68.96296961 -47.21265707 65.71851776 -47 62 C-53.12391808 67.05888885 -58.69512526 72.62231336 -64.25048828 78.28759766 C-64.83556152 78.8810498 -65.42063477 79.47450195 -66.0234375 80.0859375 C-66.54856934 80.6226709 -67.07370117 81.1594043 -67.61474609 81.71240234 C-70.4058937 84.3067824 -73.14965769 84.41296432 -76.890625 84.32421875 C-79.74557922 83.88540171 -81.85848511 82.82361564 -83.91412354 80.78527832 C-85.83881558 77.62091194 -85.89294579 74.79958359 -85.79089355 71.15087891 C-84.08601794 64.35874287 -78.34284372 59.64184071 -73.515625 54.84375 C-72.30359302 53.60900266 -71.09273859 52.37309846 -69.88299561 51.1361084 C-67.33551131 48.54537932 -64.76770082 45.97704916 -62.18505859 43.42138672 C-59.5783786 40.83773408 -57.0070933 38.22614719 -54.46533203 35.57861328 C-37.90756114 18.33659796 -23.46070001 6.2571914 0 0 Z " fill="#FFFFFF" transform="translate(88,2)"/>
</svg>
