<?xml version="1.0" encoding="UTF-8"?>
<svg version="1.1" xmlns="http://www.w3.org/2000/svg" width="256" height="256">
<path d="M0 0 C3.75830298 1.08800805 5.71188711 2.82570848 8.35327148 5.68125916 C9.67327148 4.69125916 10.99327148 3.70125916 12.35327148 2.68125916 C25.22327148 15.55125916 38.09327148 28.42125916 51.35327148 41.68125916 C50.36327148 43.33125916 49.37327148 44.98125916 48.35327148 46.68125916 C49.17827148 47.27938416 50.00327148 47.87750916 50.85327148 48.49375916 C53.30847823 51.03787775 53.95443315 53.1404052 54.28662109 56.64610291 C54.15857264 61.27198977 53.00808428 63.66024123 49.71428776 66.92570496 C47.46613459 68.95989773 45.1676284 70.92134963 42.82739449 72.84877014 C39.52571269 75.5875809 36.34364776 78.46104168 33.14428711 81.31797791 C32.47428712 81.9126738 31.80428713 82.50736969 31.11398411 83.12008667 C8.13219669 101.56560524 8.13219669 101.56560524 -5.3972168 126.29063416 C-5.66944036 132.53222295 -4.77096025 138.55685592 -3.64672852 144.68125916 C-1.90714078 154.21187279 -0.6222817 164.07104455 -5.88462067 172.71451569 C-14.65887595 185.25211381 -26.13462342 195.90219291 -37.20922852 206.36875916 C-38.37953613 207.47486542 -38.37953613 207.47486542 -39.57348633 208.60331726 C-49.40217281 217.85302234 -59.43074919 226.86200441 -69.64672852 235.68125916 C-70.63672852 235.35125916 -71.62672852 235.02125916 -72.64672852 234.68125916 C-72.64672852 235.34125916 -72.64672852 236.00125916 -72.64672852 236.68125916 C-74.29672852 237.01125916 -75.94672852 237.34125916 -77.64672852 237.68125916 C-77.70860352 238.23813416 -77.77047852 238.79500916 -77.83422852 239.36875916 C-78.98046723 242.63113089 -81.14063049 244.3679379 -83.64672852 246.68125916 C-89.81597346 244.07119399 -93.97388024 239.42235077 -98.13500977 234.37657166 C-99.60216675 232.73123282 -101.10342985 231.41525663 -102.83422852 230.05625916 C-105.55946919 227.75494481 -107.02949712 225.82587575 -108.64672852 222.68125916 C-106.33672852 220.37125916 -104.02672852 218.06125916 -101.64672852 215.68125916 C-105.09944141 211.36536804 -108.74224514 207.61877063 -112.86157227 203.93125916 C-120.08185316 197.39000861 -126.96194725 190.51715303 -133.83935547 183.6190033 C-135.96997486 181.48298558 -138.10594074 179.35241797 -140.24243164 177.22227478 C-141.62361201 175.84043409 -143.00448241 174.45828349 -144.38500977 173.07579041 C-145.3242907 172.13954582 -145.3242907 172.13954582 -146.282547 171.18438721 C-150.06209176 167.38503255 -153.6259807 163.46697538 -157.07780457 159.36660767 C-158.7368712 157.45429496 -158.7368712 157.45429496 -161.64672852 155.68125916 C-163.95672852 157.99125916 -166.26672852 160.30125916 -168.64672852 162.68125916 C-172.8300155 160.58961566 -175.21700619 157.97692113 -178.11547852 154.43516541 C-179.76650326 152.44981539 -179.76650326 152.44981539 -182.58422852 150.24375916 C-186.38227446 147.06580234 -189.47157673 143.46701705 -192.64672852 139.68125916 C-191.07548118 136.35719813 -189.47890134 134.08431488 -186.64672852 131.68125916 C-185.65672852 131.68125916 -184.66672852 131.68125916 -183.64672852 131.68125916 C-183.31672852 130.03125916 -182.98672852 128.38125916 -182.64672852 126.68125916 C-181.98672852 126.68125916 -181.32672852 126.68125916 -180.64672852 126.68125916 C-180.97672852 125.69125916 -181.30672852 124.70125916 -181.64672852 123.68125916 C-172.11770889 112.64310794 -162.35088895 101.84181326 -152.33422852 91.24375916 C-151.59746887 90.46419861 -150.86070923 89.68463806 -150.10162354 88.88145447 C-120.17777304 57.42833853 -120.17777304 57.42833853 -106.17329407 56.11204529 C-99.83966227 56.1795695 -93.83364578 57.09624975 -87.61801147 58.23722839 C-78.55437841 59.75720579 -69.89508858 60.77293558 -61.95336914 55.34062195 C-48.95427626 45.55049828 -38.04042028 33.00933147 -27.28344727 20.89024353 C-26.69652603 20.23297555 -26.1096048 19.57570757 -25.50489807 18.89852238 C-22.70690681 15.75732801 -19.95615716 12.59362884 -17.28173828 9.34640503 C-12.17655145 3.3094287 -8.50408296 -0.81117757 0 0 Z " fill="#FFFFFF" transform="translate(197.646728515625,4.3187408447265625)"/>
</svg>
