<?xml version="1.0" encoding="UTF-8"?>
<svg version="1.1" xmlns="http://www.w3.org/2000/svg" width="256" height="256">
<path d="M0 0 C0.99 0.66 1.98 1.32 3 2 C3 2.66 3 3.32 3 4 C3.99 3.505 4.98 3.01 6 2.5 C10.31857798 0.8824681 14.55652451 0.62943737 19.125 0.5625 C19.805625 0.54058594 20.48625 0.51867187 21.1875 0.49609375 C26.23808597 0.51574584 29.19158489 1.71925686 33 5 C34.43718437 7.8688833 34.66432879 10.82403397 35 14 C35.09410156 14.67933594 35.18820313 15.35867187 35.28515625 16.05859375 C36.60782613 33.9994236 22.76673051 50.20137023 12 63 C11.21689453 63.96679688 11.21689453 63.96679688 10.41796875 64.953125 C7.43955662 68.56808431 4.26191136 71.55746043 0.65234375 74.53515625 C-1.25141992 76.14903343 -1.25141992 76.14903343 -3.5 79 C-5.92081175 81.9049741 -8.41781302 84.10439698 -11.3125 86.5 C-13.24555317 88.14332242 -13.24555317 88.14332242 -15.5 91 C-17.46009567 93.3521148 -19.17704148 95.07755157 -21.5 97 C-23.79926074 98.903689 -25.50354059 100.60683097 -27.4375 102.9375 C-30.13548104 106.16191636 -33.03433714 108.77102427 -36.23046875 111.484375 C-38.08344907 113.03207632 -38.08344907 113.03207632 -40 115 C-38.74896484 115.12955078 -38.74896484 115.12955078 -37.47265625 115.26171875 C-30.27269805 116.1606826 -23.63991485 117.12750337 -18 122 C-12.97080136 129.17256185 -11.69306604 137.4206442 -13 146 C-15.01158324 149.75810437 -17.74707445 152.41335621 -20.83105469 155.32275391 C-22.07962753 156.57658371 -22.07962753 156.57658371 -23.35342407 157.85574341 C-26.09639716 160.59477694 -28.88251925 163.2848473 -31.671875 165.9765625 C-33.59677158 167.87257375 -35.51198701 169.77825208 -37.42755127 171.6836853 C-41.95144369 176.17244099 -46.50781609 180.62666093 -51.07673573 185.06952512 C-56.26533316 190.11857149 -61.41367515 195.20787042 -66.56025076 200.29968381 C-74.56516402 208.21612015 -82.59022657 216.11199277 -90.65136719 223.97119141 C-91.4411496 224.74414551 -92.23093201 225.51709961 -93.04464722 226.31347656 C-94.13832108 227.37690781 -94.13832108 227.37690781 -95.25408936 228.46182251 C-95.88459576 229.07636606 -96.51510216 229.69090961 -97.16471481 230.3240757 C-99.99242924 232.90625495 -102.13654506 234.7777013 -105.8828125 235.7421875 C-110.25666377 237.50707486 -112.15111978 240.38706654 -114.875 244.125 C-115.37257813 244.78371094 -115.87015625 245.44242188 -116.3828125 246.12109375 C-117.60126441 247.73788571 -118.80240877 249.36769594 -120 251 C-126.36590304 245.75541414 -132.13570612 239.97902678 -137.9375 234.125 C-138.91708237 233.14039081 -139.89689837 232.156014 -140.87695312 231.171875 C-143.25360252 228.78351797 -145.62787356 226.39284788 -148 224 C-146.5273272 219.5819816 -143.12598979 218.23252425 -139.1875 215.94921875 C-133.84731112 212.60009167 -132.17912045 208.77312006 -130 203 C-129.34 201.68 -128.68 200.36 -128 199 C-145.82 181.18 -145.82 181.18 -164 163 C-166.64 164.65 -169.28 166.3 -172 168 C-175 168.3125 -175 168.3125 -177 168 C-177.24492187 168.71542969 -177.48984375 169.43085938 -177.7421875 170.16796875 C-179.15359676 173.34583121 -180.91281519 175.63646999 -183.125 178.3125 C-183.84945312 179.19550781 -184.57390625 180.07851562 -185.3203125 180.98828125 C-185.87460938 181.65214844 -186.42890625 182.31601563 -187 183 C-191.00517396 181.39626852 -193.6771098 178.57886014 -196.640625 175.5546875 C-197.43119293 174.75987473 -197.43119293 174.75987473 -198.23773193 173.94900513 C-199.91325675 172.26232175 -201.58167722 170.56880436 -203.25 168.875 C-204.38755851 167.72740612 -205.52557436 166.58026539 -206.6640625 165.43359375 C-209.44803465 162.62761863 -212.2256576 159.81549536 -215 157 C-212.66927721 151.74900248 -208.40465516 149.5805707 -203.75 146.4140625 C-200.81040846 144.24481531 -200.81040846 144.24481531 -200.04663086 141.11288452 C-198.94189889 137.82719594 -197.85358069 136.28391489 -195.50390625 133.77978516 C-194.69324707 132.91395813 -193.88258789 132.0481311 -193.04736328 131.15606689 C-192.0333613 130.10232325 -191.01738454 129.05047817 -190 128 C-189.39387878 127.37176079 -188.78775757 126.74352158 -188.16326904 126.09624481 C-178.34264195 115.93969495 -168.38697515 105.91416969 -158.43501282 95.88657188 C-153.73157261 91.14720268 -149.03694297 86.40003564 -144.36425781 81.63037109 C-139.82196658 76.99541257 -135.25810255 72.38277281 -130.67800903 67.78517532 C-128.94150589 66.03457784 -127.21278796 64.27622158 -125.49215698 62.51002121 C-123.08958327 60.04687408 -120.66030608 57.61342824 -118.22265625 55.18505859 C-117.52109406 54.45270996 -116.81953186 53.72036133 -116.09671021 52.96582031 C-112.58855147 49.52974019 -110.27820219 47.57012755 -105.24389648 47.50405884 C-98.45470163 48.03836122 -91.31113075 49.48824863 -86 54 C-81.4347349 59.92606528 -80.43829995 67.8520851 -79 75 C-78.56429687 74.48050781 -78.12859375 73.96101563 -77.6796875 73.42578125 C-74.04109252 69.16500228 -70.31918094 65.5840012 -66 62 C-64.45621504 60.26273807 -62.98166184 58.47784139 -61.5 56.6875 C-59.25654676 54.16361511 -56.59104563 52.15920469 -54 50 C-52.97914468 48.85153776 -51.97968065 47.68378078 -51 46.5 C-48.29852543 43.23571822 -45.25777945 40.71481621 -42 38 C-40.97914468 36.85153776 -39.97968065 35.68378078 -39 34.5 C-36.26535172 31.20128588 -33.33019369 28.69249702 -30 26 C-28.86304688 24.83791016 -28.86304688 24.83791016 -27.703125 23.65234375 C-24.89057482 20.89263049 -21.96491667 18.54887546 -18.8125 16.1875 C-17.76707031 15.39730469 -16.72164062 14.60710938 -15.64453125 13.79296875 C-13 12 -13 12 -11 12 C-11.0825 10.7625 -11.165 9.525 -11.25 8.25 C-11.23373935 5.19299695 -11.10738813 4.171821 -9.4375 1.5 C-6.11203064 -0.54644269 -3.83693587 -0.41857482 0 0 Z " fill="#FFFFFF" transform="translate(219,3)"/>
</svg>
