<?xml version="1.0" encoding="UTF-8"?>
<svg version="1.1" xmlns="http://www.w3.org/2000/svg" width="256" height="256">
<path d="M0 0 C1.75 1.3125 1.75 1.3125 3.75 3.3125 C3.72433017 9.20800466 0.73497827 12.17454811 -3.0625 16.25 C-8.89236675 22.60026499 -12.47073267 27.97469801 -15.25 36.3125 C-9.31 42.2525 -3.37 48.1925 2.75 54.3125 C7.88466512 50.88938992 13.01875222 47.46567913 18.1484375 44.03515625 C19.88562527 42.87458072 21.62296017 41.71422576 23.36035156 40.55395508 C24.53348123 39.7701915 25.70633451 38.98601406 26.87890625 38.20141602 C30.8278484 35.55940145 34.78612453 32.9320636 38.75 30.3125 C39.79534912 29.61543945 40.84069824 28.91837891 41.91772461 28.20019531 C42.8897583 27.56307617 43.86179199 26.92595703 44.86328125 26.26953125 C45.71704346 25.70596924 46.57080566 25.14240723 47.45043945 24.56176758 C49.75 23.3125 49.75 23.3125 53.5625 22.9375 C57.76226597 24.74916375 60.57112923 27.25804451 62.75 31.3125 C63.44175299 34.95037956 62.7391411 36.33152007 60.87890625 39.58984375 C60.03445197 40.81754519 59.17825104 42.03722261 58.3125 43.25 C57.38817637 44.58775018 56.4650246 45.92631072 55.54296875 47.265625 C55.0742334 47.94044922 54.60549805 48.61527344 54.12255859 49.31054688 C52.05291081 52.32924339 50.08785837 55.41124468 48.125 58.5 C45.24808354 62.99161593 42.36249955 67.47701085 39.4375 71.9375 C38.82261719 72.87851563 38.20773438 73.81953125 37.57421875 74.7890625 C35.81081123 77.22837997 33.93907502 79.25389965 31.75 81.3125 C33.1764578 84.5711636 34.91704162 86.7149854 37.4453125 89.203125 C38.16074219 89.91210938 38.87617188 90.62109375 39.61328125 91.3515625 C40.35964844 92.08117187 41.10601562 92.81078125 41.875 93.5625 C42.62910156 94.30757813 43.38320312 95.05265625 44.16015625 95.8203125 C46.01900772 97.6556342 47.88237005 99.4861191 49.75 101.3125 C56.73999528 98.93164374 61.87167026 96.10317675 67.25 91.0625 C73.53488372 85.3125 73.53488372 85.3125 75.75 85.3125 C75.75 84.6525 75.75 83.9925 75.75 83.3125 C79 82.5 79 82.5 82.75 82.3125 C85.1875 84.75 85.1875 84.75 86.75 87.3125 C85.27793416 91.96249621 82.55951546 95.16742011 79.375 98.75 C78.40574364 99.85013189 77.43955969 100.95297877 76.4765625 102.05859375 C76.04939941 102.53997803 75.62223633 103.0213623 75.18212891 103.51733398 C74.4732251 104.40594116 74.4732251 104.40594116 73.75 105.3125 C73.01918213 106.19832764 72.28836426 107.08415527 71.53540039 107.99682617 C69.60250794 111.58640805 69.65563554 113.40330369 70.18009949 117.36941528 C70.95082349 123.62515126 70.72254323 128.559763 66.94287109 133.77441406 C63.77246563 137.55616384 60.29438587 140.98457259 56.68237305 144.34228516 C54.42672916 146.44755279 52.25972747 148.62127544 50.09179688 150.81640625 C48.67379838 152.19737259 47.25140942 153.57384811 45.82421875 154.9453125 C45.18103195 155.58880646 44.53784515 156.23230042 43.87516785 156.89529419 C39.86787675 160.54391686 37.23038932 161.6954258 31.74536133 161.71044922 C30.07802431 161.60940815 28.41118207 161.48770322 26.75 161.3125 C26.4506958 162.08956299 26.1513916 162.86662598 25.84301758 163.66723633 C19.80929204 178.26974162 3.5500318 187.32915288 -10.25 193.3125 C-18.62250315 196.62967596 -26.68105901 197.48585563 -35.625 197.875 C-36.55183594 197.91818359 -37.47867188 197.96136719 -38.43359375 198.00585938 C-40.70560294 198.11126186 -42.97770925 198.21338606 -45.25 198.3125 C-44.26 199.24642578 -44.26 199.24642578 -43.25 200.19921875 C-41.25 202.3125 -41.25 202.3125 -41.25 204.125 C-43.96698876 210.06841292 -46.4500674 213.78367922 -51.52734375 217.84765625 C-53.50455721 219.44459746 -53.50455721 219.44459746 -55.75 222.3125 C-57.71009567 224.6646148 -59.42704148 226.39005157 -61.75 228.3125 C-64.04926074 230.216189 -65.75354059 231.91933097 -67.6875 234.25 C-73.74677113 241.49156793 -81.12760794 247.40636653 -90.25 250.3125 C-93.18696269 249.3113788 -95.45204291 247.86749165 -97.25 245.3125 C-96.81673253 241.16757451 -95.22361188 238.09568693 -93.1875 234.5 C-92.63964844 233.52417969 -92.09179688 232.54835937 -91.52734375 231.54296875 C-91.10582031 230.80691406 -90.68429688 230.07085937 -90.25 229.3125 C-91.31541016 228.91478394 -91.31541016 228.91478394 -92.40234375 228.5090332 C-95.36735922 227.2631878 -98.03593553 225.78928407 -100.8125 224.16796875 C-101.85664062 223.57435547 -102.90078125 222.98074219 -103.9765625 222.36914062 C-106.16731395 221.11821632 -108.34963766 219.85242102 -110.5234375 218.57226562 C-111.56757812 217.98509766 -112.61171875 217.39792969 -113.6875 216.79296875 C-114.63496094 216.24535889 -115.58242187 215.69774902 -116.55859375 215.13354492 C-119.28828089 213.97988974 -119.28828089 213.97988974 -121.92773438 215.50024414 C-125.74755708 218.4811676 -129.09952349 221.91567785 -132.53125 225.328125 C-135.25 227.3125 -135.25 227.3125 -138.09375 227.109375 C-138.8053125 226.84640625 -139.516875 226.5834375 -140.25 226.3125 C-141.08203125 224.19140625 -141.08203125 224.19140625 -141.25 221.3125 C-139.54025309 219.04178901 -137.9471397 217.21514584 -135.9375 215.25 C-131.21582967 210.85453844 -131.21582967 210.85453844 -128.25 205.3125 C-129.26090338 202.3664542 -129.26090338 202.3664542 -131.08203125 199.3046875 C-131.71560547 198.15355469 -132.34917969 197.00242188 -133.00195312 195.81640625 C-133.68841186 194.60654934 -134.37526541 193.39691637 -135.0625 192.1875 C-135.73910592 190.9708716 -136.41425423 189.75343136 -137.08789062 188.53515625 C-138.32451418 186.30698317 -139.56779836 184.08248566 -140.81958008 181.86279297 C-141.66077462 180.36302881 -142.48098754 178.85052491 -143.25 177.3125 C-146.7759832 178.34449508 -149.77341768 179.56402313 -152.875 181.5 C-156.25 183.3125 -156.25 183.3125 -158.4375 183.3125 C-160.91744918 181.94425218 -162.51695541 180.55903928 -164.25 178.3125 C-163.2293706 170.96396831 -158.614501 164.15363504 -153.25 159.3125 C-152.27942941 158.17701352 -151.32186613 157.03032737 -150.375 155.875 C-147.79506102 152.81090794 -144.98541197 150.32070637 -141.90234375 147.77734375 C-139.99858008 146.16346657 -139.99858008 146.16346657 -137.75 143.3125 C-135.31275755 140.38780906 -132.79732811 138.10556515 -129.87890625 135.69140625 C-128.10989592 134.23922667 -128.10989592 134.23922667 -126.125 132.125 C-122.57730173 128.69555834 -120.23333314 127.3125 -115.25 127.3125 C-112.5 129.8125 -112.5 129.8125 -110.25 132.3125 C-110.28480469 131.17554688 -110.31960937 130.03859375 -110.35546875 128.8671875 C-110.81618615 107.70643755 -105.3217725 89.49752456 -91.25 73.3125 C-86.3072336 68.27923225 -81.91168838 63.80776203 -75.25 61.3125 C-75.42112305 60.56838867 -75.59224609 59.82427734 -75.76855469 59.05761719 C-76.52849572 53.03145041 -76.17555228 49.13665903 -72.57226562 44.25585938 C-69.4866616 40.52971066 -66.13218139 37.0973419 -62.67675781 33.71484375 C-60.51463303 31.57696891 -58.45171576 29.3683711 -56.3828125 27.140625 C-49.96886235 20.55094244 -44.84240075 15.68032781 -35.33822632 15.24447632 C-32.76557692 15.25745794 -30.19848241 15.32285635 -27.62695312 15.39648438 C-23.71427314 15.46593537 -21.40776837 14.92880277 -18.2265625 12.4765625 C-16.43701454 10.78170547 -16.43701454 10.78170547 -14.875 8.9375 C-13.72644486 7.75804203 -12.57289228 6.5834271 -11.4140625 5.4140625 C-10.888125 4.86999756 -10.3621875 4.32593262 -9.8203125 3.76538086 C-6.94766396 1.1075557 -3.89774772 -1.19097847 0 0 Z M-110.25 139.3125 C-111.57 141.6225 -112.89 143.9325 -114.25 146.3125 C-110.44572508 148.5138866 -110.44572508 148.5138866 -106.25 149.3125 C-106.91 146.0125 -107.57 142.7125 -108.25 139.3125 C-108.91 139.3125 -109.57 139.3125 -110.25 139.3125 Z M-63.25 192.3125 C-62.59 194.6225 -61.93 196.9325 -61.25 199.3125 C-57.34161134 199.3125 -56.13405893 197.80682124 -53.25 195.3125 C-56.55 194.3225 -59.85 193.3325 -63.25 192.3125 Z " fill="#FFFFFF" transform="translate(167.25,3.6875)"/>
</svg>
