<?xml version="1.0" encoding="UTF-8"?>
<svg version="1.1" xmlns="http://www.w3.org/2000/svg" width="256" height="256">
<path d="M0 0 C1.98 0.99 1.98 0.99 4 2 C3.43790555 5.43913052 2.47112228 6.80201056 -0.25 8.9375 C-3.36318613 11.46616955 -6.1973946 14.12364183 -9 17 C-9.845625 17.78375 -10.69125 18.5675 -11.5625 19.375 C-13.8967626 21.88882126 -15.31916171 24.11213734 -16.8125 27.15625 C-19.17028374 30.8170195 -22.6035737 33.61890824 -25.7265625 36.62109375 C-32.17995808 42.85930219 -37.86890154 49.38478875 -43.3125 56.515625 C-46.75854325 61.02781946 -50.43134637 65.34171464 -54.1015625 69.671875 C-56.01161085 71.84100989 -56.01161085 71.84100989 -57 74 C-57.66 74 -58.32 74 -59 74 C-59.73438857 75.84115287 -59.73438857 75.84115287 -60 78 C-58.08065216 80.29016466 -56.23652142 82.23281698 -54.0625 84.25 C-53.48564453 84.80429688 -52.90878906 85.35859375 -52.31445312 85.9296875 C-50.88722271 87.29794145 -49.44497942 88.6505038 -48 90 C-49.41705861 93.93627392 -51.28334568 97.16382967 -53.625 100.625 C-54.32753906 101.66914062 -55.03007812 102.71328125 -55.75390625 103.7890625 C-58.58394396 107.83478597 -61.57520413 111.74581697 -64.62890625 115.625 C-66.22330019 117.8326405 -66.22330019 117.8326405 -65.74769592 119.96514893 C-64.46605754 123.453122 -61.60962771 125.7524655 -58.99609375 128.296875 C-58.39821548 128.89050842 -57.80033722 129.48414185 -57.18434143 130.09576416 C-55.27565898 131.98767195 -53.3568046 133.86887499 -51.4375 135.75 C-50.14059164 137.03186002 -48.84435922 138.3144043 -47.54882812 139.59765625 C-44.37367043 142.73976072 -41.18935054 145.87230539 -38 149 C-37.54109375 148.57847656 -37.0821875 148.15695313 -36.609375 147.72265625 C-35.68898437 146.90087891 -35.68898437 146.90087891 -34.75 146.0625 C-34.14671875 145.51722656 -33.5434375 144.97195312 -32.921875 144.41015625 C-30.86921078 142.90403474 -29.5298178 142.24810935 -27 142 C-24.421875 143.9140625 -24.421875 143.9140625 -21.75 146.625 C-20.85796875 147.50414062 -19.9659375 148.38328125 -19.046875 149.2890625 C-17 152 -17 152 -16.63032532 154.38725281 C-17.12175057 157.86049567 -18.40676262 159.04066065 -20.86791992 161.51489258 C-21.7126738 162.37540726 -22.55742767 163.23592194 -23.42778015 164.12251282 C-24.35266739 165.0372789 -25.27755463 165.95204498 -26.23046875 166.89453125 C-27.18329421 167.85072586 -28.13537648 168.80766156 -29.08674622 169.76530457 C-31.08210898 171.76803396 -33.08622254 173.76145348 -35.09692383 175.7487793 C-37.67200701 178.2953748 -40.2239888 180.86376168 -42.76983166 183.43954945 C-44.73138787 185.41918432 -46.70471159 187.38674173 -48.68178749 189.35086632 C-50.08710985 190.75123703 -51.48237758 192.16167447 -52.87748718 193.57221985 C-54.1682592 194.83935066 -54.1682592 194.83935066 -55.48510742 196.13208008 C-56.23789474 196.88088943 -56.99068207 197.62969879 -57.76628113 198.40119934 C-60.45375656 200.32477959 -61.76285564 200.50128345 -65 200 C-67.7109375 197.953125 -67.7109375 197.953125 -70.375 195.25 C-71.26960937 194.36828125 -72.16421875 193.4865625 -73.0859375 192.578125 C-75 190 -75 190 -74.94921875 187.8359375 C-73.50898783 185.05030567 -71.23030249 183.17311525 -69 181 C-69 180.34 -69 179.68 -69 179 C-70.88215046 177.39410066 -72.76608055 175.9086208 -74.75 174.4375 C-75.61951294 173.78128662 -75.61951294 173.78128662 -76.5065918 173.11181641 C-78.33334034 171.7352583 -80.16646727 170.36750376 -82 169 C-83.17882962 168.11387188 -84.3572282 167.22716998 -85.53515625 166.33984375 C-88.35183363 164.21992774 -91.17427058 162.10784141 -94 160 C-96.26627695 162.77166735 -98.4412655 165.58498158 -100.5234375 168.49609375 C-105.70297498 175.70010195 -111.11921401 182.64413698 -117.1875 189.125 C-118.00516846 190.05783813 -118.00516846 190.05783813 -118.83935547 191.00952148 C-120.51873023 192.73461561 -121.82463122 193.96052402 -124 195 C-127.21553946 194.88490528 -129.99548734 194.11900387 -133 193 C-133.165 193.804375 -133.33 194.60875 -133.5 195.4375 C-135.64387865 200.52921179 -139.21543449 204.03940819 -143 208 C-148.06623768 203.76183463 -152.80038069 199.32591037 -157.4375 194.625 C-158.07365234 193.98433594 -158.70980469 193.34367188 -159.36523438 192.68359375 C-160.91250332 191.12469121 -162.45736492 189.56348584 -164 188 C-155.85416178 179.77256741 -155.85416178 179.77256741 -151.75 178.0625 C-149.77989806 177.08992917 -149.77989806 177.08992917 -148.9375 174.6875 C-148.72098794 171.71845014 -148.72098794 171.71845014 -151.4375 169.1875 C-152.283125 168.465625 -153.12875 167.74375 -154 167 C-158.40177147 168.46725716 -161.6883411 170.86416408 -165.25 173.75 C-165.84699707 174.22663086 -166.44399414 174.70326172 -167.05908203 175.19433594 C-169.04665005 176.78745208 -171.02450997 178.39193429 -173 180 C-174.07942871 180.87785156 -174.07942871 180.87785156 -175.18066406 181.7734375 C-182.28306896 187.56219252 -189.36051974 193.34939826 -196.14501953 199.51074219 C-198.01180808 201.00948003 -199.82508733 202.01506581 -202 203 C-202 203.66 -202 204.32 -202 205 C-203.24023437 206.21899414 -203.24023437 206.21899414 -205.09375 207.72265625 C-211.94887319 213.55162674 -218.16332295 220.05841841 -224.5 226.4375 C-225.81226585 227.75479059 -227.12476395 229.07184986 -228.4375 230.38867188 C-231.62768506 233.5897861 -234.81470651 236.79401865 -238 240 C-239.12849651 239.05208552 -240.25427841 238.10093866 -241.37890625 237.1484375 C-242.00611572 236.61911621 -242.6333252 236.08979492 -243.27954102 235.54443359 C-245.15044638 233.86494625 -246.62425719 232.10407724 -248 230 C-245.36539091 226.64686116 -242.78889594 223.72035595 -239.5 221 C-236.20321504 218.26817386 -233.68163221 215.33392113 -231 212 C-228.8125 209.625 -228.8125 209.625 -227 208 C-226.34 208 -225.68 208 -225 208 C-224.68095703 207.18789063 -224.68095703 207.18789063 -224.35546875 206.359375 C-222.50973263 203.14662395 -219.96002978 200.79495617 -217.3125 198.25 C-204.71022295 186.21826663 -204.71022295 186.21826663 -195 172 C-194.34 172 -193.68 172 -193 172 C-192.60361328 171.13955078 -192.60361328 171.13955078 -192.19921875 170.26171875 C-190.93519517 167.87777851 -189.49212009 165.9225948 -187.8125 163.8125 C-187.19632813 163.03132812 -186.58015625 162.25015625 -185.9453125 161.4453125 C-184.6484375 159.81510417 -183.3515625 158.18489583 -182.0546875 156.5546875 C-181.43851562 155.77351562 -180.82234375 154.99234375 -180.1875 154.1875 C-179.34251953 153.12595703 -179.34251953 153.12595703 -178.48046875 152.04296875 C-177.06843781 150.09444056 -176.00497346 148.18152775 -175 146 C-177.16249149 143.33847202 -178.54258412 142.1292697 -181.875 141.1875 C-186.31646023 142.34227966 -187.32541989 144.91385955 -189.609375 148.73046875 C-191.11989807 151.19567635 -192.8368979 153.0864866 -195 155 C-198.36335594 153.54254576 -200.54534005 151.68882146 -203.109375 149.0859375 C-203.86347656 148.32539063 -204.61757812 147.56484375 -205.39453125 146.78125 C-206.17183594 145.9871875 -206.94914062 145.193125 -207.75 144.375 C-208.54277344 143.57320312 -209.33554688 142.77140625 -210.15234375 141.9453125 C-212.10614493 139.96797154 -214.05512103 137.98611091 -216 136 C-214.86225545 132.58676635 -214.09696878 132.07999479 -211.25 130.0625 C-210.53199219 129.54171875 -209.81398437 129.0209375 -209.07421875 128.484375 C-208.38972656 127.99453125 -207.70523438 127.5046875 -207 127 C-203.02259478 124.21051226 -203.02259478 124.21051226 -201 120 C-202.37168238 117.80961577 -202.37168238 117.80961577 -204 116 C-194.13988641 105.49588784 -184.18745054 96.69268341 -172 89 C-171.01 88.34 -170.02 87.68 -169 87 C-170.53030285 82.27563482 -173.16265884 78.97662645 -176.25 75.1875 C-177.24153796 73.9497412 -178.2324273 72.71146253 -179.22265625 71.47265625 C-179.69977051 70.87855957 -180.17688477 70.28446289 -180.66845703 69.67236328 C-183.18986007 66.50558461 -185.59238492 63.25353389 -188 60 C-188.45890625 60.433125 -188.9178125 60.86625 -189.390625 61.3125 C-190.00421875 61.869375 -190.6178125 62.42625 -191.25 63 C-191.85328125 63.556875 -192.4565625 64.11375 -193.078125 64.6875 C-195 66 -195 66 -199 66 C-201.32421875 64.20703125 -201.32421875 64.20703125 -203.6875 61.8125 C-204.47511719 61.03519531 -205.26273438 60.25789063 -206.07421875 59.45703125 C-208.20592847 56.73726368 -208.82529744 55.42705635 -209 52 C-207.44984436 49.72831726 -207.44984436 49.72831726 -205.07446289 47.39331055 C-204.19347427 46.51277512 -203.31248566 45.63223969 -202.40480042 44.72502136 C-201.42773403 43.77859518 -200.45034493 42.83250207 -199.47265625 41.88671875 C-198.48343452 40.90868881 -197.49553019 39.92932475 -196.50889587 38.94868469 C-193.90959491 36.37228333 -191.29278292 33.81440468 -188.67193604 31.25994873 C-186.00031547 28.6497261 -183.34561811 26.02241664 -180.68945312 23.39648438 C-175.4760668 18.2474305 -170.24406697 13.11782348 -165 8 C-160.18067704 9.46725476 -157.60200654 10.93726579 -154.125 14.625 C-152.95324219 15.85089844 -152.95324219 15.85089844 -151.7578125 17.1015625 C-150.88769531 18.04128906 -150.88769531 18.04128906 -150 19 C-151.72154788 22.76488042 -153.99234114 25.15063897 -157 28 C-155.36221955 32.19625909 -152.26676818 34.98676785 -149.1171875 38.078125 C-148.54292023 38.64956238 -147.96865295 39.22099976 -147.37698364 39.80975342 C-145.5476419 41.62792945 -143.71145807 43.43901492 -141.875 45.25 C-140.63105226 46.48391329 -139.3875573 47.71828322 -138.14453125 48.953125 C-135.10157633 51.97406743 -132.05246746 54.98867092 -129 58 C-124.57773998 56.33671903 -121.03082677 54.04355929 -117.25 51.25 C-116.00831048 50.35217548 -114.76612273 49.45503959 -113.5234375 48.55859375 C-111.42134 47.03415039 -109.322892 45.50504359 -107.2265625 43.97265625 C-106.45054687 43.42480469 -105.67453125 42.87695312 -104.875 42.3125 C-104.21242187 41.83425781 -103.54984375 41.35601562 -102.8671875 40.86328125 C-101 40 -101 40 -99.0859375 40.0390625 C-96.00648231 41.45768792 -94.08994804 43.63018559 -91.75 46.0625 C-90.85796875 46.98160156 -89.9659375 47.90070312 -89.046875 48.84765625 C-88.03367188 49.91306641 -88.03367188 49.91306641 -87 51 C-83.58946121 49.781534 -81.1908154 48.5451351 -78.5625 46.0625 C-74.94899134 42.7750222 -71.18179347 39.78648092 -67.3125 36.8125 C-61.20640217 32.08633916 -55.52749089 27.01443559 -49.90625 21.7265625 C-46.34924112 18.38947622 -42.70083706 15.17560909 -39 12 C-38.32710937 11.42121094 -37.65421875 10.84242187 -36.9609375 10.24609375 C-35.30946393 8.82819513 -33.65506671 7.41370281 -32 6 C-27.71 10.29 -23.42 14.58 -19 19 C-14.48627704 15.28871668 -10.26212846 11.37093881 -6.125 7.25 C-5.39253052 6.5242981 -5.39253052 6.5242981 -4.64526367 5.78393555 C-1.989474 3.14297476 -1.989474 3.14297476 0 0 Z M-168.0625 38 C-168.701875 38.66 -169.34125 39.32 -170 40 C-169.34 41.65 -168.68 43.3 -168 45 C-167.34 45 -166.68 45 -166 45 C-165.65001953 46.05960938 -165.65001953 46.05960938 -165.29296875 47.140625 C-163.75085635 50.55097628 -161.75790493 52.91887271 -159.3125 55.75 C-158.41416302 56.80105754 -157.51703745 57.85315162 -156.62109375 58.90625 C-155.95762939 59.68355469 -155.95762939 59.68355469 -155.28076172 60.4765625 C-152.40758553 63.8941415 -149.70700063 67.45042301 -147 71 C-142.54058703 69.59847021 -140.20508425 67.33436496 -137 64 C-140.96615417 60.00920662 -144.93552111 56.02164801 -148.90795898 52.03710938 C-150.26009477 50.67993134 -151.61133353 49.321859 -152.96166992 47.96289062 C-154.89789891 46.01459127 -156.83728546 44.06948531 -158.77734375 42.125 C-159.38464828 41.51253418 -159.99195282 40.90006836 -160.61766052 40.26904297 C-162.05958408 38.82692511 -163.52716559 37.41053404 -165 36 C-166.35917681 35.88397569 -166.35917681 35.88397569 -168.0625 38 Z M-176.62890625 46.53125 C-177.26699219 47.1809375 -177.90507812 47.830625 -178.5625 48.5 C-179.20316406 49.1496875 -179.84382813 49.799375 -180.50390625 50.46875 C-180.99761719 50.9740625 -181.49132812 51.479375 -182 52 C-179.31432843 56.95967085 -175.73720826 61.07940098 -172.125 65.375 C-167.86299951 70.45351005 -163.78111669 75.55116645 -160 81 C-157.03 79.02 -154.06 77.04 -151 75 C-152.51279891 71.97440219 -153.67501108 69.98544005 -155.7578125 67.4609375 C-156.29760742 66.80222656 -156.83740234 66.14351562 -157.39355469 65.46484375 C-158.25062012 64.43037109 -158.25062012 64.43037109 -159.125 63.375 C-160.29986775 61.94563181 -161.47434718 60.51594435 -162.6484375 59.0859375 C-163.22045898 58.39081055 -163.79248047 57.69568359 -164.38183594 56.97949219 C-167.17235345 53.56586575 -169.89145912 50.09662364 -172.609375 46.625 C-173.06828125 46.08875 -173.5271875 45.5525 -174 45 C-175.25117073 44.88584524 -175.25117073 44.88584524 -176.62890625 46.53125 Z M-74 129 C-75.58969247 131.01791336 -75.58969247 131.01791336 -77.125 133.5 C-77.66382813 134.3353125 -78.20265625 135.170625 -78.7578125 136.03125 C-79.37269531 137.00578125 -79.37269531 137.00578125 -80 138 C-71.8408961 144.90951141 -63.52410627 151.54772511 -55 158 C-54.26007813 158.59039062 -53.52015625 159.18078125 -52.7578125 159.7890625 C-51.06381835 161.21146641 -51.06381835 161.21146641 -48.875 160.9375 C-46.45846155 159.72923078 -46.09346365 158.40465236 -45 156 C-48.80223917 152.14844023 -52.61091212 148.30340607 -56.42578125 144.46435547 C-57.72348514 143.15657422 -59.01939099 141.84700631 -60.31347656 140.53564453 C-62.17046398 138.65448499 -64.03375562 136.77977878 -65.8984375 134.90625 C-66.47870697 134.31565796 -67.05897644 133.72506592 -67.65682983 133.11657715 C-69.06709628 131.70591649 -70.52917142 130.34739684 -72 129 C-72.66 129 -73.32 129 -74 129 Z M-84 143 C-85.4694809 144.76732099 -85.4694809 144.76732099 -86.6875 147 C-87.12449219 147.7425 -87.56148437 148.485 -88.01171875 149.25 C-88.33785156 149.8275 -88.66398438 150.405 -89 151 C-83.41038099 156.21611912 -77.67011173 161.18036639 -71.6875 165.9375 C-71.10145996 166.40969971 -70.51541992 166.88189941 -69.91162109 167.3684082 C-66.74514668 169.85815818 -63.83682609 171.7402541 -60 173 C-58.02 171.02 -56.04 169.04 -54 167 C-55.54634843 162.66416027 -58.89036576 160.47155713 -62.4375 157.8125 C-63.70407108 156.84498726 -64.96968355 155.87621842 -66.234375 154.90625 C-67.18280273 154.18115234 -67.18280273 154.18115234 -68.15039062 153.44140625 C-71.7924376 150.60314789 -75.28581393 147.58440817 -78.79296875 144.58203125 C-80.95380085 142.70870093 -80.95380085 142.70870093 -84 143 Z " fill="#FFFFFF" transform="translate(250,7)"/>
</svg>
