<?xml version="1.0" encoding="UTF-8"?>
<svg version="1.1" xmlns="http://www.w3.org/2000/svg" width="256" height="256">
<path d="M0 0 C-1.45217676 1.50596108 -2.91192861 3.00462104 -4.375 4.5 C-5.59316406 5.75296875 -5.59316406 5.75296875 -6.8359375 7.03125 C-9 9 -9 9 -11 9 C-7.27653164 13.42094803 -3.70478962 17.57833482 1 21 C1.25523437 20.41734375 1.51046875 19.8346875 1.7734375 19.234375 C3.11741087 16.78611777 4.61810296 15.18256752 6.625 13.25 C7.25664062 12.63640625 7.88828125 12.0228125 8.5390625 11.390625 C9.02117187 10.93171875 9.50328125 10.4728125 10 10 C11 13 11 13 10.13671875 15.0234375 C6.71788255 20.57098303 2.97431278 25.77689949 -1.04418945 30.89990234 C-4.14523296 34.85694208 -7.102712 38.89185407 -10 43 C-19.70063297 56.68047655 -30.3110715 69.36596759 -41.4609375 81.88671875 C-42.5574235 83.1326965 -43.65378251 84.37878601 -44.75 85.625 C-45.26353027 86.19275146 -45.77706055 86.76050293 -46.30615234 87.34545898 C-51.53939562 93.32209117 -51.21239522 99.09282276 -51.51757812 106.67773438 C-51.70771343 110.39075408 -52.14805506 113.88566412 -52.95898438 117.51660156 C-54.14729459 123.33182951 -54.62115406 129.12117311 -55.03515625 135.03515625 C-55.16053017 136.71320595 -55.16053017 136.71320595 -55.28843689 138.42515564 C-55.55230429 141.97053462 -55.80777954 145.5164532 -56.0625 149.0625 C-56.32239462 152.61197998 -56.58406621 156.16132029 -56.84727478 159.71055603 C-57.009843 161.90973969 -57.17025711 164.10908404 -57.32814026 166.30860901 C-57.47354925 168.30161901 -57.63131411 170.29377732 -57.80314636 172.28468323 C-58.03412396 174.94328434 -58.03412396 174.94328434 -57.97187805 177.38804626 C-58.10486802 184.9279431 -62.61772479 188.87562017 -67.72265625 193.99609375 C-68.61552841 194.91084976 -69.50840057 195.82560577 -70.42832947 196.76808167 C-72.31882642 198.69731447 -74.2244492 200.60995956 -76.14086914 202.51342773 C-78.08827852 204.45126195 -80.00708935 206.4114701 -81.90356445 208.39916992 C-99.58739925 226.92070816 -99.58739925 226.92070816 -108.796875 228.1640625 C-110.76321759 228.16042971 -112.73102701 228.15182154 -114.69485474 228.05233765 C-119.50984843 227.94301463 -124.3130164 228.54655171 -129.10546875 228.96484375 C-131.26340032 229.13052873 -133.42161183 229.2926051 -135.58007812 229.45117188 C-136.66490479 229.53165771 -137.74973145 229.61214355 -138.86743164 229.69506836 C-141.10027238 229.85811056 -143.33335381 230.0178861 -145.56665039 230.17456055 C-148.83056943 230.40551053 -152.09293821 230.65264043 -155.35546875 230.90234375 C-156.35128464 230.9680809 -157.34710052 231.03381805 -158.37309265 231.10154724 C-165.98077179 231.70263855 -169.97004749 233.66394741 -175.3125 239.1875 C-176.35857422 240.26064453 -176.35857422 240.26064453 -177.42578125 241.35546875 C-177.94527344 241.89816406 -178.46476562 242.44085938 -179 243 C-182.74020498 241.31847927 -184.56134348 239.30960527 -187 236 C-184.03 233.03 -181.06 230.06 -178 227 C-178.95261719 227.2165625 -179.90523437 227.433125 -180.88671875 227.65625 C-182.76810547 228.07390625 -182.76810547 228.07390625 -184.6875 228.5 C-185.92886719 228.7784375 -187.17023438 229.056875 -188.44921875 229.34375 C-192 230 -192 230 -197 230 C-195.68 223.73 -194.36 217.46 -193 211 C-198.73808171 215.91609949 -198.73808171 215.91609949 -204.4375 220.875 C-205.45650391 221.76832031 -205.45650391 221.76832031 -206.49609375 222.6796875 C-206.99238281 223.11539063 -207.48867187 223.55109375 -208 224 C-210.62187494 222.95125002 -211.79371361 222.35068687 -213.25 219.875 C-213.4975 219.25625 -213.745 218.6375 -214 218 C-212.96939453 216.87851562 -212.96939453 216.87851562 -211.91796875 215.734375 C-211.0077189 214.73966898 -210.09756787 213.74487252 -209.1875 212.75 C-208.73568359 212.25886719 -208.28386719 211.76773438 -207.81835938 211.26171875 C-205.37570851 208.5872835 -203.17986861 205.90649148 -201 203 C-210.405 204.98 -210.405 204.98 -220 207 C-219.44912716 200.48133812 -218.53808217 194.35740629 -217 188 C-221.455 192.455 -221.455 192.455 -226 197 C-228.31 195.02 -230.62 193.04 -233 191 C-231.16303762 187.32607523 -229.83953916 185.67099968 -226.9375 182.9375 C-222.60611733 178.85675792 -221.90448709 176.00757966 -221.45922852 170.13916016 C-221.36565567 168.93425934 -221.27208282 167.72935852 -221.17567444 166.48794556 C-221.07774094 165.18481415 -220.97980743 163.88168274 -220.87890625 162.5390625 C-220.77358178 161.18764981 -220.66769285 159.836281 -220.56126404 158.48495483 C-220.11025033 152.74871627 -219.66730581 147.01187938 -219.23217773 141.27441406 C-218.96546118 137.76261636 -218.6909752 134.25149534 -218.411726 130.74067307 C-218.25633449 128.75755188 -218.10973301 126.77374825 -217.96327209 124.78994751 C-217.86654709 123.57874237 -217.76982208 122.36753723 -217.67016602 121.11962891 C-217.58879898 120.05612213 -217.50743195 118.99261536 -217.42359924 117.8968811 C-214.97285272 101.13688588 -193.68754711 82.8480033 -180.83691406 73.17138672 C-164.14580263 61.3438134 -138.45708885 63.48897353 -119.08422852 64.03540039 C-114.24300091 64.1219438 -109.91194033 63.60704593 -105.21614075 62.44552612 C-101.99843445 61.79864834 -98.88515511 61.95382909 -95.61889648 62.02929688 C-88.83055628 62.11967517 -83.16670902 62.08545706 -77.8828125 57.45703125 C-75.49528203 55.05014242 -73.25689143 52.53025199 -71 50 C-69.24087696 48.48227486 -67.44924109 47.00130086 -65.625 45.5625 C-62.6316954 43.15930402 -59.67496773 40.73470495 -56.796875 38.1953125 C-49.96598531 32.17776515 -42.96546101 26.6894094 -35.47387695 21.51391602 C-30.40120378 18.00948355 -25.46465686 14.36349885 -20.5625 10.625 C-4.52919876 -1.50973292 -4.52919876 -1.50973292 0 0 Z " fill="#FFFFFF" transform="translate(239,7)"/>
</svg>
