<?xml version="1.0" encoding="UTF-8" standalone="no"?>
<!-- Created with Inkscape (http://www.inkscape.org/) -->

<svg
   version="1.1"
   id="svg1"
   width="100mm"
   height="43.220051mm"
   viewBox="0 0 377.95274 163.35137"
   sodipodi:docname="levy-dc-board.svg"
   xml:space="preserve"
   class="levy-dc-board"
   inkscape:version="1.4.2 (ebf0e940d0, 2025-05-08)"
   xmlns:inkscape="http://www.inkscape.org/namespaces/inkscape"
   xmlns:sodipodi="http://sodipodi.sourceforge.net/DTD/sodipodi-0.dtd"
   xmlns="http://www.w3.org/2000/svg"
   xmlns:svg="http://www.w3.org/2000/svg">
  <defs
   id="defs1" />
  <sodipodi:namedview
   id="namedview1"
   pagecolor="#ffffff"
   bordercolor="#000000"
   borderopacity="0.25"
   inkscape:showpageshadow="2"
   inkscape:pageopacity="0.0"
   inkscape:pagecheckerboard="0"
   inkscape:deskcolor="#d1d1d1"
   inkscape:zoom="1"
   inkscape:cx="183"
   inkscape:cy="228"
   inkscape:window-width="2226"
   inkscape:window-height="1179"
   inkscape:window-x="0"
   inkscape:window-y="0"
   inkscape:window-maximized="1"
   inkscape:current-layer="svg1"
   inkscape:document-units="mm" />
  <g
   id="layer1"
   inkscape:label="frame"
   style="display:inline"
   transform="matrix(0.37017511,0,0,0.37017511,-0.30655126,-3.8227856)">
    <path
   style="fill:#bababa;fill-opacity:1;stroke-width:0.132899"
   d="m 48.595603,294.76175 -0.779297,0.27344 -0.78125,0.27343 -0.74414,0.37305 -0.744141,0.37305 -0.332031,0.0976 -0.332032,0.0957 -0.673828,0.3125 -0.673828,0.31054 -0.861328,0.2168 -0.861328,0.2168 -0.492188,0.46289 -0.492187,0.46289 -0.07617,0.30469 -0.07617,0.30273 0.04297,0.51367 0.04492,0.51367 0.53125,0.375 0.53125,0.375 0.283203,0.19922 0.283203,0.20117 0.847656,0.13086 0.845704,0.13086 0.894531,0.46289 0.892578,0.46094 h 0.177734 0.177735 l 0.457031,0.34571 0.458984,0.3457 0.398438,0.18164 0.398437,0.17969 0.664063,-0.002 h 0.664062 l 0.498047,-0.17773 0.496094,-0.17578 0.357422,-0.25 0.355468,-0.24805 0.609376,-0.36523 0.609374,-0.36328 0.53125,-0.25586 0.53125,-0.25586 1.13086,-0.34766 1.128906,-0.34766 1.779297,-0.25586 1.78125,-0.25781 0.240234,-0.21679 0.240235,-0.21876 0.08594,-0.39257 0.08594,-0.39453 -0.226563,-0.25 -0.226562,-0.25 -0.75,-0.15625 -0.75,-0.15625 -0.929688,-0.16602 -0.93164,-0.16602 -1.294922,-0.34765 -1.294922,-0.34961 -1.164063,-0.61328 -1.164062,-0.61524 -0.175781,-0.14062 -0.175782,-0.14063 -0.755859,-0.30664 -0.753906,-0.30859 h -0.271485 z"
   id="path10" />
    <path
   style="fill:#bababa;fill-opacity:1;stroke-width:0.132899"
   d="m 594.98818,137.98636 c -1.26542,-0.005 -2.5308,0.006 -3.79492,0.0879 -0.8638,-0.002 -1.32146,0.0121 -1.95703,-0.0254 -0.17482,0.002 -0.35163,0.004 -0.5293,0.006 l 0.56055,1.14062 0.61914,1.25781 0.19336,1.39063 0.19336,1.39063 0.25781,0.36132 0.25781,0.36133 v 0.13477 0.13476 l 0.25196,0.58985 0.2539,0.58984 0.61719,0.1543 0.61914,0.15625 0.68945,-0.0781 0.69141,-0.0781 0.2832,-0.0566 0.28321,-0.0586 0.24804,-0.36523 0.25,-0.36719 z"
   id="path9" />
    <path
   style="fill:#bababa;fill-opacity:1;stroke-width:0.132899"
   d="m 577.78115,137.69144 c -1.2846,0.002 -2.56893,0.003 -3.85352,0.002 -0.10099,0.003 -0.20154,0.006 -0.30273,0.008 l -0.11719,0.83399 -0.13867,0.99804 -0.0781,0.59766 -0.0801,0.59766 0.44726,0.33007 0.44532,0.33008 0.93945,0.0469 0.93945,0.0488 0.91992,-0.44532 0.91993,-0.44336 0.55273,-0.57422 0.55273,-0.57421 0.55274,-1.07618 0.32617,-0.63671 c -0.005,-5e-4 -0.0102,-6.4e-4 -0.0156,-0.002 -0.17686,0.0122 -0.35455,0.0268 -0.53125,0.043 -0.49582,-4.2e-4 -0.99194,-0.0159 -1.47852,-0.084 z"
   id="path8" />
    <path
   style="fill:#bababa;fill-opacity:1;stroke-width:0.132899"
   d="m 550.70498,137.35355 c -0.92886,0.33216 -1.39952,0.14564 -2.43946,0.17773 -2.1367,0.0659 -5.07822,0.22675 -7.46679,0.35937 h -0.002 l -2.82032,2.8125 -1.25195,1.13477 -1.25195,1.13281 -0.52539,0.56836 -0.52539,0.57032 -0.41602,0.61523 -0.41602,0.61523 -0.26562,0.49414 -0.26563,0.49219 -1.06445,0.9336 -1.0625,0.93164 -0.44336,0.22656 -0.4414,0.22851 -0.38282,-0.0859 -0.38086,-0.084 -0.50586,-0.40234 -0.50586,-0.40234 -0.4746,-0.24219 -0.47266,-0.24414 -0.16602,-0.19727 -0.16406,-0.19922 -0.52539,-0.0879 -0.52344,-0.0898 -0.59765,0.28906 -0.59766,0.28906 -0.72656,0.875 -0.72461,0.87305 -0.0762,0.34766 -0.0762,0.34765 -0.39453,0.59375 -0.39453,0.59375 v 0.20313 0.20312 l -0.4668,0.97266 -0.46679,0.9707 -0.19336,0.9336 -0.19531,0.93359 -0.27735,0.46875 -0.27539,0.46875 -0.20898,1.00977 -0.20899,1.00976 -0.38281,0.81055 -0.38281,0.81054 v 0.54883 0.55078 l -0.40625,1.22266 -0.40625,1.2207 -0.24414,1.2168 -0.2461,1.2168 -0.26171,0.51953 -0.26368,0.51953 -0.16211,0.96484 -0.16015,0.96485 -0.32422,0.6289 -0.32617,0.62891 -0.19922,0.92773 -0.19922,0.92579 -0.33008,0.69726 -0.33008,0.69922 -0.18164,1.03906 -0.18164,1.04102 -0.33203,0.65625 -0.33008,0.65625 -0.0957,0.93164 -0.0957,0.92969 -0.32422,0.79492 -0.32227,0.79492 -0.32422,1.3125 -0.32226,1.31055 -0.25586,0.55078 -0.25586,0.55078 -0.15039,0.79687 -0.14844,0.79688 -0.32226,0.66406 -0.32227,0.66406 -0.14844,0.86329 -0.15039,0.86328 -0.375,0.79687 -0.375,0.79883 -0.0957,0.66406 -0.0937,0.66406 -0.38086,0.8711 -0.38086,0.87109 -0.2168,1.04883 -0.21679,1.04883 -0.32032,0.60351 -0.32226,0.60352 v 0.20508 0.20508 l -0.20313,0.79296 -0.20312,0.79102 -0.31836,0.66406 -0.31836,0.66406 -0.0801,0.36719 -0.0781,0.36524 -0.36719,0.41015 -0.36719,0.41016 -0.59375,0.14062 -0.59375,0.14063 -16.75195,0.0469 -16.75,0.0469 -14.95508,0.0469 -14.95703,0.0469 -0.73047,0.1582 -0.73242,0.16016 -0.79688,0.27539 -0.79687,0.27734 -5.51758,0.10938 -5.51758,0.11133 -51.19336,-0.008 -51.19531,-0.0117 -0.68555,0.40429 -0.68554,0.40235 -1.59571,1.08789 -1.59765,1.08593 -0.62891,0.67774 -0.62891,0.67773 -0.78515,0.63281 -0.78711,0.63477 -0.31641,0.0781 -0.31836,0.0801 -0.42578,-0.084 -0.42773,-0.084 -0.39844,-0.39257 -0.39844,-0.39258 -0.49219,-0.4082 -0.49023,-0.41016 -0.83789,-0.33399 -0.83984,-0.33398 -0.55274,-0.19141 -0.55273,-0.19335 -0.69141,-0.13086 -0.69336,-0.13086 -1.16406,-0.46485 -1.16406,-0.46679 h -0.17383 -0.17578 l -1.33789,-0.625 -1.33789,-0.62305 -0.44922,-0.30664 -0.45117,-0.30469 h -0.22657 -0.22851 l -0.85157,-0.44922 -0.84961,-0.44726 -0.79882,-0.22852 -0.79688,-0.22656 -0.39844,-0.24024 -0.39843,-0.24023 -1.13086,-0.28125 -1.13086,-0.28125 -0.66406,-0.32617 -0.66407,-0.32617 -0.26953,-0.0117 -0.26953,-0.01 -0.79492,-0.41406 -0.79297,-0.41211 -0.85547,-0.26367 -0.85547,-0.26563 -0.27539,-0.17578 -0.27344,-0.17578 -0.75195,-0.21484 -0.75,-0.2168 -0.6582,-0.31641 -0.65625,-0.3164 -0.78516,-0.22266 -0.78711,-0.22266 -0.69531,-0.38476 -0.69531,-0.38477 h -0.17578 -0.17579 l -0.59374,-0.37695 -0.59376,-0.37695 -0.99414,-0.29688 -0.99414,-0.29883 -0.28515,-0.18359 -0.28711,-0.18359 -1.17578,-0.28711 -1.17578,-0.28711 -0.47852,-0.24219 -0.47852,-0.24219 -0.91406,-0.21094 -0.91406,-0.21289 -0.40234,-0.20703 -0.40235,-0.20898 -0.90039,-0.37891 -0.90039,-0.3789 -0.20312,-0.20118 -0.20118,-0.20117 -0.56054,-0.14258 -0.5586,-0.14062 -0.79687,-0.37695 -0.79883,-0.37696 -0.79297,-0.22851 -0.79297,-0.22852 L 268.9668,189 l -0.48047,-0.24414 -0.8086,-0.27148 -0.80859,-0.27344 -0.63086,-0.33399 -0.63086,-0.33398 h -0.19531 -0.19727 l -0.81445,-0.39258 -0.8125,-0.39258 -0.93164,-0.32031 -0.92969,-0.31836 -0.66601,-0.28125 -0.66407,-0.28125 -0.86328,-0.34961 -0.86523,-0.34765 -0.83594,-0.2461 -0.83789,-0.24609 -0.85742,-0.40625 -0.85938,-0.4043 h -0.17968 -0.18164 l -0.78125,-0.41797 -0.78321,-0.41797 -0.77539,-0.18164 -0.77539,-0.17968 -0.6875,-0.31446 -0.6875,-0.3125 -0.79687,-0.22851 -0.79883,-0.22657 -0.40625,-0.23632 -0.40625,-0.23633 -0.72461,-0.16797 -0.72266,-0.16797 -0.86328,-0.44336 -0.86523,-0.44141 -0.92969,-0.44921 -0.93164,-0.45118 -0.86328,-0.21093 -0.86328,-0.21289 -0.61524,-0.13868 -0.61328,-0.13867 -0.98047,-0.0781 -0.98242,-0.0762 -0.66406,-0.082 -0.66602,-0.082 -69.26172,-0.0293 -69.261716,-0.0274 -2.261718,-0.0859 -2.259766,-0.0859 -1.861328,-0.13477 -1.861328,-0.13672 -1.195313,-0.3164 -1.197265,-0.31641 -0.28125,-0.10937 -0.279297,-0.10743 -0.658203,-0.73047 -0.65625,-0.73046 -0.648438,-0.86329 -0.648437,-0.86328 -0.458985,-0.53125 -0.457031,-0.5332 -0.947266,-1.05078 -0.947265,-1.05078 -0.53125,-0.54297 -0.533203,-0.54297 -1.773438,-1.85547 -1.773437,-1.85547 -0.390625,-0.73633 -0.390625,-0.73437 -0.326172,-0.46484 -0.324219,-0.46485 -0.501953,-0.49805 -0.5,-0.49609 -0.398438,-0.0664 -0.40039,-0.0664 -4.1875,-0.0625 -4.1875,-0.0644 -5.783203,-0.0723 -5.78125,-0.0723 -2.794922,-0.0684 -2.794922,-0.0684 -0.240235,0.17578 -0.242187,0.17578 -0.0625,13.11523 -0.06445,13.11524 -0.169922,0.49609 -0.169922,0.49609 -0.412109,0.28125 -0.414063,0.2793 -1.189453,0.21875 -1.189453,0.2168 H 43.140625 42.21875 l -1.451172,-0.20117 -1.453125,-0.20118 -0.796875,-0.32617 -0.798828,-0.32617 -0.855469,-0.21289 -0.855469,-0.21484 -0.482421,-0.2461 -0.484375,-0.24609 -0.853516,-0.2832 -0.855469,-0.28516 -0.429687,-0.25 -0.429688,-0.25195 -0.566406,-0.15039 -0.568359,-0.1504 -0.730469,-0.33593 -0.732422,-0.33594 -0.796875,-0.23633 -0.796875,-0.23633 -0.742188,-0.33398 -0.742187,-0.33399 -0.654297,-0.0898 -0.654297,-0.0879 -0.597656,-0.20117 -0.597656,-0.20117 -0.332031,-0.17383 -0.333985,-0.17383 -0.664062,-0.0977 -0.664063,-0.0976 -0.732422,-0.25586 -0.730468,-0.25586 -0.796876,-0.17969 -0.798828,-0.18164 -2.591796,-0.0898 -2.591797,-0.0879 -1.386719,0.14648 -1.384766,0.14649 -0.570312,0.33398 -0.572266,0.33398 -0.5683592,0.60547 -0.5703126,0.60547 -0.1835937,0.35547 -0.1835937,0.35352 -0.9453126,1.06054 -0.9472656,1.0586 -1.5292968,1.5332 -1.5292969,1.5332 -0.8769531,0.9961 -0.8769532,0.99414 -0.1953125,0.39844 -0.1953125,0.39843 -0.1777344,0.56446 -0.1796874,0.56445 H 1.0058594 0.828125 v 52.41211 52.41015 h 0.1894531 0.1894531 l 1.0410157,0.55664 1.0410156,0.55665 0.4550781,0.33984 0.4570313,0.3418 1.5488281,1.52734 1.5488281,1.52734 0.7871094,0.75977 0.7851563,0.75976 0.171875,0.16993 0.1699218,0.17187 0.6640625,0.66406 0.6660159,0.66407 0.560547,1.0625 0.560546,1.0625 0.06641,36.4082 0.06445,36.4082 0.71289,0.81836 0.712891,0.81836 0.130859,0.0449 0.13086,0.043 0.449219,0.39453 0.451171,0.39453 1.199219,1.16797 1.199219,1.16797 v 0.0937 0.0937 l 0.828125,0.75977 0.828125,0.75976 0.507812,0.46094 0.509766,0.46094 0.421875,0.0918 0.421875,0.0918 0.798828,0.41406 0.796875,0.41211 3.617188,0.0469 3.617187,0.0449 0.914063,-0.14258 0.912109,-0.14062 1.785156,-0.55274 1.783204,-0.55468 0.265624,-0.16993 0.265626,-0.16992 0.865234,-0.21875 0.863281,-0.2207 0.865235,-0.37305 0.863281,-0.37304 0.464843,-0.0977 0.466797,-0.0977 0.892579,-0.44726 0.894531,-0.44922 h 0.214843 0.216797 l 0.951172,-0.44922 0.951172,-0.44922 0.464844,-0.0937 0.464844,-0.0957 0.90625,-0.31836 0.904297,-0.32031 h 0.513671 0.515625 l 0.203125,0.20312 0.205079,0.20313 0.126953,0.46289 0.126953,0.46289 -0.154297,0.89453 -0.15625,0.89453 0.03906,13.41797 0.03906,13.41992 0.06641,0.21875 0.06641,0.2207 0.425782,0.20118 0.427734,0.20117 1.064453,0.006 1.0625,0.008 10.195313,-0.0508 10.193359,-0.0527 0.943359,-0.14648 0.94336,-0.14649 0.828125,-0.55859 0.826172,-0.55859 0.947265,-0.9336 0.949219,-0.93359 1.910156,-2.19531 1.910157,-2.19336 0.664062,-0.84766 0.664062,-0.84765 0.423829,-0.47852 0.421875,-0.48047 0.90625,-1.08398 0.908203,-1.08594 0.658203,-0.79297 0.658203,-0.79297 0.605469,-0.40234 0.603515,-0.4043 2.701172,-0.13476 2.701172,-0.13282 1.220703,-0.61328 1.220703,-0.61133 0.433594,-0.3164 0.435547,-0.31446 0.894531,-0.14453 0.894531,-0.14453 93.923825,-0.041 93.92188,-0.0391 0.99804,-0.0859 0.9961,-0.084 3.71484,-0.0801 3.71289,-0.082 0.0957,-0.0586 0.0957,-0.0586 1.79687,-0.008 1.79688,-0.008 0.41015,0.21094 0.41211,0.21289 0.39649,0.70508 0.39843,0.70507 0.69727,0.34961 0.69727,0.34961 1.79492,0.14453 1.79492,0.14454 h 23.39844 23.39648 l 1.25195,-0.14454 1.25,-0.14648 0.52149,-0.38477 0.52148,-0.38281 0.46289,-0.53906 0.46289,-0.54102 0.53711,-0.14453 0.53711,-0.14453 0.21875,0.084 0.21875,0.0859 1.46289,0.11914 1.46289,0.11914 28.60938,0.0117 28.61133,0.01 0.57031,-0.16992 0.57031,-0.16993 1.53907,-1.52929 1.54101,-1.53125 0.37305,-0.59766 0.375,-0.59765 0.3457,-0.41602 0.3457,-0.41602 0.46485,-0.57421 0.46679,-0.57422 0.4043,-0.47266 0.40625,-0.4707 0.45703,-0.58789 0.45899,-0.58789 0.33398,-0.55274 0.33203,-0.55469 0.26563,-0.43554 0.26562,-0.43555 0.49805,-0.64453 0.49805,-0.64453 v -0.125 -0.12696 l 0.5664,-0.48632 0.56446,-0.48633 0.5625,-0.33203 0.5625,-0.33203 1.23242,-0.17579 1.23242,-0.17382 1.66211,-0.30274 1.66016,-0.30273 0.50195,0.0976 0.50195,0.0957 0.45313,0.39843 0.45507,0.39844 0.24024,0.69141 0.24219,0.68945 -0.0352,3.58789 -0.0332,3.58789 0.21289,1.79297 0.21484,1.79297 0.0859,0.73047 0.0879,0.72851 0.33203,0.13477 0.33203,0.13477 49.67969,-0.0664 49.67969,-0.0664 0.17383,-0.17382 0.17187,-0.17383 v -6.73438 -6.73633 l 0.15234,-0.35156 0.15235,-0.35156 0.10742,-0.0664 0.10742,-0.0664 27.85156,-0.0469 27.85157,-0.0469 0.27539,0.1582 0.27539,0.1582 0.15625,0.52149 0.15625,0.52148 v 7.89844 7.89648 l 0.16797,0.22071 0.16601,0.21875 0.92969,0.14648 0.93164,0.14453 4.38672,-0.0293 4.38672,-0.0312 0.30078,0.12695 0.30273,0.125 0.94727,0.85937 0.94726,0.86133 0.55274,0.53125 0.55078,0.53125 1.04102,0.73047 1.03906,0.73047 0.66015,0.59766 0.65821,0.59765 0.6875,0.42969 0.6875,0.42969 0.29687,0.13086 0.29688,0.13086 13.66211,-0.0391 13.66211,-0.0371 0.87109,-0.15234 0.87109,-0.15234 0.65821,-0.28711 0.65625,-0.28711 0.90625,-0.74805 0.90625,-0.74609 0.4375,-0.33203 0.4375,-0.33204 0.91797,-0.74609 0.91601,-0.74609 1.19141,-1.06836 1.1914,-1.07031 0.83594,-0.3418 0.83399,-0.34375 0.94921,-0.14649 0.94922,-0.14648 18.95899,0.0703 18.96093,0.0723 0.43555,0.13281 0.4375,0.13281 0.44336,0.27344 0.44336,0.27539 0.084,0.41406 0.082,0.41407 v 6.85937 5.11914 c 9.16241,0.56819 14.78538,0.85332 21.03515,1.35547 l -0.043,-0.92383 0.30079,-0.20898 0.29882,-0.21094 0.88282,0.0684 0.88086,0.0703 0.28124,0.17774 0.28126,0.17773 0.084,0.42383 0.0859,0.42383 v 0.25976 c 2.15655,0.1923 4.45315,0.41661 7.03711,0.69141 l 0.3789,-0.50781 0.50391,-0.67774 0.17383,-0.46484 0.17578,-0.46485 0.0684,-0.29882 0.0684,-0.29883 -0.23438,-1.0293 -0.23242,-1.0293 -0.27539,-0.41992 -0.27344,-0.41992 -0.33984,-0.19922 -0.33789,-0.19922 -1.42383,-0.54101 -1.42383,-0.54102 -0.57031,-0.084 -0.57031,-0.084 -0.73047,-0.20117 -0.73242,-0.19922 -0.13282,-0.10351 -0.13281,-0.10157 -0.73047,-0.14453 -0.73242,-0.14648 -0.73047,-0.14063 -0.73047,-0.13867 -0.5332,-0.25 -0.53125,-0.25195 -1.39453,-0.3086 -1.39649,-0.30859 -3.46679,0.0469 -3.46485,0.0469 -0.21875,-0.2168 -0.21679,-0.21875 0.0762,-0.19335 0.0762,-0.19922 0.45117,-0.45118 0.44922,-0.44921 v -0.77539 -0.7793 l 0.0391,-5.58008 0.0371,-5.57812 0.42188,-1.25391 0.42187,-1.25 v -0.41406 -0.41211 l -0.20703,-0.29492 -0.20703,-0.29688 h -0.62305 -0.625 l -1.0625,0.22266 -1.06445,0.2207 -25.5918,0.0527 -25.58984,0.0508 -4.45313,-0.1504 -4.45507,-0.15039 -0.86328,-0.13281 -0.86524,-0.13086 -0.79687,-0.0703 -0.79688,-0.0723 -0.26562,0.20118 -0.26758,0.20117 0.0176,0.92187 0.0195,0.92188 0.4707,1.04883 0.46875,1.04687 0.0937,1.09375 0.0957,1.0957 -0.17578,0.20899 -0.17383,0.21094 -0.51562,0.26367 -0.51563,0.26172 -1.7539,-0.0508 -1.75196,-0.0527 -6.51562,-0.15625 -6.51367,-0.1582 -2.67383,-0.125 -2.67383,-0.125 -0.5293,-0.21094 -0.52929,-0.21289 -0.3086,-0.41602 -0.30859,-0.41797 -0.11328,-2.13085 -0.11328,-2.13672 -0.0488,-0.13867 -0.0508,-0.14454 -0.5293,-0.15625 -0.52734,-0.1582 h -0.64844 -0.65039 l -1.92773,0.25 -1.92774,0.25 -0.62695,-0.26562 -0.62891,-0.26954 -0.23633,-0.36718 -0.23633,-0.36914 -0.35742,-0.51368 -0.35742,-0.51562 -0.26367,-1.0625 -0.26172,-1.0625 -0.0781,-2.18945 -0.0762,-2.19532 -0.15039,-3.12109 -0.14843,-3.12109 0.0664,-1.49414 0.0664,-1.49219 -0.15039,-0.11719 -0.14844,-0.11523 -0.66406,-0.14453 -0.66407,-0.14258 -6.31445,-0.0879 -6.3164,-0.0879 -29.33008,-0.041 -29.33008,-0.0391 -2.17578,-0.0781 -2.17774,-0.0801 -1.86523,-0.082 -1.86719,-0.0801 -0.16992,0.20704 -0.17187,0.20703 0.15624,2.56445 0.15626,2.56445 -0.0527,2.99024 -0.0527,2.98828 -0.4336,1.26562 -0.43164,1.26563 -0.10547,0.17187 -0.10742,0.17383 -0.51758,0.14649 -0.51953,0.14648 -36.55859,0.0274 -36.5586,0.0273 -0.50586,-0.0664 -0.50781,-0.0645 -0.13672,-0.35156 -0.13671,-0.35352 -0.11133,-1.59375 -0.11328,-1.59375 -0.21875,-3.12305 -0.22071,-3.12109 0.0703,-1.26172 0.0684,-1.26367 0.0859,-0.34766 0.0879,-0.34961 -0.17773,-0.14648 -0.17774,-0.14648 -0.46679,-0.40625 -0.46485,-0.40821 -0.26562,0.10547 -0.26563,0.10547 h -10.03711 -10.03711 l -1.14257,0.29102 -1.14063,0.29101 -1.38476,0.55274 -1.38477,0.55468 -0.73047,0.40235 -0.73242,0.40429 -0.44336,0.41211 -0.44727,0.41211 -0.61718,0.79492 -0.61914,0.79297 -0.36133,0.66797 -0.36133,0.66797 -0.38477,0.79688 -0.38476,0.79687 -0.2832,0.25391 -0.28516,0.25195 v 0.17187 0.17188 l -1.52734,1.73047 -1.5293,1.72851 v 0.25196 0.25195 l -0.24805,0.31836 -0.24804,0.31641 -0.35938,0.53125 -0.35938,0.53125 -0.62304,0.21093 -0.6211,0.21289 -0.40039,-0.10937 -0.39843,-0.10742 -1.66211,-0.12305 -1.66016,-0.12109 -28.23437,-0.0215 -28.23438,-0.0195 -0.94726,-0.12305 -0.94532,-0.12304 -0.63476,-0.006 -0.63477,-0.0117 -0.59765,0.55078 -0.59571,0.54883 -0.27929,0.91406 -0.27735,0.91406 -0.21875,0.11133 -0.21875,0.11133 -0.46484,0.0898 -0.4668,0.0899 -10.03516,0.0508 -10.03711,0.0488 -3.125,-0.11328 -3.125,-0.11133 -1.7871,-0.21289 -1.78907,-0.21094 -1.00195,-0.20703 -1.00195,-0.20703 -0.13477,-0.0801 -0.13281,-0.082 -0.77344,-0.60547 -0.77344,-0.60352 -0.29101,-0.23047 -0.28906,-0.23242 -1.26368,-0.12109 -1.26367,-0.12305 -108.34765,0.0234 -108.345705,0.0215 -0.466796,0.21289 -0.464844,0.21485 -0.816406,0.73242 -0.816407,0.73242 -1.076171,0.41016 -1.076172,0.41015 -1.166016,0.0859 -1.164062,0.0879 -1.220704,-0.15039 -1.220703,-0.15039 -0.574219,0.19141 -0.574218,0.1914 -0.595703,0.15625 -0.595703,0.15625 -0.416016,0.35157 -0.414063,0.35156 -0.251953,0.22656 -0.251953,0.22852 -0.464844,0.60937 -0.464843,0.61133 -1.152344,1.28711 -1.150391,1.28906 -0.685547,0.59766 -0.683593,0.59765 -0.689453,0.68946 -0.691407,0.6875 -0.355469,0.44726 -0.355468,0.44727 -0.337891,0.76367 -0.337891,0.76367 -0.25,0.35938 -0.251953,0.35937 -0.09375,0.38477 -0.09375,0.38672 -0.472656,0.57617 -0.472656,0.57617 L 69.875,402 l -0.714844,0.4082 -0.898437,0.31055 -0.898438,0.30859 -0.826172,0.34961 -0.826171,0.34961 -1.244141,0.082 -1.242188,0.0801 -0.478515,-0.15625 -0.476563,-0.1582 -0.609375,-0.65039 -0.609375,-0.65235 -0.1875,-0.4375 -0.185547,-0.43945 -0.154296,-0.33203 -0.154297,-0.33203 -0.316407,-0.59766 -0.318359,-0.59765 -0.01367,-11.32227 -0.01172,-11.32227 0.34375,-1.0332 0.34375,-1.0332 0.07227,-0.81641 0.07031,-0.8164 -0.30664,-0.16407 -0.304688,-0.16406 -0.83789,0.0781 -0.837891,0.0781 -0.966797,0.39258 -0.966797,0.39453 -1.142578,0.1543 -1.142578,0.15429 L 53.513672,373.875 53,373.63281 l -0.230469,-0.75976 -0.230469,-0.75782 -0.505859,-0.53711 -0.505859,-0.5371 h -0.285156 -0.285157 l -1.599609,0.53515 -1.597656,0.53321 -0.708985,0.31054 -0.707031,0.3086 -0.400391,0.0879 -0.398437,0.0859 -1.728516,0.54688 -1.728515,0.54492 -0.929688,0.38477 -0.929687,0.38281 h -0.109375 -0.109375 l -1.353516,0.51953 -1.353516,0.51758 -1.46289,0.47461 -1.460938,0.47265 -0.798828,0.12696 -0.796875,0.1289 -0.921875,0.34961 -0.921875,0.34961 -1.005859,0.20508 -1.00586,0.20703 -0.162109,0.13086 -0.162109,0.13086 -0.439454,0.0137 -0.4375,0.0117 -0.794921,-0.31641 -0.794922,-0.31836 -0.472657,-0.43945 -0.470703,-0.4375 h -0.15039 -0.152344 l -0.486328,-0.59375 -0.486328,-0.59375 -0.05273,-0.50195 -0.05273,-0.50391 -0.04492,-39.73242 -0.04492,-39.73242 -0.105468,-0.16797 -0.105469,-0.16992 -0.283203,0.084 -0.285157,0.084 -1.527343,0.18359 -1.529297,0.18359 -1.75586,0.15821 -1.753906,0.1582 -0.949219,-0.0527 -0.947265,-0.0547 -0.25,-0.32617 -0.248047,-0.32813 -0.04492,-5.71289 -0.04297,-5.71289 -0.02539,-41.65039 -0.02539,-41.65039 0.117188,-0.80664 0.115234,-0.8086 0.427734,-0.9121 0.425782,-0.91211 0.613281,-0.70899 0.613281,-0.70898 0.568359,-0.33203 0.566407,-0.33399 0.849609,-0.0781 0.847656,-0.0801 0.621094,0.0937 0.621094,0.0937 0.443359,0.38867 0.44336,0.38867 h 0.09961 0.09961 l 0.50586,0.45899 0.505859,0.45703 0.507813,0.0918 0.505859,0.0918 1.201172,0.43164 1.199219,0.42969 0.964843,0.0977 0.966797,0.0957 0.625,0.31836 0.626953,0.3164 0.908203,0.22071 0.908204,0.2207 0.552734,0.375 0.554687,0.37695 h 0.207032 0.207031 l 0.658203,0.41993 0.65625,0.41992 0.798828,0.29687 0.796875,0.29883 0.730469,0.26367 0.732422,0.26563 1.089843,0.14062 1.091797,0.14063 0.53711,0.25976 0.535156,0.25782 0.699219,0.16211 0.699218,0.16211 0.56836,0.17578 0.570312,0.17773 0.394532,0.30469 0.396484,0.30469 0.542969,0.43359 0.542969,0.43164 h 0.453124 0.453126 l 0.96289,-0.90625 0.964844,-0.9043 0.53125,-0.30664 0.53125,-0.30664 0.583984,-0.17578 0.583985,-0.17578 4.601562,-0.082 4.601563,-0.084 0.439453,-0.13671 0.439453,-0.13672 0.128906,-0.33399 0.126953,-0.33398 -0.01367,-12.78125 -0.01172,-12.7793 0.132812,-0.35352 0.134766,-0.35156 0.570312,-0.30078 0.570313,-0.29883 3.003906,-0.008 3.003906,-0.006 0.785156,0.55078 0.785157,0.55078 0.529297,0.44532 0.53125,0.44531 3.378906,3.38672 3.378906,3.38867 1.076172,1.13086 1.076172,1.1289 0.464844,0.58008 0.464843,0.58008 0.347657,0.41602 0.347656,0.41601 0.234375,0.46485 0.236328,0.46484 0.46875,0.53125 0.46875,0.53125 0.515625,0.35547 0.515625,0.35547 0.826172,0.0742 0.824219,0.0742 3.191406,0.0742 3.191406,0.0742 1.128906,0.125 1.13086,0.12696 1.050781,0.13281 1.050781,0.13476 66.816407,0.0215 66.81446,0.0234 4.45312,0.10351 4.45508,0.10547 1.0918,0.12109 1.09375,0.12305 0.91406,0.81055 0.91406,0.80859 0.36133,0.13867 0.36133,0.13672 h 0.35547 0.35742 l 0.93164,0.3418 0.92969,0.34375 1.26367,0.25 1.26172,0.25 0.66601,0.33203 0.66406,0.33398 0.79102,0.14649 0.79297,0.14453 0.73633,0.37109 0.73828,0.3711 0.55469,0.0918 0.55468,0.0937 0.59766,0.37891 0.59766,0.37891 0.64257,0.0898 0.64063,0.0879 0.86523,0.4336 0.86328,0.43359 0.79883,0.0898 0.79688,0.0879 0.79687,0.38282 0.79883,0.38281 0.48242,0.0898 0.48047,0.0899 0.33203,0.2207 0.33399,0.2207 0.38086,0.25781 0.38281,0.25586 0.7793,0.50782 0.77929,0.50781 h 0.1875 0.18555 l 0.69531,0.45117 0.69727,0.45117 0.52344,0.0898 0.52539,0.0918 0.73828,0.38086 0.73828,0.38282 0.64258,0.14062 0.64257,0.14258 0.54688,0.2793 0.54687,0.27929 1.07032,0.25391 1.07031,0.2539 0.46484,0.3086 0.4668,0.30664 0.81836,0.14453 0.82031,0.14258 0.53125,0.33594 0.53125,0.33593 0.89063,0.20508 0.89062,0.20703 0.35352,0.25196 0.35351,0.25195 0.72852,0.23437 0.72851,0.23633 0.59766,0.36133 0.59961,0.35937 0.45508,0.0977 0.45508,0.0957 0.60742,0.36524 0.60937,0.36523 0.84961,0.16016 0.84961,0.16211 0.52735,0.33203 0.52734,0.33398 0.75,0.19336 0.75,0.19336 0.46484,0.30078 0.46485,0.29883 0.59765,0.17578 0.59961,0.17383 0.73047,0.36719 0.73047,0.36719 0.4668,0.0937 0.46484,0.0957 0.67774,0.37695 0.67578,0.375 0.77148,0.14258 0.76953,0.14063 0.57422,0.32226 0.57422,0.32031 0.57031,0.084 0.57031,0.0859 0.66602,0.14648 0.66406,0.14453 0.59961,0.31055 0.60156,0.31055 0.72071,0.13671 0.72265,0.13672 0.80469,0.38477 0.80469,0.38476 0.33203,0.0957 0.33398,0.0957 0.79688,0.43359 0.79687,0.43555 0.33399,0.0996 0.33203,0.0977 0.55469,0.38086 0.55664,0.3789 h 0.10156 0.10156 l 0.9375,0.55469 0.93946,0.55273 0.66406,0.42969 0.66406,0.42969 0.34961,0.17969 0.34766,0.17968 0.58203,0.33204 0.58203,0.33203 4.32226,0.0449 4.32032,0.0449 1.08398,-0.0898 1.08594,-0.0879 0.70508,-0.45508 0.70508,-0.45313 h 0.22851 0.22852 l 0.64062,-0.55273 0.63867,-0.55078 0.45118,-0.66602 0.44921,-0.66406 0.28516,-0.67774 0.2832,-0.67578 0.42774,-0.67578 0.42578,-0.67383 0.3418,-0.15625 0.33984,-0.15429 h 0.23828 0.23828 l 1.05274,0.29883 1.05078,0.29882 h 37.35742 37.35156 l 0.9961,0.50782 0.99804,0.50976 0.44336,0.41992 0.44336,0.42188 0.78516,1.17187 0.78711,1.17188 v 0.0918 0.0937 l 0.63281,0.6914 0.63281,0.69141 0.79688,0.27929 0.79687,0.27735 0.53907,-0.0684 0.54101,-0.0703 0.61523,-0.26368 0.61719,-0.26367 0.36133,-0.57226 0.36133,-0.57227 0.0781,-2.02148 0.0781,-2.02149 0.23242,-0.23437 0.23438,-0.23242 h 12.99414 12.99414 l 0.43164,0.18164 0.43164,0.18359 v 0.082 0.084 l -0.42969,0.19921 -0.42773,0.19922 -0.041,0.28321 -0.041,0.28125 0.22461,0.0859 0.22657,0.0859 0.29297,-0.1914 0.29296,-0.19336 0.21094,-0.44141 0.20899,-0.44141 0.74218,-0.64062 0.74219,-0.63867 1.60156,-0.0996 1.60157,-0.10157 30.46875,0.0117 30.4707,0.0117 2.23828,-0.0703 2.24023,-0.0684 0.32422,-0.39648 0.32422,-0.39844 0.52735,-1.06836 0.52734,-1.06641 v -0.29101 -0.28907 l 0.21484,-0.50195 0.2168,-0.5039 0.23828,-0.53125 0.24024,-0.53125 0.13281,-0.73438 0.13281,-0.73437 0.33789,-0.89844 0.33985,-0.89844 0.082,-0.69336 0.082,-0.6914 0.20898,-0.79688 0.20703,-0.79688 0.0996,-0.13281 0.10157,-0.13281 0.34375,-1.22266 0.34375,-1.22265 0.33203,-0.62305 0.33203,-0.625 v -0.29492 -0.29688 l 0.27344,-0.64648 0.27148,-0.64844 0.18164,-0.33203 0.17969,-0.33203 0.13281,-0.66406 0.13281,-0.66407 0.34961,-0.93164 0.35156,-0.92968 0.17774,-1.19532 0.17773,-1.19531 0.21289,-0.73047 0.21094,-0.73047 0.20899,-0.93164 0.20898,-0.92968 0.38672,-1.19532 0.38867,-1.19531 0.20508,-1.00977 0.20508,-1.00976 0.32812,-0.80664 0.32813,-0.80664 0.0801,-0.57422 0.0801,-0.57617 0.20313,-0.53125 0.20312,-0.53125 0.1875,-0.44141 0.18946,-0.43945 0.14453,-1.02149 0.14453,-1.02148 0.33008,-0.92969 0.32812,-0.92969 0.13086,-0.59765 0.13281,-0.59766 0.19336,-0.61133 0.19336,-0.60937 0.26172,-0.51367 0.26172,-0.51368 v -0.30078 -0.29882 l 0.2168,-0.50196 0.21679,-0.5039 0.25,-0.54688 0.25,-0.54883 0.11915,-0.58007 0.11914,-0.58204 0.28906,-0.73046 0.29101,-0.73047 0.11133,-0.39844 0.11133,-0.40039 0.14063,-0.69141 0.13867,-0.69336 0.53515,-1.13086 0.53516,-1.13281 0.3418,-0.0859 0.34179,-0.084 0.95508,0.0625 0.95313,0.0644 0.59961,0.27735 0.59765,0.27539 0.53125,0.14062 0.53125,0.14063 h 1.55664 1.55469 l 0.69141,-0.14649 0.68945,-0.14844 0.8125,-0.52343 0.81055,-0.52344 0.4082,-0.51172 0.40625,-0.50976 0.32031,-0.94336 0.32031,-0.94141 -0.17773,-0.43359 -0.17773,-0.43164 -0.33008,-1.06446 -0.33203,-1.0625 -0.13086,-0.48633 -0.13282,-0.48437 0.36133,-0.80469 0.36133,-0.80469 0.34961,-0.22656 0.34961,-0.22461 0.11133,-0.1875 0.11133,-0.1875 0.38476,-0.23242 0.38281,-0.23242 1.14063,-1.08203 1.14062,-1.08203 0.96289,-0.78125 0.96485,-0.78125 0.39258,-0.24805 0.39062,-0.2461 0.36133,-0.29296 0.36133,-0.29102 0.9375,-0.1582 0.93945,-0.15821 0.69531,0.16407 0.69336,0.16211 0.63672,0.24804 0.63672,0.24805 h 0.28125 0.28125 l 0.44727,-0.33984 0.44726,-0.3418 0.32031,-0.62305 0.32227,-0.62109 0.4707,-0.72266 0.47266,-0.72265 0.63476,-0.47461 0.63282,-0.47461 0.39843,-0.24805 0.4004,-0.25 0.37695,-0.34766 0.3789,-0.34765 0.32813,-0.64453 0.32812,-0.64453 0.0664,-0.82032 c -1.47705,0.0156 -2.9531,0.0418 -4.42969,0.084 -0.0794,-0.007 -0.1589,-0.0141 -0.23828,-0.0215 -0.77232,0.007 -1.53905,-0.0145 -2.3164,-0.0976 -0.3775,-0.0404 -0.7515,-0.0961 -1.12696,-0.15235 -0.23303,-0.0349 -0.46206,-0.10689 -0.69726,-0.12109 -0.21742,-0.0131 -0.43495,0.0277 -0.65235,0.041 -0.94386,0.0533 -1.85288,0.0181 -2.79687,-0.0684 z"
   id="path7" />
    <path
   style="fill:#bababa;fill-opacity:1;stroke-width:0.132899"
   d="m 792.20888,104.70706 c -4.22907,0.60854 -8.49398,1.15993 -12.75,1.32031 v 0.81836 l 0.1211,0.51368 0.12109,0.51562 0.4336,0.44727 0.43554,0.44726 0.27344,0.082 0.27344,0.082 0.6289,0.39649 0.62696,0.39453 0.76953,0.19727 0.76758,0.19921 0.43359,0.25196 0.43555,0.25195 0.72461,0.21094 0.72656,0.21094 0.7168,0.68945 0.71875,0.68945 0.0586,0.19531 0.0606,0.19727 h 0.53711 0.53711 l 0.44921,-0.36524 0.44922,-0.36328 0.72852,-0.48046 0.72851,-0.48047 0.73243,-0.25196 0.73242,-0.25195 0.5332,-0.35547 0.5332,-0.35547 0.36719,-0.33008 0.36524,-0.33007 v -1.56446 -1.56445 l -0.16602,-0.13672 -0.16602,-0.13476 -0.4082,-0.32618 -0.40625,-0.32422 -0.74609,-0.33007 -0.375,-0.16602 z"
   id="path6" />
    <path
   style="fill:#bababa;fill-opacity:1;stroke-width:0.132899"
   d="m 819.45888,102.85355 c -2.84309,-0.0178 -5.68689,-0.0278 -8.52929,0.0254 -1.75292,0.0328 -3.21249,0.0964 -4.56836,0.18554 l 0.008,2.28907 -0.52539,0.45703 -0.52734,0.45898 -0.81446,0.39258 -0.81445,0.39258 -0.22461,0.24804 -0.22461,0.2461 0.14649,0.54492 0.14648,0.54492 h 0.0508 0.0508 l 0.8418,0.21094 0.8418,0.21094 0.95898,0.47461 0.95703,0.47265 0.13867,0.39844 0.13868,0.39844 v 0.67773 0.67774 l -0.12696,0.98046 -0.12695,0.98243 -0.33594,0.73047 -0.33594,0.73242 -0.0781,0.49414 -0.0781,0.49414 0.14454,0.27148 0.14453,0.26953 0.61132,0.29688 0.61133,0.29492 4.8086,0.10156 4.80859,0.0996 0.26563,0.10742 0.26562,0.10743 0.62695,0.44922 0.62696,0.44726 0.40429,0.70508 0.40235,0.70508 v 0.62695 0.62695 l -0.21094,0.72461 -0.21094,0.72461 -0.1875,0.35938 -0.1875,0.35937 v 0.11133 0.11328 l -0.47851,0.77735 -0.48047,0.77539 0.0508,1.07812 0.0488,1.07617 0.53125,0.44532 0.52929,0.44726 0.53125,0.16016 0.53321,0.16015 0.65429,0.33203 0.65625,0.33008 0.54102,0.19141 0.54102,0.18945 0.48046,0.33399 0.48243,0.33203 0.91406,0.14062 0.91406,0.14258 0.375,0.19336 0.37695,0.19336 0.42188,-0.0898 0.42187,-0.0898 0.22461,-0.19726 0.22461,-0.19922 0.12305,0.0781 0.125,0.0762 -0.11328,0.61133 -0.11524,0.61133 -0.23437,0.68555 -0.23438,0.6875 -0.0137,7.375 -0.0117,7.37305 -0.0254,0.37109 -0.0234,0.37305 -0.47461,0.19726 -0.47461,0.19922 -1.48633,0.10742 -1.48633,0.10742 -1.86133,0.0273 -1.86133,0.0254 -0.19726,0.19531 -0.19727,0.19531 0.0156,17.39649 0.0176,17.39843 -0.17383,0.14454 -0.17383,0.14257 -1.24023,0.125 -1.24024,0.12305 -6.87305,0.0352 -6.87304,0.0352 -0.17383,0.17188 -0.17188,0.17383 -0.0566,5.67187 -0.0547,5.67383 -0.0137,1.95508 -0.0117,1.95508 0.20898,0.20898 0.20898,0.20898 11.95508,0.0703 11.95508,0.0703 2.08789,-0.12109 2.08984,-0.1211 0.91602,-0.65234 0.91797,-0.65234 0.69141,-0.56055 0.6914,-0.5625 0.55664,-0.16797 0.55664,-0.16797 h 21.33789 21.33594 l 0.49805,0.31055 0.5,0.30859 0.19922,0.28516 0.19922,0.2832 v 0.75391 0.7539 l 0.21093,0.0801 0.20899,0.0801 h 1.81836 1.8164 l 0.58789,0.13672 0.58594,0.13476 0.58399,0.39258 0.58203,0.39258 h 0.0781 0.0781 l 0.61328,0.53711 0.61328,0.53516 0.46484,0.41015 0.4668,0.41016 0.99609,0.74023 0.99805,0.74024 0.99609,0.83203 0.99805,0.83203 0.48047,0.4043 0.48242,0.40429 h 0.29102 0.29297 l 0.55468,-0.37695 0.55469,-0.37695 0.40039,-0.125 0.39844,-0.125 9.30469,0.0605 9.30664,0.0605 1.54101,-0.008 1.54102,-0.006 0.28516,-0.15234 0.28515,-0.1543 0.20117,-0.38672 0.20118,-0.38672 0.14648,-1.36914 0.14648,-1.36914 0.27149,-0.44531 0.27148,-0.44532 0.41407,-0.25195 0.4121,-0.25195 h 0.51563 0.51758 l 1.21093,0.14062 1.2129,0.14258 0.7246,0.125 0.72461,0.125 0.36329,0.34766 0.36328,0.34765 0.30859,-0.0723 0.30664,-0.0723 0.59766,-0.23047 0.59961,-0.23046 1.26172,-0.0508 1.26367,-0.0508 2.79101,0.18555 2.79297,0.18359 1.92774,-0.38867 1.92773,-0.38867 0.58203,-0.25586 0.58203,-0.25586 0.84375,-0.87305 0.84375,-0.875 0.14844,-0.55273 0.14844,-0.55469 0.55273,-0.89844 0.55274,-0.89843 0.66406,-1.01367 0.66406,-1.01563 0.23242,-0.3457 0.23243,-0.34571 v -0.24609 -0.24609 l 0.1875,-0.41797 0.1875,-0.41797 0.27734,-0.76953 0.27734,-0.76953 v -0.29493 -0.29687 l 0.29883,-0.5293 0.30078,-0.53125 0.45703,-0.63086 0.45704,-0.6289 h 0.0957 0.0957 l 0.58984,-0.83008 0.58985,-0.83008 0.55273,-1.29492 0.55078,-1.29492 v -0.28321 -0.2832 l 0.51368,-1.02539 0.51367,-1.02734 0.61133,-0.91602 0.61132,-0.91797 0.34375,-0.46484 0.3418,-0.46485 0.45899,-0.59765 0.45898,-0.59766 0.20703,-0.62109 0.20703,-0.6211 0.21289,-0.17578 0.21289,-0.17578 0.375,-0.79687 0.37305,-0.79688 0.26367,-0.46484 0.26367,-0.4668 0.68165,-1.46094 0.68164,-1.46093 0.125,-0.19922 0.12695,-0.19922 0.33008,-0.73047 0.33007,-0.73047 0.13086,-0.19922 0.12891,-0.19922 0.5332,-0.87109 0.53321,-0.86914 0.43164,-0.40234 0.43359,-0.4043 0.57227,-0.17969 0.57422,-0.17969 10.0625,-0.008 10.06054,-0.008 0.36328,0.10156 0.36133,0.10156 0.16406,0.29688 0.16407,0.29687 v 18.40039 12.58204 c 0.482,0.21673 0.96402,0.43365 1.43359,0.67578 1.27831,0.65914 4.37686,2.48355 5.46484,3.17187 0.49387,0.31244 0.97408,0.64641 1.45508,0.97852 0.27223,0.0327 0.56832,0.10614 0.88672,0.23047 0.64842,0.25319 1.80708,0.69745 2.32422,0.96093 1.82032,0.92745 3.2399,2.37557 4.91211,3.52149 0.21153,0.17019 0.47014,0.37118 0.74219,0.58984 0.0734,-0.0591 0.19652,0.0938 0.29292,0.13281 1.0623,0.4296 1.564,1.10151 1.627,1.71289 0.196,0.27065 0.3719,0.55554 0.5312,0.84961 0.1169,0.16936 0.3177,0.40214 1.0059,1.18165 0.6623,0.58794 1.1573,0.94246 1.4765,1.27343 l 0.3614,0.23828 0.707,0.46485 h 0.1016 0.1054 l 0.7832,0.53125 0.7813,0.53125 h 0.1543 0.1562 l 0.6016,0.56445 0.6035,0.56641 0.1231,0.33203 0.125,0.33398 0.166,1.26172 0.164,1.25977 -0.09,20.6582 -0.09,20.66016 -0.07,0.41601 -0.072,0.41602 -0.3965,0.48047 -0.3965,0.48046 h -0.125 -0.125 l -1.8926,0.91016 -1.8926,0.91016 -0.8632,0.15039 -0.8653,0.14844 -0.5312,0.0332 -0.5313,0.0312 -0.8867,-0.10547 -0.8887,-0.10352 -0.07,-0.18945 -0.059,-0.18945 h -0.40814 -0.40625 l -0.42774,0.17969 -0.42773,0.18164 -0.25781,0.28906 -0.25782,0.28906 -0.0117,2.17969 -0.0117,2.18164 0.17187,0.17187 0.17188,0.17383 3.94924,0.0664 3.9492,0.0664 0.9297,0.44922 0.9317,0.44922 0.332,0.0918 0.332,0.0918 0.3574,0.52148 0.3555,0.52148 0.1582,0.59766 0.1582,0.59766 0.1016,4.38476 0.1,4.38477 -0.037,17.26953 -0.025,17.27148 -0.1367,0.33204 -0.1348,0.33203 -0.6406,0.52929 -0.6367,0.52735 -0.7207,0.37304 -0.3164,0.16407 c -0.1115,0.29517 -0.1206,0.303 -0.4649,0.77929 0,0.004 0,0.007 -0.01,0.008 v 0 c 0.01,-0.0161 0.1009,-0.17572 0.1152,-0.20313 -0.349,0.50756 -0.6558,0.98644 -1.1269,1.39258 -0.4435,0.47448 -0.8559,0.84455 -1.4903,1.02148 v 0.002 0 0 0 -0.002 c -4e-4,-1.7e-4 0,3.9e-4 0,0 v -0.002 -0.002 c -0.012,-0.01 -0.024,-0.0295 -0.035,-0.0391 v -0.002 0 -0.002 c -8e-4,-2.4e-4 -0.01,-0.002 -0.01,-0.002 v 0 c -8e-4,1.1e-4 0,0.002 -0.01,0.002 -0.147,0.0424 -0.2787,0.12625 -0.418,0.18945 -0.6366,0.47428 -1.0626,0.81761 -1.7891,1.2207 -0.3773,0.20949 -0.7796,0.37017 -1.1699,0.55469 -1.2008,0.56772 -2.40747,1.1282 -3.56446,1.78321 l -0.0566,0.084 -0.48632,0.72266 h -0.0918 -0.0918 l -0.55859,0.46484 -0.55664,0.46484 -0.68555,0.18164 -0.68555,0.18164 -1.52734,0.35157 -1.5293,0.35351 -0.68164,0.13672 -0.68164,0.13867 -0.29101,0.3086 -0.28907,0.30859 -0.0508,0.58008 -0.0508,0.58203 -0.0703,1.0625 -0.0703,1.0625 -0.0723,23.71484 -0.0703,23.71485 -0.0664,2.05859 -0.0644,2.06055 -0.20117,1.0625 -0.19531,1.0625 -0.10547,0.46289 -0.10547,0.46289 -0.6211,0.23047 -0.62304,0.23047 -2.36328,0.14844 -2.36524,0.14843 -18.54492,-0.0586 -18.54492,-0.0586 -1.13086,-0.15429 -1.13086,-0.15235 -0.46484,-0.15039 -0.4668,-0.15234 -1.44922,-0.70508 -1.45313,-0.70508 -0.74218,-0.14062 -0.74024,-0.14063 -0.86523,-0.21679 -0.86328,-0.21875 -0.26563,-0.16211 -0.26562,-0.16407 -1.02149,-0.2207 -1.02148,-0.2207 -0.44141,-0.31836 -0.4414,-0.31641 -0.43165,-0.22265 -0.43164,-0.22266 v -0.11133 -0.11133 l -0.63086,-0.35742 -0.63281,-0.35742 -0.46875,-0.31055 -0.46875,-0.31054 -0.68945,-0.13086 -0.68945,-0.13086 -0.77735,-0.39258 -0.77734,-0.39258 -0.52344,-0.0898 -0.52344,-0.0899 -1.0664,-0.46093 -1.0625,-0.46289 -0.86328,-0.43946 -0.86328,-0.43945 -0.33204,-0.0996 -0.33203,-0.10156 -0.5332,-0.36133 -0.53125,-0.36328 -0.33203,-0.0996 -0.33203,-0.0957 -0.56836,-0.32422 -0.5625,-0.32422 -0.96289,-0.4082 -0.96485,-0.40821 -1.11132,-0.45703 -1.11329,-0.45703 -0.28515,-0.17969 -0.28125,-0.18164 -0.67383,-0.19531 -0.67578,-0.19727 -0.77149,-0.41211 -0.77539,-0.41406 h -0.1914 -0.1875 l -0.95508,-0.45312 -0.95703,-0.45117 -0.72852,-0.35157 -0.73047,-0.35156 -0.45312,-0.25 -0.44727,-0.25195 -0.34765,-0.32422 -0.34961,-0.32422 -1.20117,-0.53516 -1.20508,-0.53515 -0.65625,-0.0898 -0.65821,-0.0879 -0.66406,-0.20703 -0.66601,-0.20703 -0.15235,-0.11914 -0.15234,-0.11914 -0.96485,-0.26758 -0.96679,-0.26758 -0.36328,-0.25781 -0.36133,-0.25781 -0.64649,-0.27735 -0.64648,-0.27539 -0.26563,-0.23828 -0.26562,-0.24023 -0.64453,-0.23828 -0.63867,-0.23828 -0.29493,-0.23243 -0.29687,-0.23242 -0.79102,-0.22851 -0.79101,-0.22657 -0.79688,-0.36133 -0.79882,-0.35937 -0.4668,-0.17969 -0.46289,-0.17773 -0.55664,-0.375 -0.55469,-0.375 h -0.0742 -0.0703 l -0.82227,-0.53125 -0.82226,-0.53125 h -0.12696 -0.12695 l -0.39062,-0.32813 -0.39063,-0.32812 -0.95898,-0.28125 -0.95704,-0.28125 -0.43945,-0.25391 -0.4414,-0.2539 -0.62305,-0.15235 -0.62305,-0.15039 -0.81055,-0.44726 -0.81054,-0.44532 H 879 878.80469 l -0.6543,-0.41601 -0.65625,-0.41602 -0.50976,-0.17969 -0.50782,-0.17968 -0.38281,-0.26953 -0.38086,-0.27149 -0.57422,-0.20312 -0.57226,-0.20118 -0.4668,-0.30664 -0.46484,-0.30468 -0.53125,-0.17383 -0.53125,-0.17383 -0.66602,-0.37305 -0.66602,-0.37304 -0.89062,-0.27539 -0.89063,-0.27539 -0.0781,-0.125 -0.0762,-0.125 -0.83203,-0.25782 -0.83008,-0.25586 -0.87305,-0.41211 -0.87109,-0.41015 h -0.22266 -0.22266 l -0.89453,-0.41211 -0.89453,-0.41016 -0.61133,-0.18555 -0.61132,-0.1875 -0.49414,-0.33398 -0.49219,-0.33398 -0.46875,-0.19727 -0.46875,-0.19531 -0.39844,-0.33399 -0.39648,-0.33398 h -0.15625 -0.15625 l -0.95313,-0.46094 -0.95117,-0.46094 -0.57617,-0.082 -0.57617,-0.082 -0.46485,-0.13867 -0.46679,-0.14062 -0.53126,-0.23633 -0.53124,-0.23633 -0.79883,-0.22266 -0.79688,-0.22461 -1.5957,-0.96875 -1.5957,-0.9707 -0.23633,-0.21875 -0.23828,-0.2168 -0.29493,-0.12109 -0.29296,-0.11914 -0.70704,-0.14063 -0.70703,-0.14062 -1.02148,-0.47266 -1.02149,-0.47461 -0.46484,-0.24804 -0.46484,-0.24805 -0.74024,-0.39649 -0.73828,-0.39648 -0.17578,-0.21094 -0.17773,-0.21289 -0.63477,-0.31836 -0.63477,-0.32031 -0.27734,-0.27539 -0.27734,-0.27734 h -0.36719 -0.36914 l -0.50781,0.3457 -0.50782,0.34375 -0.18554,0.44336 -0.18555,0.4414 -0.0234,9.47461 -0.0234,9.47657 -0.0898,5.18164 -0.0879,5.18164 -0.15039,0.35742 -0.14844,0.35938 -0.4375,0.0723 -0.43945,0.0723 -8.80469,0.0644 -8.80664,0.0664 -0.27148,0.16796 -0.27344,0.16797 -0.0781,0.31055 -0.0781,0.31055 0.14844,1.81445 0.14843,1.81641 0.13282,3.65234 0.13281,3.6543 0.082,5.64648 0.082,5.64649 -0.19336,0.25195 -0.1914,0.25195 -1.78321,0.10742 -1.78125,0.10743 h -26.91015 -26.90821 l -0.44336,0.42968 -0.44336,0.42969 v 0.88281 0.88282 l 0.26368,0.78515 0.26562,0.78516 0.1543,1.59375 0.15625,1.59375 -0.0957,0.50586 -0.0937,0.50586 -0.26954,0.22461 -0.26953,0.22656 -0.18164,0.34375 -0.18164,0.34375 -0.57226,0.20898 -0.57227,0.20703 -1.39648,0.4043 -1.39454,0.40625 -0.5332,0.13477 -0.53125,0.13476 -0.79687,0.81055 -0.79883,0.81055 -0.92969,0.54297 -0.93164,0.54296 -0.44141,0.50977 -0.44335,0.51172 h -0.23243 -0.23437 l -0.0742,-0.0742 -0.0742,-0.0742 0.15234,-0.41211 0.15235,-0.41211 0.32812,-0.37695 0.32813,-0.37891 h 0.16601 0.16602 l 0.66992,-0.59375 0.66992,-0.5957 0.36524,-0.18945 0.36523,-0.1875 0.25196,-0.2793 0.2539,-0.2793 h 0.19336 0.19336 l -0.0918,-0.63086 -0.0918,-0.63086 -0.19141,-0.29882 -0.19336,-0.29883 h -0.33203 -0.33399 l -0.42773,0.17968 -0.42773,0.17969 -0.53321,0.59571 -0.53125,0.5957 -0.38086,0.5 -0.38281,0.5 -0.44531,0.18555 -0.44336,0.18554 h -1.56641 -1.5664 l -0.92188,0.13281 -0.91992,0.13282 -0.54297,0.1875 -0.54101,0.18554 -0.48829,0.20704 -0.48828,0.20703 -0.8457,0.59179 -0.8457,0.58985 -0.7168,0.82422 -0.7168,0.82421 -0.30273,0.87891 -0.30274,0.87891 v 0.61523 0.61524 l 0.29883,0.79101 0.29883,0.79102 0.39844,0.50781 0.40039,0.50781 0.10156,0.10156 c 2.13624,0.27552 4.12746,0.55684 6.08399,0.87696 l -0.006,-1.56055 -0.0137,-3.13086 0.36915,-0.54492 0.36914,-0.54492 0.33203,-0.25195 0.33203,-0.25196 0.83594,-0.29883 0.83398,-0.29882 0.29492,0.041 0.29492,0.041 -0.0332,1.28711 -0.0352,1.28515 -0.45312,2.69922 -0.33984,2.01563 c 1.43316,0.26673 2.87627,0.56146 4.37304,0.89648 4.93291,-1.32966 10.90183,-1.73944 17.85547,-0.85547 l 0.47266,-0.10547 0.32617,-0.31445 0.32617,-0.3125 0.0605,-0.90039 0.0566,-0.90039 -0.17188,-3.41406 -0.17187,-3.41407 0.21094,-0.32226 0.21289,-0.32227 0.83789,-0.20898 0.83984,-0.21094 2.06055,-0.16211 2.06054,-0.16211 25.78907,-0.0273 25.79101,-0.0274 0.36914,-0.14648 0.36719,-0.14453 0.125,-0.33008 0.12695,-0.32812 -0.0566,-4.35743 -0.0566,-4.35547 -0.0898,-6.70898 -0.0918,-6.70898 0.0117,-0.25586 0.0137,-0.25391 0.21094,-0.21094 0.21094,-0.21093 8.93555,-0.0723 8.93554,-0.0723 0.23633,-0.10937 0.23828,-0.10938 0.19531,-0.46484 0.19336,-0.46484 v -10.593 -10.59375 l 0.0859,-0.62891 0.0879,-0.63086 0.61133,-0.44726 0.61133,-0.44922 h 0.23828 0.23828 l 0.53125,0.27148 0.53125,0.26953 0.7793,0.24414 0.78125,0.24219 0.37695,0.26563 0.37891,0.26562 0.33203,0.10156 0.33203,0.10157 1.39648,0.73437 1.39453,0.73438 0.20118,0.16211 0.19921,0.1621 0.33204,0.0937 0.33203,0.0918 1.13086,0.53516 1.1289,0.5332 1.13086,0.5332 1.12891,0.53321 0.73242,0.36914 0.73047,0.36914 0.31836,0.0957 0.31836,0.0977 0.59375,0.375 0.59375,0.37695 0.41601,0.0879 0.41797,0.0879 0.69141,0.38867 0.68945,0.39063 0.73633,0.19141 0.73828,0.19335 0.63281,0.32813 0.63282,0.32812 0.65234,0.14258 0.65234,0.14453 0.47852,0.375 0.47656,0.375 0.48438,0.0879 0.48242,0.0879 0.54492,0.39453 0.54297,0.39453 0.52734,0.11718 0.52735,0.11915 0.59375,0.33203 0.59375,0.33203 0.71093,0.16406 0.70899,0.16602 0.63476,0.38281 0.63282,0.38086 0.625,0.14062 0.62695,0.14063 0.73438,0.39258 0.73437,0.39257 0.59961,0.26758 0.59766,0.26758 0.33203,0.18555 0.33203,0.18359 1.26367,0.60938 1.26172,0.60937 h 0.14844 0.14843 l 0.47852,0.32617 0.48047,0.32618 0.63476,0.21484 0.63672,0.21484 0.60547,0.3711 0.60547,0.37304 0.32422,0.0996 0.32617,0.0996 0.79688,0.4336 0.79687,0.43164 0.38672,0.0898 0.38672,0.0898 0.56836,0.39258 0.56836,0.39063 h 0.20703 0.20703 l 0.68164,0.25781 0.68164,0.25976 0.2168,0.18165 0.21679,0.18359 0.59961,0.16797 0.59766,0.16797 0.4082,0.23437 0.40821,0.23633 0.7539,0.2832 0.75391,0.28125 0.51367,0.32422 0.51563,0.32422 0.56835,0.15234 0.57032,0.1543 0.54492,0.34375 0.54687,0.3457 0.59766,0.10938 0.59766,0.10937 0.75,0.39063 0.74804,0.38867 0.5586,0.15039 0.55859,0.15039 0.63477,0.39063 0.63476,0.39062 h 0.13672 0.13672 l 0.64648,0.44141 0.64649,0.44141 0.44922,0.15624 0.44922,0.1543 0.64453,0.39649 0.64453,0.39648 0.36914,0.0859 0.36914,0.0859 0.61914,0.375 0.62109,0.37304 0.55274,0.14844 0.55469,0.14844 0.63476,0.39062 0.63477,0.39063 h 0.26562 0.26563 l 1.04883,0.53125 1.05078,0.53125 h 0.26562 0.26563 l 0.77539,0.4082 0.77539,0.4082 0.7539,0.19532 0.75391,0.19531 0.4082,0.24219 0.40821,0.24023 0.78515,0.29297 0.78711,0.29492 0.16992,0.14063 0.16993,0.14062 1.36914,0.69336 1.36718,0.69141 0.35547,0.0879 0.35352,0.0898 0.48633,0.33008 0.48828,0.33008 0.5,0.13476 0.5,0.13477 0.60547,0.26758 0.60742,0.26758 0.0684,0.11132 0.0684,0.11328 0.40039,0.0781 0.39844,0.0801 1.80859,0.87304 1.80664,0.87305 0.6875,0.14258 0.6875,0.14062 29.17969,-0.01 29.18164,-0.0117 0.70508,-0.0859 0.70313,-0.0859 0.2012,-0.20117 0.2012,-0.20117 -0.025,-30.5 -0.027,-30.5 0.5157,-0.44336 0.5156,-0.44531 0.6992,-0.45703 0.6992,-0.45703 1.627,-1.64844 1.6289,-1.65039 0.7734,-0.48633 0.7735,-0.48828 0.6875,-0.20117 0.6894,-0.20313 0.4649,-0.28515 0.4668,-0.28321 0.7304,-0.37109 0.7305,-0.36914 0.4687,-0.29688 0.4688,-0.29492 0.7383,-0.55273 0.7402,-0.55274 1.6602,-1.57617 1.6621,-1.57617 0.4551,-0.52344 0.455,-0.52539 0.3985,-0.35742 0.3984,-0.35742 0.4649,-0.39258 0.4667,-0.39258 0.5586,-0.2832 0.5606,-0.28516 h 0.2051 0.2031 v -56.26367 -56.26367 h -0.3067 -0.3066 l -0.9492,-0.4668 -0.9492,-0.4668 -0.8379,-1.08203 -0.8399,-1.08007 -1.1953,-1.18555 -1.1972,-1.18555 -0.6973,-0.6875 -0.6992,-0.6875 v -0.0859 -0.084 l -0.6309,-0.67188 -0.6328,-0.67382 -0.8652,-0.45899 -0.8653,-0.45898 -0.8457,-0.16602 -0.8457,-0.16601 -0.5488,-0.41211 -0.5488,-0.41016 -0.5313,-0.36523 -0.5312,-0.36524 -0.7442,-0.69726 -0.7441,-0.69727 -0.6289,-0.5332 -0.627,-0.53125 -0.4511,-0.43164 -0.4512,-0.43164 h -0.1055 l -0.1035,-0.002 -0.7402,-0.71289 -0.7422,-0.71093 -0.6543,-0.5 -0.6563,-0.5 -0.97657,-0.87891 -0.97851,-0.87891 -1.16993,-1.13086 -1.16992,-1.1289 -0.47851,-0.95899 -0.47657,-0.96093 v -0.32618 -0.32617 l 0.26563,-1.57031 0.26367,-1.57031 v -12.90039 -12.90235 l 0.14844,-1.76953 0.14844,-1.76953 -0.24414,-0.17773 -0.24415,-0.17969 -21.07421,0.0371 -21.07618,0.0371 -0.42187,0.19921 -0.42188,0.19922 -0.67382,0.63477 -0.67578,0.63672 v 0.19922 0.19726 l -0.20508,0.49219 -0.20508,0.49219 -0.23828,0.26758 -0.23633,0.26757 -0.22852,0.85352 -0.22851,0.85156 -0.27539,0.38672 -0.27539,0.38477 -0.16797,0.56054 -0.16992,0.56055 -0.41407,0.65234 -0.41211,0.65235 v 0.1582 0.1582 l -0.43945,0.64649 -0.43945,0.64453 -0.17774,0.43555 -0.17578,0.4375 -0.38086,0.47851 -0.38086,0.47852 v 0.25 0.25 l -0.32812,0.51758 -0.32617,0.51757 -0.12891,0.0801 -0.12695,0.0781 -0.0859,0.38476 -0.084,0.38477 -0.45704,0.64258 -0.45898,0.64453 v 0.13281 0.13281 l -0.53125,0.78321 L 943,171.25977 v 0.1289 0.12891 l -0.38281,0.5664 -0.38281,0.56641 -0.15626,0.47266 -0.15429,0.4707 -0.3711,0.50977 -0.36914,0.50976 -0.0976,0.39844 -0.0957,0.39648 -0.33593,0.51172 -0.33399,0.51172 -0.19336,0.55078 -0.19531,0.55274 -0.33594,0.50976 -0.33789,0.51172 -0.1875,0.52734 -0.18554,0.52735 -0.27149,0.38086 -0.27344,0.38086 -0.20117,0.57422 -0.20117,0.57226 -0.37305,0.46485 -0.37109,0.46484 -0.084,0.34375 -0.0859,0.34375 -0.40625,0.50976 -0.40625,0.51172 -0.24219,0.54102 -0.24219,0.54101 -0.28515,0.25196 -0.28516,0.2539 v 0.16602 0.16406 l -0.45508,0.67774 -0.45508,0.67578 -0.21289,0.72851 -0.21093,0.72657 -0.33008,0.35546 -0.33008,0.35547 v 0.16016 0.16016 l -0.2793,0.25195 -0.27929,0.25391 H 920.01953 907.4375 l -0.42773,0.23242 -0.42774,0.23437 -0.13086,0.2461 -0.13086,0.24414 -0.0937,0.90039 -0.0918,0.89843 -0.43555,0.64649 -0.4375,0.64844 -0.043,0.29882 -0.043,0.29688 -0.35742,0.17187 -0.35742,0.16993 -0.97266,0.0312 -0.9707,0.0293 -0.58008,-0.37695 -0.58008,-0.37695 -2.2793,-0.11914 -2.27734,-0.11719 -0.70312,-0.16016 -0.70508,-0.1582 -0.57422,-0.54102 -0.57422,-0.54297 -0.0898,-0.70703 -0.0899,-0.70507 -0.7207,-0.97266 -0.71875,-0.97266 -2.43164,-0.0644 -2.43164,-0.0664 -0.50391,-0.17187 -0.50195,-0.17188 -0.26172,-0.59179 -0.26172,-0.5918 v -0.28516 -0.28515 l -0.19922,-0.28516 -0.19922,-0.2832 -0.5,-0.30664 -0.49804,-0.30664 -0.19922,-0.24024 -0.19922,-0.23828 -0.66992,-0.0781 -0.66992,-0.0781 -1.52344,0.29297 -1.52344,0.29492 -0.73242,0.0137 -0.73047,0.0117 -5.45117,-0.1582 -5.44922,-0.1582 -5.91602,-0.0332 -5.91601,-0.0351 -9.04102,0.11132 -9.03906,0.11133 -2.39258,-0.13672 -2.39453,-0.13867 -0.62305,-0.21679 -0.625,-0.21485 -0.13476,-0.42187 -0.13672,-0.42188 -0.0215,-10.5625 -0.0215,-10.56055 0.0977,-0.36328 0.0957,-0.36328 0.48438,-0.14062 0.48437,-0.14063 1.26367,-0.1289 1.26367,-0.12891 0.92969,-0.19727 0.93164,-0.19726 1.24219,-0.12695 1.24219,-0.12696 0.32617,-0.21289 0.32422,-0.21289 0.14258,-0.3125 0.14257,-0.3125 -0.125,-3.63281 -0.125,-3.63281 -0.0312,-11.75782 -0.0312,-11.75781 -0.0508,-0.88672 -0.0527,-0.88672 -0.0723,-3.87109 -0.0703,-3.86914 -0.21289,-0.72852 -0.21094,-0.72851 -0.32617,-0.35156 -0.32617,-0.35157 -0.69336,-0.0976 -0.69336,-0.0996 -2.27539,-0.01 -2.27344,-0.0117 -0.63476,-0.0859 -0.63282,-0.0879 -0.33007,-0.7207 -0.33204,-0.72265 0.0625,-1.68165 0.0625,-1.68164 0.29493,-1.37109 0.29492,-1.37109 0.33594,-0.66797 0.33593,-0.66992 0.0723,-0.79493 0.0723,-0.79492 -0.64648,-0.61718 -0.64453,-0.61915 -3.99414,-0.0918 -3.99219,-0.0918 -0.82227,-0.0703 -0.82031,-0.0684 -0.4414,-0.21094 -0.44336,-0.20898 -0.37696,-0.20899 -0.37695,-0.20703 -0.17187,-0.41797 -0.17188,-0.41992 z"
   id="path5" />
    <path
   style="fill:#bababa;fill-opacity:1;stroke-width:0.132899"
   d="m 738.56045,100.69144 -0.002,0.17187 0.0117,2.29688 0.0137,2.29492 0.16211,0.16211 0.16016,0.16211 2.95313,0.0762 2.95117,0.0762 0.26562,0.11719 0.26563,0.11523 0.57031,0.43555 0.57031,0.43555 0.33985,0.40234 0.33789,0.40039 h 0.10937 0.11133 l 0.9082,0.5957 0.90821,0.59375 0.54296,0.40235 0.54493,0.40234 h 0.12695 0.12891 l 0.63671,0.4043 0.63868,0.40429 1.48242,0.57227 1.48047,0.57227 2,0.48437 1.99804,0.48438 h 0.7793 0.77734 l 1.13282,-0.76368 1.13281,-0.76367 0.74219,-0.49609 0.74414,-0.49609 0.59765,-0.27344 0.59961,-0.27539 0.79688,-0.37305 0.79687,-0.375 0.66602,-0.16016 0.66406,-0.16211 0.43555,-0.33007 0.43359,-0.33204 0.23047,-0.3496 0.23047,-0.35157 0.002,-1.53125 c -1.14335,-0.0968 -2.28602,-0.21074 -3.42578,-0.33984 -7.40688,-0.83895 -13.65616,-2.16907 -20.93945,-3.5625 -2.92884,-0.49403 -5.07355,-0.86057 -6.61328,-1.12695 z"
   id="path4" />
    <path
   style="fill:#bababa;fill-opacity:1;stroke-width:0.132899"
   d="m 738.56445,100.50394 -0.002,0.0293 c 0.0445,-0.007 0.0766,-0.0144 0.0879,-0.0195 h 0.002 v -0.002 h 0.002 v -0.002 l -0.002,-0.002 c -0.007,-0.002 -0.0251,-0.004 -0.0508,-0.004 -0.0126,-1.5e-4 -0.0245,1.4e-4 -0.0371,0 z"
   id="path3" />
    <path
   style="fill:#bababa;fill-opacity:1;stroke-width:0.132899"
   d="m 701.21484,110.81448 c 0.007,-0.0127 0.0128,-0.0264 0.0195,-0.0391 0.0143,-0.17633 -0.0181,-0.39045 -0.0313,-0.42383 l -0.002,-0.002 h -0.002 v -0.002 h -0.002 v 0.002 c -8.4e-4,0.005 -10e-4,0.0158 0,0.0332 0.01,0.14368 0.0159,0.28791 0.0176,0.43164 z"
   id="path2" />
    <path
   style="fill:#bababa;fill-opacity:1;stroke-width:0.132899"
   d="m 701.21484,110.89258 c -7e-5,-0.0262 3.1e-4,-0.0519 0,-0.0781 -0.0348,0.0666 -0.0686,0.13383 -0.10156,0.20117 0.0516,-0.009 0.0829,-0.0571 0.10156,-0.12304 z"
   id="path1" />
    <path
   style="fill:#bababa;fill-opacity:1;stroke-width:0.132899"
   d="m 719.80273,99.699219 -0.27148,0.294922 -0.79492,0.863279 -0.23438,0.46485 -0.23437,0.46484 -0.25,0.27539 -0.25,0.27344 -0.082,1.45312 -0.084,1.45313 -0.18554,0.29883 -0.1875,0.29882 h -0.16602 -0.16992 l -0.50977,-0.41992 -0.50976,-0.41992 -0.25196,-0.58789 -0.25195,-0.58789 v -0.36328 -0.36328 l 0.22266,-0.6543 0.22265,-0.6543 0.24805,-0.41992 0.24805,-0.42187 0.18945,-0.0703 0.1875,-0.0723 0.37109,-0.55469 0.0254,-0.0371 c -2.83912,0.6092 -5.67817,1.21747 -8.54687,1.66211 -1.71903,0.26644 -3.88489,1.3192 -5.75586,1.73047 h -0.002 l -0.0547,0.32226 -0.16797,0.66602 -0.16797,0.66406 -0.21679,0.51758 -0.084,0.20117 c 0.22574,0.50945 0.32189,1.09412 0.39844,1.59961 0.0194,1.21609 -0.70805,2.16925 -1.25195,3.19922 -0.003,0.0421 -0.01,0.0824 -0.0195,0.11719 0.002,0.82579 -0.10723,1.65223 -0.1289,2.47851 0.0739,0.13578 0.13805,0.31515 0.19336,0.50586 l 0.0488,0.0137 0.21485,0.32813 0.21484,0.33008 -0.0371,2.1289 -0.01,0.60352 v 0.002 0.002 c 0.0456,0.43099 0.072,0.86751 0.0879,1.18164 0.0314,0.62221 -0.10465,0.80132 -0.0937,0.86718 v 0.002 l 0.002,0.002 v 0.002 0.002 0.002 l 0.002,0.002 0.002,0.002 c 0.0185,0.0182 0.0689,0.0274 0.16601,0.043 0.19538,0.53504 0.37296,1.52234 0.20117,2.08985 -0.10148,0.3353 -0.26812,0.64909 -0.40234,0.97265 -0.10184,0.24555 -0.20314,0.41375 -0.30469,0.51758 l 0.0254,0.38672 0.16211,0.30078 0.16016,0.30078 -0.0488,1.41797 -0.0469,1.41797 -0.26563,0.36914 -0.26367,0.3711 -0.21094,0.37304 -0.20898,0.375 -0.98633,0.98633 -0.98828,0.98633 -1.8457,1.93164 -1.84571,1.93164 -0.13476,0.25 -0.13672,0.25 -0.44336,0.49805 -0.44531,0.49804 v 0.13868 0.13867 l -0.36524,0.34375 -0.36523,0.3457 -0.73242,0.32617 -0.73047,0.32813 -2.02149,0.18359 -2.02343,0.18555 -31.74415,0.0234 -24.85546,0.0176 h -0.002 c -0.18643,0.0997 -0.52025,0.0433 -1.30273,0.041 -0.65766,-0.005 -1.31495,-0.011 -1.97266,-0.0156 -0.11761,0.0102 -0.24078,0.0158 -0.36914,0.0156 h -0.49414 c -0.22654,-6e-5 -0.45316,-1.6e-4 -0.67969,0 -0.2246,1e-5 -0.607,0.21443 -0.67383,0 -0.002,-0.007 -0.004,-0.0144 -0.006,-0.0215 -0.0596,2.2e-4 -0.12007,0.002 -0.17969,0.002 5.7e-4,0.009 0.002,0.0164 0.002,0.0254 -0.0729,7.2e-4 -0.14958,-0.002 -0.17969,-0.002 0.0582,-0.002 0.11032,-0.009 0.15625,-0.0234 -0.0943,4.9e-4 -0.1889,6e-4 -0.2832,0.002 0.0259,0.012 0.0572,0.0192 0.0918,0.0215 -0.0793,2.4e-4 -0.0403,0.002 -0.53711,-0.002 -0.22177,-0.002 -0.44427,-0.004 -0.66602,-0.006 -0.7751,0.0144 -1.54954,0.0387 -2.32422,0.0781 -0.81241,-0.0104 -0.84463,0.0143 -1.50586,-0.0742 -0.76554,0.0148 -1.53159,0.0418 -2.29687,0.0879 -1.33009,0.006 -1.75482,0.0428 -3.0625,-0.0801 -0.86655,-0.0814 -1.71835,-0.28597 -2.58594,-0.35547 -0.0228,-0.002 -0.0463,-0.004 -0.0723,-0.006 -0.004,-2.3e-4 -0.01,2.3e-4 -0.0137,0 -0.15481,-0.006 -0.30906,-0.0131 -0.46484,-0.0195 -0.58951,-0.0155 -1.41005,-0.0165 -2.0332,-0.0156 -0.18528,0.0103 -0.37086,0.0257 -0.55469,0.0469 -0.17339,0.02 -0.34101,0.073 -0.51172,0.10938 -0.30359,0.0732 -0.60194,0.16891 -0.9082,0.22851 l 0.10547,0.25196 0.39257,0.93164 0.43946,0.66406 0.43945,0.66406 0.46875,0.73047 0.46875,0.73047 0.10156,0.33203 0.0996,0.33203 0.71094,1.36133 0.70898,1.36133 0.24805,0.36523 0.24805,0.36719 0.52148,0.79688 0.52149,0.79687 0.59765,0.60352 0.59766,0.60546 0.70508,0.44336 0.70508,0.44336 0.57031,0.10743 0.57031,0.10546 40.09375,0.0293 26.79688,0.0195 c 1.83402,-0.43928 3.76645,-0.6663 5.77929,-0.66406 1.954,0.002 3.98431,0.22085 6.07227,0.67188 l 1.44531,0.002 0.3086,-0.20508 0.30859,-0.20508 0.59765,-0.76758 0.59766,-0.76562 0.87305,-0.875 0.87109,-0.87695 1.91992,-1.78907 1.91993,-1.79101 1.24218,-1.33203 1.24219,-1.33203 0.73828,-0.77344 0.73828,-0.77344 0.97657,-0.7207 0.97656,-0.72071 h 0.10937 0.11133 l 0.99805,-0.69726 0.99804,-0.69727 0.40235,-0.46679 0.4043,-0.46485 0.20117,-0.39844 0.20312,-0.39843 0.14649,-1.35352 0.14648,-1.35547 -0.0547,-0.17383 -0.0566,-0.17187 -0.10937,-7.90625 -0.10742,-7.9043 0.0117,-1.81445 0.0137,-1.81445 0.35156,-0.53125 0.35156,-0.53321 1.13477,-0.88281 1.13281,-0.88476 0.14062,-0.55665 0.13868,-0.55468 0.12304,-0.29297 0.12305,-0.29492 0.50391,-0.32618 0.5039,-0.32617 3.65625,-0.0508 3.65625,-0.0488 0.29688,-0.16601 0.29883,-0.16407 0.23437,-0.42773 0.23438,-0.42773 v -4.69336 c -2.25984,-0.149118 -4.52728,-0.28991 -6.79493,-0.330081 z"
   id="path28" />
    <path
   id="rect32"
   style="fill:#bababa;fill-opacity:1"
   d="m 543.01758,137.99805 v 11.75781 h 81.0664 v -11.75781 h -23.60937 -7.39453 c -0.62928,0.0126 -1.25783,0.0355 -1.88672,0.0762 -1.12943,-0.002 -1.5657,0.0225 -2.61133,-0.0762 z" />
    <path
   id="rect38"
   style="fill:#bababa;fill-opacity:1"
   d="m 701.74609,100.55859 v 4.72071 c 0.0229,0.0663 0.042,0.13494 0.0586,0.20508 0.43949,0.5901 0.5788,1.41271 0.68164,2.09179 0.0136,0.85299 -0.34002,1.57755 -0.74024,2.28906 v 7.71094 h 119.12305 v -17.01758 z" />
    <rect
   style="fill:#bababa;fill-opacity:1"
   id="rect41"
   width="75.496437"
   height="16.089407"
   x="697.72351"
   y="404.09177" />
    <path
   style="fill:#bababa;fill-opacity:1;stroke-width:0.586017"
   d="m 604.61851,144.78806 h -6.44618 v -38.8794 -38.879308 l 1.07166,-0.969851 1.07168,-0.969851 h 1.25735 1.25734 l 0.89408,1.728949 0.89407,1.728951 v 23.513291 23.513289 l 3.2231,3.37908 3.22309,3.37908 v 11.22784 11.22784 z"
   id="path13" />
    <path
   style="fill:#bababa;fill-opacity:1;stroke-width:0.586017"
   d="m 585.86596,144.78904 -4.98114,-2.6e-4 0.16498,-15.8472 0.16498,-15.84718 -2.06953,-3.76617 -2.06954,-3.76615 v -9.037231 -9.037467 l 3.08543,-4.313042 3.08543,-4.313042 1.38993,-0.197776 1.38992,-0.197776 0.49683,0.783793 0.4968,0.783793 0.009,14.515573 0.009,14.515565 1.61155,2.47893 1.61154,2.47892 0.29302,15.38361 0.293,15.3836 z"
   id="path12" />
    <path
   style="fill:#bababa;fill-opacity:1;stroke-width:0.586017"
   d="m 568.43196,144.78704 -5.71367,-9.8e-4 V 134.6782 124.57035 l -2.33229,-3.80911 -2.33228,-3.80911 -0.20779,-6.90425 -0.20779,-6.90424 1.1424,-2.17902 1.1424,-2.17902 1.39767,-2.344063 1.39768,-2.344072 0.29301,-12.306359 0.293,-12.306361 1.46504,-2.19031 1.46505,-2.19031 2.10997,-0.0072 2.10997,-0.0072 1.84564,2.969025 1.84565,2.969023 V 82.32234 93.616971 l -2.92875,5.221416 -2.92874,5.221413 -9.8e-4,5.79536 -9.8e-4,5.79537 1.75806,2.85719 1.75805,2.8572 0.013,0.43071 0.013,0.4307 1.14597,1.46505 1.14598,1.46504 0.013,9.81579 0.013,9.81578 z"
   id="path50" />
    <path
   style="fill:#bababa;fill-opacity:1;stroke-width:0.311634"
   d="m 720.94296,102.08864 c -1.75494,-1.75397 2.10703,-6.856459 2.4893,-9.85867 2.30174,-6.005358 4.30531,-12.135343 6.53746,-18.152176 3.47594,-2.418726 0.34469,4.679233 -0.29969,6.309207 -2.74236,2.022489 1.56062,7.515277 2.83225,5.145279 0,-2.824872 0,-5.649745 0,-8.474617 1.40741,-3.220074 7.93982,-3.02325 7.58705,1.032996 0.77669,2.181845 -1.8174,9.905147 2.16626,7.242711 4.028,0.09761 -0.13065,-7.655699 3.89782,-3.902857 2.15706,6.574946 5.23042,12.92284 7.21096,19.602507 -3.32265,2.50646 -2.43595,-7.08525 -6.87938,-6.763791 -1.72337,-1.08118 -8.60296,-4.737571 -5.21426,-0.798302 4.33053,-0.761867 0.62866,6.533003 0.65265,8.617713 -3.68474,0 -7.36948,0 -11.05422,0 -0.10946,-2.749254 -0.86963,-7.638786 -2.827,-8.6065 -5.11061,0.09913 -3.90858,6.83706 -6.80325,8.6065 h -0.25865 z m 26.11539,-9.832591 c 1.52862,-1.707388 -1.60017,-8.861488 -4.5101,-4.649552 -3.5452,1.704827 3.26985,3.901165 4.5101,4.649552 z m -19.31739,-0.804455 c 2.73843,-0.214244 5.84014,-1.666477 2.38612,-3.952155 -2.17506,-4.848095 -6.40328,6.236722 -2.38612,3.952155 z m 51.00833,10.637046 c -1.81187,0 -3.62375,0 -5.43562,0 0,-15.417632 0,-30.835263 0,-46.252895 -2.98016,0.06167 -2.24942,-6.751683 0.49194,-7.395142 0.0589,-9.188113 -0.16708,-18.475066 -0.21986,-27.702658 -3.08174,0.60793 -4.7781,-0.99512 -4.08114,-3.960539 -0.74964,-2.368614 1.54283,-1.695114 3.10386,-1.753058 3.39699,0.911641 0.76356,-6.4313948 5.7278,-4.311188 3.09379,-0.259673 5.44433,0.08973 5.0093,3.644002 2.11985,0.966531 6.30909,-0.210425 5.20436,3.573094 1.17366,3.647396 -2.75303,1.817777 -4.35322,3.454857 0,9.105757 0,18.211514 0,27.317271 3.79466,0.08678 4.57043,7.063713 0.82421,7.342948 -1.41677,3.549458 -0.16155,8.061281 -0.62549,11.981343 -0.0702,11.353988 -0.14035,22.707977 -0.21053,34.061965 -1.81187,0 -3.62374,0 -5.43561,0 z m 25.60852,0 c -2.36715,0 -4.7343,0 -7.10145,0 0,-8.186125 0,-16.372249 0,-24.558374 1.2419,-4.871662 6.52868,-4.555731 10.45551,-4.249367 4.83421,1.473135 3.2116,6.848529 3.52111,10.666457 0.0755,6.047104 0.15086,12.094209 0.2263,18.141314 -2.36716,-10e-6 -4.73431,-2e-5 -7.10147,-3e-5 z"
   id="path51"
   inkscape:transform-center-x="-77.013076"
   inkscape:transform-center-y="-3.5005944" />
    <path
   id="path51-5"
   style="display:inline;fill:#bababa;fill-opacity:1;stroke-width:0.311634"
   d="m 732.97016,451.6083 c -1.33809,-1.03093 -1.48378,-2.78284 -2.09678,-4.24289 -1.73854,-4.93995 -3.34657,-9.92988 -5.3208,-14.78153 -1.19941,-3.34257 -2.2383,-6.74497 -3.58242,-10.03417 0.71485,0 1.42969,0 2.14454,0 0.84534,2.34811 1.78815,4.66867 2.40429,7.0918 1.56625,0.45895 3.03389,1.70153 4.6939,1.56801 0.12603,-1.36532 0.25555,-2.9129 1.04923,-4.2038 0.41319,-0.90954 0.84348,-1.83599 0.70804,-2.85662 0.0583,-0.5045 -0.11726,-1.24282 0.089,-1.59939 3.74118,0 7.48236,0 11.22354,0 0.43632,2.90272 0.88036,5.80427 1.31641,8.70703 -0.95638,0 -1.91276,0 -2.86914,0 -0.54686,0.77302 -0.95387,2.78612 0.58114,1.82524 2.67978,-1.37773 5.35898,-2.75659 8.038,-4.13579 0.95052,-2.20182 1.90104,-4.40365 2.85156,-6.60547 1.35156,0.80313 1.30699,1.94263 0.6276,3.23394 -1.67407,5.12396 -3.83112,10.07168 -5.72969,15.1139 -0.66038,1.07151 -0.63718,2.95815 -1.78365,3.45002 -0.92485,0.28927 -1.7408,0.46842 -1.24648,-0.67763 0.17688,-0.94372 0.35377,-1.88744 0.53066,-2.83116 -1.43408,-0.54709 -3.00343,-2.39159 -4.39198,-2.09044 0.0278,3.09766 -0.008,6.20951 -0.003,9.31309 -0.5259,1.8384 -2.42443,1.61182 -3.95684,1.8506 -0.94753,0.37815 -1.66739,0.0829 -2.22264,-0.7 -0.45173,-0.51292 -1.07573,-0.95448 -1.42208,-1.51104 0,-3.05368 0,-6.10736 0,-9.16104 -1.52002,-0.41433 -2.16867,1.19079 -3.11874,2.02987 -1.54019,1.19866 0.33287,3.08017 0.5506,4.58105 0.66725,1.86667 1.33449,3.73335 2.00173,5.60002 -0.35544,0.35537 -0.71078,0.71085 -1.06604,1.0664 z m -2.26171,-13.21679 c 1.09508,-0.99382 2.49177,-1.76214 3.03259,-3.22158 0.90586,-1.21803 -1.74376,-1.17872 -2.53419,-1.68412 -0.9223,0.0212 -2.86955,-1.12765 -3.14183,-0.2607 0.25552,1.66128 1.06041,3.18522 1.52662,4.7953 0.37229,0.12364 0.74456,0.24734 1.11681,0.3711 z m 17.2832,-0.0605 c 0.53457,-1.94787 1.70776,-3.83926 1.82749,-5.83256 -1.72396,-0.57626 -3.0807,1.30884 -4.55923,1.96283 -0.8924,0.68071 -3.02316,1.29318 -1.12585,2.12693 1.15786,0.94553 2.22504,2.14168 3.85759,1.74292 z" />
    <rect
   style="fill:#bababa;fill-opacity:1"
   id="rect59"
   width="11.293536"
   height="11.912354"
   x="732.99652"
   y="411.05353" />
  </g>
  <g
   id="sockets"
   inkscape:label="sockets"
   style="fill:#878787;fill-opacity:1"
   transform="matrix(0.37017511,0,0,0.37017511,-0.30655126,-3.8227856)">
    <rect
   style="fill:#878787;fill-opacity:1;stroke-width:0.606024"
   id="socket-L4Ng3uu9-0qjcqWmMhzjaw"
   width="97.774117"
   height="30"
   x="8"
   y="235"
   inkscape:label="socket-L4Ng3uu9-0qjcqWmMhzjaw" />
    <rect
   style="fill:#878787;fill-opacity:1;stroke-width:0.606024"
   id="socket-DwhjeDMtjkOHWbn8VMbHwg"
   width="97.774117"
   height="30"
   x="8"
   y="205"
   inkscape:label="socket-DwhjeDMtjkOHWbn8VMbHwg" />
    <rect
   style="display:inline;fill:#878787;fill-opacity:1;stroke-width:0.363346"
   id="socket-kq6apzFXC0mFeSFgHMZlwg"
   width="10"
   height="10"
   x="127.25089"
   y="200.12485"
   inkscape:label="socket-kq6apzFXC0mFeSFgHMZlwg" />
    <rect
   style="display:inline;fill:#878787;fill-opacity:1;stroke-width:0.363346"
   id="socket-J82LNHj9xkSS7hPShb3_QQ"
   width="10"
   height="10"
   x="139.25089"
   y="200.12485"
   inkscape:label="socket-J82LNHj9xkSS7hPShb3_QQ" />
    <rect
   style="display:inline;fill:#878787;fill-opacity:1;stroke-width:0.363346"
   id="socket-8Jz75LRlO0u3vpBP9aKNrg"
   width="10"
   height="10"
   x="151.25089"
   y="200.12485"
   inkscape:label="socket-8Jz75LRlO0u3vpBP9aKNrg" />
    <rect
   style="display:inline;fill:#878787;fill-opacity:1;stroke-width:0.363346"
   id="socket-PGovgYpWDUWCCj7HBDzWlg"
   width="10"
   height="10"
   x="163.25089"
   y="200.12485"
   inkscape:label="socket-PGovgYpWDUWCCj7HBDzWlg" />
    <rect
   style="fill:#878787;fill-opacity:1;stroke-width:0.677556"
   id="socket-fBaWZwf-HEqReQ6aNPv8lg"
   width="79.209412"
   height="25"
   x="20.790588"
   y="307.5"
   inkscape:label="socket-fBaWZwf-HEqReQ6aNPv8lg" />
    <rect
   style="fill:#878787;fill-opacity:1;stroke-width:0.677556"
   id="socket-TCAwE-ia4Uef7UwoXXg3XQ"
   width="79.209412"
   height="25"
   x="20.790588"
   y="332.5"
   inkscape:label="socket-TCAwE-ia4Uef7UwoXXg3XQ" />
    <rect
   style="fill:#878787;fill-opacity:1;stroke-width:0.966084"
   id="socket-tRoUxR8d7E2g8VMuBvtgPA"
   width="99.940002"
   height="146.9888"
   x="114.17294"
   y="215.96941"
   inkscape:label="socket-tRoUxR8d7E2g8VMuBvtgPA" />
    <rect
   style="fill:#878787;fill-opacity:1"
   id="socket-VRT4JesYZUmXgqX1BK03vw"
   width="80.44706"
   height="80.13765"
   x="222.77647"
   y="238.55647"
   inkscape:label="socket-VRT4JesYZUmXgqX1BK03vw" />
    <rect
   style="fill:#878787;fill-opacity:1;stroke-width:1.00836"
   id="socket-TCnobRXZTUmbBhWLB2_bMA"
   width="140"
   height="45"
   x="225"
   y="327"
   inkscape:label="socket-TCnobRXZTUmbBhWLB2_bMA" />
    <rect
   style="fill:#878787;fill-opacity:1"
   id="socket-VOg7-lRNWkGpjpj3W7QEoQ"
   width="75.496468"
   height="44.245884"
   x="301.67648"
   y="379.95764"
   inkscape:label="socket-VOg7-lRNWkGpjpj3W7QEoQ" />
    <rect
   style="fill:#878787;fill-opacity:1;stroke-width:1.00238"
   id="socket-Rqj_R1kXHkC9Il-jpVDWAA"
   width="140"
   height="45"
   x="382.74234"
   y="327"
   inkscape:label="socket-Rqj_R1kXHkC9Il-jpVDWAA" />
    <rect
   style="fill:#878787;fill-opacity:1"
   id="socket-dsNyjGBVUkWbOJ_DhpBlWg"
   width="55"
   height="55"
   x="314.05295"
   y="257"
   inkscape:label="socket-dsNyjGBVUkWbOJ_DhpBlWg" />
    <rect
   style="fill:#878787;fill-opacity:1"
   id="socket-QPu81rov_k2q0TUPljf1wQ"
   width="55"
   height="55"
   x="379.41647"
   y="257"
   inkscape:transform-center-x="45.792941"
   inkscape:transform-center-y="-11.138824"
   inkscape:label="socket-QPu81rov_k2q0TUPljf1wQ" />
    <rect
   style="fill:#878787;fill-opacity:1"
   id="socket-olToS4WUzkSEjp0m_GDswA"
   width="55"
   height="55"
   x="518.59528"
   y="257"
   inkscape:transform-center-x="45.792941"
   inkscape:transform-center-y="-11.138824"
   inkscape:label="socket-olToS4WUzkSEjp0m_GDswA" />
    <rect
   style="fill:#878787;fill-opacity:1"
   id="socket-DGXa9LWen0qyodt0DDHxcA"
   width="55"
   height="55"
   x="583.87531"
   y="257"
   inkscape:transform-center-x="45.792941"
   inkscape:transform-center-y="-11.138824"
   inkscape:label="socket-DGXa9LWen0qyodt0DDHxcA" />
    <rect
   style="fill:#878787;fill-opacity:1"
   id="socket-2L34-TzEokaF5Ic3R-Majw"
   width="55"
   height="55"
   x="538.90118"
   y="193.24236"
   inkscape:transform-center-x="45.792941"
   inkscape:transform-center-y="-11.138824"
   inkscape:label="socket-2L34-TzEokaF5Ic3R-Majw" />
    <rect
   style="fill:#878787;fill-opacity:1"
   id="socket-nrWmlB7t7E2eR6gjOVmDtA"
   width="61.88237"
   height="39.604694"
   x="444.05881"
   y="235.77176"
   inkscape:label="socket-nrWmlB7t7E2eR6gjOVmDtA" />
    <rect
   style="fill:#878787;fill-opacity:1"
   id="socket-CsgECqHZc0Kannrt6VIhUw"
   width="61.88237"
   height="39.604694"
   x="444.05881"
   y="281.3765"
   inkscape:transform-center-x="-29.703529"
   inkscape:transform-center-y="-13.614118"
   inkscape:label="socket-CsgECqHZc0Kannrt6VIhUw" />
    <rect
   style="fill:#878787;fill-opacity:1;stroke-width:0.839828"
   id="socket-F6Y8gGZ4eESMon5bmvr_dQ"
   width="70"
   height="50"
   x="407.89917"
   y="175"
   inkscape:label="socket-F6Y8gGZ4eESMon5bmvr_dQ" />
    <rect
   style="fill:#878787;fill-opacity:1;stroke-width:0.839827"
   id="socket-VlBklbeYvE-qQmzmdYwYjQ"
   width="70"
   height="50"
   x="331.64236"
   y="175"
   inkscape:label="socket-VlBklbeYvE-qQmzmdYwYjQ" />
    <rect
   style="fill:#878787;fill-opacity:1;stroke-width:0.603268"
   id="socket-LhrsmQCq-0uxIEGRkIo-SA"
   width="50"
   height="40"
   x="485"
   y="147.81294"
   inkscape:label="socket-LhrsmQCq-0uxIEGRkIo-SA" />
    <rect
   style="fill:#878787;fill-opacity:1;stroke-width:0.603268"
   id="socket-76MGUwSLPE-l32hmEPJ5zg"
   width="50"
   height="40"
   x="485"
   y="193.12941"
   inkscape:label="socket-76MGUwSLPE-l32hmEPJ5zg" />
    <rect
   style="fill:#878787;fill-opacity:1;stroke-width:0.603268"
   id="socket-FezlfqVg20yZj0yByigxeQ"
   width="50"
   height="40"
   x="225.0847"
   y="185"
   inkscape:label="socket-FezlfqVg20yZj0yByigxeQ" />
    <rect
   style="fill:#878787;fill-opacity:1;stroke-width:0.603268"
   id="socket-avl0R81PlU2a-L_33Eg3rQ"
   width="50"
   height="40"
   x="278.17883"
   y="185"
   inkscape:label="socket-avl0R81PlU2a-L_33Eg3rQ" />
    <rect
   style="fill:#878787;fill-opacity:1"
   id="socket-n9Ru447zt0O2PqoeCqEDKw"
   width="255.26471"
   height="43.317646"
   x="542.08942"
   y="327.97647"
   inkscape:label="socket-n9Ru447zt0O2PqoeCqEDKw" />
    <rect
   style="fill:#878787;fill-opacity:1"
   id="socket-DePIXooYaUO-_lBhnhj6mw"
   width="63.429405"
   height="33.725899"
   x="707.00592"
   y="382.12354"
   inkscape:label="socket-DePIXooYaUO-_lBhnhj6mw" />
    <rect
   style="fill:#878787;fill-opacity:1"
   id="socket-ww85-B3EY02T4hEoPQBLPg"
   width="160"
   height="30"
   x="660"
   y="241.65059"
   inkscape:label="socket-ww85-B3EY02T4hEoPQBLPg" />
    <rect
   style="fill:#878787;fill-opacity:1"
   id="socket-_yC35vSVhU6ziXsLtVwSAg"
   width="160"
   height="30"
   x="660"
   y="285.72119"
   inkscape:label="socket-_yC35vSVhU6ziXsLtVwSAg" />
    <rect
   style="fill:#878787;fill-opacity:1"
   id="socket-J0fhl0E9OE2qbBM4dNSlIQ"
   width="144.8047"
   height="45.174118"
   x="815.42816"
   y="325.24484"
   inkscape:label="socket-J0fhl0E9OE2qbBM4dNSlIQ" />
    <rect
   style="fill:#878787;fill-opacity:1;stroke-width:0.363346"
   id="socket-ExnOfMlTV0uqB5g7kkAjLg"
   width="10"
   height="10"
   x="940"
   y="373"
   inkscape:label="socket-ExnOfMlTV0uqB5g7kkAjLg" />
    <rect
   style="fill:#878787;fill-opacity:1;stroke-width:0.363346"
   id="socket-VSZfOTpi10eR-KTW2Gt_4Q"
   width="10"
   height="10"
   x="952"
   y="373"
   inkscape:label="socket-VSZfOTpi10eR-KTW2Gt_4Q" />
    <rect
   style="fill:#878787;fill-opacity:1;stroke-width:0.363346"
   id="socket-0UahwU0Et0aRk98EHNPYqQ"
   width="10"
   height="10"
   x="964"
   y="373"
   inkscape:label="socket-0UahwU0Et0aRk98EHNPYqQ" />
    <rect
   style="fill:#878787;fill-opacity:1;stroke-width:0.363346"
   id="socket-o8Wu_787eES1iMVc3ATD5g"
   width="10"
   height="10"
   x="976"
   y="373"
   inkscape:label="socket-o8Wu_787eES1iMVc3ATD5g" />
    <rect
   style="fill:#878787;fill-opacity:1;stroke-width:0.363346"
   id="socket-L03eO0S-vkOpHVur4_zYLg"
   width="10"
   height="10"
   x="935.12128"
   y="207.6528"
   inkscape:label="socket-L03eO0S-vkOpHVur4_zYLg" />
    <rect
   style="fill:#878787;fill-opacity:1;stroke-width:0.363346"
   id="socket-wrrlQVa0rkCufYUAMR7Q1Q"
   width="10"
   height="10"
   x="947.12128"
   y="207.6528"
   inkscape:label="socket-wrrlQVa0rkCufYUAMR7Q1Q" />
    <rect
   style="fill:#878787;fill-opacity:1;stroke-width:0.363346"
   id="socket-cc7iyrcvBkGABUvh_aUfmA"
   width="10"
   height="10"
   x="959.12128"
   y="207.6528"
   inkscape:transform-center-x="45.792941"
   inkscape:transform-center-y="-11.138824"
   inkscape:label="socket-cc7iyrcvBkGABUvh_aUfmA" />
    <rect
   style="fill:#878787;fill-opacity:1;stroke-width:0.363346"
   id="socket-DFq_NYDAZU2D9iQZAjfFIQ"
   width="10"
   height="10"
   x="971.12128"
   y="207.6528"
   inkscape:label="socket-DFq_NYDAZU2D9iQZAjfFIQ" />
    <rect
   style="fill:#878787;fill-opacity:1;stroke-width:0.707107"
   id="socket-SWkvNaAjd0a5naNjaKDO4g"
   width="90"
   height="20"
   x="925"
   y="275"
   inkscape:label="socket-SWkvNaAjd0a5naNjaKDO4g" />
    <rect
   style="fill:#878787;fill-opacity:1;stroke-width:0.707107"
   id="socket-jB74ectZC0eMgUso8AlQfw"
   width="90"
   height="20"
   x="925"
   y="295"
   inkscape:label="socket-jB74ectZC0eMgUso8AlQfw" />
    <rect
   style="fill:#878787;fill-opacity:1;stroke-width:0.707107"
   id="socket-6m7XRfDnP0ipLoltxQh1Pg"
   width="90"
   height="20"
   x="925"
   y="222"
   inkscape:label="socket-6m7XRfDnP0ipLoltxQh1Pg" />
    <rect
   style="fill:#878787;fill-opacity:1;stroke-width:0.707107"
   id="socket-SXNaLYcCJ067t4pDTEpSiw"
   width="90"
   height="20"
   x="925"
   y="242"
   inkscape:transform-center-x="45.792941"
   inkscape:transform-center-y="-11.138824"
   inkscape:label="socket-SXNaLYcCJ067t4pDTEpSiw" />
    <rect
   style="fill:#878787;fill-opacity:1"
   id="socket-g6Jp1xMKeEeNFOgfjnt3hQ"
   width="48.887058"
   height="68.689415"
   x="841.59998"
   y="175.74588"
   inkscape:label="socket-g6Jp1xMKeEeNFOgfjnt3hQ" />
    <rect
   style="fill:#878787;fill-opacity:1"
   id="socket-aUJW0fBCR0mJc2o0WtSTtg"
   width="62.501175"
   height="40.22353"
   x="720.31061"
   y="191.8353"
   inkscape:label="socket-aUJW0fBCR0mJc2o0WtSTtg" />
    <rect
   style="fill:#878787;fill-opacity:1"
   id="socket-Z8askbBTfkm1Z1R8wX48Lw"
   width="100.24941"
   height="31.559999"
   x="608.30353"
   y="199.87999"
   inkscape:label="socket-Z8askbBTfkm1Z1R8wX48Lw" />
    <rect
   style="fill:#878787;fill-opacity:1;stroke-width:0.988571"
   id="socket-RV86T_nrVEajYrSrwACy6w"
   width="53.218845"
   height="39.604713"
   x="542.70819"
   y="146.04236"
   inkscape:label="socket-RV86T_nrVEajYrSrwACy6w" />
    <rect
   style="fill:#878787;fill-opacity:1;stroke-width:0.911322"
   id="socket-4dpVMvs8nUmd-5az35rT2Q"
   width="58.169395"
   height="30.322353"
   x="648.5271"
   y="128.09647"
   inkscape:label="socket-4dpVMvs8nUmd-5az35rT2Q" />
    <rect
   style="fill:#878787;fill-opacity:1"
   id="socket-3XttIkpGh0yh8AMcSK0_9g"
   width="104.58118"
   height="31.560005"
   x="603.97174"
   y="162.13176"
   inkscape:label="socket-3XttIkpGh0yh8AMcSK0_9g" />
    <rect
   style="fill:#878787;fill-opacity:1"
   id="socket-S0-J1cMwUEKF72p---79_w"
   width="100"
   height="30"
   x="720"
   y="150.99294"
   inkscape:label="socket-S0-J1cMwUEKF72p---79_w" />
    <rect
   style="fill:#878787;fill-opacity:1"
   id="socket-NysR9qLdykCdsphUx1foSg"
   width="100"
   height="30"
   x="720"
   y="109.68235"
   inkscape:label="socket-NysR9qLdykCdsphUx1foSg" />
    <rect
   style="fill:#878787;fill-opacity:1;stroke-width:0.363346"
   id="socket-6KAoHXs3CkaZNwjTjaDR1w"
   width="10"
   height="10"
   x="130.12247"
   y="368.49942"
   inkscape:label="socket-6KAoHXs3CkaZNwjTjaDR1w" />
    <rect
   style="fill:#878787;fill-opacity:1;stroke-width:0.363346"
   id="socket-uYnpW7XKrEifAyolwrz1sw"
   width="10"
   height="10"
   x="142.12247"
   y="368.49942"
   inkscape:transform-center-x="45.792941"
   inkscape:transform-center-y="-11.138824"
   inkscape:label="socket-uYnpW7XKrEifAyolwrz1sw" />
    <rect
   style="fill:#878787;fill-opacity:1;stroke-width:0.363346"
   id="socket-z-V1AdjNYkuvtH-pdXhnaw"
   width="10"
   height="10"
   x="154.12247"
   y="368.49942"
   inkscape:label="socket-z-V1AdjNYkuvtH-pdXhnaw" />
    <rect
   style="fill:#878787;fill-opacity:1;stroke-width:0.363346"
   id="socket-xhpzS-EnQEequ8rxUlg2Sg"
   width="10"
   height="10"
   x="166.12247"
   y="368.49942"
   inkscape:label="socket-xhpzS-EnQEequ8rxUlg2Sg" />
    <rect
   style="fill:#878787;fill-opacity:1;stroke-width:0.606024"
   id="socket-1DAdN2F4Mke-R5suyH7t1w"
   width="97.774117"
   height="30"
   x="8"
   y="265"
   inkscape:label="socket-1DAdN2F4Mke-R5suyH7t1w" />
  </g>
</svg>
