<?xml version="1.0" encoding="UTF-8"?>
<svg version="1.1" xmlns="http://www.w3.org/2000/svg" width="500" height="500">
<path d="M0 0 C4.70555496 2.87365127 8.43169297 7.06776687 12.28993225 10.95996094 C13.26104484 11.92837466 14.23275018 12.8961943 15.20501709 13.8634491 C17.2328053 15.88536364 19.25324213 17.91427492 21.26869202 19.94848633 C23.84528359 22.54789672 26.43946261 25.12889121 29.03941059 27.70491505 C31.0464545 29.69746931 33.04383035 31.69949681 35.03845787 33.7044735 C36.45228671 35.12224527 37.87413487 36.53200549 39.29611206 37.94160461 C40.15428024 38.81238144 41.01244843 39.68315826 41.8966217 40.58032227 C42.65272232 41.33960526 43.40882294 42.09888824 44.18783569 42.88117981 C48.02051636 47.75835828 48.6949019 53.19932195 48.051651 59.25292969 C43.72453975 75.33008287 33.20333365 87.38056006 22.051651 99.25292969 C20.89930216 100.58063596 19.75290155 101.91354214 18.614151 103.25292969 C13.13704787 109.54770461 7.19963124 115.8403034 0.676651 121.06542969 C-1.73802214 123.07765731 -3.56984898 125.18298667 -5.52256775 127.63183594 C-8.72314716 131.27085088 -12.59153227 135.07452132 -16.948349 137.25292969 C-17.216474 138.51105469 -17.484599 139.76917969 -17.760849 141.06542969 C-18.47859869 144.09411586 -18.96364475 145.27146999 -21.010849 147.75292969 C-25.04608099 149.81347368 -28.50446614 149.60146952 -32.948349 149.25292969 C-32.8555365 151.07824219 -32.8555365 151.07824219 -32.760849 152.94042969 C-32.760849 156.85034665 -33.46489942 159.1256228 -35.948349 162.25292969 C-38.948349 164.25292969 -38.948349 164.25292969 -42.010849 164.62792969 C-42.980224 164.83417969 -43.949599 165.04042969 -44.948349 165.25292969 C-45.64149981 166.57268882 -46.30534681 167.90802434 -46.948349 169.25292969 C-48.49913025 170.74511719 -48.49913025 170.74511719 -50.260849 172.12792969 C-52.72715277 174.13372031 -54.71401223 176.09731233 -56.635849 178.62792969 C-57.398974 179.49417969 -58.162099 180.36042969 -58.948349 181.25292969 C-60.268349 181.25292969 -61.588349 181.25292969 -62.948349 181.25292969 C-62.948349 182.57292969 -62.948349 183.89292969 -62.948349 185.25292969 C-64.30381775 186.74511719 -64.30381775 186.74511719 -66.135849 188.12792969 C-68.60144869 190.09448014 -70.39902995 191.79374683 -72.448349 194.25292969 C-74.86916075 197.15790379 -77.36616202 199.35732667 -80.260849 201.75292969 C-82.19390217 203.3962521 -82.19390217 203.3962521 -84.448349 206.25292969 C-86.86916075 209.15790379 -89.36616202 211.35732667 -92.260849 213.75292969 C-94.19390217 215.3962521 -94.19390217 215.3962521 -96.448349 218.25292969 C-98.86916075 221.15790379 -101.36616202 223.35732667 -104.260849 225.75292969 C-106.19390217 227.3962521 -106.19390217 227.3962521 -108.448349 230.25292969 C-110.86916075 233.15790379 -113.36616202 235.35732667 -116.260849 237.75292969 C-118.19390217 239.3962521 -118.19390217 239.3962521 -120.448349 242.25292969 C-122.86916075 245.15790379 -125.36616202 247.35732667 -128.260849 249.75292969 C-130.19390217 251.3962521 -130.19390217 251.3962521 -132.448349 254.25292969 C-134.86916075 257.15790379 -137.36616202 259.35732667 -140.260849 261.75292969 C-142.19390217 263.3962521 -142.19390217 263.3962521 -144.448349 266.25292969 C-146.86916075 269.15790379 -149.36616202 271.35732667 -152.260849 273.75292969 C-154.19390217 275.3962521 -154.19390217 275.3962521 -156.448349 278.25292969 C-158.86916075 281.15790379 -161.36616202 283.35732667 -164.260849 285.75292969 C-166.19390217 287.3962521 -166.19390217 287.3962521 -168.448349 290.25292969 C-170.86916075 293.15790379 -173.36616202 295.35732667 -176.260849 297.75292969 C-178.19390217 299.3962521 -178.19390217 299.3962521 -180.448349 302.25292969 C-182.86916075 305.15790379 -185.36616202 307.35732667 -188.260849 309.75292969 C-190.19390217 311.3962521 -190.19390217 311.3962521 -192.448349 314.25292969 C-194.86804115 317.15656026 -197.36308665 319.35518567 -200.25694275 321.74902344 C-202.78294136 323.99500373 -204.79295648 326.65540536 -206.948349 329.25292969 C-211.89902164 334.04889381 -211.89902164 334.04889381 -215.198349 334.69042969 C-215.775849 334.87605469 -216.353349 335.06167969 -216.948349 335.25292969 C-217.216474 336.13980469 -217.484599 337.02667969 -217.760849 337.94042969 C-219.20232212 341.96138102 -221.08666331 343.40148046 -224.38975525 345.95605469 C-226.08369741 347.18904593 -226.08369741 347.18904593 -226.948349 349.25292969 C-227.938349 349.25292969 -228.928349 349.25292969 -229.948349 349.25292969 C-229.865849 350.13980469 -229.783349 351.02667969 -229.698349 351.94042969 C-230.00802367 356.04361903 -231.02739541 357.41092079 -233.948349 360.25292969 C-237.66276665 362.30563418 -240.74790603 362.44829913 -244.948349 362.25292969 C-244.865849 363.28417969 -244.783349 364.31542969 -244.698349 365.37792969 C-244.99987521 370.05158591 -245.71837954 371.86540075 -248.948349 375.25292969 C-251.90881808 376.31788328 -254.83151796 376.86665576 -257.948349 377.25292969 C-258.09530212 378.15398437 -258.09530212 378.15398437 -258.245224 379.07324219 C-259.09169662 381.69730733 -260.03544963 382.46343756 -262.198349 384.12792969 C-264.62723121 386.09275716 -266.41957792 387.8184044 -268.448349 390.25292969 C-270.82520859 393.10516119 -273.24068262 395.33277662 -276.104599 397.66308594 C-278.51209839 399.7390441 -280.70755867 401.99862026 -282.948349 404.25292969 C-305.71708834 425.94802116 -332.24855178 442.88604052 -359.27671814 458.72265625 C-364.94912051 462.04948896 -370.53638406 465.45352897 -376.02256775 469.08105469 C-380.06341594 471.53998868 -384.33072223 471.94467533 -388.948349 471.25292969 C-391.948349 469.25292969 -391.948349 469.25292969 -393.948349 467.25292969 C-398.07251963 468.91461009 -401.01388939 471.87630986 -404.198349 474.87792969 C-404.75264587 475.39355469 -405.30694275 475.90917969 -405.8780365 476.44042969 C-407.2386202 477.70718003 -408.59400737 478.97950784 -409.948349 480.25292969 C-414.635849 476.63964844 -414.635849 476.63964844 -415.948349 475.25292969 C-415.948349 474.26292969 -415.948349 473.27292969 -415.948349 472.25292969 C-413.948349 470.56542969 -413.948349 470.56542969 -411.948349 469.25292969 C-413.35679618 466.03768664 -415.05179686 463.93109101 -417.573349 461.50292969 C-418.20498962 460.88933594 -418.83663025 460.27574219 -419.4874115 459.64355469 C-419.96952087 459.18464844 -420.45163025 458.72574219 -420.948349 458.25292969 C-424.07032378 459.56188689 -424.07032378 459.56188689 -425.948349 462.25292969 C-427.698349 462.06542969 -427.698349 462.06542969 -429.948349 461.25292969 C-431.268349 459.60292969 -432.588349 457.95292969 -433.948349 456.25292969 C-429.658349 451.63292969 -425.368349 447.01292969 -420.948349 442.25292969 C-422.80364181 438.33561951 -422.80364181 438.33561951 -424.948349 435.25292969 C-425.70443812 429.96030581 -425.05363965 426.9748878 -422.432724 422.32714844 C-421.88745056 421.36019043 -421.34217712 420.39323242 -420.78038025 419.39697266 C-417.48698355 413.74500535 -414.11000133 408.14639966 -410.698349 402.56542969 C-409.93997336 401.32149746 -409.18167324 400.07751918 -408.42344666 398.83349609 C-406.27008028 395.30356351 -404.11023429 391.77765154 -401.948349 388.25292969 C-401.13285583 386.92285889 -401.13285583 386.92285889 -400.30088806 385.56591797 C-395.80847393 378.25697671 -391.24315643 371.03866236 -386.22569275 364.07324219 C-384.90003075 362.279366 -384.90003075 362.279366 -383.948349 360.25292969 C-383.288349 360.25292969 -382.628349 360.25292969 -381.948349 360.25292969 C-381.72276306 359.55425781 -381.49717712 358.85558594 -381.26475525 358.13574219 C-379.66210576 354.62608247 -377.41432936 351.99046601 -374.885849 349.12792969 C-373.89156674 347.97887553 -372.89808979 346.82912409 -371.90538025 345.67871094 C-371.40860779 345.10588379 -370.91183533 344.53305664 -370.40000916 343.94287109 C-368.24634183 341.43569228 -366.15984993 338.87884511 -364.073349 336.31542969 C-362.98280212 334.98125 -362.98280212 334.98125 -361.870224 333.62011719 C-360.74691584 332.2365303 -359.62941021 330.84812276 -358.526474 329.44824219 C-355.85541613 326.10074758 -352.915321 323.46697548 -349.635849 320.75292969 C-347.70279583 319.10960727 -347.70279583 319.10960727 -345.448349 316.25292969 C-343.01904442 313.3377642 -340.51501753 311.04410769 -337.5967865 308.64746094 C-335.90212673 307.26594023 -335.90212673 307.26594023 -334.3624115 305.57714844 C-332.948349 304.25292969 -332.948349 304.25292969 -330.948349 304.25292969 C-330.8555365 302.67511719 -330.8555365 302.67511719 -330.760849 301.06542969 C-329.80697452 296.58955713 -328.41787913 295.13010101 -324.948349 292.25292969 C-321.99170381 290.77460709 -319.20605163 291.19260186 -315.948349 291.25292969 C-315.92256775 290.66125 -315.8967865 290.06957031 -315.870224 289.45996094 C-315.49289706 284.20311069 -314.89031907 281.07544612 -310.948349 277.25292969 C-308.23955565 275.89853301 -305.93901632 276.18791518 -302.948349 276.25292969 C-302.948349 275.26292969 -302.948349 274.27292969 -302.948349 273.25292969 C-301.52256775 271.75292969 -301.52256775 271.75292969 -299.635849 270.25292969 C-297.77148039 268.75205433 -296.00570229 267.31266104 -294.3467865 265.58496094 C-292.948349 264.25292969 -292.948349 264.25292969 -290.885849 263.94042969 C-290.246474 263.71355469 -289.607099 263.48667969 -288.948349 263.25292969 C-288.680224 262.36605469 -288.412099 261.47917969 -288.135849 260.56542969 C-286.70908289 256.58550318 -284.97128821 255.31026713 -281.74131775 252.75292969 C-279.69857637 251.13460998 -279.69857637 251.13460998 -277.448349 248.25292969 C-275.48825333 245.90081489 -273.77130751 244.17537811 -271.448349 242.25292969 C-268.15349797 239.52393351 -265.61880584 236.59100074 -262.948349 233.25292969 C-261.95900529 232.24238576 -260.96136251 231.23974458 -259.948349 230.25292969 C-261.37340759 228.91488281 -261.37340759 228.91488281 -262.82725525 227.54980469 C-264.0557656 226.36818405 -265.28359524 225.1858554 -266.510849 224.00292969 C-267.45347595 223.12314453 -267.45347595 223.12314453 -268.41514587 222.22558594 C-269.00489197 221.65195313 -269.59463806 221.07832031 -270.20225525 220.48730469 C-270.75212097 219.96362305 -271.30198669 219.43994141 -271.86851501 218.90039062 C-272.948349 217.25292969 -272.948349 217.25292969 -272.70201111 215.1640625 C-271.79160662 212.85546311 -270.9838194 211.68529775 -268.948349 210.25292969 C-265.76354719 210.67759697 -264.14131338 211.69497734 -261.932724 213.97558594 C-261.40420837 214.51376953 -260.87569275 215.05195313 -260.3311615 215.60644531 C-259.79233337 216.17041016 -259.25350525 216.734375 -258.698349 217.31542969 C-258.14405212 217.88326172 -257.58975525 218.45109375 -257.0186615 219.03613281 C-255.65500686 220.43505438 -254.30074483 221.84312082 -252.948349 223.25292969 C-249.61138729 220.66983308 -246.96799736 218.12343298 -244.3311615 214.82324219 C-242.82216698 213.10963824 -241.20728109 211.70728479 -239.448349 210.25292969 C-237.12539048 208.33048126 -235.40844466 206.60504449 -233.448349 204.25292969 C-231.02753725 201.34795559 -228.53053598 199.14853271 -225.635849 196.75292969 C-223.70279583 195.10960727 -223.70279583 195.10960727 -221.448349 192.25292969 C-219.02753725 189.34795559 -216.53053598 187.14853271 -213.635849 184.75292969 C-211.70279583 183.10960727 -211.70279583 183.10960727 -209.448349 180.25292969 C-207.02753725 177.34795559 -204.53053598 175.14853271 -201.635849 172.75292969 C-199.70279583 171.10960727 -199.70279583 171.10960727 -197.448349 168.25292969 C-195.02753725 165.34795559 -192.53053598 163.14853271 -189.635849 160.75292969 C-187.70279583 159.10960727 -187.70279583 159.10960727 -185.448349 156.25292969 C-182.58130745 152.81247983 -179.41290636 150.06850657 -175.948349 147.25292969 C-177.50164085 143.7635442 -179.34320749 141.99602041 -182.35069275 139.62402344 C-184.90142812 137.43500604 -186.86697122 134.88526041 -188.948349 132.25292969 C-187.79661545 129.78492922 -186.90051334 128.20509403 -184.948349 126.25292969 C-181.75919832 126.59025917 -180.12588505 127.71090876 -177.932724 129.97558594 C-177.40420837 130.51376953 -176.87569275 131.05195313 -176.3311615 131.60644531 C-175.79233337 132.17041016 -175.25350525 132.734375 -174.698349 133.31542969 C-174.14405212 133.88326172 -173.58975525 134.45109375 -173.0186615 135.03613281 C-171.65500686 136.43505438 -170.30074483 137.84312082 -168.948349 139.25292969 C-165.61138729 136.66983308 -162.96799736 134.12343298 -160.3311615 130.82324219 C-158.82216698 129.10963824 -157.20728109 127.70728479 -155.448349 126.25292969 C-153.12539048 124.33048126 -151.40844466 122.60504449 -149.448349 120.25292969 C-146.97092461 117.28002042 -144.39632285 114.97172593 -141.401474 112.54980469 C-139.81547289 111.29512266 -139.81547289 111.29512266 -138.948349 109.25292969 C-137.628349 109.25292969 -136.308349 109.25292969 -134.948349 109.25292969 C-134.948349 107.93292969 -134.948349 106.61292969 -134.948349 105.25292969 C-133.59288025 103.76074219 -133.59288025 103.76074219 -131.760849 102.37792969 C-129.27676824 100.40468812 -127.21328643 98.50449015 -125.260849 96.00292969 C-122.948349 93.25292969 -122.948349 93.25292969 -120.760849 92.37792969 C-118.79316916 91.425601 -118.79316916 91.425601 -118.3624115 89.46777344 C-118.04490711 88.03379869 -117.73758724 86.59753065 -117.4405365 85.15917969 C-116.8227971 82.7666652 -115.98889774 81.64050283 -113.948349 80.25292969 C-111.19756016 79.33600007 -109.58885987 79.14406885 -106.760849 79.19042969 C-105.502724 79.21105469 -104.244599 79.23167969 -102.948349 79.25292969 C-102.99475525 78.66125 -103.0411615 78.06957031 -103.088974 77.45996094 C-103.27008857 73.49484552 -103.28060543 70.90359852 -101.448349 67.31542969 C-98.92800026 65.23614198 -98.01162843 64.90979734 -94.948349 64.31542969 C-91.49570717 63.63507485 -91.1433419 63.51292022 -88.885849 60.50292969 C-88.246474 59.43042969 -87.607099 58.35792969 -86.948349 57.25292969 C-85.83867734 56.21294755 -84.68948514 55.21404929 -83.510849 54.25292969 C-80.16661061 51.52192051 -77.66159785 48.60879011 -74.948349 45.25292969 C-73.29352321 43.57450567 -71.62431345 41.91024641 -69.948349 40.25292969 C-68.78454265 39.07948694 -67.62185655 37.90493248 -66.46006775 36.72949219 C-53.23943005 23.39543163 -53.23943005 23.39543163 -46.948349 18.25292969 C-46.16202087 17.60066406 -45.37569275 16.94839844 -44.5655365 16.27636719 C-42.05591755 14.22722878 -39.51679123 12.22772253 -36.948349 10.25292969 C-36.25225525 9.71539062 -35.5561615 9.17785156 -34.838974 8.62402344 C-25.20778164 1.69028909 -11.7419814 -5.30820174 0 0 Z M-413.948349 448.25292969 C-414.37547194 452.25320776 -414.37547194 452.25320776 -411.979599 454.61230469 C-411.1442865 455.40121094 -410.308974 456.19011719 -409.448349 457.00292969 C-408.19538025 458.20175781 -408.19538025 458.20175781 -406.917099 459.42480469 C-406.2674115 460.02808594 -405.617724 460.63136719 -404.948349 461.25292969 C-403.958349 460.92292969 -402.968349 460.59292969 -401.948349 460.25292969 C-403.41801258 456.85433266 -405.32872414 454.6032926 -407.948349 452.00292969 C-408.649599 451.29652344 -409.350849 450.59011719 -410.073349 449.86230469 C-411.78945667 448.0358257 -411.78945667 448.0358257 -413.948349 448.25292969 Z " fill="#FCFCFC" transform="translate(442.94834899902344,10.7470703125)"/>
<path d="M0 0 C3.92431217 1.96215609 6.56616971 5.50722031 9.51953125 8.6796875 C11.78586517 11.11187362 11.78586517 11.11187362 14.23583984 11.72167969 C18.51875809 13.70548765 21.39439949 16.93959093 24.69140625 20.265625 C25.41205765 20.98340622 26.13270905 21.70118744 26.87519836 22.4407196 C28.39420444 23.95768759 29.90944212 25.47843719 31.42114258 27.00268555 C33.73390236 29.33150109 36.06221197 31.64389598 38.39257812 33.95507812 C39.86815035 35.43263282 41.34279166 36.91111789 42.81640625 38.390625 C43.51223312 39.08037918 44.20806 39.77013336 44.92497253 40.48078918 C48.24217881 43.84667536 50.58662703 46.44465605 52.0546875 51.02734375 C54.60402981 53.70024062 57.30073597 56.14298775 60.03515625 58.625 C62.0546875 61.02734375 62.0546875 61.02734375 62.0859375 63.078125 C59.4544962 68.05194776 55.08493168 72.37613335 49.7421875 74.08984375 C48.8553125 74.39921875 47.9684375 74.70859375 47.0546875 75.02734375 C46.35626853 76.7196436 45.66046599 78.41310591 44.98249114 80.11369932 C43.37684907 83.42542163 40.86754073 85.76480193 38.26750183 88.32246399 C37.68114041 88.91506537 37.09477899 89.50766675 36.49064904 90.11822575 C34.53334417 92.09142082 32.56213116 94.05008421 30.59057617 96.0090332 C29.18033712 97.42469504 27.77094986 98.84120583 26.36235046 100.25849915 C22.54099412 104.09807116 18.70711659 107.92490623 14.87030578 111.74902749 C10.85524079 115.75395787 6.84995298 119.76864708 2.84309387 123.78178406 C-3.88591631 130.51806842 -10.62330991 137.24588154 -17.36547852 143.96899414 C-25.16024168 151.74198034 -32.94047824 159.52928367 -40.71334249 167.32416373 C-47.38888574 174.01785684 -54.07219003 180.70372584 -60.76204699 187.38311356 C-64.75699614 191.37182671 -68.74919366 195.36319301 -72.73441505 199.36162758 C-76.48053404 203.11929851 -80.23629782 206.86705436 -83.99973869 210.60737419 C-85.37944204 211.98178743 -86.75575076 213.35961802 -88.12839508 214.74108124 C-90.00222596 216.62583816 -91.88793674 218.49784834 -93.7771759 220.36714172 C-94.31794905 220.91683776 -94.8587222 221.46653379 -95.41588241 222.03288728 C-98.7365524 225.2858662 -101.49961291 226.77576486 -105.9453125 228.02734375 C-108.19694321 230.02026979 -108.19694321 230.02026979 -109.3203125 233.40234375 C-110.85257735 236.82047304 -112.15011806 238.61769337 -114.9453125 241.02734375 C-119.50796174 239.11330722 -122.27999706 235.75403326 -125.62890625 232.21875 C-127.77442463 229.99927482 -127.77442463 229.99927482 -130.10131836 228.86254883 C-134.16940036 226.23745033 -137.36150278 222.89623032 -140.765625 219.47265625 C-141.50610077 218.73409393 -142.24657654 217.99553162 -143.00949097 217.23458862 C-144.57014805 215.67528954 -146.12829424 214.11347384 -147.68408203 212.54931641 C-150.06193258 210.16076139 -152.45025358 207.78305372 -154.83984375 205.40625 C-156.3574125 203.88735959 -157.8743607 202.36784886 -159.390625 200.84765625 C-160.45943405 199.78491989 -160.45943405 199.78491989 -161.54983521 198.70071411 C-164.89090962 195.32793426 -167.6716016 192.23719853 -169.9453125 188.02734375 C-171.46194331 186.37974309 -173.02622949 184.77485913 -174.6328125 183.21484375 C-175.84517578 182.02955078 -175.84517578 182.02955078 -177.08203125 180.8203125 C-178.00435547 179.93279297 -178.00435547 179.93279297 -178.9453125 179.02734375 C-175.69450707 173.39812418 -172.93655245 171.39230689 -166.9453125 169.02734375 C-164.73767155 167.14578098 -164.73767155 167.14578098 -164.1744957 164.28827286 C-162.65886782 160.26742789 -160.28024193 157.80567159 -157.27838135 154.85247803 C-156.69287435 154.26073107 -156.10736736 153.66898411 -155.50411773 153.05930543 C-153.54372673 151.08298584 -151.56937947 149.12124176 -149.59472656 147.15917969 C-148.18463419 145.74366618 -146.77539396 144.32730335 -145.36694336 142.91015625 C-141.54140645 139.06638237 -137.70332216 135.23537107 -133.86232471 131.40705395 C-129.8445891 127.39944389 -125.8366205 123.38208527 -121.8270874 119.36627197 C-115.09210263 112.62400954 -108.34872676 105.89022588 -101.60058594 99.16113281 C-93.79846325 91.38077893 -86.01085528 83.58611969 -78.23063111 75.78387237 C-71.55086209 69.08595287 -64.8633311 62.39585837 -58.16924834 55.71224427 C-54.17093045 51.72016318 -50.17536595 47.72542711 -46.18677521 43.72362518 C-42.43656596 39.96186338 -38.67671058 36.21001768 -34.90917969 32.46560669 C-33.52786461 31.08958177 -32.14994426 29.7101394 -30.77568817 28.32706451 C-28.89961444 26.44006473 -27.01166021 24.56581124 -25.12017822 22.6942749 C-24.30799532 21.86870767 -24.30799532 21.86870767 -23.47940469 21.02646232 C-20.13837179 17.75345361 -17.35854095 16.40218976 -12.9453125 15.02734375 C-12.2239181 13.38781102 -11.51319131 11.74021534 -10.91796875 10.05078125 C-9.02276528 6.10814913 -4.7052764 0.06613842 0 0 Z " fill="#353535" transform="translate(326.9453125,110.97265625)"/>
<path d="M0 0 C2.45602258 2.29227569 4.8399138 4.64083649 7.2084198 7.02345276 C8.51821053 8.32394562 8.51821053 8.32394562 9.85446167 9.65071106 C11.69237512 11.48153888 13.52519225 13.31749526 15.35319519 15.15821838 C18.14990198 17.9688028 20.96977855 20.75455254 23.79240417 23.53907776 C25.57836171 25.32408418 27.36291557 27.11049634 29.1459198 28.89845276 C29.98858902 29.72786377 30.83125824 30.55727478 31.69946289 31.41181946 C36.04277425 35.82509129 38.9987547 38.99237022 39.84513855 45.22657776 C36.93751091 59.29637327 25.40872859 72.20074753 15.84513855 82.22657776 C14.62853121 83.6152054 13.41937743 85.01042316 12.22013855 86.41407776 C8.62882663 90.55394329 4.76438053 94.39895442 0.84513855 98.22657776 C-3.29111154 96.59592131 -6.05442744 93.59434324 -9.11677551 90.49171448 C-9.99547302 89.61345505 -9.99547302 89.61345505 -10.891922 88.717453 C-12.82288984 86.7850942 -14.74668092 84.8457526 -16.67048645 82.90626526 C-18.00954756 81.56347319 -19.34905154 80.22112263 -20.6889801 78.87919617 C-24.21150574 75.34904059 -27.72798348 71.8129197 -31.24324036 68.27552795 C-34.83254696 64.66574925 -38.42753401 61.06163761 -42.02204895 57.45704651 C-49.07189463 50.38576218 -56.11536482 43.30816363 -63.15486145 36.22657776 C-61.3319102 32.28935998 -58.78556867 29.55233201 -55.71736145 26.53907776 C-55.18457581 26.0116095 -54.65179016 25.48414124 -54.1028595 24.94068909 C-49.06226057 20.01785071 -43.70246263 15.56744998 -38.15486145 11.22657776 C-37.38400208 10.60009338 -36.6131427 9.97360901 -35.81892395 9.32814026 C-11.95987328 -9.84281624 -11.95987328 -9.84281624 0 0 Z " fill="#013F3A" transform="translate(443.1548614501953,21.773422241210938)"/>
<path d="M0 0 C6.49283169 5.36705845 12.45811562 11.24056222 18.4375 17.1640625 C18.97292419 17.69416302 19.50834839 18.22426353 20.05999756 18.7704277 C22.88252819 21.56642633 25.70150959 24.36595329 28.51806641 27.16796875 C30.84682067 29.48329089 33.18266869 31.79108952 35.52490234 34.09277344 C38.36450976 36.88324796 41.19181787 39.68562736 44.01052856 42.49720383 C45.0844516 43.5644 46.16263607 44.6273254 47.24508667 45.68587112 C48.75081943 47.16017313 50.24020675 48.64926693 51.7265625 50.14306641 C52.57814941 50.98656647 53.42973633 51.83006653 54.30712891 52.6991272 C56 55 56 55 55.94628906 57.15023804 C54.26298413 60.44068444 51.10442323 62.21477714 48.125 64.25 C47.38757568 64.76232178 46.65015137 65.27464355 45.89038086 65.80249023 C36.74188898 72.03358967 27.15368672 77.5580379 17.59375 83.125 C13.48758212 85.51947434 9.42387949 87.95978368 5.40625 90.5 C4.16379517 91.28298462 4.16379517 91.28298462 2.89624023 92.08178711 C1.38407302 93.04122786 -0.12208194 94.01023787 -1.62084961 94.99047852 C-6.47471515 98.05635843 -6.47471515 98.05635843 -9.00968933 97.78437805 C-11.26866017 96.89412148 -12.49667873 95.89565417 -14.22387695 94.19604492 C-14.82742508 93.60840866 -15.43097321 93.0207724 -16.05281067 92.41532898 C-17.01086861 91.45757317 -17.01086861 91.45757317 -17.98828125 90.48046875 C-18.9821711 89.49799919 -18.9821711 89.49799919 -19.99613953 88.49568176 C-21.39264682 87.1099716 -22.7852051 85.7202719 -24.17407227 84.3269043 C-26.30812123 82.19188077 -28.4626052 80.0790755 -30.61914062 77.96679688 C-31.97265275 76.61848984 -33.32491053 75.2689222 -34.67578125 73.91796875 C-35.3246077 73.28553757 -35.97343414 72.65310638 -36.641922 72.00151062 C-37.22970932 71.40441788 -37.81749664 70.80732513 -38.4230957 70.19213867 C-39.20774956 69.41056648 -39.20774956 69.41056648 -40.008255 68.61320496 C-41 67 -41 67 -40.73458862 64.9437561 C-39.81934717 62.52198411 -38.6436367 60.40149822 -37.33203125 58.16796875 C-36.77555908 57.21591553 -36.21908691 56.2638623 -35.64575195 55.28295898 C-35.04077881 54.26145752 -34.43580566 53.23995605 -33.8125 52.1875 C-33.18754639 51.12668213 -32.56259277 50.06586426 -31.91870117 48.97290039 C-29.95259292 45.64452308 -27.9770728 42.3218738 -26 39 C-25.38769531 37.96552734 -24.77539062 36.93105469 -24.14453125 35.86523438 C-7.07266983 7.07266983 -7.07266983 7.07266983 0 0 Z " fill="#353535" transform="translate(67,376)"/>
<path d="M0 0 C7.10512006 5.80138692 13.4701862 12.34389677 19.93359375 18.8359375 C21.17890345 20.0831151 22.42443621 21.33007001 23.67018127 22.57681274 C26.92905366 25.83948105 30.18491018 29.10514251 33.44012451 32.37145996 C36.77009779 35.71171062 40.10294673 39.04908931 43.43554688 42.38671875 C49.95983139 48.92168893 56.48092996 55.45982831 63 62 C60.16143606 65.63470065 57.35437012 68.54885481 53.75 71.4375 C52.78964844 72.20835937 51.82929688 72.97921875 50.83984375 73.7734375 C47.26798922 76.57392867 43.65810107 79.31359121 40 82 C33.22284035 76.4416326 27.11649647 70.24368339 20.94140625 64.0390625 C19.78577771 62.88156574 18.62992586 61.72429189 17.47386169 60.56723022 C14.45172262 57.54129782 11.43260047 54.51237303 8.41412354 51.48278809 C5.32544553 48.38382705 2.23388665 45.28774287 -0.85742188 42.19140625 C-6.90775098 36.13039606 -12.95489193 30.06621753 -19 24 C-13.81624495 15.1844848 -6.77237625 7.62673757 0 0 Z " fill="#003E39" transform="translate(91,346)"/>
<path d="M0 0 C4.59076711 1.9154221 7.34532607 5.32994932 10.68359375 8.90625 C12.83406045 11.10287556 12.83406045 11.10287556 15.41621399 11.92655945 C18.13671047 13.05679672 19.58404903 14.20429597 21.65698242 16.26879883 C22.33085495 16.93321487 23.00472748 17.59763092 23.69902039 18.28218079 C24.41064835 18.99988144 25.12227631 19.71758209 25.85546875 20.45703125 C26.59831619 21.19700851 27.34116364 21.93698578 28.10652161 22.6993866 C29.67260622 24.26343283 31.23492107 25.83126163 32.79370117 27.40258789 C35.17888505 29.80382706 37.57963099 32.18865968 39.98242188 34.57226562 C41.50356699 36.09539321 43.0237812 37.61945117 44.54296875 39.14453125 C45.2606694 39.85615921 45.97837006 40.56778717 46.71781921 41.30097961 C47.38223526 41.97485214 48.04665131 42.64872467 48.73120117 43.34301758 C49.31568527 43.92988846 49.90016937 44.51675934 50.50236511 45.12141418 C52.23097903 47.28973279 53.00270208 49.42534526 54 52 C56.37401668 54.73538435 56.37401668 54.73538435 59.125 57.3125 C60.03507812 58.19550781 60.94515625 59.07851563 61.8828125 59.98828125 C62.58148438 60.65214844 63.28015625 61.31601562 64 62 C61.97699054 66.43626553 59.02132242 69.38251359 55.625 72.8125 C55.0475 73.42287109 54.47 74.03324219 53.875 74.66210938 C53.02808594 75.5196582 53.02808594 75.5196582 52.1640625 76.39453125 C51.65311035 76.91893799 51.1421582 77.44334473 50.61572266 77.98364258 C49 79 49 79 47.07381821 78.71577549 C43.64453417 77.53216284 41.43583524 74.82470483 38.94628906 72.28686523 C38.35073715 71.6917514 37.75518524 71.09663757 37.1415863 70.48348999 C35.17573781 68.51555224 33.22072727 66.53720323 31.265625 64.55859375 C29.90436191 63.19173522 28.54243477 61.82553774 27.17987061 60.4599762 C23.59593213 56.86458498 20.02109399 53.26027557 16.44805908 49.65405273 C12.80023982 45.97554208 9.14391017 42.30551238 5.48828125 38.63476562 C-1.68284736 31.43146526 -8.84439333 24.21871743 -16 17 C-15.05893615 15.8921646 -14.11643273 14.78555197 -13.17333984 13.67944336 C-12.64864105 13.06306503 -12.12394226 12.44668671 -11.58334351 11.81163025 C-9.37254722 9.28208097 -7.01599944 6.92118864 -4.625 4.5625 C-3.75101563 3.69753906 -2.87703125 2.83257812 -1.9765625 1.94140625 C-1.32429688 1.30074219 -0.67203125 0.66007812 0 0 Z " fill="#343534" transform="translate(113,323)"/>
<path d="M0 0 C4.13625009 1.63065645 6.89956599 4.63223452 9.96191406 7.73486328 C10.5477124 8.32036957 11.13351074 8.90587585 11.73706055 9.50912476 C13.66802839 11.44148356 15.59181947 13.38082516 17.515625 15.3203125 C18.85468611 16.66310456 20.19419009 18.00545513 21.53411865 19.34738159 C25.05664429 22.87753717 28.57312203 26.41365806 32.08837891 29.9510498 C35.67768551 33.56082851 39.27267256 37.16494015 42.8671875 40.76953125 C49.91703318 47.84081558 56.96050337 54.91841413 64 62 C62.21799313 65.85027991 59.92324595 68.2799142 56.875 71.25 C55.96492188 72.14203125 55.05484375 73.0340625 54.1171875 73.953125 C53.41851562 74.62859375 52.71984375 75.3040625 52 76 C47.41949991 74.09318548 44.7143849 70.68562031 41.4140625 67.09375 C39.16943598 64.83105517 39.16943598 64.83105517 36.33251953 64.31933594 C31.63008683 62.45765489 28.78420329 59.35706877 25.265625 55.796875 C24.18677032 54.72376068 24.18677032 54.72376068 23.08612061 53.62896729 C21.57186048 52.11742273 20.06261436 50.60084054 18.55810547 49.07958984 C16.25783444 46.75790736 13.93702065 44.45832222 11.61328125 42.16015625 C10.14194496 40.68617662 8.67185002 39.2109566 7.203125 37.734375 C6.51043518 37.0497821 5.81774536 36.36518921 5.10406494 35.65985107 C1.4381476 31.921843 -0.65509848 29.1775419 -2 24 C-4.3512496 21.16815122 -4.3512496 21.16815122 -7.125 18.625 C-8.03507812 17.75101563 -8.94515625 16.87703125 -9.8828125 15.9765625 C-10.58148438 15.32429688 -11.28015625 14.67203125 -12 14 C-10.41332422 10.09714233 -7.86649519 7.66479018 -4.875 4.75 C-3.96492188 3.85796875 -3.05484375 2.9659375 -2.1171875 2.046875 C-1.41851562 1.37140625 -0.71984375 0.6959375 0 0 Z " fill="#353635" transform="translate(373,63)"/>
<path d="M0 0 C1.65 0 3.3 0 5 0 C5 1.32 5 2.64 5 4 C6.32 4 7.64 4 9 4 C9 5.32 9 6.64 9 8 C10.32 8 11.64 8 13 8 C13 9.32 13 10.64 13 12 C14.32 12 15.64 12 17 12 C16.9175 10.9275 16.835 9.855 16.75 8.75 C17 5 17 5 19 2.5625 C19.66 2.046875 20.32 1.53125 21 1 C24.45201639 2.47721422 26.64961936 4.43794001 29.25 7.125 C29.95640625 7.84945313 30.6628125 8.57390625 31.390625 9.3203125 C32.18726563 10.15175781 32.18726563 10.15175781 33 11 C31.21875 14.8359375 31.21875 14.8359375 29.25 16.3125 C26.24827907 17.22969251 24.02230874 16.68688835 21 16 C21 17.32 21 18.64 21 20 C22.32 20 23.64 20 25 20 C25 21.32 25 22.64 25 24 C26.32 24 27.64 24 29 24 C29 25.32 29 26.64 29 28 C30.32 28 31.64 28 33 28 C33 29.65 33 31.3 33 33 C28.34165881 29.10451907 23.91391226 25.06301094 19.62890625 20.76171875 C19.06171371 20.19548294 18.49452118 19.62924713 17.91014099 19.04585266 C16.72670827 17.86309421 15.54451227 16.67909712 14.36352539 15.49389648 C12.54622764 13.67117911 10.72356975 11.85394191 8.90039062 10.03710938 C7.74707453 8.88313353 6.59406809 7.7288481 5.44140625 6.57421875 C4.89464737 6.0294841 4.34788849 5.48474945 3.78456116 4.92350769 C0 1.11498901 0 1.11498901 0 0 Z " fill="#E1E4E1" transform="translate(131,336)"/>
<path d="M0 0 C0.33 0 0.66 0 1 0 C1 2.31 1 4.62 1 7 C2.32 7 3.64 7 5 7 C5 8.32 5 9.64 5 11 C6.32 11 7.64 11 9 11 C9 12.32 9 13.64 9 15 C10.32 15 11.64 15 13 15 C13 16.32 13 17.64 13 19 C14.32 19 15.64 19 17 19 C17 20.32 17 21.64 17 23 C18.32 23 19.64 23 21 23 C21 24.32 21 25.64 21 27 C22.32 27 23.64 27 25 27 C25 28.32 25 29.64 25 31 C26.32 31 27.64 31 29 31 C29 32.32 29 33.64 29 35 C30.32 35 31.64 35 33 35 C33 36.32 33 37.64 33 39 C34.32 39 35.64 39 37 39 C37 40.32 37 41.64 37 43 C38.32 43 39.64 43 41 43 C41 44.32 41 45.64 41 47 C42.32 47 43.64 47 45 47 C45 48.32 45 49.64 45 51 C46.32 51 47.64 51 49 51 C49 52.32 49 53.64 49 55 C50.32 55 51.64 55 53 55 C53 56.32 53 57.64 53 59 C55.31 59 57.62 59 60 59 C58.68 60.32 57.36 61.64 56 63 C49.22284035 57.4416326 43.11649647 51.24368339 36.94140625 45.0390625 C35.78577771 43.88156574 34.62992586 42.72429189 33.47386169 41.56723022 C30.45172262 38.54129782 27.43260047 35.51237303 24.41412354 32.48278809 C21.32544553 29.38382705 18.23388665 26.28774287 15.14257812 23.19140625 C9.09224902 17.13039606 3.04510807 11.06621753 -3 5 C-2.03114628 3.31503702 -1.03013277 1.64821244 0 0 Z " fill="#09423A" transform="translate(75,365)"/>
<path d="M0 0 C6.14602229 5.04758427 11.74871737 10.59558961 17.35473633 16.22436523 C18.95474662 17.82980515 20.5601231 19.42974308 22.16601562 21.02929688 C23.18261306 22.04655391 24.1989009 23.06412047 25.21484375 24.08203125 C26.13386475 25.00218018 27.05288574 25.9223291 27.99975586 26.87036133 C30 29 30 29 30 30 C28.02 30 26.04 30 24 30 C24 28.68 24 27.36 24 26 C22.68 26 21.36 26 20 26 C20 24.68 20 23.36 20 22 C18.68 22 17.36 22 16 22 C16 20.68 16 19.36 16 18 C14.68 18 13.36 18 12 18 C12 16.68 12 15.36 12 14 C10.68 14 9.36 14 8 14 C8 12.68 8 11.36 8 10 C6.68 10 5.36 10 4 10 C4 8.68 4 7.36 4 6 C2.68 6 1.36 6 0 6 C0 4.02 0 2.04 0 0 Z " fill="#F4F8FC" transform="translate(76,374)"/>
<path d="M0 0 C3.45201639 1.47721422 5.64961936 3.43794001 8.25 6.125 C8.95640625 6.84945313 9.6628125 7.57390625 10.390625 8.3203125 C11.18726563 9.15175781 11.18726563 9.15175781 12 10 C10.48601545 13.78496138 9.9855604 14.0072198 6 16 C2.7 12.7 -0.6 9.4 -4 6 C-2 2 -2 2 0 0 Z " fill="#711C15" transform="translate(152,337)"/>
<path d="M0 0 C3.45201639 1.47721422 5.64961936 3.43794001 8.25 6.125 C8.95640625 6.84945312 9.6628125 7.57390625 10.390625 8.3203125 C11.18726563 9.15175781 11.18726563 9.15175781 12 10 C10.48601545 13.78496138 9.9855604 14.0072198 6 16 C2.7 12.7 -0.6 9.4 -4 6 C-2 2 -2 2 0 0 Z " fill="#6E1911" transform="translate(364,125)"/>
<path d="M0 0 C3.45201639 1.47721422 5.64961936 3.43794001 8.25 6.125 C8.95640625 6.84945312 9.6628125 7.57390625 10.390625 8.3203125 C11.18726563 9.15175781 11.18726563 9.15175781 12 10 C10.48601545 13.78496138 9.9855604 14.0072198 6 16 C2.7 12.7 -0.6 9.4 -4 6 C-2 2 -2 2 0 0 Z " fill="#6E1C17" transform="translate(379,110)"/>
<path d="M0 0 C0.67095703 0.58007812 0.67095703 0.58007812 1.35546875 1.171875 C4.8521026 4.18390075 8.37407463 7.14321031 12 10 C10.60840337 13.47899158 9.36748512 14.48052501 6 16 C4.70756532 14.8758824 3.41607925 13.75067408 2.125 12.625 C1.40570313 11.99851562 0.68640625 11.37203125 -0.0546875 10.7265625 C-1.4076598 9.52573166 -2.7208345 8.2791655 -4 7 C-3.67568578 3.64875309 -2.37748627 2.24931989 0 0 Z " fill="#681411" transform="translate(167,322)"/>
<path d="M0 0 C3.15497555 1.07730872 4.56464683 2.21119577 6.5625 4.875 C6.9375 7.5 6.9375 7.5 6.5625 9.875 C4.5625 11.875 4.5625 11.875 1.6875 12.25 C-1.4375 11.875 -1.4375 11.875 -3.8125 10.25 C-5.88995486 7.21371982 -5.98646129 5.48245994 -5.4375 1.875 C-2.4375 -0.125 -2.4375 -0.125 0 0 Z " fill="#101110" transform="translate(338.4375,98.125)"/>
<path d="M0 0 C2.77776513 2.10209253 3.87750076 3.14250535 4.375 6.625 C4 9 4 9 2 11 C-0.875 11.4375 -0.875 11.4375 -4 11 C-6.4375 8.875 -6.4375 8.875 -8 6 C-7.875 2.75 -7.875 2.75 -7 0 C-4.23382717 -1.38308641 -2.92591209 -0.90563946 0 0 Z " fill="#3B3C3B" transform="translate(356,84)"/>
<path d="M0 0 C3.94145382 0.64163202 5.34955391 2.27439646 7.6875 5.4375 C7.5 8.75 7.5 8.75 6.6875 11.4375 C4 12.25 4 12.25 0.6875 12.4375 C-2.47560354 10.09955391 -4.10836798 8.69145382 -4.75 4.75 C-4.14496809 1.55197422 -3.19802578 0.60503191 0 0 Z " fill="#0E0E0E" transform="translate(409.3125,139.5625)"/>
<path d="M0 0 C3.02552967 0.19311891 5.26011831 0.55607099 7.875 2.125 C9.611916 5.01986 9.18630572 7.70859897 9 11 C5.75 11.75 5.75 11.75 2 12 C-0.4375 10.4375 -0.4375 10.4375 -2 8 C-2.375 4.875 -2.375 4.875 -2 2 C-1.34 1.34 -0.68 0.68 0 0 Z " fill="#3C3C3C" transform="translate(180,367)"/>
<path d="M0 0 C3.25 -0.3125 3.25 -0.3125 7 0 C9.5 2.1875 9.5 2.1875 11 5 C10.70731707 9.29268293 10.70731707 9.29268293 9 11 C5.45377897 11.39402456 3.601154 11.38535513 0.5625 9.4375 C-1 7 -1 7 -0.75 3.25 C-0.5025 2.1775 -0.255 1.105 0 0 Z " fill="#090A09" transform="translate(122,311)"/>
<path d="M0 0 C3.89369312 0.0846455 5.55179595 0.58627318 8.4375 3.25 C10 6 10 6 9.75 8.8125 C9.5025 9.534375 9.255 10.25625 9 11 C6.3125 11.8125 6.3125 11.8125 3 12 C-0.16310354 9.66205391 -1.79586798 8.25395382 -2.4375 4.3125 C-2 2 -2 2 0 0 Z " fill="#3C3C3C" transform="translate(392,155)"/>
<path d="M0 0 C2.79861933 0.90955128 3.92407738 1.32420112 5.5 3.8125 C5.6875 7.5 5.6875 7.5 5.5 10.8125 C2.25 11.5625 2.25 11.5625 -1.5 11.8125 C-3.9375 10.25 -3.9375 10.25 -5.5 7.8125 C-5.9375 4.6875 -5.9375 4.6875 -5.5 1.8125 C-2.5 -0.1875 -2.5 -0.1875 0 0 Z " fill="#080908" transform="translate(198.5,352.1875)"/>
<path d="M0 0 C6.25925926 -0.48148148 6.25925926 -0.48148148 9.5 1.625 C11 4 11 4 10.8125 7.1875 C10 10 10 10 9 11 C6.1875 11.375 6.1875 11.375 3 11 C0.5625 8.875 0.5625 8.875 -1 6 C-0.75 2.6875 -0.75 2.6875 0 0 Z " fill="#3B3B3B" transform="translate(137,296)"/>
<path d="M0 0 C1.65 0 3.3 0 5 0 C5 1.32 5 2.64 5 4 C8.63 4 12.26 4 16 4 C13.75 8.5 13.75 8.5 10 10 C8.70450101 8.90033225 7.41373929 7.79508199 6.125 6.6875 C5.40570313 6.07261719 4.68640625 5.45773437 3.9453125 4.82421875 C2 3 2 3 0 0 Z " fill="#711E16" transform="translate(163,328)"/>
<path d="M0 0 C6.75 5.625 6.75 5.625 9 9 C6.03 9 3.06 9 0 9 C0 6.03 0 3.06 0 0 Z " fill="#F3EAE8" transform="translate(148,343)"/>
<path d="M0 0 C1.32 0.66 2.64 1.32 4 2 C2.02 4.97 2.02 4.97 0 8 C-1.32 7.34 -2.64 6.68 -4 6 C-2.84826645 3.53199953 -1.95216435 1.95216435 0 0 Z " fill="#72211C" transform="translate(157,313)"/>
<path d="M0 0 C0.99 0.66 1.98 1.32 3 2 C1.95125002 4.62187494 1.35068687 5.79371361 -1.125 7.25 C-1.74375 7.4975 -2.3625 7.745 -3 8 C-3.66 7.01 -4.32 6.02 -5 5 C-3.35 3.35 -1.7 1.7 0 0 Z " fill="#6E1A14" transform="translate(355,115)"/>
<path d="M0 0 C0.99 0.66 1.98 1.32 3 2 C1.95125002 4.62187494 1.35068687 5.79371361 -1.125 7.25 C-1.74375 7.4975 -2.3625 7.745 -3 8 C-3.66 7.01 -4.32 6.02 -5 5 C-3.35 3.35 -1.7 1.7 0 0 Z " fill="#6E1D17" transform="translate(370,100)"/>
<path d="M0 0 C2.25 0.25 2.25 0.25 4 1 C2.95125002 3.62187494 2.35068687 4.79371361 -0.125 6.25 C-0.74375 6.4975 -1.3625 6.745 -2 7 C-2.66 6.01 -3.32 5.02 -4 4 C-2.25 1.9375 -2.25 1.9375 0 0 Z " fill="#6C1713" transform="translate(142,328)"/>
<path d="M0 0 C5.53846154 -0.36923077 5.53846154 -0.36923077 7.875 1.5 C8.24625 1.995 8.6175 2.49 9 3 C8.67 3.66 8.34 4.32 8 5 C5.36 4.67 2.72 4.34 0 4 C0 2.68 0 1.36 0 0 Z " fill="#650D07" transform="translate(168,328)"/>
<path d="M0 0 C0 0.99 0 1.98 0 3 C-0.66 3.66 -1.32 4.32 -2 5 C-2.103125 5.825 -2.20625 6.65 -2.3125 7.5 C-2.539375 8.325 -2.76625 9.15 -3 10 C-5.4375 11.25 -5.4375 11.25 -8 12 C-8.99 12.495 -8.99 12.495 -10 13 C-8.48446596 9.52224821 -6.4226544 7.0442016 -3.875 4.25 C-3.15054688 3.45078125 -2.42609375 2.6515625 -1.6796875 1.828125 C-0.84824219 0.92320312 -0.84824219 0.92320312 0 0 Z " fill="#154D47" transform="translate(91,346)"/>
<path d="M0 0 C1.65 0 3.3 0 5 0 C5 1.32 5 2.64 5 4 C6.32 4 7.64 4 9 4 C9 5.65 9 7.3 9 9 C7.87105124 8.06725891 6.74699124 7.12859878 5.625 6.1875 C4.99851563 5.66542969 4.37203125 5.14335937 3.7265625 4.60546875 C2 3 2 3 0 0 Z " fill="#7C2F2C" transform="translate(163,328)"/>
<path d="M0 0 C1.12894876 0.93274109 2.25300876 1.87140122 3.375 2.8125 C4.00148438 3.33457031 4.62796875 3.85664063 5.2734375 4.39453125 C7 6 7 6 9 9 C7.35 9 5.7 9 4 9 C4 7.68 4 6.36 4 5 C2.68 5 1.36 5 0 5 C0 3.35 0 1.7 0 0 Z " fill="#F5F4F3" transform="translate(360,131)"/>
<path d="M0 0 C3.96 0 7.92 0 12 0 C12 0.99 12 1.98 12 3 C11.13375 2.814375 10.2675 2.62875 9.375 2.4375 C5.94847372 1.99332067 3.35787629 2.28045508 0 3 C0 2.01 0 1.02 0 0 Z " fill="#E2E9E7" transform="translate(428,16)"/>
<path d="M0 0 C0.66 0.33 1.32 0.66 2 1 C0.95125002 3.62187494 0.35068687 4.79371361 -2.125 6.25 C-2.74375 6.4975 -3.3625 6.745 -4 7 C-4.33 6.01 -4.66 5.02 -5 4 C-3.35 2.68 -1.7 1.36 0 0 Z " fill="#762720" transform="translate(185,340)"/>
<path d="M0 0 C0.99 0.33 1.98 0.66 3 1 C1.35 2.98 -0.3 4.96 -2 7 C-2.66 6.67 -3.32 6.34 -4 6 C-2.84826645 3.53199953 -1.95216435 1.95216435 0 0 Z " fill="#6F1E16" transform="translate(382,143)"/>
<path d="M0 0 C0.99 0.33 1.98 0.66 3 1 C1.35 2.98 -0.3 4.96 -2 7 C-2.66 6.67 -3.32 6.34 -4 6 C-2.84826645 3.53199953 -1.95216435 1.95216435 0 0 Z " fill="#711F1A" transform="translate(397,128)"/>
<path d="M0 0 C-0.39803561 2.88575819 -0.79009069 3.82189513 -3.0625 5.75 C-3.701875 6.1625 -4.34125 6.575 -5 7 C-5 3 -5 3 -3.625 1.25 C-2 0 -2 0 0 0 Z " fill="#6C1A14" transform="translate(172,355)"/>
<path d="M0 0 C-0.99 0 -1.98 0 -3 0 C-3 1.32 -3 2.64 -3 4 C-3.99 4 -4.98 4 -6 4 C-6.33 4.66 -6.66 5.32 -7 6 C-6.625 3.0625 -6.625 3.0625 -6 0 C-3.50907189 -1.24546405 -2.58919267 -0.7767578 0 0 Z " fill="#555155" transform="translate(355,84)"/>
<path d="M0 0 C2.64 0 5.28 0 8 0 C6.68 1.32 5.36 2.64 4 4 C2.68 2.68 1.36 1.36 0 0 Z " fill="#114B46" transform="translate(127,424)"/>
<path d="M0 0 C0.66 0 1.32 0 2 0 C2 1.32 2 2.64 2 4 C0.35 4 -1.3 4 -3 4 C-1.625 2 -1.625 2 0 0 Z M-6 5 C-5.34 5.33 -4.68 5.66 -4 6 C-4.99 6 -5.98 6 -7 6 C-6.67 5.67 -6.34 5.34 -6 5 Z " fill="#F0F5F2" transform="translate(154,408)"/>
<path d="M0 0 C0.33 0 0.66 0 1 0 C1 2.64 1 5.28 1 8 C-0.32 6.68 -1.64 5.36 -3 4 C-2.02727325 2.64664105 -1.0260734 1.31337396 0 0 Z " fill="#114C49" transform="translate(75,365)"/>
<path d="M0 0 C0.66 0 1.32 0 2 0 C2 2.31 2 4.62 2 7 C0.68 6.01 -0.64 5.02 -2 4 C-1.34 2.68 -0.68 1.36 0 0 Z " fill="#691511" transform="translate(150,339)"/>
<path d="M0 0 C0.94875 0.350625 1.8975 0.70125 2.875 1.0625 C5.87060172 2.35026777 5.87060172 2.35026777 8 1 C7.67 1.99 7.34 2.98 7 4 C4.69 4 2.38 4 0 4 C0 2.68 0 1.36 0 0 Z " fill="#ECE0DC" transform="translate(136,332)"/>
<path d="M0 0 C0.33 0.66 0.66 1.32 1 2 C0.67 2.99 0.34 3.98 0 5 C-1.32 5 -2.64 5 -4 5 C-4 3.68 -4 2.36 -4 1 C-2.68 0.67 -1.36 0.34 0 0 Z " fill="#660E07" transform="translate(384,115)"/>
</svg>
