<?xml version="1.0" encoding="UTF-8"?>
<svg version="1.1" xmlns="http://www.w3.org/2000/svg" width="500" height="500">
<path d="M0 0 C2.09375 1.03125 2.09375 1.03125 3.5 2.5 C3.9846875 2.9640625 4.469375 3.428125 4.96875 3.90625 C6.66083955 7.34170454 6.9127487 10.3422038 6 14 C3.5125345 17.61056017 0.41585636 20.51479524 -2.75 23.53125 C-3.6378418 24.40777222 -4.52568359 25.28429443 -5.44042969 26.18737793 C-7.79390109 28.50372735 -10.16356555 30.80164148 -12.54248047 33.09179688 C-14.9698827 35.4370659 -17.37453545 37.80541387 -19.78125 40.171875 C-24.50022436 44.80273143 -29.24129896 49.40999568 -34 54 C-32.8847284 55.28984802 -31.7672859 56.57781918 -30.64892578 57.86499023 C-30.02688263 58.58242905 -29.40483948 59.29986786 -28.76394653 60.03904724 C-26.96719861 62.10327197 -26.96719861 62.10327197 -24.6171875 64.16015625 C-21.77785752 67.39040847 -22.09214518 70.53070685 -22.2421875 74.671875 C-23.59534058 80.61458852 -27.62962393 84.67838155 -31.50292969 89.18701172 C-34.1562922 92.40029777 -36.49967915 95.82902372 -38.875 99.25 C-39.88923278 100.69537576 -40.90355658 102.14068765 -41.91796875 103.5859375 C-43.4669777 105.80190136 -45.01356034 108.01950069 -46.55712891 110.23925781 C-54.12086039 121.11375347 -61.54765108 131.67836047 -71.0390625 140.9765625 C-72.40998047 142.3217395 -72.40998047 142.3217395 -73.80859375 143.6940918 C-75.67091489 145.50814369 -77.54580028 147.30939477 -79.43359375 149.09692383 C-80.72330078 150.34638794 -80.72330078 150.34638794 -82.0390625 151.62109375 C-82.82490723 152.3680249 -83.61075195 153.11495605 -84.42041016 153.88452148 C-86.25489428 155.83607034 -86.25489428 155.83607034 -85.76318359 158.03149414 C-85.51133301 158.68110107 -85.25948242 159.33070801 -85 160 C-84.63692686 165.62763372 -84.77741496 169.16612244 -88 174 C-91.88931489 177.93182107 -95.03478348 179.96669125 -100.6875 180.0625 C-101.780625 180.041875 -102.87375 180.02125 -104 180 C-103.9071875 181.546875 -103.9071875 181.546875 -103.8125 183.125 C-104.04262406 187.88089716 -105.0342462 191.00739164 -108.4296875 194.44921875 C-113.41849903 198.7803014 -117.55991849 199.42027403 -124 199 C-124.95316633 198.66745592 -124.95316633 198.66745592 -125.92558855 198.32819378 C-128.01552155 197.76644292 -128.01552155 197.76644292 -129.61906582 199.00037467 C-130.14926813 199.53355973 -130.67947044 200.06674478 -131.22573948 200.61608696 C-131.843481 201.22510664 -132.46122253 201.83412632 -133.09768349 202.46160114 C-133.76722665 203.14707275 -134.43676982 203.83254436 -135.12660217 204.53878784 C-135.84504742 205.25437209 -136.56349266 205.96995634 -137.30370897 206.70722497 C-139.7237197 209.12366514 -142.12535902 211.55759025 -144.52758789 213.99169922 C-146.25306216 215.72185522 -147.97965152 217.45089976 -149.70727539 219.1789093 C-153.43435343 222.91164025 -157.15367474 226.65185162 -160.86638069 230.39886093 C-166.24528701 235.827256 -171.63890332 241.24084002 -177.03641634 246.65072729 C-185.80703091 255.44206426 -194.56715634 264.24377422 -203.32006836 273.05273438 C-211.7992984 281.58618787 -220.28082437 290.11734004 -228.76733398 298.64355469 C-229.28876187 299.167427 -229.81018976 299.69129931 -230.34741849 300.23104654 C-236.04979961 305.95991316 -241.75349365 311.6874693 -247.45910549 317.41311836 C-248.21330079 318.16996464 -248.21330079 318.16996464 -248.98273237 318.94210074 C-250.9940126 320.96039604 -253.00532203 322.9786622 -255.01681476 324.99674572 C-260.88920104 330.88839499 -266.75748579 336.78405567 -272.61822587 342.68729134 C-276.74028361 346.83891909 -280.86726051 350.98563224 -284.99593353 355.13068199 C-286.68148373 356.8247275 -288.36527827 358.52052205 -290.04712486 360.21824455 C-305.46356795 375.77738828 -305.46356795 375.77738828 -313.85874081 382.29104805 C-315.91919904 383.93551226 -317.73486017 385.66602127 -319.5625 387.5625 C-320.366875 388.366875 -321.17125 389.17125 -322 390 C-322.66 390 -323.32 390 -324 390 C-324 390.66 -324 391.32 -324 392 C-325.69903023 393.51740976 -327.46072723 394.965128 -329.25 396.375 C-332.05313312 398.59229313 -334.73701197 400.7305752 -337.234375 403.2890625 C-339 405 -339 405 -341 405 C-341 405.66 -341 406.32 -341 407 C-342.51151546 408.35097374 -344.08813313 409.62927345 -345.6875 410.875 C-350.18677102 414.46977839 -354.47875404 418.19499116 -358.6875 422.125 C-362.75116132 425.9160554 -366.83969963 429.65603484 -371.04296875 433.29296875 C-373.3855915 435.33633431 -375.69273422 437.41680859 -378 439.5 C-381.13455536 442.32544666 -384.27349064 445.14504403 -387.4375 447.9375 C-388.36369141 448.75541016 -388.36369141 448.75541016 -389.30859375 449.58984375 C-392.86050315 452.55113542 -394.88378565 453.27471487 -399.4375 453.25 C-400.38496094 453.25515625 -401.33242188 453.2603125 -402.30859375 453.265625 C-405.02552453 452.99748089 -406.67465583 452.38531142 -409 451 C-409.4846875 451.49628906 -409.969375 451.99257813 -410.46875 452.50390625 C-414.49730251 456.58668927 -418.61935786 460.4547261 -422.96875 464.19140625 C-426.46571091 467.30504645 -429.72967735 470.65139835 -433 474 C-435.8605891 472.64062915 -437.85927699 471.35479531 -440 469 C-438.55218207 465.55571735 -436.72305391 463.63869038 -433.875 461.25 C-433.15054688 460.63640625 -432.42609375 460.0228125 -431.6796875 459.390625 C-431.12539063 458.93171875 -430.57109375 458.4728125 -430 458 C-434.38442526 452.74825074 -439.00842093 447.86777527 -443.875 443.0625 C-444.90753906 442.03672852 -444.90753906 442.03672852 -445.9609375 440.99023438 C-447.63833511 439.32448536 -449.31803791 437.6611378 -451 436 C-451.76699219 436.76699219 -452.53398437 437.53398437 -453.32421875 438.32421875 C-455.8828125 440.8828125 -458.44140625 443.44140625 -461 446 C-463.88437779 444.70700306 -465.87219421 443.34058637 -468 441 C-466.58261511 437.74792908 -464.87473588 435.68638933 -462.3125 433.25 C-458.9088235 429.93864745 -455.76979169 426.49744734 -452.67578125 422.8984375 C-450.23731309 420.13597706 -447.63690415 417.57258941 -445 415 C-445.31839844 414.44828125 -445.63679688 413.8965625 -445.96484375 413.328125 C-447.89411105 408.98909365 -447.83773456 404.62687242 -447 400 C-445.56523201 397.63135936 -443.97554959 395.91243464 -442.00390625 393.97265625 C-439.26532042 391.27677742 -437.07386791 388.24489207 -434.7734375 385.17578125 C-432.67379127 382.59978356 -430.36550444 380.33447012 -428 378 C-419.67531896 369.3483469 -411.85511657 360.40880844 -404.41015625 350.98828125 C-403.31399074 349.62522327 -402.16425644 348.30537843 -401 347 C-400.34 347 -399.68 347 -399 347 C-398.77441406 346.45601563 -398.54882812 345.91203125 -398.31640625 345.3515625 C-396.58776213 342.26359881 -394.35449856 339.95545026 -391.9375 337.375 C-388.58466353 333.95790247 -388.58466353 333.95790247 -386 330 C-385.34 330 -384.68 330 -384 330 C-383.78730469 329.46890625 -383.57460938 328.9378125 -383.35546875 328.390625 C-381.47773403 325.07888538 -378.92051521 322.48953873 -376.3125 319.75 C-375.28661603 318.66253678 -374.26188942 317.57398066 -373.23828125 316.484375 C-372.70227295 315.91460937 -372.16626465 315.34484375 -371.61401367 314.7578125 C-370.03218189 313.0350491 -368.52068178 311.26776683 -367.0078125 309.484375 C-361.21693898 302.82459016 -354.81999979 296.71590347 -348.5625 290.5 C-347.24520941 289.18773415 -345.92815014 287.87523605 -344.61132812 286.5625 C-341.4102139 283.37231494 -338.20598135 280.18529349 -335 277 C-335.9457431 275.88771028 -336.892772 274.77651377 -337.84033203 273.66577148 C-338.36756866 273.04685532 -338.8948053 272.42793915 -339.4380188 271.79026794 C-341.48538918 269.4436702 -343.65666942 267.24721951 -345.875 265.0625 C-346.65617187 264.29035156 -347.43734375 263.51820313 -348.2421875 262.72265625 C-348.82226562 262.15417969 -349.40234375 261.58570313 -350 261 C-348.64062915 258.1394109 -347.35479531 256.14072301 -345 254 C-342.06769807 255.32120828 -340.01335101 256.74638197 -337.765625 259.0390625 C-336.90517578 259.90917969 -336.90517578 259.90917969 -336.02734375 260.796875 C-335.14755859 261.70179688 -335.14755859 261.70179688 -334.25 262.625 C-333.64800781 263.23601562 -333.04601562 263.84703125 -332.42578125 264.4765625 C-330.94594695 265.97988624 -329.47235324 267.48934856 -328 269 C-322.10709933 264.11083977 -316.70226637 258.83781234 -311.30102539 253.41455078 C-310.34455507 252.45779785 -309.38786344 251.50126612 -308.43096924 250.54493713 C-305.85277659 247.9670296 -303.27766339 245.38606622 -300.70312047 242.80451441 C-298.00501021 240.10012266 -295.3040387 237.39859152 -292.6033783 234.69674683 C-287.49815931 229.5884286 -282.39549326 224.47756824 -277.29375499 219.36577404 C-271.48190583 213.54271989 -265.66719272 207.72252915 -259.85224545 201.90256906 C-247.89832284 189.93821394 -235.94797523 177.9702943 -224 166 C-225.39596486 163.09380865 -226.73064201 161.02878234 -229.0390625 158.765625 C-229.61914062 158.19199219 -230.19921875 157.61835938 -230.796875 157.02734375 C-231.40015625 156.44082031 -232.0034375 155.85429687 -232.625 155.25 C-233.54152344 154.34701172 -233.54152344 154.34701172 -234.4765625 153.42578125 C-235.97988624 151.94594695 -237.48934856 150.47235324 -239 149 C-237.35 147.02 -235.7 145.04 -234 143 C-231.06769807 144.32120828 -229.01335101 145.74638197 -226.765625 148.0390625 C-225.90517578 148.90917969 -225.90517578 148.90917969 -225.02734375 149.796875 C-224.44082031 150.40015625 -223.85429687 151.0034375 -223.25 151.625 C-222.64800781 152.23601562 -222.04601562 152.84703125 -221.42578125 153.4765625 C-219.94594695 154.97988624 -218.47235324 156.48934856 -217 158 C-211.25487231 153.1969497 -205.84121132 148.12205536 -200.5 142.875 C-199.24703125 141.67810547 -199.24703125 141.67810547 -197.96875 140.45703125 C-196.793125 139.29880859 -196.793125 139.29880859 -195.59375 138.1171875 C-194.87896484 137.42222168 -194.16417969 136.72725586 -193.42773438 136.01123047 C-191.75142247 134.13157203 -191.75142247 134.13157203 -192.25976562 131.98486328 C-192.50404297 131.3298584 -192.74832031 130.67485352 -193 130 C-193.36307314 124.37236628 -193.22258504 120.83387756 -190 116 C-186.11068511 112.06817893 -182.96521652 110.03330875 -177.3125 109.9375 C-176.219375 109.958125 -175.12625 109.97875 -174 110 C-174.0928125 108.453125 -174.0928125 108.453125 -174.1875 106.875 C-173.95737594 102.11910284 -172.9657538 98.99260836 -169.5703125 95.55078125 C-164.58150097 91.2196986 -160.44008151 90.57972597 -154 91 C-153.401875 91.26369385 -152.80375 91.5273877 -152.1875 91.79907227 C-149.78448279 92.27190196 -149.78448279 92.27190196 -147.60913086 90.12915039 C-146.73651611 89.21125732 -145.86390137 88.29336426 -144.96484375 87.34765625 C-144.2467025 86.60823036 -144.2467025 86.60823036 -143.51405334 85.85386658 C-141.97619024 84.26811343 -140.45575666 82.6670185 -138.9375 81.0625 C-131.74779026 73.50552674 -124.6723312 66.89645777 -116 61 C-114.53678709 59.94897311 -113.0769194 58.89326696 -111.62109375 57.83203125 C-109.46336689 56.2741103 -107.3050785 54.71696966 -105.14672852 53.15991211 C-101.14608482 50.27328809 -97.14810453 47.38314497 -93.15625 44.484375 C-91.97011108 43.62428833 -91.97011108 43.62428833 -90.76000977 42.74682617 C-89.26471777 41.66241332 -87.77034028 40.57673776 -86.27709961 39.48950195 C-84.19370451 37.97998198 -82.09892829 36.48782953 -80 35 C-79.23139648 34.44393066 -78.46279297 33.88786133 -77.67089844 33.31494141 C-72.43429244 29.63972875 -69.06449111 28.03873026 -62.578125 28.41015625 C-58.25827696 29.39848512 -55.902488 31.79893069 -53 35 C-51.33669204 36.67001862 -49.67031892 38.33699361 -48 40 C-47.51664185 39.49887695 -47.03328369 38.99775391 -46.53527832 38.48144531 C-41.96663113 33.7522078 -37.37871025 29.0426334 -32.76844025 24.35394287 C-30.39911194 21.94294056 -28.03776276 19.52510914 -25.69335938 17.08984375 C-22.99143438 14.2908094 -20.26443181 11.51847865 -17.53125 8.75 C-16.28075867 7.43757324 -16.28075867 7.43757324 -15.00500488 6.09863281 C-9.95815511 1.04797218 -7.22699416 -1.24975092 0 0 Z M-439.7265625 422.53125 C-440.66628906 423.50578125 -440.66628906 423.50578125 -441.625 424.5 C-442.25664062 425.1496875 -442.88828125 425.799375 -443.5390625 426.46875 C-444.02117187 426.9740625 -444.50328125 427.479375 -445 428 C-440.47008204 433.43733055 -435.65705784 438.46458931 -430.625 443.4375 C-429.88894531 444.16904297 -429.15289062 444.90058594 -428.39453125 445.65429688 C-426.59863926 447.43852723 -424.80044015 449.22036124 -423 451 C-421.82174642 450.09827532 -420.65768423 449.17798498 -419.5 448.25 C-418.8503125 447.73953125 -418.200625 447.2290625 -417.53125 446.703125 C-415.55427485 444.88595704 -415.55427485 444.88595704 -416 441 C-417.82182814 438.59116395 -417.82182814 438.59116395 -420.3046875 436.234375 C-421.64466797 434.90019531 -421.64466797 434.90019531 -423.01171875 433.5390625 C-423.95660156 432.61867188 -424.90148437 431.69828125 -425.875 430.75 C-426.82241922 429.80549393 -427.76904369 428.86018994 -428.71484375 427.9140625 C-433.61147552 421.71281104 -433.61147552 421.71281104 -439.7265625 422.53125 Z " fill="#FCFCFC" transform="translate(481,13)"/>
<path d="M0 0 C2.59882514 1.19405479 4.00419032 2.004731 5.9375 4.1875 C6.618125 4.785625 7.29875 5.38375 8 6 C8.7911319 5.81198822 9.58226379 5.62397644 10.39736938 5.43026733 C13 5 13 5 14.89877319 6.13687134 C15.79265244 7.02359024 15.79265244 7.02359024 16.70458984 7.92822266 C17.72992325 8.92518661 17.72992325 8.92518661 18.77597046 9.94229126 C19.85752914 11.04206802 19.85752914 11.04206802 20.9609375 12.1640625 C21.71089996 12.90828461 22.46086243 13.65250671 23.23355103 14.41928101 C24.81592346 15.99756851 26.39073594 17.58346632 27.95849609 19.17626953 C30.36586852 21.61574675 32.80351914 24.02161035 35.24609375 26.42578125 C36.77796921 27.96162151 38.30798241 29.49932194 39.8359375 31.0390625 C40.56912201 31.76010162 41.30230652 32.48114075 42.05770874 33.22402954 C43.0546727 34.24936295 43.0546727 34.24936295 44.07177734 35.29541016 C44.66292328 35.89132965 45.25406921 36.48724915 45.86312866 37.10122681 C47 39 47 39 46.60708618 41.61898804 C46.40674774 42.40472198 46.2064093 43.19045593 46 44 C47.15635165 45.87864561 47.15635165 45.87864561 48.9375 47.3125 C49.50339844 47.82425781 50.06929687 48.33601563 50.65234375 48.86328125 C51.09707031 49.23839844 51.54179687 49.61351562 52 50 C50.39760535 53.95444763 47.66378527 56.66847758 44.6875 59.625 C43.9769043 60.35976562 43.9769043 60.35976562 43.25195312 61.109375 C40.32756948 64.03775917 37.84735309 65.58888201 34 67 C32.01956725 68.51208228 32.01956725 68.51208228 30.3125 70.3125 C29.73113281 70.88613281 29.14976562 71.45976562 28.55078125 72.05078125 C26.88284354 73.92967037 26.88284354 73.92967037 26.17980003 76.32129288 C24.77196011 79.51775899 23.03893094 81.33858219 20.57241821 83.80853271 C20.12025731 84.26537359 19.66809642 84.72221446 19.20223367 85.19289899 C17.69086191 86.71620158 16.16903601 88.22859687 14.64697266 89.74121094 C13.55896245 90.83328763 12.47159118 91.92600121 11.3848114 93.01930237 C8.43514205 95.98264025 5.47607134 98.93641963 2.51480913 101.88816738 C-0.5828066 104.97818612 -3.67309416 108.07551962 -6.76455688 111.17169189 C-11.9561412 116.36873282 -17.15401636 121.5594189 -22.35546875 126.74658203 C-28.37096328 132.74574169 -34.37556234 138.75564414 -40.37463224 144.77122474 C-45.52501472 149.93521451 -50.68121226 155.09334324 -55.84232867 160.24660516 C-58.92516082 163.32475775 -62.0059242 166.40490732 -65.08146286 169.49034882 C-67.97210149 172.38964407 -70.86996241 175.28151984 -73.77359581 178.167799 C-74.83882054 179.2290523 -75.90149194 180.2928755 -76.96142387 181.35941505 C-78.40683388 182.8130037 -79.86238494 184.2564875 -81.31845093 185.69940186 C-82.13071829 186.51053814 -82.94298565 187.32167442 -83.77986717 188.15739059 C-86.00825145 190.00684833 -87.22180276 190.48952629 -90 191 C-92.17116863 192.69661131 -92.17116863 192.69661131 -94.1875 194.8125 C-94.88230469 195.49957031 -95.57710938 196.18664062 -96.29296875 196.89453125 C-98.11522332 198.79894896 -98.11522332 198.79894896 -98.34082031 200.84741211 C-99.26789775 203.87483498 -101.00263238 205.34032843 -103.25390625 207.546875 C-104.10791016 208.39121094 -104.96191406 209.23554688 -105.84179688 210.10546875 C-106.73962891 210.97816406 -107.63746094 211.85085938 -108.5625 212.75 C-109.46419922 213.63816406 -110.36589844 214.52632812 -111.29492188 215.44140625 C-113.52337098 217.63448315 -115.75851593 219.82026044 -118 222 C-124.20347387 216.87458022 -129.85684676 211.2723094 -135.52734375 205.5703125 C-136.52603017 204.56975714 -137.52494047 203.56942519 -138.52406311 202.56930542 C-141.13191964 199.9576612 -143.73675695 197.34302633 -146.34094238 194.72772217 C-149.00735236 192.05101677 -151.67665464 189.37719898 -154.34570312 186.703125 C-159.56661101 181.47154602 -164.78432751 176.23679904 -170 171 C-165.78270691 166.03225884 -161.46365423 161.25312653 -156.875 156.625 C-155.96427734 155.68333984 -155.96427734 155.68333984 -155.03515625 154.72265625 C-154.44347656 154.12582031 -153.85179687 153.52898437 -153.2421875 152.9140625 C-152.7147998 152.3773291 -152.18741211 151.8405957 -151.64404297 151.28759766 C-149.76881387 149.81893738 -148.30156071 149.50657057 -146 149 C-143.82883137 147.30338869 -143.82883137 147.30338869 -141.8125 145.1875 C-140.77029297 144.15689453 -140.77029297 144.15689453 -139.70703125 143.10546875 C-137.88538197 141.20224988 -137.88538197 141.20224988 -137.66209793 139.16100502 C-136.72281398 136.09529943 -134.9585301 134.58072938 -132.69940186 132.31845093 C-131.30722191 130.91358177 -131.30722191 130.91358177 -129.88691711 129.48033142 C-128.85021722 128.44946453 -127.81336199 127.41875382 -126.77636719 126.38818359 C-125.69012622 125.29787769 -124.60452454 124.20693457 -123.51951599 123.11540222 C-120.56973118 120.1519272 -117.61051828 117.1980371 -114.64913464 114.24615812 C-111.55198461 111.15659775 -108.46215463 108.05973085 -105.37115479 104.96401978 C-100.17779218 99.76519679 -94.97813082 94.57273647 -89.77490234 89.38378906 C-83.76002481 83.38522996 -77.75601964 77.3759513 -71.75756526 71.36097276 C-66.60804142 66.19783191 -61.45269015 61.04056446 -56.29243016 55.88815367 C-53.21011174 52.81051166 -50.12985446 49.73088031 -47.05483246 46.6459465 C-44.16256925 43.74501315 -41.26305761 40.85152502 -38.35780525 37.96360207 C-37.29300466 36.90276639 -36.23074533 35.83937286 -35.17123985 34.77324867 C-33.72383531 33.31763873 -32.26749289 31.87159607 -30.80853271 30.42758179 C-29.99588833 29.61606848 -29.18324394 28.80455517 -28.34597397 27.96845055 C-25.94732987 25.95580576 -23.92773019 25.03626745 -21 24 C-18.98576024 22.45385459 -18.98576024 22.45385459 -17.25 20.625 C-16.65703125 20.03976563 -16.0640625 19.45453125 -15.453125 18.8515625 C-13.88030096 17.12719809 -13.88030096 17.12719809 -13.59301758 15.08642578 C-12.88190176 12.58449258 -11.91370768 11.56670649 -10.05859375 9.765625 C-9.47529297 9.19199219 -8.89199219 8.61835938 -8.29101562 8.02734375 C-7.67935547 7.44082031 -7.06769531 6.85429687 -6.4375 6.25 C-5.82197266 5.64800781 -5.20644531 5.04601562 -4.57226562 4.42578125 C-3.05485187 2.94365619 -1.52829404 1.4709033 0 0 Z " fill="#353535" transform="translate(293,155)"/>
<path d="M0 0 C5.8797505 4.87724437 11.26880817 10.13886878 16.65234375 15.5546875 C17.55247696 16.45623566 18.45261017 17.35778381 19.38002014 18.28665161 C21.75072823 20.66198217 24.11924515 23.03945405 26.48669434 25.41802979 C28.91180728 27.85344717 31.33982085 30.28596912 33.76757812 32.71875 C38.51437128 37.47652769 43.25829281 42.2371538 48 47 C42.58102247 53.56864274 42.58102247 53.56864274 39.3125 56.3125 C36.16533642 58.99736836 33.0677286 61.72443603 30 64.5 C24.65210014 69.32121275 19.25697785 74.07894027 13.77734375 78.75 C13.1937207 79.24814209 12.61009766 79.74628418 12.00878906 80.25952148 C10.79480542 81.29466223 9.57930855 82.32803093 8.36230469 83.35961914 C5.45616145 85.83639258 2.60726194 88.33992045 -0.13671875 90.99609375 C-1.08160156 91.90488281 -2.02648437 92.81367188 -3 93.75 C-3.825 94.56984375 -4.65 95.3896875 -5.5 96.234375 C-8 98 -8 98 -10.62744141 98.58935547 C-15.97095055 97.65557589 -18.74542567 94.1111017 -22.4609375 90.3359375 C-23.6467894 89.15869614 -23.6467894 89.15869614 -24.8565979 87.95767212 C-26.52295207 86.29539837 -28.18176313 84.62553352 -29.83349609 82.94873047 C-32.36583756 80.38427862 -34.92855265 77.85337223 -37.49609375 75.32421875 C-39.11130231 73.70504531 -40.72464863 72.0840116 -42.3359375 70.4609375 C-43.10457123 69.70444916 -43.87320496 68.94796082 -44.66513062 68.16854858 C-49.83888199 62.85528532 -49.83888199 62.85528532 -50.62768555 58.66796875 C-49.6968893 54.71163214 -47.24153291 52.39587361 -44.4375 49.625 C-43.32481409 48.47594437 -42.21283104 47.32620769 -41.1015625 46.17578125 C-40.56305664 45.62744629 -40.02455078 45.07911133 -39.46972656 44.51416016 C-37.6807866 42.67113596 -35.98646452 40.76016962 -34.3125 38.8125 C-31.74286926 35.84273211 -29.13180445 32.91488929 -26.5 30 C-23.2373201 26.38459795 -20.0142505 22.7391044 -16.81640625 19.06640625 C-14.71083512 16.67103608 -12.57551312 14.30394858 -10.4375 11.9375 C-6.89303555 8.01067037 -3.42082097 4.03481448 0 0 Z " fill="#343434" transform="translate(93,359)"/>
<path d="M0 0 C2.73224663 0.88491697 4.00301172 1.78701269 6.03549194 3.78607178 C6.67900604 4.41052185 7.32252014 5.03497192 7.98553467 5.67834473 C9.00147202 6.6970163 9.00147202 6.6970163 10.03793335 7.73626709 C10.74350372 8.43326721 11.4490741 9.13026733 12.17602539 9.84838867 C13.66193931 11.32283081 15.14265864 12.80252391 16.61849976 14.28704834 C18.88494162 16.55982514 21.17675559 18.80464085 23.4715271 21.04876709 C24.91194877 22.48464421 26.35080622 23.92209257 27.78793335 25.36126709 C28.4773703 26.03228455 29.16680725 26.703302 29.87713623 27.39465332 C34.49852788 32.10821796 34.49852788 32.10821796 34.57650757 35.55682373 C33.58461067 37.66534572 32.61657477 39.50416564 31.24887085 41.38861084 C30.77707397 42.04756348 30.3052771 42.70651611 29.81918335 43.38543701 C29.30613647 44.08386719 28.7930896 44.78229736 28.26449585 45.50189209 C27.73598022 46.23577148 27.2074646 46.96965088 26.66293335 47.72576904 C24.95465722 50.09444829 23.23481194 52.45444683 21.51449585 54.81439209 C19.74732436 57.2561604 17.9826999 59.69975158 16.21859741 62.14373779 C15.10818604 63.68033715 13.99565829 65.21541003 12.88070679 66.74871826 C10.00034744 70.71577509 7.20110364 74.7134403 4.51449585 78.81439209 C0.95304562 77.29786104 -1.3418064 75.21138669 -4.07046509 72.48822021 C-4.9710968 71.59389282 -5.87172852 70.69956543 -6.7996521 69.77813721 C-7.77331688 68.80089359 -8.74671976 67.82338898 -9.71987915 66.84564209 C-10.72278096 65.84408785 -11.72597947 64.84283064 -12.72946167 63.84185791 C-14.8273547 61.7469091 -16.92159798 59.64839594 -19.01333618 57.54730225 C-21.69900203 54.85021281 -24.39358593 52.16224023 -27.09093857 49.47684479 C-29.16197151 47.41302426 -31.22823531 45.34448208 -33.29306793 43.27445984 C-34.2852001 42.28099098 -35.27882704 41.28901262 -36.27394867 40.29853821 C-37.66016845 38.91737648 -39.03933114 37.52914258 -40.41812134 36.14056396 C-41.20547668 35.35161743 -41.99283203 34.5626709 -42.80404663 33.74981689 C-44.48550415 31.81439209 -44.48550415 31.81439209 -44.48550415 29.81439209 C-42.06273843 27.9589829 -39.62928318 26.21899226 -37.11050415 24.50189209 C-35.55251214 23.42217279 -33.9952449 22.34140707 -32.43862915 21.25970459 C-31.62587524 20.69670654 -30.81312134 20.1337085 -29.97573853 19.5536499 C-25.90288021 16.70903788 -21.88177564 13.79376541 -17.86050415 10.87689209 C-13.57088151 7.76887322 -13.57088151 7.76887322 -11.45718384 6.25628662 C-10.14465261 5.29642909 -8.85295255 4.30740864 -7.58413696 3.29046631 C-3.08901074 -0.23067547 -3.08901074 -0.23067547 0 0 Z " fill="#28142F" transform="translate(415.4855041503906,50.18560791015625)"/>
<path d="M0 0 C3.65881177 1.53956134 5.9829179 3.74089057 8.76855469 6.54150391 C9.45705757 7.22956871 9.45705757 7.22956871 10.1594696 7.93153381 C11.66839675 9.4418491 13.17012454 10.95911388 14.671875 12.4765625 C15.71947224 13.5278917 16.76751328 14.57877885 17.815979 15.62924194 C20.5691252 18.39001016 23.31621127 21.15673249 26.06207275 23.92474365 C28.86716916 26.75032928 31.67796321 29.57023445 34.48828125 32.390625 C39.99777532 37.92154374 45.50087877 43.45876589 51 49 C49.39151575 53.35714586 47.54443665 55.80877606 44.2109375 59.08203125 C43.74765045 59.54107346 43.2843634 60.00011566 42.80703735 60.47306824 C41.33662664 61.92678699 39.85609895 63.36968043 38.375 64.8125 C37.37170722 65.80073367 36.36909543 66.78965921 35.3671875 67.77929688 C32.91807208 70.19308851 30.46222788 72.59959731 28 75 C25.40117486 73.80594521 23.99580968 72.995269 22.0625 70.8125 C21.381875 70.214375 20.70125 69.61625 20 69 C19.2088681 69.18801178 18.41773621 69.37602356 17.60263062 69.56973267 C15 70 15 70 13.10122681 68.86312866 C12.50530731 68.27198273 11.90938782 67.68083679 11.29541016 67.07177734 C10.61185455 66.4071347 9.92829895 65.74249207 9.22402954 65.05770874 C8.50299042 64.32452423 7.78195129 63.59133972 7.0390625 62.8359375 C6.28910004 62.09171539 5.53913757 61.34749329 4.76644897 60.58071899 C3.18407654 59.00243149 1.60926406 57.41653368 0.04150391 55.82373047 C-2.36586852 53.38425325 -4.80351914 50.97838965 -7.24609375 48.57421875 C-8.77796921 47.03837849 -10.30798241 45.50067806 -11.8359375 43.9609375 C-12.93571426 42.87937881 -12.93571426 42.87937881 -14.05770874 41.77597046 C-14.72235138 41.09241486 -15.38699402 40.40885925 -16.07177734 39.70458984 C-16.66292328 39.10867035 -17.25406921 38.51275085 -17.86312866 37.89877319 C-19 36 -19 36 -18.60708618 33.38101196 C-18.30657852 32.20241104 -18.30657852 32.20241104 -18 31 C-19.15635165 29.12135439 -19.15635165 29.12135439 -20.9375 27.6875 C-21.78634766 26.91986328 -21.78634766 26.91986328 -22.65234375 26.13671875 C-23.09707031 25.76160156 -23.54179687 25.38648437 -24 25 C-22.49651042 21.47936604 -20.45724049 19.21227894 -17.75390625 16.5234375 C-16.91666016 15.688125 -16.07941406 14.8528125 -15.21679688 13.9921875 C-13.90291992 12.69667969 -13.90291992 12.69667969 -12.5625 11.375 C-11.69044922 10.50359375 -10.81839844 9.6321875 -9.91992188 8.734375 C-3.42178302 2.28118868 -3.42178302 2.28118868 0 0 Z " fill="#363636" transform="translate(363,86)"/>
<path d="M0 0 C6.1241816 5.06500238 11.70715861 10.5782921 17.30859375 16.2109375 C18.28485986 17.18907267 19.26134994 18.16698435 20.23805237 19.14468384 C22.78672577 21.69714399 25.33237958 24.25259448 27.87738037 26.80871582 C30.48346618 29.42509914 33.09244621 32.03859303 35.70117188 34.65234375 C40.80359118 39.76543246 45.90281857 44.88168912 51 50 C50.06274576 51.11580079 49.12224788 52.22887742 48.18041992 53.34082031 C47.65703537 53.96096008 47.13365082 54.58109985 46.59440613 55.22003174 C44.38255113 57.68930957 41.91456512 59.70318727 39.3125 61.75 C34.97722304 65.17672111 34.97722304 65.17672111 31 69 C27.4252101 67.4819272 25.14188276 65.38425289 22.41503906 62.64208984 C21.51440735 61.74130707 20.61377563 60.84052429 19.68585205 59.91244507 C18.71233519 58.92871592 17.73892875 57.9448775 16.765625 56.9609375 C15.76286839 55.95444872 14.75966778 54.94840211 13.75604248 53.94277954 C11.12126187 51.30037853 8.49254389 48.65202572 5.86505127 46.00238037 C3.18060312 43.29743948 0.49045378 40.59818179 -2.19921875 37.8984375 C-7.47173618 32.60449826 -12.73786057 27.30425717 -18 22 C-16.25344933 18.28043911 -14.06345341 15.70130539 -11.25 12.6875 C-7.40417596 8.52955112 -3.65383709 4.32691235 0 0 Z " fill="#2A1630" transform="translate(117,332)"/>
<path d="M0 0 C3.68069887 1.53643852 5.98775204 3.78150945 8.75 6.625 C9.54921875 7.44226563 10.3484375 8.25953125 11.171875 9.1015625 C11.77515625 9.72804687 12.3784375 10.35453125 13 11 C11.28418916 15.63268926 9.34849752 16.37625207 5 20 C1.04 16.04 -2.92 12.08 -7 8 C-1.125 1.125 -1.125 1.125 0 0 Z " fill="#6C160E" transform="translate(349,139)"/>
<path d="M0 0 C4.65978186 1.16494547 5.96886685 2.65184843 9.25 6.0625 C10.14203125 6.98160156 11.0340625 7.90070313 11.953125 8.84765625 C12.62859375 9.55792969 13.3040625 10.26820313 14 11 C13.07347299 12.17539996 12.13336613 13.34010577 11.1875 14.5 C10.66542969 15.1496875 10.14335937 15.799375 9.60546875 16.46875 C8 18 8 18 5 18 C2.99680619 16.21422954 1.15665434 14.43695695 -0.6875 12.5 C-1.19861328 11.97535156 -1.70972656 11.45070312 -2.23632812 10.91015625 C-3.49772708 9.61339096 -4.74977212 8.30753883 -6 7 C-4.02 4.69 -2.04 2.38 0 0 Z " fill="#6C140C" transform="translate(329,159)"/>
<path d="M0 0 C1 3 1 3 1 7 C2.32 7 3.64 7 5 7 C5 8.32 5 9.64 5 11 C6.32 11 7.64 11 9 11 C9 12.32 9 13.64 9 15 C10.32 15 11.64 15 13 15 C13 16.32 13 17.64 13 19 C14.32 19 15.64 19 17 19 C17 20.32 17 21.64 17 23 C18.32 23 19.64 23 21 23 C21 24.32 21 25.64 21 27 C22.32 27 23.64 27 25 27 C25 28.32 25 29.64 25 31 C26.32 31 27.64 31 29 31 C29 32.32 29 33.64 29 35 C30.32 35 31.64 35 33 35 C33 36.32 33 37.64 33 39 C34.32 39 35.64 39 37 39 C37 40.98 37 42.96 37 45 C31.70952371 40.57493979 26.758466 35.91876057 21.87890625 31.046875 C21.13414536 30.3054425 20.38938446 29.56401001 19.62205505 28.80010986 C18.06191619 27.24500222 16.50310113 25.68856545 14.94555664 24.13085938 C12.55048778 21.73799886 10.14750692 19.35327308 7.74414062 16.96875 C6.22607432 15.45361396 4.70847899 13.93800587 3.19140625 12.421875 C2.46965714 11.7073114 1.74790802 10.9927478 1.00428772 10.25653076 C0.34617599 9.59534241 -0.31193573 8.93415405 -0.98999023 8.25292969 C-1.57288315 7.67146179 -2.15577606 7.0899939 -2.7563324 6.49090576 C-4 5 -4 5 -4 3 C-2 1.375 -2 1.375 0 0 Z " fill="#2D1C33" transform="translate(375,77)"/>
<path d="M0 0 C2.375 1 2.375 1 4 3 C4.66300779 6.57577233 4.65930485 9.75895557 2.9375 13 C-0.21863437 14.62897258 -2.52151049 14.48820905 -6 14 C-8.69500656 11.58140437 -9.80636871 9.99236035 -10.5 6.4375 C-9.30437154 0.60881127 -5.52886037 -0.80629214 0 0 Z " fill="#090909" transform="translate(383,170)"/>
<path d="M0 0 C3.4375 0.9375 3.4375 0.9375 5.375 2.0625 C7.08300843 5.07663252 6.79954814 7.55838399 6.4375 10.9375 C5.4375 12.875 5.4375 12.875 3.4375 13.9375 C0.65641761 14.45315903 -1.79266752 14.55494182 -4.5625 13.9375 C-6.85366231 11.43154123 -7.4339205 9.69060852 -8 6.375 C-7.5625 3.9375 -7.5625 3.9375 -6 1.5625 C-3.5625 -0.0625 -3.5625 -0.0625 0 0 Z " fill="#3A3A3A" transform="translate(361.5625,189.0625)"/>
<path d="M0 0 C2.0625 1.5625 2.0625 1.5625 3 4 C2.87912586 7.44491285 2.57424291 9.97912372 0.875 13 C-2.24536212 14.66419313 -4.67683593 13.83079102 -8 13 C-9.9375 11.875 -9.9375 11.875 -11 10 C-11.36248449 6.61681143 -11.58433618 4.13215135 -10 1.0625 C-6.75482811 -0.66149757 -3.58008387 -0.65498416 0 0 Z " fill="#393A39" transform="translate(327,113)"/>
<path d="M0 0 C2.68840669 2.41267267 3.7889607 4.03859873 4.5625 7.5625 C4 10 4 10 1.9375 12.375 C-1.88245512 14.48816666 -3.85395129 14.17341001 -8 13 C-10.46324069 9.30513897 -10.38991688 7.36706908 -10 3 C-7.77944313 -1.04925076 -4.19686267 -0.58903336 0 0 Z " fill="#070707" transform="translate(307,132)"/>
<path d="M0 0 C-1.38777444 3.12265393 -3.00046508 5.25298689 -5.40820312 7.66699219 C-6.102323 8.36741638 -6.79644287 9.06784058 -7.51159668 9.78948975 C-8.63507507 10.90689545 -8.63507507 10.90689545 -9.78125 12.046875 C-10.55053833 12.81807678 -11.31982666 13.58927856 -12.11242676 14.3838501 C-13.73736827 16.01015129 -15.36483299 17.63393476 -16.99462891 19.25537109 C-19.49745175 21.74746268 -21.98940563 24.25006592 -24.48046875 26.75390625 C-26.05925468 28.33137112 -27.63866061 29.90821577 -29.21875 31.484375 C-29.9677356 32.23740906 -30.71672119 32.99044312 -31.48840332 33.76629639 C-32.18252319 34.45411194 -32.87664307 35.14192749 -33.59179688 35.85058594 C-34.20309448 36.46029236 -34.81439209 37.06999878 -35.44421387 37.69818115 C-37 39 -37 39 -39 39 C-37.61222556 35.87734607 -35.99953492 33.74701311 -33.59179688 31.33300781 C-32.55061707 30.28237152 -32.55061707 30.28237152 -31.48840332 29.21051025 C-30.36492493 28.09310455 -30.36492493 28.09310455 -29.21875 26.953125 C-28.44946167 26.18192322 -27.68017334 25.41072144 -26.88757324 24.6161499 C-25.26263173 22.98984871 -23.63516701 21.36606524 -22.00537109 19.74462891 C-19.50254825 17.25253732 -17.01059437 14.74993408 -14.51953125 12.24609375 C-12.94074532 10.66862888 -11.36133939 9.09178423 -9.78125 7.515625 C-9.0322644 6.76259094 -8.28327881 6.00955688 -7.51159668 5.23370361 C-6.81747681 4.54588806 -6.12335693 3.85807251 -5.40820312 3.14941406 C-4.79690552 2.53970764 -4.18560791 1.93000122 -3.55578613 1.30181885 C-2 0 -2 0 0 0 Z " fill="#606160" transform="translate(478,22)"/>
<path d="M0 0 C1.32 0.99 2.64 1.98 4 3 C2.4169423 7.2742558 -0.50568404 9.26531794 -4 12 C-4.99 11.01 -5.98 10.02 -7 9 C-5.44499019 5.18315774 -2.96404505 2.80804268 0 0 Z " fill="#6E1910" transform="translate(340,129)"/>
<path d="M0 0 C1.32 0.66 2.64 1.32 4 2 C4 5 4 5 2.7578125 6.60546875 C2.21898437 7.12753906 1.68015625 7.64960938 1.125 8.1875 C0.59132813 8.71730469 0.05765625 9.24710938 -0.4921875 9.79296875 C-2 11 -2 11 -4 11 C-4.66 9.35 -5.32 7.7 -6 6 C-4.02 4.02 -2.04 2.04 0 0 Z " fill="#6F1B12" transform="translate(320,149)"/>
<path d="M0 0 C1.32 0.66 2.64 1.32 4 2 C3.09827532 3.17825358 2.17798498 4.34231577 1.25 5.5 C0.48429687 6.47453125 0.48429687 6.47453125 -0.296875 7.46875 C-2 9 -2 9 -6 9 C-6 6 -6 6 -4.6875 4.39453125 C-4.130625 3.87246094 -3.57375 3.35039062 -3 2.8125 C-2.443125 2.28269531 -1.88625 1.75289062 -1.3125 1.20703125 C-0.6628125 0.60955078 -0.6628125 0.60955078 0 0 Z " fill="#6C140D" transform="translate(367,157)"/>
<path d="M0 0 C0.99 0.66 1.98 1.32 3 2 C1.55746343 5.36591866 -0.33264727 7.51047079 -3 10 C-4.32 9.34 -5.64 8.68 -7 8 C-6.02133662 6.85373678 -5.04205413 5.70800212 -4.0625 4.5625 C-3.51722656 3.92441406 -2.97195313 3.28632813 -2.41015625 2.62890625 C-1.63204305 1.73008851 -0.84063472 0.84063472 0 0 Z " fill="#721D16" transform="translate(348,176)"/>
<path d="M0 0 C4 2 4 2 6 5 C4.1128125 4.9071875 4.1128125 4.9071875 2.1875 4.8125 C-1.16958979 4.76367078 -1.16958979 4.76367078 -4 6.5 C-4.495 7.2425 -4.495 7.2425 -5 8 C-5.66 7.67 -6.32 7.34 -7 7 C-4.69 4.69 -2.38 2.38 0 0 Z " fill="#772C25" transform="translate(349,139)"/>
<path d="M0 0 C1.06546953 3.1964086 1.07427838 5.65747276 1 9 C-0.7074998 7.71937515 -2.37373596 6.38232443 -4 5 C-4 4.34 -4 3.68 -4 3 C-2 1.375 -2 1.375 0 0 Z " fill="#36253C" transform="translate(375,77)"/>
<path d="M0 0 C2.875 -0.125 2.875 -0.125 6 0 C6.66 0.66 7.32 1.32 8 2 C7.01 3.485 7.01 3.485 6 5 C2.83884224 3.63016497 2.0072908 3.0109362 0 0 Z " fill="#34233A" transform="translate(414,124)"/>
<path d="M0 0 C1.32 0.66 2.64 1.32 4 2 C3.443125 2.061875 2.88625 2.12375 2.3125 2.1875 C-0.94987173 3.33373872 -2.68667874 5.49390197 -5 8 C-5.66 7.67 -6.32 7.34 -7 7 C-4.69 4.69 -2.38 2.38 0 0 Z " fill="#813630" transform="translate(367,157)"/>
<path d="M0 0 C1.32 0.99 2.64 1.98 4 3 C3.34 4.32 2.68 5.64 2 7 C1.34 6.67 0.68 6.34 0 6 C0 4.02 0 2.04 0 0 Z " fill="#782D24" transform="translate(340,129)"/>
<path d="M0 0 C0.66 0 1.32 0 2 0 C0.63016497 3.16115776 0.0109362 3.9927092 -3 6 C-3.33 4.68 -3.66 3.36 -4 2 C-2.68 2 -1.36 2 0 2 C0 1.34 0 0.68 0 0 Z " fill="#73251C" transform="translate(360,150)"/>
</svg>
