<?xml version="1.0" encoding="UTF-8"?>
<svg version="1.1" xmlns="http://www.w3.org/2000/svg" width="500" height="500">
<path d="M0 0 C2.09375 1.03125 2.09375 1.03125 3.5 2.5 C3.9846875 2.9640625 4.469375 3.428125 4.96875 3.90625 C6.66630426 7.35279957 6.93097581 10.33322965 6 14 C3.44204904 17.68477228 0.2685547 20.66174248 -2.96875 23.75 C-3.87878784 24.64871826 -4.78882568 25.54743652 -5.72644043 26.47338867 C-8.13925978 28.84907818 -10.5678409 31.20591004 -13.00604248 33.55535889 C-15.49376529 35.96096052 -17.95874517 38.3896261 -20.42578125 40.81640625 C-25.26323888 45.56573668 -30.12281459 50.29149459 -35 55 C-34.07392833 56.11109662 -33.14334305 57.218432 -32.2109375 58.32421875 C-31.69321777 58.94127686 -31.17549805 59.55833496 -30.64208984 60.1940918 C-29.07173968 61.92110342 -27.4420272 63.35352656 -25.625 64.8125 C-23.05392315 67.35414506 -22.58360491 69.09959881 -22.51171875 72.69921875 C-22.67797497 78.4241478 -24.70216306 81.61105718 -28.1875 86 C-28.99574219 87.07894531 -28.99574219 87.07894531 -29.8203125 88.1796875 C-30.95778837 89.69807331 -32.10430056 91.20972732 -33.25927734 92.71484375 C-36.08274069 96.42138188 -38.78315509 100.21506054 -41.5 104 C-42.58976638 105.50135825 -43.67961012 107.00266034 -44.76953125 108.50390625 C-46.9266147 111.48879074 -49.04620788 114.49548023 -51.13671875 117.52734375 C-52.15361683 118.9974159 -53.17054341 120.46746833 -54.1875 121.9375 C-54.67436279 122.64672607 -55.16122559 123.35595215 -55.6628418 124.08666992 C-58.72604024 128.46215349 -61.98497569 132.09159197 -65.8125 135.8125 C-69.25542151 139.38541013 -69.25542151 139.38541013 -70.2890625 144.08984375 C-70.05895412 146.15826241 -69.76419753 148.22074497 -69.3984375 150.26953125 C-68.77642132 154.53217153 -69.7103445 156.38086711 -72 160 C-75.8571717 163.92898074 -79.16519861 166.01651986 -84.625 166.5625 C-85.44226563 166.64628906 -86.25953125 166.73007813 -87.1015625 166.81640625 C-87.72804688 166.87699219 -88.35453125 166.93757812 -89 167 C-88.9071875 168.546875 -88.9071875 168.546875 -88.8125 170.125 C-89.04262406 174.88089716 -90.0342462 178.00739164 -93.4296875 181.44921875 C-98.42803575 185.78858079 -102.56011783 186.4010183 -109 186 C-110.10379973 185.57394376 -110.10379973 185.57394376 -111.22989845 185.13928032 C-114.25578398 184.69282222 -114.25578398 184.69282222 -117.02310753 187.24571419 C-118.18210503 188.36110728 -119.32470898 189.49367357 -120.45443726 190.63870239 C-121.40520439 191.56696282 -121.40520439 191.56696282 -122.37517893 192.51397598 C-124.50473038 194.60071181 -126.61212791 196.70849251 -128.72021484 198.81689453 C-130.23861455 200.3140765 -131.75822646 201.81002993 -133.27896118 203.30484009 C-137.41328971 207.37747715 -141.52768154 211.46970215 -145.63698149 215.56757593 C-148.20464204 218.12653837 -150.77627913 220.68143335 -153.34935379 223.23495102 C-162.32482912 232.14287962 -171.28350962 241.06733851 -180.22802734 250.00634766 C-188.56668052 258.33893463 -196.94197523 266.6333949 -205.33507764 274.91110146 C-212.53709954 282.01756724 -219.7119041 289.15076029 -226.86636508 296.30510414 C-231.14081431 300.57847683 -235.42560464 304.84005605 -239.73838425 309.07477188 C-243.79651779 313.06118171 -247.81972272 317.07981315 -251.81875229 321.12548447 C-253.29050279 322.60295614 -254.77425308 324.06858726 -256.27068329 325.52105713 C-264.44983248 332.94350698 -264.44983248 332.94350698 -268.58989334 342.73366928 C-268.3297126 345.95326352 -267.72049813 348.86169671 -267 352 C-268.6125129 357.3118072 -271.63649348 359.81827649 -276 363 C-278.75078884 363.91692961 -280.35948913 364.10886083 -283.1875 364.0625 C-284.445625 364.041875 -285.70375 364.02125 -287 364 C-286.95359375 364.58007812 -286.9071875 365.16015625 -286.859375 365.7578125 C-286.59740443 371.42760406 -287.15977854 374.53703993 -291 379 C-294.75151324 383.08252912 -298.10583037 383.5746577 -303.40234375 384.01953125 C-306 384 -306 384 -308.89453125 383.140625 C-312.44396734 382.97989582 -312.80776202 383.29426954 -315.359375 385.52734375 C-316.50666846 386.646816 -317.63654285 387.78436794 -318.75 388.9375 C-320.80515656 390.99495539 -322.88088088 393.00674017 -325 395 C-325.66 395 -326.32 395 -327 395 C-327 395.66 -327 396.32 -327 397 C-328.49109234 398.32981093 -330.04706714 399.5869873 -331.625 400.8125 C-336.3334397 404.57317636 -340.79464967 408.50111178 -345.1875 412.625 C-346.37499666 413.73698273 -347.56249657 414.84896199 -348.75 415.9609375 C-349.306875 416.48268555 -349.86375 417.00443359 -350.4375 417.54199219 C-352.50093901 419.46743872 -354.58282249 421.36971825 -356.6875 423.25 C-357.26886719 423.77078125 -357.85023438 424.2915625 -358.44921875 424.828125 C-360 426 -360 426 -363 427 C-363 427.66 -363 428.32 -363 429 C-364.51151546 430.35097374 -366.08813313 431.62927345 -367.6875 432.875 C-372.18677609 436.46978244 -376.47871015 440.19503171 -380.6875 444.125 C-384.7963029 447.95744484 -388.89659914 451.78174275 -393.19921875 455.3984375 C-395.0624826 456.99458689 -395.0624826 456.99458689 -396.76953125 458.9765625 C-399.90837011 462.29381957 -401.84508434 463.8546623 -406.4765625 464.4375 C-410.01073315 464.4375 -413.47757742 464.27329141 -417 464 C-421.70900986 464 -422.13610883 464.58653055 -425.4375 467.6875 C-426.73880859 468.89599609 -426.73880859 468.89599609 -428.06640625 470.12890625 C-430.22950954 472.2145697 -432.32264074 474.35866949 -434.40234375 476.52734375 C-434.97863525 477.12264893 -435.55492676 477.7179541 -436.14868164 478.33129883 C-437.28898864 479.51611505 -438.4174304 480.71247984 -439.53295898 481.9206543 C-441.1171875 483.5703125 -441.1171875 483.5703125 -444 486 C-445.93017578 485.96435547 -445.93017578 485.96435547 -448 485 C-449.32 483.35 -450.64 481.7 -452 480 C-446.555 474.555 -446.555 474.555 -441 469 C-443.51869658 465.81458962 -445.80174122 463.16451261 -448.9375 460.5625 C-451.83742934 458.13602851 -454.06815978 455.68546902 -456.41015625 452.74609375 C-458.4111523 450.45676905 -458.4111523 450.45676905 -463 447 C-468.445 452.445 -468.445 452.445 -474 458 C-475.98 456.35 -477.96 454.7 -480 453 C-479.46886908 448.95337064 -477.48482951 447.17477288 -474.59765625 444.41015625 C-473.70755859 443.54326172 -472.81746094 442.67636719 -471.90039062 441.78320312 C-470.01245037 439.97322324 -468.12442987 438.16332705 -466.23632812 436.35351562 C-465.34494141 435.48533203 -464.45355469 434.61714844 -463.53515625 433.72265625 C-462.30357788 432.54328491 -462.30357788 432.54328491 -461.04711914 431.34008789 C-458.96202412 428.95658929 -457.97215411 426.99131985 -457 424 C-457.33 423.67 -457.66 423.34 -458 423 C-459.12289739 417.5990217 -459.81203293 411.95487929 -456.83251953 407.09619141 C-453.74424619 403.23204143 -450.18443854 399.84760046 -446.56787109 396.48339844 C-444.66022086 394.67852724 -442.94474886 392.75471481 -441.25 390.75 C-438.69652966 387.78467961 -436.07703571 384.88904406 -433.4375 382 C-430.07908311 378.2977179 -427.03970891 374.50453763 -424.19140625 370.3984375 C-423.60166016 369.70621094 -423.60166016 369.70621094 -423 369 C-422.34 369 -421.68 369 -421 369 C-420.72760498 368.40541992 -420.45520996 367.81083984 -420.17456055 367.19824219 C-419.02970512 365.05559444 -417.87355302 363.57993363 -416.20703125 361.828125 C-415.66264404 361.25030273 -415.11825684 360.67248047 -414.55737305 360.07714844 C-413.69366089 359.17270996 -413.69366089 359.17270996 -412.8125 358.25 C-411.62685772 356.99028547 -410.44195521 355.72987424 -409.2578125 354.46875 C-408.69094727 353.86675781 -408.12408203 353.26476562 -407.54003906 352.64453125 C-402.24596268 346.99124994 -397.41011718 341.05170493 -392.69921875 334.90625 C-392.13847656 334.2771875 -391.57773437 333.648125 -391 333 C-390.34 333 -389.68 333 -389 333 C-388.66548828 332.16275391 -388.66548828 332.16275391 -388.32421875 331.30859375 C-386.61045171 328.320876 -384.32192042 326.4161877 -381.8125 324.0625 C-377.92802422 319.94968516 -377.92802422 319.94968516 -376.671875 314.6015625 C-376.92873832 312.35657706 -377.23735872 310.11680709 -377.6015625 307.88671875 C-378 305 -378 305 -376.9375 301.5 C-374.16583903 297.92366327 -371.09319496 295.04659748 -367 293 C-365.45976004 292.93049459 -363.91665012 292.91547643 -362.375 292.9375 C-361.55773437 292.94652344 -360.74046875 292.95554687 -359.8984375 292.96484375 C-358.95871094 292.98224609 -358.95871094 292.98224609 -358 293 C-358.0928125 291.205625 -358.0928125 291.205625 -358.1875 289.375 C-358.16200973 284.55733844 -357.04546268 281.06781747 -353.5703125 277.5546875 C-348.71258366 273.3253216 -345.30757169 272.78618401 -339 273 C-338.05882324 273.27835693 -337.11764648 273.55671387 -336.14794922 273.84350586 C-332.80945318 274.34108415 -332.80945318 274.34108415 -330.02392578 271.81860352 C-328.97959555 270.77316912 -327.95426683 269.70852186 -326.9453125 268.62890625 C-326.39890106 268.07259018 -325.85248962 267.51627411 -325.28952026 266.94309998 C-323.55088625 265.16533167 -321.83816929 263.36478676 -320.125 261.5625 C-318.94954608 260.35193134 -317.77247964 259.1429262 -316.59375 257.93554688 C-313.71015299 254.97483794 -310.8495631 251.99346446 -308 249 C-309.3584202 245.95667235 -310.88463024 243.87690849 -313.2578125 241.546875 C-313.88300781 240.928125 -314.50820313 240.309375 -315.15234375 239.671875 C-315.80332031 239.03765625 -316.45429688 238.4034375 -317.125 237.75 C-317.78371094 237.1003125 -318.44242188 236.450625 -319.12109375 235.78125 C-320.74296643 234.18288273 -322.3693281 232.58938103 -324 231 C-321.75 228.5 -321.75 228.5 -319 226 C-315 226 -315 226 -313.26074219 227.28515625 C-312.41237793 228.16494141 -312.41237793 228.16494141 -311.546875 229.0625 C-310.928125 229.69414062 -310.309375 230.32578125 -309.671875 230.9765625 C-309.03765625 231.64429688 -308.4034375 232.31203125 -307.75 233 C-307.1003125 233.66773438 -306.450625 234.33546875 -305.78125 235.0234375 C-304.17815711 236.67368018 -302.58512166 238.33251791 -301 240 C-297.82901672 238.59771936 -295.69629223 236.94394221 -293.25408936 234.49459839 C-292.52497345 233.76823181 -291.79585754 233.04186523 -291.04464722 232.29348755 C-290.25486481 231.49651459 -289.4650824 230.69954163 -288.65136719 229.87841797 C-287.81197601 229.03931885 -286.97258484 228.20021973 -286.10775757 227.33569336 C-283.81104028 225.03782233 -281.51881904 222.73557743 -279.2285223 220.43131018 C-276.83246532 218.02274213 -274.43073512 215.61984484 -272.02960205 213.21633911 C-267.48538703 208.66591044 -262.9462939 204.11040801 -258.40902066 199.55305874 C-253.24248334 194.36415889 -248.07025899 189.18094375 -242.89755011 183.99819732 C-232.25869517 173.33844297 -221.62699993 162.67157395 -211 152 C-212.39596486 149.09380865 -213.73064201 147.02878234 -216.0390625 144.765625 C-216.61914062 144.19199219 -217.19921875 143.61835938 -217.796875 143.02734375 C-218.40015625 142.44082031 -219.0034375 141.85429687 -219.625 141.25 C-220.54152344 140.34701172 -220.54152344 140.34701172 -221.4765625 139.42578125 C-222.97988624 137.94594695 -224.48934856 136.47235324 -226 135 C-224.64062915 132.1394109 -223.35479531 130.14072301 -221 128 C-218.06769807 129.32120828 -216.01335101 130.74638197 -213.765625 133.0390625 C-213.19199219 133.61914062 -212.61835938 134.19921875 -212.02734375 134.796875 C-211.44082031 135.40015625 -210.85429687 136.0034375 -210.25 136.625 C-209.64800781 137.23601562 -209.04601562 137.84703125 -208.42578125 138.4765625 C-206.94594695 139.97988624 -205.47235324 141.48934856 -204 143 C-198.56636867 140.70681405 -194.79369869 136.24115949 -190.67114258 132.15161133 C-189.18840751 130.68839556 -187.68572442 129.24785986 -186.18164062 127.80664062 C-185.24900391 126.88431641 -184.31636719 125.96199219 -183.35546875 125.01171875 C-182.49590576 124.17084717 -181.63634277 123.32997559 -180.75073242 122.46362305 C-178.70982467 120.15205929 -178.70982467 120.15205929 -179.2121582 117.43286133 C-179.472146 116.63001709 -179.73213379 115.82717285 -180 115 C-180.35807053 109.36038913 -180.22968855 105.84453282 -177 101 C-173.11068511 97.06817893 -169.96521652 95.03330875 -164.3125 94.9375 C-163.219375 94.958125 -162.12625 94.97875 -161 95 C-160.97421875 94.41992188 -160.9484375 93.83984375 -160.921875 93.2421875 C-160.42875504 86.4505808 -158.54343614 82.68877535 -153.8125 77.6875 C-148.86605618 74.71963371 -143.91805252 74.53702181 -138.375 75.875 C-135.094911 76.37241814 -135.094911 76.37241814 -133.44018555 74.70288086 C-132.64028198 73.81161499 -132.64028198 73.81161499 -131.82421875 72.90234375 C-128.03900684 68.92557657 -123.92250002 65.83126406 -119.4375 62.6875 C-118.25124023 61.84348633 -118.25124023 61.84348633 -117.04101562 60.98242188 C-115.44191224 59.84536773 -113.84086833 58.71103721 -112.23779297 57.57958984 C-109.70311299 55.79043651 -107.17788212 53.98843904 -104.65454102 52.18334961 C-103.55286811 51.39541858 -102.45049266 50.60846892 -101.34741211 49.82250977 C-98.0032647 47.43907455 -94.67009923 45.04103526 -91.34375 42.6328125 C-90.54066406 42.05144531 -89.73757813 41.47007813 -88.91015625 40.87109375 C-87.34431983 39.73668714 -85.77917564 38.60132419 -84.21484375 37.46484375 C-82.14908583 35.96818551 -80.07638703 34.48186372 -78 33 C-76.93007813 32.23429687 -75.86015625 31.46859375 -74.7578125 30.6796875 C-71.21426013 28.52143322 -68.91680251 27.96239506 -64.8125 28.0625 C-58.53956908 30.15347697 -54.21858806 36.12905296 -50 41 C-44.62880218 36.54566517 -39.76779586 31.79153388 -34.94140625 26.7578125 C-33.40667276 25.18124565 -31.87083218 23.60575587 -30.33398438 22.03125 C-27.93638533 19.57182034 -25.54555327 17.10726557 -23.17260742 14.62402344 C-20.86397309 12.21240789 -18.53059016 9.82725864 -16.19140625 7.4453125 C-15.13790733 6.32517258 -15.13790733 6.32517258 -14.06312561 5.18240356 C-9.33090034 0.42341395 -6.73404543 -0.98582464 0 0 Z M-451.7265625 433.53125 C-452.66628906 434.50578125 -452.66628906 434.50578125 -453.625 435.5 C-454.25664062 436.1496875 -454.88828125 436.799375 -455.5390625 437.46875 C-456.02117187 437.9740625 -456.50328125 438.479375 -457 439 C-452.32533663 444.62303757 -447.32234333 449.79741554 -442.125 454.9375 C-441.34125 455.71673828 -440.5575 456.49597656 -439.75 457.29882812 C-437.83561419 459.20154085 -435.91891966 461.10186171 -434 463 C-432.82174642 462.09827532 -431.65768423 461.17798498 -430.5 460.25 C-429.8503125 459.73953125 -429.200625 459.2290625 -428.53125 458.703125 C-426.55427485 456.88595704 -426.55427485 456.88595704 -427 453 C-428.91938445 450.49299423 -428.91938445 450.49299423 -431.5234375 448.015625 C-431.9848111 447.55516785 -432.44618469 447.09471069 -432.92153931 446.62030029 C-433.8970811 445.65079243 -434.87747123 444.68614211 -435.86230469 443.72607422 C-437.37303333 442.25191906 -438.86707839 440.76231939 -440.359375 439.26953125 C-445.42665914 432.8272695 -445.42665914 432.8272695 -451.7265625 433.53125 Z " fill="#FBFBFB" transform="translate(487,7)"/>
<path d="M0 0 C0.44730469 0.44472656 0.89460937 0.88945312 1.35546875 1.34765625 C1.96003906 1.91355469 2.56460938 2.47945312 3.1875 3.0625 C3.77917969 3.63097656 4.37085938 4.19945312 4.98046875 4.78515625 C5.98013672 5.38650391 5.98013672 5.38650391 7 6 C7.78645905 5.79587494 8.57291809 5.59174988 9.38320923 5.38143921 C12 5 12 5 13.97470093 6.21279907 C14.60615021 6.83947479 15.23759949 7.46615051 15.88818359 8.11181641 C16.97357925 9.16884262 16.97357925 9.16884262 18.0809021 10.2472229 C18.84568878 11.02415497 19.61047546 11.80108704 20.3984375 12.6015625 C21.19279205 13.3901767 21.98714661 14.17879089 22.80557251 14.99130249 C24.48210171 16.66374617 26.15106719 18.34380106 27.81298828 20.03076172 C30.36518601 22.61506257 32.94775369 25.16584603 35.53515625 27.71484375 C37.15817734 29.34182963 38.77933624 30.97067574 40.3984375 32.6015625 C41.5638356 33.74874252 41.5638356 33.74874252 42.7527771 34.9190979 C43.45746124 35.64269501 44.16214539 36.36629211 44.88818359 37.11181641 C45.82819717 38.05899033 45.82819717 38.05899033 46.78720093 39.02529907 C48 41 48 41 47.61856079 43.61679077 C47.41443573 44.40324982 47.21031067 45.18970886 47 46 C48.15631804 48.09139045 48.15631804 48.09139045 49.9375 49.8125 C50.50339844 50.41707031 51.06929687 51.02164063 51.65234375 51.64453125 C52.31943359 52.31548828 52.31943359 52.31548828 53 53 C50.7792539 55.27919862 48.54697896 57.54676959 46.3125 59.8125 C45.68666016 60.45509766 45.06082031 61.09769531 44.41601562 61.75976562 C41.13171811 65.07845369 38.12133184 67.73434637 34 70 C32.30560124 71.38534955 32.30560124 71.38534955 30.875 72.875 C30.15957031 73.58269531 30.15957031 73.58269531 29.4296875 74.3046875 C27.89371708 76.02309599 27.89371708 76.02309599 26.6588726 78.341856 C24.99177088 81.01318618 23.24941622 83.00215397 21.02835083 85.22561646 C20.22369385 86.03591309 19.41903687 86.84620972 18.58999634 87.68106079 C17.71096649 88.55604218 16.83193665 89.43102356 15.92626953 90.33251953 C14.99752014 91.26477356 14.06877075 92.19702759 13.11187744 93.15753174 C10.5710081 95.70749917 8.0238765 98.25112306 5.47528315 100.79336786 C2.8053819 103.45819577 0.14037499 106.12791118 -2.52542114 108.79684448 C-7.00245075 113.27750984 -11.48367421 117.75394834 -15.96728516 122.22802734 C-21.14642749 127.39628589 -26.31832558 132.57170984 -31.48651969 137.75091469 C-35.92879661 142.20227561 -40.37496933 146.64971703 -44.82440484 151.0939225 C-47.47975771 153.7461618 -50.13375144 156.39972323 -52.78423691 159.05682755 C-55.73960924 162.01906434 -58.70310716 164.97304024 -61.66748047 167.92626953 C-62.54246185 168.80529938 -63.41744324 169.68432922 -64.31893921 170.58999634 C-65.12923584 171.39465332 -65.93953247 172.1993103 -66.77438354 173.02835083 C-67.47381514 173.72702837 -68.17324673 174.42570591 -68.89387321 175.1455555 C-71.12508618 177.11013837 -73.42525256 178.525501 -76 180 C-77.69439876 181.38534955 -77.69439876 181.38534955 -79.125 182.875 C-79.60195312 183.34679687 -80.07890625 183.81859375 -80.5703125 184.3046875 C-82.09940864 186.00779224 -82.09940864 186.00779224 -83.26171875 188.26953125 C-85.60867588 191.95609987 -88.5648663 194.77782782 -91.6875 197.8125 C-92.29400391 198.40998047 -92.90050781 199.00746094 -93.52539062 199.62304688 C-95.01240312 201.08664185 -96.50558811 202.54396102 -98 204 C-98.61875 203.68675781 -99.2375 203.37351562 -99.875 203.05078125 C-102.02081695 201.98970632 -103.612485 201.22382953 -106 201 C-108.24755753 202.3516367 -108.24755753 202.3516367 -110 204 C-110.2571579 203.25486649 -110.5143158 202.50973297 -110.77926636 201.74201965 C-112.05387957 198.87897536 -113.31831846 197.31788768 -115.53173828 195.12768555 C-116.25233429 194.40731613 -116.9729303 193.68694672 -117.71536255 192.94474792 C-118.49249603 192.1830983 -119.26962952 191.42144867 -120.0703125 190.63671875 C-120.86654022 189.84473587 -121.66276794 189.05275299 -122.48312378 188.23677063 C-125.02345295 185.71321049 -127.57402295 183.20029164 -130.125 180.6875 C-131.85094612 178.97660291 -133.57621485 177.2650222 -135.30078125 175.55273438 C-139.52603113 171.36053031 -143.75973317 167.17701138 -148 163 C-147.34 161.35 -146.68 159.7 -146 158 C-148.475 155.525 -148.475 155.525 -151 153 C-149.70583703 150.15576613 -148.33849878 148.08276149 -146.13671875 145.87109375 C-145.57919922 145.31099609 -145.02167969 144.75089844 -144.44726562 144.17382812 C-143.86654297 143.60083984 -143.28582031 143.02785156 -142.6875 142.4375 C-142.11837891 141.86064453 -141.54925781 141.28378906 -140.96289062 140.68945312 C-137.83325337 137.57418849 -134.87507033 135.17349571 -131 133 C-129.30560124 131.61465045 -129.30560124 131.61465045 -127.875 130.125 C-127.39804688 129.65320313 -126.92109375 129.18140625 -126.4296875 128.6953125 C-124.89371708 126.97690401 -124.89371708 126.97690401 -123.6588726 124.658144 C-121.99177088 121.98681382 -120.24941622 119.99784603 -118.02835083 117.77438354 C-117.22369385 116.96408691 -116.41903687 116.15379028 -115.58999634 115.31893921 C-114.71096649 114.44395782 -113.83193665 113.56897644 -112.92626953 112.66748047 C-111.99752014 111.73522644 -111.06877075 110.80297241 -110.11187744 109.84246826 C-107.5710081 107.29250083 -105.0238765 104.74887694 -102.47528315 102.20663214 C-99.8053819 99.54180423 -97.14037499 96.87208882 -94.47457886 94.20315552 C-89.99754925 89.72249016 -85.51632579 85.24605166 -81.03271484 80.77197266 C-75.85357251 75.60371411 -70.68167442 70.42829016 -65.51348031 65.24908531 C-61.07120339 60.79772439 -56.62503067 56.35028297 -52.17559516 51.9060775 C-49.52024229 49.2538382 -46.86624856 46.60027677 -44.21576309 43.94317245 C-41.26039076 40.98093566 -38.29689284 38.02695976 -35.33251953 35.07373047 C-34.45753815 34.19470062 -33.58255676 33.31567078 -32.68106079 32.41000366 C-31.87076416 31.60534668 -31.06046753 30.8006897 -30.22561646 29.97164917 C-29.52618486 29.27297163 -28.82675327 28.57429409 -28.10612679 27.8544445 C-25.87491382 25.88986163 -23.57474744 24.474499 -21 23 C-19.30560124 21.61465045 -19.30560124 21.61465045 -17.875 20.125 C-17.15957031 19.41730469 -17.15957031 19.41730469 -16.4296875 18.6953125 C-14.89750488 16.98596092 -14.89750488 16.98596092 -13.70703125 14.69921875 C-11.49782592 11.20594442 -8.76841378 8.5528911 -5.8125 5.6875 C-5.25369141 5.13771484 -4.69488281 4.58792969 -4.11914062 4.02148438 C-2.75062588 2.67636304 -1.37593167 1.33753357 0 0 Z " fill="#343434" transform="translate(313,134)"/>
<path d="M0 0 C1.86080933 1.20570374 1.86080933 1.20570374 3.61279297 2.91821289 C4.60809525 3.87534935 4.60809525 3.87534935 5.62350464 4.8518219 C6.67225266 5.9016349 6.67225266 5.9016349 7.7421875 6.97265625 C8.83383713 8.0464579 8.83383713 8.0464579 9.94754028 9.14195251 C11.48185065 10.65971848 13.00961357 12.18412766 14.53125 13.71459961 C16.86500265 16.05248494 19.23120167 18.35360909 21.6015625 20.65429688 C23.08804606 22.13330046 24.57249233 23.61435504 26.0546875 25.09765625 C26.76599823 25.78336197 27.47730896 26.46906769 28.21017456 27.17555237 C32.98059961 32.06093595 32.98059961 32.06093595 33.07788086 36.76977539 C32.16289167 39.51184151 31.48063615 41.36317027 29.69921875 43.5859375 C28.98403076 44.50439453 28.98403076 44.50439453 28.25439453 45.44140625 C27.73731934 46.07949219 27.22024414 46.71757813 26.6875 47.375 C25.59273005 48.77683553 24.50035821 50.18054654 23.41015625 51.5859375 C22.56541748 52.6682666 22.56541748 52.6682666 21.70361328 53.77246094 C18.39158908 58.10305835 15.30334321 62.59227669 12.1862793 67.06396484 C8.88629974 71.78415227 5.4768467 76.40873252 2 81 C-4.04265914 75.99744121 -9.56098043 70.56822676 -15.08984375 65.0078125 C-16.04368954 64.05209752 -16.99775941 63.09660612 -17.95204163 62.1413269 C-20.44153194 59.64805084 -22.92800224 57.15178475 -25.41381836 54.65484619 C-27.95957994 52.09878491 -30.50823777 49.54561495 -33.05664062 46.9921875 C-38.04057069 41.99758981 -43.02131048 36.99982201 -48 32 C-45.27467229 29.20599111 -42.64309251 26.56089612 -39.42578125 24.34375 C-38.43698975 23.65514893 -38.43698975 23.65514893 -37.42822266 22.95263672 C-36.73003418 22.4732666 -36.0318457 21.99389648 -35.3125 21.5 C-33.805306 20.45150279 -32.29882079 19.40198612 -30.79296875 18.3515625 C-29.62193604 17.53606934 -29.62193604 17.53606934 -28.42724609 16.70410156 C-23.51294765 13.25391014 -18.66183615 9.71570592 -13.80200195 6.18945312 C-13.08616943 5.67060547 -12.37033691 5.15175781 -11.6328125 4.6171875 C-11.00262207 4.15940918 -10.37243164 3.70163086 -9.72314453 3.22998047 C-6.1852009 0.7045965 -4.38048375 -0.53047698 0 0 Z " fill="#7B3301" transform="translate(422,45)"/>
<path d="M0 0 C2.88437779 1.29299694 4.87219421 2.65941363 7 5 C8.98 4.34 10.96 3.68 13 3 C13.70125 3.78503906 14.4025 4.57007813 15.125 5.37890625 C19.82994389 10.6036598 24.49456404 15.57159054 29.8984375 20.0859375 C33.15578088 23.05266289 36.05906359 26.34738905 38.96875 29.65039062 C41.28023371 32.24568077 43.62908267 34.57511604 46.3359375 36.7421875 C47.21507812 37.48726563 48.09421875 38.23234375 49 39 C49 39.66 49 40.32 49 41 C50.98 41.495 50.98 41.495 53 42 C52.484375 42.4125 51.96875 42.825 51.4375 43.25 C49.7577168 44.87499557 49.7577168 44.87499557 50.1875 46.9375 C51.0115643 49.02935553 51.98338506 50.99605533 53 53 C42.78142077 62.33572404 42.78142077 62.33572404 37.75 66.8125 C37.18796875 67.31394531 36.6259375 67.81539063 36.046875 68.33203125 C33.14277154 70.69854304 30.04842793 72.82255148 27 75 C10.83 58.83 -5.34 42.66 -22 26 C-17.92858709 20.57144945 -13.95831795 15.61653468 -9.3125 10.75 C-4.38593959 5.60423803 -4.38593959 5.60423803 0 0 Z " fill="#363636" transform="translate(114,333)"/>
<path d="M0 0 C5.71700538 4.75136274 10.97689423 9.84614587 16.21484375 15.1171875 C17.07058487 15.97434357 17.92632599 16.83149963 18.80799866 17.71463013 C21.52020465 20.43239954 24.2288983 23.15363891 26.9375 25.875 C28.78427369 27.72679342 30.63127653 29.57835834 32.47851562 31.4296875 C36.98833201 35.95048435 41.49527569 40.47412946 46 45 C45.05349644 46.11787266 44.10503537 47.23408806 43.15576172 48.34960938 C42.36381912 49.28226624 42.36381912 49.28226624 41.55587769 50.23376465 C39.55697247 52.5029257 37.39559702 54.50485245 35.125 56.5 C34.26648438 57.25796875 33.40796875 58.0159375 32.5234375 58.796875 C31.69070312 59.52390625 30.85796875 60.2509375 30 61 C29.27039063 61.64453125 28.54078125 62.2890625 27.7890625 62.953125 C26.46727999 64.11791418 25.13948293 65.27592735 23.8046875 66.42578125 C22.6419461 67.44003403 21.49915446 68.47785988 20.3828125 69.54296875 C18.1276138 71.62873542 16.37239048 72.91222865 13.36279297 73.62158203 C7.9629692 72.62347318 5.08364066 68.93923777 1.3203125 65.1171875 C0.50754852 64.31016388 -0.30521545 63.50314026 -1.14260864 62.67166138 C-2.85604126 60.96230958 -4.56192847 59.24536571 -6.26074219 57.52148438 C-8.86549747 54.88461967 -11.50066871 52.28125517 -14.140625 49.6796875 C-15.80140639 48.01494124 -17.46032556 46.34833469 -19.1171875 44.6796875 C-19.90769501 43.90132538 -20.69820251 43.12296326 -21.51266479 42.3210144 C-26.84053351 36.85346513 -26.84053351 36.85346513 -27.62768555 32.640625 C-26.73985314 28.90558208 -24.59003226 26.7431619 -21.9375 24.125 C-20.91730047 23.06835315 -19.89776841 22.01106145 -18.87890625 20.953125 C-18.38148926 20.44587891 -17.88407227 19.93863281 -17.37158203 19.41601562 C-15.63756257 17.6258211 -13.99960974 15.76461701 -12.375 13.875 C-8.31450272 9.19209072 -4.15558489 4.59847036 0 0 Z " fill="#363636" transform="translate(64,390)"/>
<path d="M0 0 C3.5747899 1.5180728 5.85811724 3.61574711 8.58496094 6.35791016 C9.48559265 7.25869293 10.38622437 8.15947571 11.31414795 9.08755493 C12.28766481 10.07128408 13.26107125 11.0551225 14.234375 12.0390625 C15.23713161 13.04555128 16.24033222 14.05159789 17.24395752 15.05722046 C19.87873813 17.69962147 22.50745611 20.34797428 25.13494873 22.99761963 C27.81939688 25.70256052 30.50954622 28.40181821 33.19921875 31.1015625 C38.47173618 36.39550174 43.73786057 41.69574283 49 47 C46.91367019 51.33750063 44.21508197 53.90671767 40.6875 57.125 C40.11837891 57.66253906 39.54925781 58.20007813 38.96289062 58.75390625 C38.12081055 59.52927734 38.12081055 59.52927734 37.26171875 60.3203125 C36.75600342 60.78711426 36.25028809 61.25391602 35.72924805 61.73486328 C34 63 34 63 29 65 C14.15 50.15 -0.7 35.3 -16 20 C-13.76359681 14.40899202 -13.76359681 14.40899202 -10.8125 11.6875 C-6.94878986 8.0023647 -3.46670283 4.05677991 0 0 Z " fill="#7D3504" transform="translate(86,365)"/>
<path d="M0 0 C3.08038283 1.2021906 4.8245721 3.08363699 7.17207336 5.40827942 C7.65218872 5.87992523 8.13230408 6.35157104 8.62696838 6.83750916 C10.20873163 8.39590726 11.77908108 9.96522931 13.34858704 11.53596497 C14.44356353 12.62384163 15.53883854 13.7114179 16.63439941 14.79870605 C18.92675587 17.07762028 21.21309062 19.36238349 23.49580383 21.6509552 C26.42589842 24.58695765 29.37385979 27.50426905 32.32701588 30.41705036 C34.59267425 32.65690347 36.8468076 34.90808092 39.09776878 37.16269493 C40.18032964 38.24355905 41.26689423 39.32042817 42.35744667 40.39322853 C43.87813263 41.89185768 45.38219121 43.40541637 46.88301086 44.92390442 C47.74364639 45.7824855 48.60428192 46.64106659 49.49099731 47.52566528 C51.20405579 49.86018372 51.20405579 49.86018372 51.06225586 52.07592773 C49.54201909 55.23660278 46.95595672 56.75234471 44.20405579 58.86018372 C43.84054016 58.41545715 43.47702454 57.97073059 43.10249329 57.51252747 C42.59975891 56.94662903 42.09702454 56.38073059 41.57905579 55.79768372 C41.09179016 55.22920715 40.60452454 54.66073059 40.10249329 54.07502747 C38.15133245 52.51599642 38.15133245 52.51599642 35.26655579 53.45783997 C33.75061829 53.65700012 33.75061829 53.65700012 32.20405579 53.86018372 C29.93061829 52.01643372 29.93061829 52.01643372 27.82905579 49.36018372 C25.13989469 46.12422653 22.57760461 43.16124237 19.32905579 40.48518372 C15.2545066 37.06126114 11.75407173 33.17490221 8.227005 29.20588684 C5.64204791 26.3250118 3.03832099 23.81839033 -0.04594421 21.48518372 C-1.40719421 20.18580872 -1.40719421 20.18580872 -2.79594421 18.86018372 C-2.49725766 16.85471682 -2.16223098 14.85441167 -1.79594421 12.86018372 C-3.4909255 10.22176945 -5.56095807 8.04982232 -7.79594421 5.86018372 C-6.89566834 4.82486646 -5.97501386 3.80724207 -5.04594421 2.79768372 C-4.28024109 1.94496887 -4.28024109 1.94496887 -3.49906921 1.07502747 C-1.79594421 -0.13981628 -1.79594421 -0.13981628 0 0 Z " fill="#373737" transform="translate(366.7959442138672,82.13981628417969)"/>
<path d="M0 0 C3.68069887 1.53643852 5.98775204 3.78150945 8.75 6.625 C9.54921875 7.44226563 10.3484375 8.25953125 11.171875 9.1015625 C11.77515625 9.72804688 12.3784375 10.35453125 13 11 C11.27845212 14.76488042 9.00765886 17.15063897 6 20 C2.31930113 18.46356148 0.01224796 16.21849055 -2.75 13.375 C-3.54921875 12.55773437 -4.3484375 11.74046875 -5.171875 10.8984375 C-5.77515625 10.27195312 -6.3784375 9.64546875 -7 9 C-5.27845212 5.23511958 -3.00765886 2.84936103 0 0 Z " fill="#6F1912" transform="translate(172,316)"/>
<path d="M0 0 C3.68069887 1.53643852 5.98775204 3.78150945 8.75 6.625 C9.54921875 7.44226563 10.3484375 8.25953125 11.171875 9.1015625 C11.77515625 9.72804687 12.3784375 10.35453125 13 11 C11.27845212 14.76488042 9.00765886 17.15063897 6 20 C2.31930113 18.46356148 0.01224796 16.21849055 -2.75 13.375 C-3.54921875 12.55773437 -4.3484375 11.74046875 -5.171875 10.8984375 C-5.77515625 10.27195313 -6.3784375 9.64546875 -7 9 C-5.27845212 5.23511958 -3.00765886 2.84936103 0 0 Z " fill="#6D1810" transform="translate(350,138)"/>
<path d="M0 0 C3.68069887 1.53643852 5.98775204 3.78150945 8.75 6.625 C9.54921875 7.44226563 10.3484375 8.25953125 11.171875 9.1015625 C11.77515625 9.72804688 12.3784375 10.35453125 13 11 C11.28418916 15.63268926 9.34849752 16.37625207 5 20 C1.04 16.04 -2.92 12.08 -7 8 C-1.125 1.125 -1.125 1.125 0 0 Z " fill="#691109" transform="translate(152,336)"/>
<path d="M0 0 C4.89978413 3.95751795 9.00520914 8.12830382 13 13 C10.69 15.31 8.38 17.62 6 20 C2.15718264 18.07859132 0.19568073 16.4073184 -2.75 13.375 C-3.54921875 12.55773437 -4.3484375 11.74046875 -5.171875 10.8984375 C-5.77515625 10.27195313 -6.3784375 9.64546875 -7 9 C-5.27845212 5.23511958 -3.00765886 2.84936103 0 0 Z " fill="#69110A" transform="translate(370,118)"/>
<path d="M0 0 C2.4375 1.625 2.4375 1.625 4 4 C4.64571405 7.79357002 4.24722393 9.53521901 2.4375 12.9375 C0 15 0 15 -3.5 15.0625 C-7.25734471 13.9218775 -8.81140363 13.23912262 -11 10 C-11.60605429 6.36367425 -11.47161336 4.71685231 -9.4375 1.625 C-6.06489221 -0.62340519 -3.97487617 -0.56783945 0 0 Z " fill="#3C3C3C" transform="translate(346,91)"/>
<path d="M0 0 C3.6875 0.3125 3.6875 0.3125 6.125 1.875 C8.29146028 5.25467804 8.25038002 7.37233987 7.6875 11.3125 C6.0625 13.75 6.0625 13.75 3.6875 15.3125 C0.6875 15.8125 0.6875 15.8125 -2.3125 15.3125 C-4.96609262 13.37609458 -6.0734947 11.93391377 -7.25 8.875 C-7.33126251 5.54323695 -6.23618819 3.97606826 -4.3125 1.3125 C-3.3125 0.3125 -3.3125 0.3125 0 0 Z " fill="#090A09" transform="translate(401.3125,149.6875)"/>
<path d="M0 0 C2.64 0 5.28 0 8 0 C8 1.32 8 2.64 8 4 C9.32 4 10.64 4 12 4 C12 5.32 12 6.64 12 8 C13.32 8 14.64 8 16 8 C16 9.32 16 10.64 16 12 C17.32 12 18.64 12 20 12 C20 13.32 20 14.64 20 16 C21.32 16 22.64 16 24 16 C24 17.32 24 18.64 24 20 C25.32 20 26.64 20 28 20 C28 21.32 28 22.64 28 24 C29.32 24 30.64 24 32 24 C32 25.32 32 26.64 32 28 C33.32 28 34.64 28 36 28 C36 29.32 36 30.64 36 32 C37.32 32 38.64 32 40 32 C40 33.32 40 34.64 40 36 C41.32 36 42.64 36 44 36 C44 37.32 44 38.64 44 40 C45.32 40 46.64 40 48 40 C48 41.32 48 42.64 48 44 C49.32 44 50.64 44 52 44 C52 46.31 52 48.62 52 51 C51.01 51.495 51.01 51.495 50 52 C49.88184685 50.90736847 49.88184685 50.90736847 49.76130676 49.79266357 C48.8106244 46.30532296 47.36713259 44.86596288 44.8190918 42.31738281 C43.48717049 40.97139008 43.48717049 40.97139008 42.12834167 39.59820557 C41.15239985 38.63274134 40.17601468 37.66772509 39.19921875 36.703125 C38.20066166 35.70441288 37.20277172 34.70503331 36.20552063 33.70501709 C34.11603343 31.61414701 32.01975674 29.53040998 29.91821289 27.45166016 C27.22618025 24.78803007 24.55001472 22.10910275 21.87852764 19.4248848 C19.82093553 17.36033522 17.75603542 15.30322517 15.68876076 13.24837494 C14.69913306 12.26325979 13.71158434 11.27605154 12.72617149 10.28672028 C11.34782268 8.90545843 9.9586834 7.53498976 8.5690918 6.16503906 C7.78157028 5.38292053 6.99404877 4.600802 6.18266296 3.79498291 C4.02484447 2.02043165 2.73099478 1.38180501 0 1 C0 0.67 0 0.34 0 0 Z " fill="#FCF7F3" transform="translate(84,364)"/>
<path d="M0 0 C1.32 0 2.64 0 4 0 C4 1.32 4 2.64 4 4 C5.32 4 6.64 4 8 4 C8 5.32 8 6.64 8 8 C9.32 8 10.64 8 12 8 C12 9.32 12 10.64 12 12 C13.32 12 14.64 12 16 12 C16 13.32 16 14.64 16 16 C17.32 16 18.64 16 20 16 C20 17.32 20 18.64 20 20 C21.32 20 22.64 20 24 20 C24 21.32 24 22.64 24 24 C25.32 24 26.64 24 28 24 C28 25.32 28 26.64 28 28 C29.32 28 30.64 28 32 28 C32 29.32 32 30.64 32 32 C33.32 32 34.64 32 36 32 C36 33.32 36 34.64 36 36 C37.32 36 38.64 36 40 36 C40 37.32 40 38.64 40 40 C41.32 40 42.64 40 44 40 C44 41.32 44 42.64 44 44 C45.32 44 46.64 44 48 44 C47.75 46.375 47.75 46.375 47 49 C44.9375 50.3125 44.9375 50.3125 43 51 C43.66 49.68 44.32 48.36 45 47 C44.43623657 46.4406778 43.87247314 45.88135559 43.29162598 45.30508423 C37.98883609 40.0423091 32.69083196 34.77478476 27.39818573 29.50181007 C24.67678134 26.79085886 21.9535412 24.08180582 19.22607422 21.37695312 C16.59575215 18.76830485 13.97029488 16.15485194 11.34819031 13.53794479 C10.34515903 12.53861912 9.34036439 11.54106023 8.33381653 10.54527664 C6.92822458 9.1541265 5.5293663 7.75618259 4.13085938 6.35791016 C3.33143921 5.56293121 2.53201904 4.76795227 1.70837402 3.94888306 C0 2 0 2 0 0 Z " fill="#F5F9F5" transform="translate(64,388)"/>
<path d="M0 0 C4.42690311 1.44355536 4.42690311 1.44355536 5.875 3.9375 C6.34125573 6.69474065 6.38545632 9.18447717 5.875 11.9375 C3.68746717 14.6298481 2.29076045 14.87686827 -1.125 15.375 C-4.125 14.9375 -4.125 14.9375 -6.5 13.375 C-8.76413895 9.97879157 -8.76769755 7.93650698 -8.125 3.9375 C-5.45043116 0.79094842 -4.15592269 -0.08311845 0 0 Z " fill="#040404" transform="translate(126.125,308.0625)"/>
<path d="M0 0 C1.9453125 0.44921875 1.9453125 0.44921875 4.5078125 2.57421875 C6.28727688 6.13314751 6.168076 7.69941069 4.9453125 11.44921875 C3.8203125 13.32421875 3.8203125 13.32421875 1.9453125 14.44921875 C-2.42175658 14.83913563 -4.35982647 14.91245944 -8.0546875 12.44921875 C-9.5580432 5.79150063 -9.5580432 5.79150063 -8.1171875 1.94921875 C-5.48222774 0.03288438 -3.22246939 -0.17241995 0 0 Z " fill="#383938" transform="translate(186.0546875,367.55078125)"/>
<path d="M0 0 C2.4375 1.5625 2.4375 1.5625 4 4 C4.42213381 7.43737531 4.60856522 9.82090489 3 12.9375 C-0.24370507 14.66071832 -3.4161041 14.52265149 -7 14 C-9 13 -9 13 -10 11 C-10.52265149 7.4161041 -10.66071832 4.24370507 -8.9375 1 C-5.82090489 -0.60856522 -3.43737531 -0.42213381 0 0 Z " fill="#050505" transform="translate(207,348)"/>
<path d="M0 0 C2.4375 1.5625 2.4375 1.5625 4 4 C4.42213381 7.43737531 4.60856522 9.82090489 3 12.9375 C-0.24370507 14.66071832 -3.4161041 14.52265149 -7 14 C-9 13 -9 13 -10 11 C-10.52265149 7.4161041 -10.66071832 4.24370507 -8.9375 1 C-5.82090489 -0.60856522 -3.43737531 -0.42213381 0 0 Z " fill="#363836" transform="translate(148,289)"/>
<path d="M0 0 C2.4375 1.5625 2.4375 1.5625 4 4 C4.42213381 7.43737531 4.60856522 9.82090489 3 12.9375 C-0.24370507 14.66071832 -3.4161041 14.52265149 -7 14 C-9 13 -9 13 -10 11 C-10.52265149 7.4161041 -10.66071832 4.24370507 -8.9375 1 C-5.82090489 -0.60856522 -3.43737531 -0.42213381 0 0 Z " fill="#373737" transform="translate(385,170)"/>
<path d="M0 0 C2.4375 1.5625 2.4375 1.5625 4 4 C4.42213381 7.43737531 4.60856522 9.82090489 3 12.9375 C-0.24370507 14.66071832 -3.4161041 14.52265149 -7 14 C-9 13 -9 13 -10 11 C-10.52265149 7.4161041 -10.66071832 4.24370507 -8.9375 1 C-5.82090489 -0.60856522 -3.43737531 -0.42213381 0 0 Z " fill="#050505" transform="translate(326,111)"/>
<path d="M0 0 C3.56811945 1.51730552 5.85720433 3.60936737 8.58496094 6.34204102 C9.48559265 7.2395961 10.38622437 8.13715118 11.31414795 9.06190491 C12.28773876 10.04239154 13.26114343 11.02306303 14.234375 12.00390625 C15.23720421 13.00792794 16.24040377 14.01157984 17.24395752 15.01487732 C19.34169772 17.11417909 21.43604203 19.21679106 23.52783203 21.32202148 C26.21519818 24.02643181 28.90915539 26.72415746 31.60543442 29.41967869 C33.67484677 31.48936222 35.74164842 33.56163582 37.80756378 35.63480949 C38.80057678 36.6310133 39.79420424 37.62660499 40.78844452 38.62158394 C42.17236111 40.00765662 43.5525883 41.39741004 44.93261719 42.78735352 C45.71997253 43.57852066 46.50732788 44.36968781 47.31854248 45.18482971 C49 47 49 47 49 48 C47.35 48 45.7 48 44 48 C44 46.68 44 45.36 44 44 C42.68 44 41.36 44 40 44 C40 42.68 40 41.36 40 40 C38.68 40 37.36 40 36 40 C36 38.68 36 37.36 36 36 C34.68 36 33.36 36 32 36 C32 34.68 32 33.36 32 32 C30.68 32 29.36 32 28 32 C28 30.68 28 29.36 28 28 C26.68 28 25.36 28 24 28 C24 26.68 24 25.36 24 24 C22.68 24 21.36 24 20 24 C20 22.68 20 21.36 20 20 C18.68 20 17.36 20 16 20 C16 18.68 16 17.36 16 16 C14.68 16 13.36 16 12 16 C12 14.68 12 13.36 12 12 C10.68 12 9.36 12 8 12 C8 10.68 8 9.36 8 8 C6.68 8 5.36 8 4 8 C4 6.68 4 5.36 4 4 C2.68 4 1.36 4 0 4 C0 2.68 0 1.36 0 0 Z " fill="#F1E6DD" transform="translate(372,76)"/>
<path d="M0 0 C-1.40220649 3.16800074 -3.05914166 5.31175668 -5.5 7.75878906 C-6.57121094 8.83945648 -6.57121094 8.83945648 -7.6640625 9.94195557 C-8.82035156 11.09217194 -8.82035156 11.09217194 -10 12.265625 C-10.79148437 13.05902283 -11.58296875 13.85242065 -12.3984375 14.66986084 C-14.07045737 16.34324054 -15.74500097 18.01410181 -17.421875 19.68261719 C-19.99712398 22.24713597 -22.56151052 24.82216989 -25.125 27.3984375 C-26.74935884 29.02147527 -28.37433769 30.64389281 -30 32.265625 C-30.77085937 33.04053284 -31.54171875 33.81544067 -32.3359375 34.61383057 C-33.05007813 35.32166687 -33.76421875 36.02950317 -34.5 36.75878906 C-35.44359375 37.69999603 -35.44359375 37.69999603 -36.40625 38.66021729 C-38 40 -38 40 -40 40 C-38.59779351 36.83199926 -36.94085834 34.68824332 -34.5 32.24121094 C-33.78585937 31.52076599 -33.07171875 30.80032104 -32.3359375 30.05804443 C-31.56507813 29.29123352 -30.79421875 28.52442261 -30 27.734375 C-29.20851563 26.94097717 -28.41703125 26.14757935 -27.6015625 25.33013916 C-25.92954263 23.65675946 -24.25499903 21.98589819 -22.578125 20.31738281 C-20.00287602 17.75286403 -17.43848948 15.17783011 -14.875 12.6015625 C-13.25064116 10.97852473 -11.62566231 9.35610719 -10 7.734375 C-9.22914063 6.95946716 -8.45828125 6.18455933 -7.6640625 5.38616943 C-6.94992187 4.67833313 -6.23578125 3.97049683 -5.5 3.24121094 C-4.8709375 2.61373962 -4.241875 1.98626831 -3.59375 1.33978271 C-2 0 -2 0 0 0 Z " fill="#525252" transform="translate(484,16)"/>
<path d="M0 0 C1.32 0.66 2.64 1.32 4 2 C4 5 4 5 2.46875 6.82421875 C1.49421875 7.74654297 1.49421875 7.74654297 0.5 8.6875 C-0.1496875 9.31011719 -0.799375 9.93273437 -1.46875 10.57421875 C-1.9740625 11.04472656 -2.479375 11.51523437 -3 12 C-4.32 11.01 -5.64 10.02 -7 9 C-5.44499019 5.18315774 -2.96404505 2.80804268 0 0 Z " fill="#721E18" transform="translate(162,306)"/>
<path d="M0 0 C1.32 0.66 2.64 1.32 4 2 C4 5 4 5 2.46875 6.82421875 C1.49421875 7.74654297 1.49421875 7.74654297 0.5 8.6875 C-0.1496875 9.31011719 -0.799375 9.93273437 -1.46875 10.57421875 C-1.9740625 11.04472656 -2.479375 11.51523438 -3 12 C-4.32 11.01 -5.64 10.02 -7 9 C-5.44499019 5.18315774 -2.96404505 2.80804268 0 0 Z " fill="#6D1A14" transform="translate(340,128)"/>
<path d="M0 0 C1.32 0.66 2.64 1.32 4 2 C4 5 4 5 2.6875 6.60546875 C2.130625 7.12753906 1.57375 7.64960938 1 8.1875 C0.443125 8.71730469 -0.11375 9.24710937 -0.6875 9.79296875 C-1.120625 10.19128906 -1.55375 10.58960938 -2 11 C-3.32 10.34 -4.64 9.68 -6 9 C-6 6 -6 6 -4.6875 4.39453125 C-4.130625 3.87246094 -3.57375 3.35039062 -3 2.8125 C-2.443125 2.28269531 -1.88625 1.75289063 -1.3125 1.20703125 C-0.6628125 0.60955078 -0.6628125 0.60955078 0 0 Z " fill="#6A130C" transform="translate(142,326)"/>
<path d="M0 0 C1.32 0.99 2.64 1.98 4 3 C2.4169423 7.2742558 -0.50568404 9.26531794 -4 12 C-4.99 11.01 -5.98 10.02 -7 9 C-5.44499019 5.18315774 -2.96404505 2.80804268 0 0 Z " fill="#68130D" transform="translate(360,108)"/>
<path d="M0 0 C1.32 0.66 2.64 1.32 4 2 C2.44499019 5.81684226 -0.03595495 8.19195732 -3 11 C-4.32 10.34 -5.64 9.68 -7 9 C-7 8.34 -7 7.68 -7 7 C-5.01739574 5.31267723 -3.0167658 3.64633943 -1 2 C-0.67 1.34 -0.34 0.68 0 0 Z " fill="#72221A" transform="translate(368,156)"/>
<path d="M0 0 C0.99 0.66 1.98 1.32 3 2 C1.44499019 5.81684226 -1.03595495 8.19195732 -4 11 C-5.32 10.34 -6.64 9.68 -8 9 C-7.04270084 7.87411986 -6.08412105 6.7493285 -5.125 5.625 C-4.59132812 4.99851562 -4.05765625 4.37203125 -3.5078125 3.7265625 C-2.38567993 2.44163349 -1.20628025 1.20628025 0 0 Z " fill="#701C15" transform="translate(191,334)"/>
<path d="M0 0 C0.99 0.66 1.98 1.32 3 2 C1.4169423 6.2742558 -1.50568404 8.26531794 -5 11 C-5.66 9.68 -6.32 8.36 -7 7 C-4.69 4.69 -2.38 2.38 0 0 Z " fill="#6B150F" transform="translate(171,354)"/>
<path d="M0 0 C1.32 0.66 2.64 1.32 4 2 C3.09827532 3.17825358 2.17798498 4.34231577 1.25 5.5 C0.48429687 6.47453125 0.48429687 6.47453125 -0.296875 7.46875 C-2 9 -2 9 -6 9 C-6 6 -6 6 -4.6875 4.39453125 C-4.130625 3.87246094 -3.57375 3.35039062 -3 2.8125 C-2.443125 2.28269531 -1.88625 1.75289062 -1.3125 1.20703125 C-0.6628125 0.60955078 -0.6628125 0.60955078 0 0 Z " fill="#6B150E" transform="translate(388,137)"/>
<path d="M0 0 C1.65 0 3.3 0 5 0 C4.07038578 1.15224028 3.1309875 2.29659176 2.1875 3.4375 C1.40439453 4.39462891 1.40439453 4.39462891 0.60546875 5.37109375 C-1 7 -1 7 -4 8 C-4 6.68 -4 5.36 -4 4 C-2.68 4 -1.36 4 0 4 C0 2.68 0 1.36 0 0 Z " fill="#65120A" transform="translate(180,328)"/>
<path d="M0 0 C4.2742558 1.5830577 6.26531794 4.50568404 9 8 C7.35 8 5.7 8 4 8 C4 6.68 4 5.36 4 4 C2.68 4 1.36 4 0 4 C0 2.68 0 1.36 0 0 Z " fill="#70201C" transform="translate(352,140)"/>
<path d="M0 0 C1.98 0 3.96 0 6 0 C4.35 1.98 2.7 3.96 1 6 C0.01 5.34 -0.98 4.68 -2 4 C-1.34 2.68 -0.68 1.36 0 0 Z " fill="#68150F" transform="translate(158,312)"/>
<path d="M0 0 C0.66 0.99 1.32 1.98 2 3 C3.32 2.01 4.64 1.02 6 0 C4.84826645 2.46800047 3.95216435 4.04783565 2 6 C0.68 6 -0.64 6 -2 6 C-2 4.68 -2 3.36 -2 2 C-1.34 2 -0.68 2 0 2 C0 1.34 0 0.68 0 0 Z " fill="#E5E5E5" transform="translate(202,334)"/>
<path d="M0 0 C1.32 0.66 2.64 1.32 4 2 C4 2.33 4 2.66 4 3 C2.63875 3.4021875 2.63875 3.4021875 1.25 3.8125 C-1.71471963 4.89576294 -3.6169754 5.98359457 -6 8 C-4.55746343 4.63408134 -2.66735273 2.48952921 0 0 Z " fill="#89471A" transform="translate(86,365)"/>
<path d="M0 0 C1.32 0 2.64 0 4 0 C4 1.32 4 2.64 4 4 C2.35 4.66 0.7 5.32 -1 6 C-0.67 4.02 -0.34 2.04 0 0 Z " fill="#989898" transform="translate(184,352)"/>
<path d="M0 0 C0 3.53986194 -0.58152803 4.49515403 -3 7 C-4.32 7 -5.64 7 -7 7 C-6.67 5.68 -6.34 4.36 -6 3 C-5.01 3 -4.02 3 -3 3 C-1.31201173 1.56249809 -1.31201173 1.56249809 0 0 Z " fill="#EFE5E2" transform="translate(163,313)"/>
<path d="M0 0 C0.66 0 1.32 0 2 0 C2 2.64 2 5.28 2 8 C0.68 7.67 -0.64 7.34 -2 7 C-1.34 4.69 -0.68 2.38 0 0 Z " fill="#F3F7F3" transform="translate(350,96)"/>
<path d="M0 0 C1.32 0 2.64 0 4 0 C3.75 2.375 3.75 2.375 3 5 C0.9375 6.3125 0.9375 6.3125 -1 7 C-0.649375 6.401875 -0.29875 5.80375 0.0625 5.1875 C1.33304698 2.89186786 1.33304698 2.89186786 0 0 Z " fill="#EEF1EE" transform="translate(108,432)"/>
<path d="M0 0 C0.8971875 0.309375 0.8971875 0.309375 1.8125 0.625 C0.8225 0.625 -0.1675 0.625 -1.1875 0.625 C-1.1875 1.615 -1.1875 2.605 -1.1875 3.625 C-3.1675 4.285 -5.1475 4.945 -7.1875 5.625 C-5.69046729 2.17030914 -4.27938051 -0.73360809 0 0 Z " fill="#1B191B" transform="translate(125.1875,308.375)"/>
<path d="M0 0 C0.33 0 0.66 0 1 0 C1.375 2.25 1.375 2.25 1 5 C-2 7.3125 -2 7.3125 -5 9 C-3.50164236 5.88802644 -1.86022073 2.91164984 0 0 Z " fill="#F3EBE5" transform="translate(451,87)"/>
<path d="M0 0 C1.65 0 3.3 0 5 0 C5 2.97 5 5.94 5 9 C4.67 9 4.34 9 4 9 C3.71125 7.88625 3.4225 6.7725 3.125 5.625 C2.30758671 1.99708908 2.30758671 1.99708908 0 0 Z " fill="#D7DAD7" transform="translate(207,348)"/>
</svg>
