<?xml version="1.0" encoding="UTF-8"?>
<svg version="1.1" xmlns="http://www.w3.org/2000/svg" width="500" height="500">
<path d="M0 0 C7.69297313 4.64186175 12.86116355 11.12582201 15.25 19.8125 C15.515625 23.50390625 15.515625 23.50390625 15.5 27.375 C15.50515625 28.65503906 15.5103125 29.93507812 15.515625 31.25390625 C15.09343253 36.91004363 13.37720003 40.06518346 9.37036133 44.0168457 C8.5722554 44.81149734 7.77414948 45.60614899 6.95185852 46.42488098 C6.08731552 47.27080307 5.22277252 48.11672516 4.33203125 48.98828125 C3.44142502 49.87227097 2.55081879 50.75626068 1.63322449 51.66703796 C-0.73444165 54.01526464 -3.10808946 56.35706946 -5.48535156 58.69555664 C-8.81544302 61.97358043 -12.13574513 65.26149704 -15.45466614 68.55082703 C-17.21890704 70.29826081 -18.98623175 72.0425885 -20.75712585 73.78327942 C-25.0102373 77.98539426 -29.06799103 82.25873955 -32.96263123 86.79335022 C-36.441057 90.72284857 -40.18816872 94.39272063 -43.90234375 98.09765625 C-45.19078941 99.387537 -45.19078941 99.387537 -46.50526428 100.70347595 C-48.31177015 102.51065861 -50.11952462 104.31659392 -51.9284668 106.12133789 C-54.6793681 108.86688393 -57.42489221 111.61772546 -60.16992188 114.36914062 C-61.93457532 116.1331332 -63.69953897 117.8968155 -65.46484375 119.66015625 C-66.27654526 120.47388199 -67.08824677 121.28760773 -67.92454529 122.12599182 C-68.70217728 122.90047165 -69.47980927 123.67495148 -70.28100586 124.47290039 C-70.95272324 125.14382217 -71.62444061 125.81474396 -72.31651306 126.5059967 C-74.26678343 128.35449852 -76.24506645 130.10186156 -78.28494263 131.84744263 C-83.27704569 136.20852901 -87.94464802 140.86843735 -92.62440491 145.55992126 C-93.59956282 146.53392486 -94.57493827 147.50771069 -95.55051035 148.48129946 C-98.21193527 151.13857387 -100.87026168 153.79892872 -103.52805722 156.45983255 C-106.40221626 159.33626298 -109.27926225 162.20980343 -112.15592957 165.08372498 C-117.78347143 170.70682874 -123.40831683 176.33262229 -129.03218848 181.95939653 C-133.60437506 186.53384485 -138.17754084 191.1073121 -142.7514019 195.68008614 C-143.40328217 196.33181318 -144.05516245 196.98354022 -144.72679667 197.65501656 C-146.05123405 198.9791342 -147.37567366 200.30324961 -148.70011549 201.6273628 C-161.10864952 214.03304777 -173.51412104 226.44179156 -185.91854166 238.85158933 C-196.55374143 249.49125661 -207.19156027 260.12829935 -217.83129883 270.76342773 C-230.19780161 283.12457461 -242.56267487 295.48734775 -254.9249658 307.85270697 C-256.24411306 309.17217277 -257.56326241 310.49163649 -258.88241386 311.8110981 C-259.531399 312.46023751 -260.18038414 313.10937692 -260.84903549 313.77818723 C-265.41449313 318.34450697 -269.98110741 322.90966802 -274.5481739 327.47437859 C-280.11662433 333.04001953 -285.68327951 338.60744867 -291.24766666 344.17715209 C-294.08473762 347.01684456 -296.92259003 349.85574384 -299.76263046 352.69246674 C-302.36591985 355.29276118 -304.96686163 357.89538071 -307.56600516 360.49981899 C-308.9446345 361.88008218 -310.32570088 363.25790991 -311.70687252 364.63562912 C-316.07855142 369.02102531 -320.30955549 373.46650145 -324.33618832 378.17200184 C-326.16814388 380.29768786 -328.10692163 382.29646506 -330.08959961 384.28149414 C-331.25131935 385.44794212 -331.25131935 385.44794212 -332.43650818 386.63795471 C-333.25023392 387.44965622 -334.06395966 388.26135773 -334.90234375 389.09765625 C-335.76130753 389.95757675 -336.6202713 390.81749725 -337.50526428 391.70347595 C-339.31177015 393.51065861 -341.11952462 395.31659392 -342.9284668 397.12133789 C-345.6793681 399.86688393 -348.42489221 402.61772546 -351.16992188 405.36914062 C-352.93457532 407.1331332 -354.69953897 408.8968155 -356.46484375 410.66015625 C-357.27654526 411.47388199 -358.08824677 412.28760773 -358.92454529 413.12599182 C-363.12016895 417.30460837 -367.39752809 421.30549863 -371.8841095 425.16899109 C-374.84165702 427.77405055 -377.60259903 430.56035166 -380.3671875 433.3671875 C-380.95041779 433.95420441 -381.53364807 434.54122131 -382.134552 435.14602661 C-383.96719813 436.99072821 -385.79650295 438.83868631 -387.625 440.6875 C-390.05703186 443.14609071 -392.49234477 445.60136303 -394.9296875 448.0546875 C-395.48486053 448.61815887 -396.04003357 449.18163025 -396.61203003 449.76217651 C-401.60743591 454.78964872 -401.60743591 454.78964872 -405.875 454.875 C-406.82375 454.854375 -407.7725 454.83375 -408.75 454.8125 C-409.01039063 455.51246094 -409.27078125 456.21242188 -409.5390625 456.93359375 C-410.85850472 460.07046123 -412.41997164 462.93028945 -414.125 465.875 C-414.71023438 466.89722656 -415.29546875 467.91945313 -415.8984375 468.97265625 C-419.13758782 473.94072014 -419.13758782 473.94072014 -421.75 475.8125 C-425.72678544 476.39710185 -428.27050704 476.73005737 -431.73721313 474.58006287 C-433.85260652 472.76878604 -435.80402169 470.86728371 -437.75 468.875 C-438.4711499 468.16150391 -439.1922998 467.44800781 -439.93530273 466.71289062 C-441.45093141 465.20269313 -442.956555 463.6823961 -444.45263672 462.15283203 C-446.74299527 459.81963574 -449.07289364 457.53219338 -451.41015625 455.24609375 C-452.88017599 453.77078732 -454.34771203 452.29300103 -455.8125 450.8125 C-456.85760742 449.79168335 -456.85760742 449.79168335 -457.92382812 448.75024414 C-461.09027231 445.45802622 -463.17188003 443.1632593 -463.3203125 438.46875 C-462.75 434.8125 -462.75 434.8125 -460.5625 432.3125 C-459.31822503 431.44000839 -458.04037276 430.61524526 -456.75 429.8125 C-455.15478516 428.78189453 -455.15478516 428.78189453 -453.52734375 427.73046875 C-444.21822317 421.8125 -444.21822317 421.8125 -441.75 421.8125 C-441.8325 420.94625 -441.915 420.08 -442 419.1875 C-441.47899463 412.15392746 -435.63510322 407.41068076 -430.8686533 402.6766777 C-429.82562739 401.62884208 -429.82562739 401.62884208 -428.76153025 400.55983806 C-426.42488758 398.21487876 -424.08117684 395.8771149 -421.73744202 393.53924561 C-420.04596254 391.84474623 -418.35491778 390.1498128 -416.6642713 388.45448232 C-412.98468869 384.76674449 -409.30200098 381.08213715 -405.61655045 377.40026474 C-400.13625163 371.92527261 -394.6616669 366.44459332 -389.18817042 360.96280178 C-378.84459856 350.60398561 -368.49426086 340.2519475 -358.14183075 329.90198514 C-350.14978662 321.91177301 -342.15953898 313.9197684 -334.17056084 305.92649078 C-333.02317504 304.77850259 -331.87578864 303.63051499 -330.72840164 302.48252799 C-328.9994664 300.75268551 -327.27053188 299.02284232 -325.54160125 297.29299524 C-309.46666672 281.20963082 -293.38968549 265.12831461 -277.30844975 249.05125046 C-276.70216719 248.44512428 -276.09588464 247.83899811 -275.4712299 247.21450447 C-272.39826379 244.14234417 -269.32527771 241.07020385 -266.25228364 237.99807152 C-265.33680376 237.08284828 -265.33680376 237.08284828 -264.40282935 236.14913568 C-263.16861493 234.91526791 -261.93439957 233.68140108 -260.70018328 232.44753519 C-241.4867219 213.23943355 -222.27992185 194.02469352 -203.07836914 174.8046875 C-181.51178235 153.21739887 -159.94022402 131.635096 -138.36127275 110.0601666 C-136.0619187 107.7612079 -133.76258155 105.46223229 -131.46325493 103.16324615 C-130.89708635 102.59716831 -130.33091777 102.03109046 -129.74759256 101.44785873 C-121.1906998 92.89213327 -112.63772763 84.33250154 -104.08671761 75.77089691 C-94.36689998 66.03904893 -84.64188572 56.31242921 -74.9098397 46.59280917 C-69.46050758 41.15012309 -64.01538055 35.70330746 -58.57614742 30.25052838 C-54.5206949 26.1859006 -50.45748875 22.12909969 -46.39114337 18.07537213 C-44.74253164 16.42942907 -43.09647762 14.78091957 -41.45317901 13.1296719 C-39.22800116 10.89447457 -36.99388442 8.66861964 -34.75718784 6.44495773 C-34.11368467 5.79414521 -33.4701815 5.1433327 -32.80717823 4.47279859 C-24.38385138 -3.84833006 -10.748283 -5.15528506 0 0 Z " fill="#FEFDFE" transform="translate(473.75,13.1875)"/>
<path d="M0 0 C3.81249879 1.7758666 6.23349496 4.00365188 9.203125 7.0078125 C9.6857782 7.49329559 10.1684314 7.97877869 10.66571045 8.47897339 C12.19858562 10.02299866 13.72434004 11.57384824 15.25 13.125 C16.29120361 14.17624009 17.33286541 15.22702657 18.375 16.27734375 C20.92199464 18.84633004 23.46265177 21.42148161 26 24 C24.53920924 27.36279271 22.68550518 29.56335632 20.09943962 32.14665604 C19.28034296 32.9697348 18.4612463 33.79281355 17.61732852 34.64083409 C16.71267231 35.53966463 15.80801609 36.43849516 14.87594604 37.36456299 C13.90858933 38.33279175 12.94167219 39.30145986 11.97515786 40.27052951 C9.31619139 42.93397364 6.65101942 45.59113198 3.98480916 48.24732208 C1.11140137 51.11210375 -1.75623544 53.98265175 -4.62457275 56.85250854 C-9.59555202 61.82453719 -14.57018395 66.79288696 -19.54730606 71.75876617 C-26.74340826 78.93862355 -33.93399027 86.12398842 -41.12323116 93.31071529 C-52.78706779 104.97017322 -64.45536502 116.62515659 -76.12646484 128.27734375 C-87.46474318 139.59726782 -98.80092185 150.91928777 -110.13427734 162.24414062 C-110.83270886 162.9420467 -111.53114038 163.63995277 -112.25073649 164.35900751 C-115.75450227 167.86016324 -119.25822676 171.3613603 -122.7619307 174.86257792 C-151.83488644 203.9147957 -180.91508066 232.95975961 -210 262 C-211.11455232 261.05143997 -212.22813945 260.10174579 -213.34132385 259.15158081 C-213.96155709 258.622843 -214.58179033 258.09410519 -215.22081852 257.54934502 C-217.52414754 255.54356237 -219.68791675 253.42458037 -221.83984375 251.2578125 C-222.67451172 250.41992188 -223.50917969 249.58203125 -224.36914062 248.71875 C-225.21669922 247.8628125 -226.06425781 247.006875 -226.9375 246.125 C-227.81212891 245.24585938 -228.68675781 244.36671875 -229.58789062 243.4609375 C-231.72757048 241.3095654 -233.86486597 239.15588208 -236 237 C-231.14754959 231.15561017 -225.92508199 225.78697313 -220.54678345 220.42652893 C-219.59268779 219.47199656 -218.63881218 218.51724419 -217.6851362 217.56229252 C-215.07856872 214.95349985 -212.46891184 212.34781731 -209.85871863 209.74265301 C-207.03898508 206.92725226 -204.22215684 204.10894729 -201.40496826 201.29100037 C-196.5284646 196.41397327 -191.65013856 191.53877526 -186.7705574 186.66482735 C-179.71557087 179.61798013 -172.66335891 172.56836157 -165.61181335 165.51807129 C-154.17008564 154.07853027 -142.72612821 142.64122256 -131.28076172 131.20532227 C-120.16500444 120.09874899 -109.05030165 108.99112221 -97.93701172 97.88208008 C-97.25157908 97.19691016 -96.56614643 96.51174024 -95.85994311 95.8058076 C-92.42121331 92.36838287 -88.98250419 88.93093746 -85.54380536 85.49348176 C-57.03240925 56.99244635 -28.51739149 28.49503651 0 0 Z " fill="#505050" transform="translate(361,113)"/>
<path d="M0 0 C6.43924109 1.71381133 10.10386566 3.5384886 14.05664062 9.10131836 C17.295284 15.34995831 17.14684034 20.89780053 15.49414062 27.66381836 C13.34811436 31.30334901 10.61616842 33.95867624 7.52148438 36.80834961 C6.72384171 37.58901291 5.92619904 38.36967621 5.10438538 39.17399597 C2.57375904 41.63794909 0.00458413 44.05666685 -2.56835938 46.47631836 C-4.3009121 48.14861964 -6.03076144 49.82372652 -7.7578125 51.50170898 C-11.97644425 55.58870772 -16.22747244 59.6394647 -20.50585938 63.66381836 C-24.60078854 60.21667953 -28.57079483 56.722573 -32.34570312 52.92163086 C-33.18037109 52.08374023 -34.01503906 51.24584961 -34.875 50.38256836 C-35.72255859 49.52663086 -36.57011719 48.67069336 -37.44335938 47.78881836 C-38.31798828 46.90967773 -39.19261719 46.03053711 -40.09375 45.12475586 C-42.23342986 42.97338376 -44.37072535 40.81970044 -46.50585938 38.66381836 C-40.42512941 31.47513426 -34.02778399 24.64311286 -27.46777344 17.89111328 C-26.07536301 16.44673995 -24.69475691 14.99089413 -23.32617188 13.52392578 C-9.5290583 -1.24288436 -9.5290583 -1.24288436 0 0 Z " fill="#515151" transform="translate(462.505859375,20.336181640625)"/>
<path d="M0 0 C3.81249879 1.7758666 6.23349496 4.00365188 9.203125 7.0078125 C9.6857782 7.49329559 10.1684314 7.97877869 10.66571045 8.47897339 C12.19858562 10.02299866 13.72434004 11.57384824 15.25 13.125 C16.29120361 14.17624009 17.33286541 15.22702657 18.375 16.27734375 C20.92199464 18.84633004 23.46265177 21.42148161 26 24 C24.58098338 27.22745524 22.87144235 29.37258107 20.37646484 31.85058594 C19.63584808 32.59105164 18.89523132 33.33151733 18.13217163 34.09442139 C16.93366074 35.27744843 16.93366074 35.27744843 15.7109375 36.484375 C14.89251373 37.29996887 14.07408997 38.11556274 13.23086548 38.95587158 C10.61690027 41.55864562 7.99606495 44.15437762 5.375 46.75 C3.60110546 48.5138634 1.82766234 50.2781809 0.0546875 52.04296875 C-4.29165142 56.36726136 -8.64365081 60.6857933 -13 65 C-17.09492916 61.55286117 -21.06493546 58.05875464 -24.83984375 54.2578125 C-25.67451172 53.41992188 -26.50917969 52.58203125 -27.36914062 51.71875 C-28.21669922 50.8628125 -29.06425781 50.006875 -29.9375 49.125 C-30.81212891 48.24585938 -31.68675781 47.36671875 -32.58789062 46.4609375 C-34.72757048 44.3095654 -36.86486597 42.15588208 -39 40 C-34.62970634 34.77051256 -30.03088196 29.89710045 -25.1953125 25.09765625 C-24.4713327 24.3750914 -23.74735291 23.65252655 -23.00143433 22.9080658 C-20.71164735 20.62383078 -18.41839007 18.34311688 -16.125 16.0625 C-14.56226839 14.50478961 -12.9997661 12.94684913 -11.4375 11.38867188 C-7.6276469 7.58978398 -3.81494621 3.79377287 0 0 Z " fill="#746F2B" transform="translate(408,66)"/>
<path d="M0 0 C3.81249879 1.7758666 6.23349496 4.00365188 9.203125 7.0078125 C9.6857782 7.49329559 10.1684314 7.97877869 10.66571045 8.47897339 C12.19858562 10.02299866 13.72434004 11.57384824 15.25 13.125 C16.29120361 14.17624009 17.33286541 15.22702657 18.375 16.27734375 C20.92199464 18.84633004 23.46265177 21.42148161 26 24 C24.59966705 27.15398193 22.94573104 29.31944046 20.53173828 31.7746582 C19.82405304 32.49833084 19.1163678 33.22200348 18.38723755 33.96760559 C17.62265228 34.73755356 16.85806702 35.50750153 16.0703125 36.30078125 C14.89020096 37.4944355 14.89020096 37.4944355 13.68624878 38.71220398 C12.02290516 40.3900429 10.35674579 42.0650944 8.68798828 43.73754883 C6.12938893 46.30809058 3.59002989 48.89668781 1.05078125 51.48632812 C-0.5665568 53.11312482 -2.18500902 54.73881474 -3.8046875 56.36328125 C-4.5652243 57.14335037 -5.32576111 57.92341949 -6.10934448 58.72712708 C-7.18032883 59.78899483 -7.18032883 59.78899483 -8.27294922 60.87231445 C-8.8975705 61.50200638 -9.52219177 62.1316983 -10.16574097 62.7804718 C-12 64 -12 64 -14.0773468 63.8248291 C-18.73379483 61.82718655 -22.21157874 57.30517882 -25.75610352 53.74487305 C-27.31085051 52.18915052 -28.88571953 50.65599133 -30.46289062 49.12304688 C-31.45181854 48.13932369 -32.43949363 47.1543391 -33.42578125 46.16796875 C-34.32723877 45.27360107 -35.22869629 44.3792334 -36.1574707 43.45776367 C-38 41 -38 41 -37.83453369 39.08705139 C-36.79980536 36.49934135 -35.47054137 35.109824 -33.48999023 33.14941406 C-32.74929794 32.40894836 -32.00860565 31.66848267 -31.24546814 30.90557861 C-30.44129959 30.11689392 -29.63713104 29.32820923 -28.80859375 28.515625 C-27.98875504 27.70003113 -27.16891632 26.88443726 -26.32423401 26.04412842 C-23.70227238 23.43896894 -21.07007552 20.84442921 -18.4375 18.25 C-16.65882155 16.48636631 -14.88081808 14.7220516 -13.10351562 12.95703125 C-8.7434806 8.63008597 -4.37499473 4.31181602 0 0 Z " fill="#746F2B" transform="translate(117,357)"/>
<path d="M0 0 C3.86328627 1.5847358 6.28876923 4.05956887 9.203125 7.0078125 C9.6857782 7.49329559 10.1684314 7.97877869 10.66571045 8.47897339 C12.19858562 10.02299866 13.72434004 11.57384824 15.25 13.125 C16.29120361 14.17624009 17.33286541 15.22702657 18.375 16.27734375 C20.92199464 18.84633004 23.46265177 21.42148161 26 24 C24.37220787 28.04256217 21.51665728 30.84055384 18.51171875 33.89453125 C17.97150589 34.44614426 17.43129303 34.99775726 16.87471008 35.56608582 C15.73351091 36.72612721 14.58941536 37.88332548 13.44262695 39.0378418 C11.68978246 40.81019214 9.95939376 42.60270989 8.22851562 44.39648438 C7.11590811 45.52214429 6.00201806 46.64653829 4.88671875 47.76953125 C4.3719548 48.3089888 3.85719086 48.84844635 3.326828 49.4042511 C1.06065775 51.64286941 -0.29439634 52.96978013 -3.5480957 53.10913086 C-8.35662135 50.93397085 -11.73335475 46.93134265 -15.40429688 43.22705078 C-16.87428137 41.75072173 -18.36897952 40.30308151 -19.8671875 38.85546875 C-21.259375 37.46521484 -21.259375 37.46521484 -22.6796875 36.046875 C-23.53288574 35.19963867 -24.38608398 34.35240234 -25.26513672 33.47949219 C-27 31 -27 31 -27.1315918 28.57055664 C-25.53872703 24.95215898 -23.01770362 22.52439967 -20.21484375 19.82421875 C-19.63916153 19.25419632 -19.06347931 18.68417389 -18.47035217 18.09687805 C-16.63526509 16.28412437 -14.78674484 14.48579748 -12.9375 12.6875 C-11.68854041 11.45860922 -10.44048246 10.22880136 -9.19335938 8.99804688 C-6.13925431 5.98796886 -3.0730282 2.99075168 0 0 Z " fill="#505150" transform="translate(70,404)"/>
<path d="M0 0 C5.16192076 3.14480095 9.16943929 6.9303009 13.375 11.25 C14.33599609 12.22453125 14.33599609 12.22453125 15.31640625 13.21875 C16.88229364 14.80800885 18.44328509 16.40176417 20 18 C18.7750259 22.1030686 17.32179479 25.36438139 14.875 28.875 C14.33617188 29.65617187 13.79734375 30.43734375 13.2421875 31.2421875 C12.83226563 31.82226562 12.42234375 32.40234375 12 33 C6.19108254 28.18132753 0.86934448 22.98743592 -4.4375 17.625 C-5.26443359 16.79355469 -6.09136719 15.96210938 -6.94335938 15.10546875 C-8.96455531 13.0725896 -10.98336335 11.03740037 -13 9 C-10.23366338 6.15200031 -7.76692285 4.11190033 -4.25 2.25 C-3.45078125 1.82203125 -2.6515625 1.3940625 -1.828125 0.953125 C-1.22484375 0.63859375 -0.6215625 0.3240625 0 0 Z " fill="#121112" transform="translate(36,444)"/>
<path d="M0 0 C5.43733055 4.52991796 10.46458931 9.34294216 15.4375 14.375 C16.16904297 15.11105469 16.90058594 15.84710938 17.65429688 16.60546875 C19.43852723 18.40136074 21.22036124 20.19955985 23 22 C22.67 22.99 22.34 23.98 22 25 C21.34 24.67 20.68 24.34 20 24 C20 23.01 20 22.02 20 21 C18.68 21 17.36 21 16 21 C16 19.68 16 18.36 16 17 C14.68 17 13.36 17 12 17 C12 15.68 12 14.36 12 13 C10.68 13 9.36 13 8 13 C8 11.68 8 10.36 8 9 C6.68 9 5.36 9 4 9 C4 7.68 4 6.36 4 5 C2.68 5 1.36 5 0 5 C0 3.35 0 1.7 0 0 Z " fill="#555755" transform="translate(364,115)"/>
</svg>
