<?xml version="1.0" encoding="UTF-8"?>
<svg version="1.1" xmlns="http://www.w3.org/2000/svg" width="500" height="500">
<path d="M0 0 C13.24894753 7.22349533 23.70392563 17.11616062 32.0625 29.6015625 C32.75859375 30.61734375 33.4546875 31.633125 34.171875 32.6796875 C39.23081515 40.49804955 41.97410448 48.83587333 42.625 58.1015625 C42.71974609 59.38546875 42.71974609 59.38546875 42.81640625 60.6953125 C40.97799931 67.78222838 33.1755456 73.63593617 28.08309174 78.72077847 C27.41358114 79.39324048 26.74407055 80.0657025 26.05427176 80.75854215 C23.8211868 83.00025548 21.58461941 85.23846036 19.34802246 87.47666931 C17.72572105 89.10370589 16.10362809 90.73095033 14.48172522 92.35838419 C10.03250612 96.82146558 5.58016531 101.28142118 1.12725902 105.74082339 C-3.18379845 110.05908547 -7.4925533 114.379643 -11.80147682 118.70003421 C-23.8829325 130.81326122 -35.97032884 142.92055388 -48.05886817 155.02671108 C-51.3326728 158.30528774 -54.60635942 161.58398223 -57.88003731 164.86268544 C-78.20765775 185.22134019 -98.53749136 205.57778343 -118.87224579 225.92931271 C-123.57778935 230.6387933 -128.28329545 235.34831132 -132.98876953 240.05786133 C-133.57334719 240.64294066 -134.15792485 241.22801999 -134.76021699 241.83082899 C-153.73514375 260.82219244 -172.6990117 279.82455045 -191.65672091 298.83309982 C-211.15210681 318.38067244 -230.65716395 337.91853957 -250.17502659 357.44367104 C-252.92957354 360.19924659 -255.68401661 362.95492597 -258.43840027 365.71066475 C-258.98048094 366.25300346 -259.52256162 366.79534218 -260.08106898 367.35411539 C-268.81192432 376.08966957 -277.53261212 384.83530655 -286.24964027 393.58465618 C-295.00347745 402.37047862 -303.76823889 411.14528112 -312.54431069 419.90889465 C-317.30027701 424.65870586 -322.05085752 429.41362046 -326.78873253 434.18148613 C-331.12206569 438.54202606 -335.4688864 442.88862072 -339.82707328 447.22431643 C-341.40491422 448.79891441 -342.97764683 450.37865054 -344.54482299 451.96386337 C-346.669062 454.11106926 -348.81080583 456.23911348 -350.95809174 458.36323452 C-351.87326833 459.30162547 -351.87326833 459.30162547 -352.80693334 460.25897381 C-357.87464287 465.20606352 -361.88673116 465.6015625 -368.9375 465.6015625 C-369.24042969 466.69855469 -369.54335938 467.79554688 -369.85546875 468.92578125 C-370.27779368 470.380456 -370.70101863 471.83486967 -371.125 473.2890625 C-371.32158203 474.01029297 -371.51816406 474.73152344 -371.72070312 475.47460938 C-373.15559775 480.30910048 -374.66038404 483.60225711 -378.9375 486.6015625 C-385.48387847 487.43293641 -385.48387847 487.43293641 -388.67088318 485.61018372 C-390.43598516 484.14340696 -392.02931793 482.59112945 -393.62890625 480.9453125 C-394.55237099 480.0428756 -394.55237099 480.0428756 -395.49449158 479.12220764 C-397.51687453 477.1349348 -399.50869556 475.11994076 -401.5 473.1015625 C-402.89987455 471.70707934 -404.30093464 470.31378538 -405.703125 468.92163086 C-408.6344509 466.00208812 -411.55084842 463.06859535 -414.45751953 460.12451172 C-418.18100786 456.35544253 -421.93926545 452.62343506 -425.7094574 448.90115356 C-428.60821127 446.03133533 -431.48760634 443.14270007 -434.36154175 440.24804688 C-435.73995151 438.86430787 -437.12430851 437.4864666 -438.51467896 436.11474609 C-440.45691416 434.19287712 -442.37158377 432.24713242 -444.28125 430.29296875 C-444.85777817 429.73263443 -445.43430634 429.17230011 -446.02830505 428.59498596 C-448.90886877 425.58910372 -450.2920555 423.56975542 -450.41748047 419.32885742 C-449.9375 415.6015625 -449.9375 415.6015625 -447.9140625 413.2734375 C-444.490981 411.3507618 -441.04565241 410.01088131 -437.3125 408.8515625 C-436.64476562 408.63113281 -435.97703125 408.41070312 -435.2890625 408.18359375 C-432.39158086 407.25060466 -429.99979641 406.6015625 -426.9375 406.6015625 C-427.288125 405.9209375 -427.63875 405.2403125 -428 404.5390625 C-429.23565371 400.66734753 -428.94233322 398.553346 -427.9375 394.6015625 C-426.11621999 391.92733838 -423.88581546 389.75102817 -421.57588387 387.49607277 C-420.90027934 386.81294598 -420.22467481 386.12981919 -419.52859741 385.42599159 C-417.25040396 383.12984465 -414.95135284 380.85579129 -412.65188599 378.58096313 C-411.00196044 376.92699059 -409.35335094 375.27170436 -407.70595062 373.61521661 C-403.64309685 369.53684356 -399.5664389 365.47264933 -395.48377998 361.4141102 C-390.59483368 356.55247829 -385.72336765 351.67347318 -380.85245544 346.79378402 C-371.86210754 337.78825218 -362.85770899 328.79689369 -353.84509659 319.81364822 C-344.91914112 310.9167434 -335.99897716 302.01410078 -327.08663559 293.10355759 C-326.53260099 292.54964518 -325.97856639 291.99573277 -325.40774287 291.42503513 C-323.15888218 289.17663347 -320.91006382 286.92818947 -318.66130119 284.67968973 C-298.16297297 264.18378483 -277.65019053 243.70240932 -257.12841797 223.22998047 C-237.7450905 203.89324993 -218.37091547 184.54741256 -199.00732422 165.19091797 C-198.41068257 164.59449935 -197.81404092 163.99808073 -197.19931922 163.38358882 C-194.7939416 160.9791089 -192.38857085 158.5746221 -189.98320047 156.17013492 C-188.78455519 154.9719304 -187.58590899 153.77372678 -186.38726187 152.57552409 C-185.19159694 151.38030187 -183.9959346 150.18507707 -182.80027485 148.98984967 C-163.77518071 129.97178064 -144.74214278 110.961664 -125.70773236 91.95291985 C-120.13131214 86.38394288 -114.55534975 80.81450867 -108.98038721 75.24407244 C-97.25501987 63.52831426 -85.52740748 51.81482847 -73.79057445 40.11055501 C-68.93514694 35.2684512 -64.08125519 30.42483389 -59.23182297 25.57672501 C-54.79870128 21.14517027 -50.36102145 16.71823561 -45.91952942 12.29507045 C-44.30741479 10.687997 -42.69700137 9.07921497 -41.08840074 7.46862419 C-38.91374629 5.29179786 -36.73312898 3.12113197 -34.55079842 0.95200539 C-33.91722713 0.31489516 -33.28365584 -0.32221507 -32.63088542 -0.97863168 C-23.22681443 -10.28487647 -10.78270338 -5.13325507 0 0 Z " fill="#FBFAFA" transform="translate(452.9375,10.3984375)"/>
<path d="M0 0 C2.92699446 1.29007981 4.78778619 3.32566388 7.05307329 5.56976336 C7.80250703 6.30649279 7.80250703 6.30649279 8.56708086 7.05810565 C10.21377588 8.68142894 11.84906024 10.31569267 13.48349321 11.95135516 C14.62330999 13.08407244 15.76342547 14.21648923 16.90382707 15.34861773 C19.29034017 17.72168703 21.67083306 20.10061064 24.04770219 22.48333758 C27.09885876 25.54040172 30.16789724 28.57879227 33.24211919 31.6126377 C35.60042208 33.94513706 37.94720571 36.28896291 40.29081094 38.63622111 C41.41802888 39.76174209 42.5492512 40.88326705 43.684461 42.00072688 C45.26739983 43.56161291 46.83374946 45.13745703 48.39682329 46.71820086 C49.2929886 47.61231173 50.18915391 48.5064226 51.11247575 49.42762774 C52.90146196 51.83807391 52.90146196 51.83807391 52.74155945 53.73736948 C51.67920185 56.39384608 50.27464993 57.83739262 48.24888837 59.85979098 C47.45964992 60.65500257 46.67041148 61.45021417 45.85725671 62.26952308 C44.98081524 63.13722603 44.10437376 64.00492898 43.20137346 64.89892596 C42.2776362 65.82522649 41.35389894 66.75152703 40.40216964 67.70589727 C37.83438787 70.28040028 35.25732311 72.84543355 32.67868066 75.40905207 C29.90093048 78.17386976 27.1318318 80.94732806 24.3616823 83.71975726 C19.55983275 88.52318131 14.75251263 93.32107375 9.94145334 98.1152727 C2.98544653 105.04691803 -3.96228019 111.98681387 -10.90800159 118.92876366 C-22.17667417 130.19086727 -33.45203261 141.44625247 -44.73159468 152.69744891 C-55.68985708 163.62818225 -66.64497014 174.56205609 -77.59585249 185.50018328 C-78.60804991 186.51119844 -78.60804991 186.51119844 -79.64069576 187.54263815 C-83.02587678 190.92390411 -86.41099587 194.30523207 -89.79608417 197.68659085 C-117.88730659 225.74670353 -145.98937993 253.79592896 -174.09853804 281.83807391 C-177.87281371 280.07444678 -180.28161647 277.89666341 -183.23428023 274.9293825 C-183.73229643 274.43165835 -184.23031264 273.9339342 -184.74342024 273.4211275 C-186.38220537 271.78095321 -188.01379938 270.1338173 -189.64541304 268.48651141 C-190.78269151 267.34550135 -191.92041344 266.20493314 -193.05856001 265.064789 C-196.04843783 262.06728629 -199.03225996 259.0638254 -202.01485884 256.05908221 C-205.06125125 252.99220678 -208.11333507 249.93100697 -211.16494429 246.86932391 C-217.14839238 240.86444608 -223.12545467 234.85326159 -229.09853804 228.83807391 C-227.65833906 225.54755012 -225.87900833 223.36573248 -223.34970725 220.8291809 C-222.56442794 220.036836 -221.77914863 219.2444911 -220.97007298 218.42813575 C-220.10316378 217.56364163 -219.23625458 216.69914751 -218.34307539 215.8084566 C-217.42538953 214.88553405 -216.50770366 213.96261151 -215.56220913 213.01172161 C-213.01361654 210.44893931 -210.45878619 207.89245556 -207.9028703 205.33697969 C-205.14806209 202.58052422 -202.39897503 199.81837272 -199.64909041 197.05700701 C-193.63599222 191.02105691 -187.61543599 184.99258246 -181.59343064 178.9655208 C-177.83560859 175.20444336 -174.07942207 171.44173551 -170.32358611 167.67867488 C-159.9298443 157.26537052 -149.53452731 146.8536461 -139.13245261 136.44866484 C-138.13399854 135.44992943 -138.13399854 135.44992943 -137.11537369 134.43101754 C-135.76591417 133.08119175 -134.41645336 131.73136725 -133.06699128 130.38154402 C-132.39709898 129.7114689 -131.72720668 129.04139378 -131.0370146 128.35101336 C-130.36630652 127.68012473 -129.69559845 127.00923611 -129.00456588 126.31801752 C-118.12435657 115.4342626 -107.25594785 104.5388058 -96.39266141 93.63816228 C-85.2464809 82.45395799 -74.09102397 71.27907919 -62.92596626 60.11371899 C-56.65438288 53.84154986 -50.38684944 47.56544867 -44.12941039 41.27916545 C-38.8041132 35.92943413 -33.47038762 30.58829209 -28.12531413 25.25831672 C-25.39645225 22.53665529 -22.67186143 19.81104104 -19.95791113 17.07450312 C-17.02128369 14.11366864 -14.06583749 11.17238642 -11.10796797 8.23277301 C-9.81429633 6.91930141 -9.81429633 6.91930141 -8.49448991 5.57929504 C-7.70399511 4.79998888 -6.91350031 4.02068272 -6.09905112 3.21776122 C-5.07771077 2.19519918 -5.07771077 2.19519918 -4.03573728 1.15197933 C-2.09853804 -0.16192609 -2.09853804 -0.16192609 0 0 Z " fill="#4F4F4F" transform="translate(344.0985380411148,103.16192609071732)"/>
<path d="M0 0 C19.6713435 5.21515126 34.19740845 17.90144354 44.71118164 34.98388672 C48.17131713 41.1343569 51.47865782 47.74560452 50.71118164 54.98388672 C48.78162052 58.28926814 46.158344 60.70537011 43.37133789 63.30029297 C42.61525742 64.04222397 41.85917694 64.78415497 41.08018494 65.54856873 C38.66718065 67.90573047 36.22174643 70.22571263 33.77368164 72.54638672 C32.12883778 74.14105823 30.48623056 75.7380402 28.84594727 77.33740234 C24.82656364 81.24671412 20.77999888 85.12608737 16.71118164 88.98388672 C12.88723244 87.40511239 10.47476065 84.98886959 7.57543945 82.07519531 C7.07742325 81.57747116 6.57940704 81.07974701 6.06629944 80.56694031 C4.42751431 78.92676601 2.7959203 77.27963011 1.16430664 75.63232422 C0.02702817 74.49131416 -1.11069376 73.35074594 -2.24884033 72.21060181 C-5.23871815 69.2130991 -8.22254027 66.20963821 -11.20513916 63.20489502 C-14.25153157 60.13801959 -17.30361539 57.07681978 -20.35522461 54.01513672 C-26.3386727 48.01025889 -32.31573499 41.9990744 -38.28881836 35.98388672 C-36.95591729 33.04376714 -35.4827868 30.90182603 -33.2512207 28.57641602 C-32.63652924 27.93282639 -32.02183777 27.28923676 -31.38851929 26.62614441 C-28.56756086 23.72915473 -25.74551111 20.83367723 -22.90551758 17.95532227 C-21.41181525 16.43347677 -19.92801803 14.90184527 -18.4543457 13.3605957 C-16.32440501 11.13332029 -14.16636631 8.93715616 -11.99975586 6.74560547 C-11.34735931 6.05303146 -10.69496277 5.36045746 -10.02279663 4.64689636 C-6.75746591 1.41133068 -4.75010877 -0.53784731 0 0 Z " fill="#505050" transform="translate(434.288818359375,15.01611328125)"/>
<path d="M0 0 C5.29047629 4.42506021 10.241534 9.08123943 15.12109375 13.953125 C16.23823509 15.06527374 16.23823509 15.06527374 17.37794495 16.19989014 C18.93808381 17.75499778 20.49689887 19.31143455 22.05444336 20.86914062 C24.44951222 23.26200114 26.85249308 25.64672692 29.25585938 28.03125 C30.77392568 29.54638604 32.29152101 31.06199413 33.80859375 32.578125 C34.53034286 33.2926886 35.25209198 34.0072522 35.99571228 34.74346924 C36.65382401 35.40465759 37.31193573 36.06584595 37.98999023 36.74707031 C38.57288315 37.32853821 39.15577606 37.9100061 39.7563324 38.50909424 C41 40 41 40 41 42 C41.56074219 42.23976563 42.12148437 42.47953125 42.69921875 42.7265625 C45.49820004 44.27574399 47.5203048 46.14575685 49.8125 48.375 C51.02873047 49.53128906 51.02873047 49.53128906 52.26953125 50.7109375 C54 53 54 53 53.8217926 54.90814209 C52.81484964 57.47129682 51.53854732 58.82248279 49.58178711 60.75878906 C48.86111557 61.47923401 48.14044403 62.19967896 47.39793396 62.94195557 C46.61563919 63.70876648 45.83334442 64.47557739 45.02734375 65.265625 C44.22970108 66.05902283 43.43205841 66.85242065 42.61024475 67.66986084 C40.05961153 70.20369398 37.49874774 72.72690105 34.9375 75.25 C33.20699858 76.9654564 31.4771722 78.68159405 29.74804688 80.3984375 C25.50650094 84.60689643 21.25650702 88.80667651 17 93 C10.55309361 87.68985746 4.70050563 81.82873116 -1.18359375 75.9140625 C-2.24954109 74.84624655 -3.31571205 73.77865378 -4.38209534 72.71127319 C-7.16750139 69.92207682 -9.94988929 67.129889 -12.73162842 64.33703613 C-15.57901064 61.47936425 -18.42927986 58.62457498 -21.27929688 55.76953125 C-26.85567081 50.18248158 -32.42885494 44.59226366 -38 39 C-33.69372744 33.85170256 -29.17688069 29.04247928 -24.4140625 24.31640625 C-23.71227875 23.61603745 -23.010495 22.91566864 -22.28744507 22.19407654 C-20.06898864 19.98116973 -17.84706185 17.77178584 -15.625 15.5625 C-14.11044534 14.05296686 -12.59612015 12.54320343 -11.08203125 11.03320312 C-7.39066901 7.35280298 -3.69645931 3.67528043 0 0 Z " fill="#732A29" transform="translate(107,338)"/>
<path d="M0 0 C6.44690639 5.31014254 12.29949437 11.17126884 18.18359375 17.0859375 C19.24954109 18.15375345 20.31571205 19.22134622 21.38209534 20.28872681 C24.16750139 23.07792318 26.94988929 25.870111 29.73162842 28.66296387 C32.57901064 31.52063575 35.42927986 34.37542502 38.27929688 37.23046875 C43.85567081 42.81751842 49.42885494 48.40773634 55 54 C50.75789864 59.06711299 46.32282911 63.81223371 41.6328125 68.46484375 C40.95322479 69.14301651 40.27363708 69.82118927 39.57345581 70.51991272 C37.42632998 72.66149141 35.27573373 74.79954529 33.125 76.9375 C31.65862227 78.39885589 30.1924742 79.86044226 28.7265625 81.32226562 C25.15369 84.88417935 21.57770316 88.44293865 18 92 C14.1760508 90.42122567 11.76357901 88.00498287 8.86425781 85.09130859 C8.36624161 84.59358444 7.8682254 84.09586029 7.3551178 83.58305359 C5.71633267 81.9428793 4.08473866 80.29574339 2.453125 78.6484375 C1.31584653 77.50742744 0.1781246 76.36685923 -0.96002197 75.22671509 C-3.94989979 72.22921238 -6.93372191 69.22575149 -9.9163208 66.2210083 C-12.96271321 63.15413288 -16.01479703 60.09293306 -19.06640625 57.03125 C-25.04985434 51.02637217 -31.02691663 45.01518768 -37 39 C-35.60919475 35.86261846 -33.98977796 33.74524719 -31.56005859 31.33300781 C-30.85948334 30.63258362 -30.15890808 29.93215942 -29.43710327 29.21051025 C-28.68184357 28.46557312 -27.92658386 27.72063599 -27.1484375 26.953125 C-26.37440582 26.18192322 -25.60037415 25.41072144 -24.80288696 24.6161499 C-22.33158077 22.15603144 -19.85340817 19.70296152 -17.375 17.25 C-15.69745948 15.58249106 -14.02037055 13.91452768 -12.34375 12.24609375 C-8.23439081 8.1587763 -4.11937353 4.07722304 0 0 Z " fill="#722927" transform="translate(388,57)"/>
<path d="M0 0 C3.8239492 1.57877433 6.23642099 3.99501713 9.13574219 6.90869141 C9.63375839 7.40641556 10.1317746 7.90413971 10.6448822 8.41694641 C12.28366733 10.0571207 13.91526134 11.70425661 15.546875 13.3515625 C16.68415347 14.49257256 17.8218754 15.63314077 18.96002197 16.77328491 C21.94989979 19.77078762 24.93372191 22.77424851 27.9163208 25.7789917 C30.96271321 28.84586712 34.01479703 31.90706694 37.06640625 34.96875 C43.04985434 40.97362783 49.02691663 46.98481232 55 53 C53.17924329 56.93712187 50.62350502 59.63336039 47.5546875 62.640625 C47.02481232 63.16767029 46.49493713 63.69471558 45.94900513 64.23773193 C44.26232175 65.91325675 42.56880436 67.58167722 40.875 69.25 C39.72740612 70.38755851 38.58026539 71.52557436 37.43359375 72.6640625 C34.62761863 75.44803465 31.81549536 78.2256576 29 81 C24.20344014 79.71582719 21.527801 78.02584224 18.03613281 74.52197266 C16.63503265 73.13010239 16.63503265 73.13010239 15.20562744 71.71011353 C14.20443038 70.69512104 13.20360504 69.67976176 12.203125 68.6640625 C11.16347113 67.62202198 10.12307415 66.58072238 9.08197021 65.54013062 C6.90726825 63.36230799 4.73942706 61.17795568 2.57666016 58.98828125 C-0.19277727 56.184823 -2.97524082 53.39475339 -5.76249313 50.60901833 C-7.90951538 48.46145177 -10.05128223 46.30870869 -12.19132233 44.15418625 C-13.21557422 43.12358124 -14.24103199 42.09417318 -15.26772308 41.06599808 C-16.70142797 39.62794699 -18.12773818 38.18253503 -19.55371094 36.73681641 C-20.36612244 35.91678131 -21.17853394 35.09674622 -22.01556396 34.25186157 C-24.77862012 31.11645188 -26 29.20374575 -26 25 C-24.58398438 23.50756836 -24.58398438 23.50756836 -22.59375 21.90234375 C-17.61023966 17.72634666 -13.07063429 13.18152049 -8.5 8.5625 C-7.26636719 7.32209961 -7.26636719 7.32209961 -6.0078125 6.05664062 C-4.00287887 4.04005041 -2.00033747 2.02114764 0 0 Z " fill="#4F504F" transform="translate(61,384)"/>
<path d="M0 0 C1.61791992 1.18554688 1.61791992 1.18554688 3.23046875 2.71875 C3.85703369 3.30978516 4.48359863 3.90082031 5.12915039 4.50976562 C5.80840576 5.16654297 6.48766113 5.82332031 7.1875 6.5 C7.90349365 7.18255859 8.6194873 7.86511719 9.35717773 8.56835938 C20.42239238 19.18874708 31.19464468 30.11665896 42 41 C40.35 46.61 38.7 52.22 37 58 C30.65464505 52.75816111 24.851394 47.01512384 19.03515625 41.203125 C17.99148098 40.16266817 16.94773278 39.12228448 15.90391541 38.08197021 C13.73129267 35.91529826 11.5607088 33.74660726 9.39135742 31.57666016 C6.60653633 28.79173664 3.81485031 26.01380323 1.02143192 23.23750687 C-1.12915819 21.09799881 -3.27522495 18.95399831 -5.42001534 16.80867767 C-6.44829754 15.78157745 -7.4782061 14.75610284 -8.50974846 13.73227692 C-9.94342212 12.30834374 -11.37021043 10.87748808 -12.79663086 9.44628906 C-13.61046738 8.63387756 -14.42430389 7.82146606 -15.26280212 6.98443604 C-17 5 -17 5 -17 3 C-14.92085336 2.29994051 -12.83648414 1.61537756 -10.75 0.9375 C-9.58984375 0.55464844 -8.4296875 0.17179687 -7.234375 -0.22265625 C-4.00601807 -0.99855363 -3.00223662 -1.07869398 0 0 Z " fill="#121112" transform="translate(33,427)"/>
</svg>
