<?xml version="1.0" encoding="UTF-8"?>
<svg version="1.1" xmlns="http://www.w3.org/2000/svg" width="256" height="256">
<path d="M0 0 C1.58473566 1.58473566 1.24662754 3.17693998 1.3125 5.375 C1.23457021 11.45352381 -0.37349122 16.55034542 -3 22 C-3.44547432 22.94893379 -3.44547432 22.94893379 -3.89994812 23.91703796 C-8.99552292 33.50201269 -17.1343488 40.59358475 -24.79296875 48.11328125 C-26.34764598 49.65539814 -27.90128442 51.19856291 -29.45393372 52.74272156 C-33.52297125 56.78528723 -37.60302623 60.81652813 -41.6864624 64.84454346 C-48.23430413 71.30577732 -54.76844751 77.7807951 -61.29625893 84.26225853 C-63.57323171 86.51883301 -65.85692681 88.76843577 -68.1414032 91.01741028 C-69.53745137 92.39980226 -70.93328128 93.7824147 -72.32885742 95.1652832 C-73.28036682 96.09658051 -73.28036682 96.09658051 -74.25109863 97.04669189 C-77.40050315 100.17976153 -79.81857378 103.09309214 -82 107 C-83.90401615 108.91225865 -85.79699856 110.71676825 -87.8125 112.5 C-88.32103516 112.96019531 -88.82957031 113.42039062 -89.35351562 113.89453125 C-90.89030769 115.27744933 -92.44062159 116.64261867 -94 118 C-94.53560547 118.46631836 -95.07121094 118.93263672 -95.62304688 119.41308594 C-97.99237904 121.43622098 -100.0000266 123.00001157 -102.875 124.25 C-106.84018127 126.47050151 -109.18926989 129.37261433 -112.0703125 132.84375 C-114 135 -114 135 -116.12890625 136.5078125 C-118.38213277 138.30474889 -118.87809836 139.67766325 -119.8125 142.375 C-121.80971098 147.19180296 -124.34002267 149.7068491 -129 152 C-129.99257812 152.23203125 -130.98515625 152.4640625 -132.0078125 152.703125 C-136.0071287 154.43651009 -136.93556835 156.98003552 -138.5 160.8125 C-140.78783111 166.31364164 -143.14594494 169.57475953 -148 173 C-148.66 173 -149.32 173 -150 173 C-150 173.66 -150 174.32 -150 175 C-151.35546875 176.296875 -151.35546875 176.296875 -153.1875 177.75 C-155.61174384 179.75158008 -157.46413003 181.55695604 -159.5 184 C-161.92081175 186.9049741 -164.41781302 189.10439698 -167.3125 191.5 C-169.24555317 193.14332242 -169.24555317 193.14332242 -171.5 196 C-173.92081175 198.9049741 -176.41781302 201.10439698 -179.3125 203.5 C-181.24555317 205.14332242 -181.24555317 205.14332242 -183.5 208 C-185.92081175 210.9049741 -188.41781302 213.10439698 -191.3125 215.5 C-193.24555317 217.14332242 -193.24555317 217.14332242 -195.5 220 C-197.46009567 222.3521148 -199.17704148 224.07755157 -201.5 226 C-205.73209204 229.517583 -208.99228104 233.58919345 -212.1875 238.0625 C-215.47389597 242.01873464 -220.16150753 244.41863905 -225 246 C-230.42995768 245.32421316 -233.6218046 240.93097452 -237.3125 237.25 C-238.06595703 236.53328125 -238.81941406 235.8165625 -239.59570312 235.078125 C-240.30275391 234.376875 -241.00980469 233.675625 -241.73828125 232.953125 C-242.71341675 231.99647949 -242.71341675 231.99647949 -243.70825195 231.02050781 C-245 229 -245 229 -244.75146484 226.38183594 C-242.59011547 219.53124318 -239.84978306 215.35866189 -234 211 C-230.51993144 208.18976765 -227.37158191 205.44589829 -224.5 202 C-222.07918825 199.0950259 -219.58218698 196.89560302 -216.6875 194.5 C-214.75444683 192.85667758 -214.75444683 192.85667758 -212.5 190 C-210.07918825 187.0950259 -207.58218698 184.89560302 -204.6875 182.5 C-202.75444683 180.85667758 -202.75444683 180.85667758 -200.5 178 C-198.07918825 175.0950259 -195.58218698 172.89560302 -192.6875 170.5 C-190.75444683 168.85667758 -190.75444683 168.85667758 -188.5 166 C-186.08496606 163.10195927 -183.60055814 160.906342 -180.70703125 158.5234375 C-178.99888936 156.99900881 -177.61128763 155.41418446 -176.1875 153.625 C-175.465625 152.75875 -174.74375 151.8925 -174 151 C-173.34 151 -172.68 151 -172 151 C-171.773125 150.2575 -171.54625 149.515 -171.3125 148.75 C-168.14452287 142.11233364 -160.48566125 139.59128014 -154.125 136.6875 C-151.09490976 134.28125187 -150.95267751 131.68368639 -150 128 C-147.7064594 123.98630395 -145.20145168 122.51020588 -141.125 120.625 C-136.7529031 118.58639764 -134.2661019 116.49148978 -131.3671875 112.68359375 C-130 111 -130 111 -126.875 108.5625 C-123.94712551 105.95287273 -122.96153565 103.82707976 -121.390625 100.3125 C-118.86604098 96.11431533 -115.13630402 92.92035209 -111.62109375 89.5546875 C-109.61262517 87.59710412 -107.84060692 85.70343125 -106.125 83.5 C-104 81 -104 81 -101.78564453 79.75396729 C-98.10359337 77.435582 -95.32875474 74.54340264 -92.3046875 71.43652344 C-91.6518428 70.77433304 -90.99899811 70.11214264 -90.32637024 69.42988586 C-88.91219555 67.99475044 -87.50021051 66.55745476 -86.09017944 65.11824799 C-83.84927808 62.83314572 -81.60039175 60.55619806 -79.34887695 58.28155518 C-72.94874221 51.81440942 -66.5566248 45.33952382 -60.18603516 38.84326172 C-56.28358804 34.86500171 -52.366224 30.901948 -48.43927002 26.94788361 C-46.95388408 25.44650862 -45.47404435 23.93962338 -44.00018311 22.42693329 C-31.74622161 9.8560454 -18.83488048 -1.77220976 0 0 Z " fill="#FBFAF9" transform="translate(250,5)"/>
<path d="M0 0 C1.1078354 0.94106385 2.21444803 1.88356727 3.32055664 2.82666016 C3.93693497 3.35135895 4.55331329 3.87605774 5.18836975 4.41665649 C7.71791903 6.62745278 10.07881136 8.98400056 12.4375 11.375 C13.30246094 12.24898437 14.16742188 13.12296875 15.05859375 14.0234375 C15.69925781 14.67570313 16.33992188 15.32796875 17 16 C11.38062338 22.85907115 5.09685489 29.03009491 -1.1796875 35.27734375 C-2.35960447 36.45539258 -3.53929858 37.63366466 -4.71878052 38.81214905 C-7.80389691 41.89347142 -10.89200589 44.97177716 -13.98077393 48.04943848 C-17.14005733 51.19844034 -20.29646516 54.35032171 -23.453125 57.50195312 C-29.63262527 63.6707711 -35.8152939 69.83640129 -42 76 C-44.90619135 74.60403514 -46.97121766 73.26935799 -49.234375 70.9609375 C-49.80800781 70.38085938 -50.38164063 69.80078125 -50.97265625 69.203125 C-51.55917969 68.59984375 -52.14570312 67.9965625 -52.75 67.375 C-53.35199219 66.76398438 -53.95398438 66.15296875 -54.57421875 65.5234375 C-56.05405305 64.02011376 -57.52764676 62.51065144 -59 61 C-57.39140496 56.98428745 -54.56359635 54.29520386 -51.54052734 51.31347656 C-50.98428177 50.75693893 -50.42803619 50.20040131 -49.85493469 49.6269989 C-48.01997095 47.79342558 -46.17803069 45.96703328 -44.3359375 44.140625 C-43.06040611 42.86882475 -41.78531633 41.59658147 -40.51065063 40.32391357 C-37.15804605 36.97893742 -33.79947827 33.64001149 -30.43963623 30.30230713 C-27.01082544 26.89397169 -23.58768427 23.47995255 -20.1640625 20.06640625 C-13.44824728 13.37202703 -6.72611906 6.68402534 0 0 Z " fill="#C75506" transform="translate(80,159)"/>
<path d="M0 0 C2.79570164 1.34727261 4.83967803 2.59706233 7.015625 4.8203125 C7.54414063 5.35527344 8.07265625 5.89023437 8.6171875 6.44140625 C9.15601563 6.99699219 9.69484375 7.55257812 10.25 8.125 C11.08144531 8.96998047 11.08144531 8.96998047 11.9296875 9.83203125 C13.29104485 11.21686028 14.64614859 12.60783204 16 14 C14.50469676 17.48972003 12.50808338 19.73465395 9.82568359 22.40136719 C8.96494232 23.2619574 8.10420105 24.12254761 7.21737671 25.00921631 C6.28712677 25.92914368 5.35687683 26.84907104 4.3984375 27.796875 C3.43678914 28.75479097 2.47558306 29.71315114 1.51480103 30.67193604 C-1.00923282 33.18835125 -3.53921591 35.69870107 -6.07049561 38.20782471 C-8.6547919 40.77162441 -11.23340199 43.34112918 -13.8125 45.91015625 C-18.86945697 50.94569457 -23.93272256 55.9748456 -29 61 C-31.79570164 59.65272739 -33.83967803 58.40293767 -36.015625 56.1796875 C-36.54414063 55.64472656 -37.07265625 55.10976562 -37.6171875 54.55859375 C-38.15601563 54.00300781 -38.69484375 53.44742188 -39.25 52.875 C-39.80429688 52.31167969 -40.35859375 51.74835938 -40.9296875 51.16796875 C-42.29104485 49.78313972 -43.64614859 48.39216796 -45 47 C-43.50469676 43.51027997 -41.50808338 41.26534605 -38.82568359 38.59863281 C-37.96494232 37.7380426 -37.10420105 36.87745239 -36.21737671 35.99078369 C-35.28712677 35.07085632 -34.35687683 34.15092896 -33.3984375 33.203125 C-32.43678914 32.24520903 -31.47558306 31.28684886 -30.51480103 30.32806396 C-27.99076718 27.81164875 -25.46078409 25.30129893 -22.92950439 22.79217529 C-20.3452081 20.22837559 -17.76659801 17.65887082 -15.1875 15.08984375 C-10.13054303 10.05430543 -5.06727744 5.0251544 0 0 Z " fill="#C75506" transform="translate(198,42)"/>
<path d="M0 0 C1.98 1.65 3.96 3.3 6 5 C4.6415798 8.04332765 3.11536976 10.12309151 0.7421875 12.453125 C0.11699219 13.071875 -0.50820312 13.690625 -1.15234375 14.328125 C-1.80332031 14.96234375 -2.45429688 15.5965625 -3.125 16.25 C-3.78371094 16.8996875 -4.44242188 17.549375 -5.12109375 18.21875 C-6.74296643 19.81711727 -8.3693281 21.41061897 -10 23 C-9.34 23.66 -8.68 24.32 -8 25 C-2.72 19.72 2.56 14.44 8 9 C11.76687864 10.88343932 12.79421646 11.69132469 15 15 C14.12085938 15.39058594 13.24171875 15.78117187 12.3359375 16.18359375 C8.78489654 18.11712308 6.45055342 20.18308706 3.625 23.0625 C3.15022217 23.54493164 2.67544434 24.02736328 2.1862793 24.52441406 C-1.53700335 28.36885563 -4.8272313 32.478292 -8.0859375 36.72265625 C-10.00562748 39.00669555 -12.00501046 40.80374945 -14.3125 42.6875 C-16.95533871 44.86758485 -18.47562992 46.4740018 -19.6875 49.6875 C-21.20941844 53.52853226 -22.53264857 54.82282585 -26 57 C-26.99 57.309375 -27.98 57.61875 -29 57.9375 C-32.73582451 59.0183703 -32.73582451 59.0183703 -37 64 C-40.96 60.04 -44.92 56.08 -49 52 C-46.525 49.525 -46.525 49.525 -44 47 C-42.77847272 44.73731268 -42.77847272 44.73731268 -42 42.4375 C-40.34758374 38.44250165 -38.77927591 36.30443653 -35 34 C-34.195625 33.731875 -33.39125 33.46375 -32.5625 33.1875 C-29.90488023 31.95592011 -29.15518878 31.16146076 -27.375 28.9375 C-24.8039562 25.7483536 -22.02306191 23.29378803 -18.8125 20.75 C-14.65473735 17.42378988 -10.72873225 13.9812344 -6.9375 10.25 C-6.03902344 9.36828125 -5.14054687 8.4865625 -4.21484375 7.578125 C-2.06773522 5.07884522 -0.99161314 3.11489776 0 0 Z " fill="#070707" transform="translate(145,96)"/>
<path d="M0 0 C-0.82286685 11.10870244 -5.34518791 19.21415258 -12 28 C-16.32504836 26.34136495 -19.09418825 23.128959 -22.25 19.875 C-22.80429688 19.31167969 -23.35859375 18.74835937 -23.9296875 18.16796875 C-25.29104485 16.78313972 -26.64614859 15.39216796 -28 14 C-25.63089087 7.97309052 -19.37216358 5.51427034 -13.73828125 2.984375 C-9.15939625 1.20515111 -4.90945285 0 0 0 Z " fill="#C75606" transform="translate(247,9)"/>
<path d="M0 0 C3.04332765 1.3584202 5.12309151 2.88463024 7.453125 5.2578125 C8.071875 5.88300781 8.690625 6.50820312 9.328125 7.15234375 C9.96234375 7.80332031 10.5965625 8.45429688 11.25 9.125 C11.8996875 9.78371094 12.549375 10.44242188 13.21875 11.12109375 C14.81711727 12.74296643 16.41061897 14.3693281 18 16 C15.79052156 20.70038095 13.75476913 21.86855177 9 24 C4.87684491 22.79238135 2.15652034 19.38069295 -0.75 16.375 C-1.25660156 15.859375 -1.76320313 15.34375 -2.28515625 14.8125 C-3.52803902 13.54616661 -4.76465276 12.2736856 -6 11 C-4.6210965 6.515458 -3.12079497 3.53690097 0 0 Z " fill="#070707" transform="translate(16,222)"/>
<path d="M0 0 C2.23590513 1.84082843 4.26208627 3.66140909 6.3125 5.6875 C6.87517578 6.20505859 7.43785156 6.72261719 8.01757812 7.25585938 C10.67890415 9.87158129 11.96578846 11.35952807 12.16796875 15.14453125 C11 18 11 18 6 22 C0.39 16.39 -5.22 10.78 -11 5 C-5.43758166 -1.95302293 -5.43758166 -1.95302293 0 0 Z " fill="#010101" transform="translate(94,151)"/>
<path d="M0 0 C5.66129431 4.69766975 10.85228904 9.74723372 16 15 C15.07347299 16.17539996 14.13336613 17.34010577 13.1875 18.5 C12.66542969 19.1496875 12.14335937 19.799375 11.60546875 20.46875 C10 22 10 22 7 22 C5.37426758 20.71484375 5.37426758 20.71484375 3.64453125 18.9375 C3.02255859 18.30585937 2.40058594 17.67421875 1.75976562 17.0234375 C1.11716797 16.35570313 0.47457031 15.68796875 -0.1875 15 C-0.84169922 14.33226562 -1.49589844 13.66453125 -2.16992188 12.9765625 C-3.78686135 11.32421559 -5.39640491 9.66528399 -7 8 C-6.02133662 6.85373678 -5.04205413 5.70800212 -4.0625 4.5625 C-3.51722656 3.92441406 -2.97195312 3.28632812 -2.41015625 2.62890625 C-1.63204305 1.73008851 -0.84063472 0.84063472 0 0 Z " fill="#0B0B0B" transform="translate(209,31)"/>
<path d="M0 0 C0.66 1.32 1.32 2.64 2 4 C-3.71668973 9.73981215 -9.43603977 15.47695433 -15.15885067 21.21066284 C-17.81580545 23.87284668 -20.47181778 26.53595705 -23.12573242 29.20117188 C-25.68468615 31.7709537 -28.2460417 34.33831836 -30.80911446 36.9039917 C-31.78884225 37.88557389 -32.76768637 38.86803888 -33.74564934 39.85137939 C-35.11059402 41.22353341 -36.47891669 42.59232473 -37.84741211 43.9609375 C-39.0165641 45.13342041 -39.0165641 45.13342041 -40.20933533 46.32958984 C-42 48 -42 48 -43 48 C-43.35600542 44.79958441 -43.29877843 43.40882633 -41.36755371 40.76628113 C-40.22171814 39.63710014 -40.22171814 39.63710014 -39.05273438 38.48510742 C-37.76139587 37.1943354 -37.76139587 37.1943354 -36.44396973 35.87748718 C-35.50339722 34.9627211 -34.56282471 34.04795502 -33.59375 33.10546875 C-32.62859273 32.1496403 -31.66453602 31.19269938 -30.70153809 30.23469543 C-28.16752314 27.71974483 -25.61885354 25.22017136 -23.0668335 22.72351074 C-20.46391887 20.17180066 -17.87515189 17.60582587 -15.28515625 15.04101562 C-10.20385802 10.01329484 -5.10694028 5.00168339 0 0 Z " fill="#FFFCFA" transform="translate(195,40)"/>
<path d="M0 0 C2.89852365 1.31307372 4.98277217 2.72684638 7.234375 4.96875 C7.80800781 5.53980469 8.38164062 6.11085938 8.97265625 6.69921875 C9.55917969 7.29347656 10.14570313 7.88773437 10.75 8.5 C11.35199219 9.09425781 11.95398438 9.68851563 12.57421875 10.30078125 C13.14269531 10.87183594 13.71117187 11.44289063 14.296875 12.03125 C14.81604492 12.55267578 15.33521484 13.07410156 15.87011719 13.61132812 C17 15 17 15 17 17 C15.35 17 13.7 17 12 17 C11.67 17.66 11.34 18.32 11 19 C9.68 17.68 8.36 16.36 7 15 C3.95667235 16.3584202 1.87690849 17.88463024 -0.453125 20.2578125 C-1.071875 20.88300781 -1.690625 21.50820312 -2.328125 22.15234375 C-2.96234375 22.80332031 -3.5965625 23.45429687 -4.25 24.125 C-4.8996875 24.78371094 -5.549375 25.44242188 -6.21875 26.12109375 C-7.81711727 27.74296643 -9.41061897 29.3693281 -11 31 C-11.99 30.01 -12.98 29.02 -14 28 C-8.72 22.72 -3.44 17.44 2 12 C0.14470719 8.08268982 0.14470719 8.08268982 -2 5 C-1.34 5 -0.68 5 0 5 C0 3.35 0 1.7 0 0 Z " fill="#F5F4F5" transform="translate(148,91)"/>
<path d="M0 0 C0.99 0.33 1.98 0.66 3 1 C3 2.32 3 3.64 3 5 C4.27025729 6.82003562 4.27025729 6.82003562 6.0625 8.453125 C6.69414062 9.071875 7.32578125 9.690625 7.9765625 10.328125 C8.64429688 10.96234375 9.31203125 11.5965625 10 12.25 C10.66773438 12.8996875 11.33546875 13.549375 12.0234375 14.21875 C13.67368018 15.82184289 15.33251791 17.41487834 17 19 C15.265625 24.828125 15.265625 24.828125 12.875 26.375 C12.25625 26.58125 11.6375 26.7875 11 27 C11.66 25.35 12.32 23.7 13 22 C10.5457323 19.51677995 8.08591435 17.03913187 5.625 14.5625 C4.92632812 13.85544922 4.22765625 13.14839844 3.5078125 12.41992188 C2.8375 11.74638672 2.1671875 11.07285156 1.4765625 10.37890625 C0.85861816 9.7557251 0.24067383 9.13254395 -0.39599609 8.49047852 C-1.94660067 6.90951849 -1.94660067 6.90951849 -4 6 C-4 5.34 -4 4.68 -4 4 C-2.68 4 -1.36 4 0 4 C0 2.68 0 1.36 0 0 Z " fill="#F8F1EC" transform="translate(20,216)"/>
<path d="M0 0 C6.8330819 -0.67661638 6.8330819 -0.67661638 9.80126953 1.04443359 C11.50789636 2.50616785 13.0348461 4.04010584 14.5625 5.6875 C15.10712891 6.21794922 15.65175781 6.74839844 16.21289062 7.29492188 C17.75390625 8.88671875 17.75390625 8.88671875 20 12 C19.83984375 14.89453125 19.83984375 14.89453125 19 17 C14.30570017 13.08808348 10.03219193 9.0390845 5.89453125 4.5390625 C3.88937365 2.57964508 3.88937365 2.57964508 0 3 C0 2.01 0 1.02 0 0 Z " fill="#F8EFEB" transform="translate(196,40)"/>
<path d="M0 0 C3.57785425 0 5.64811859 1.2670902 8.25 3.5625 C11.6346683 7.12941967 11.83412088 10.1895055 12 15 C7.08064098 10.88380164 2.47352044 6.59589638 -2 2 C-1.34 1.34 -0.68 0.68 0 0 Z " fill="#E0DBD7" transform="translate(217,24)"/>
<path d="M0 0 C2.89852365 1.31307372 4.98277217 2.72684638 7.234375 4.96875 C8.09482422 5.82533203 8.09482422 5.82533203 8.97265625 6.69921875 C9.85244141 7.59060547 9.85244141 7.59060547 10.75 8.5 C11.35199219 9.09425781 11.95398438 9.68851563 12.57421875 10.30078125 C13.14269531 10.87183594 13.71117187 11.44289063 14.296875 12.03125 C14.81604492 12.55267578 15.33521484 13.07410156 15.87011719 13.61132812 C17 15 17 15 17 17 C14.10147635 15.68692628 12.01722783 14.27315362 9.765625 12.03125 C8.90517578 11.17466797 8.90517578 11.17466797 8.02734375 10.30078125 C7.44082031 9.70652344 6.85429687 9.11226562 6.25 8.5 C5.64800781 7.90574219 5.04601562 7.31148438 4.42578125 6.69921875 C3.85730469 6.12816406 3.28882813 5.55710937 2.703125 4.96875 C2.18395508 4.44732422 1.66478516 3.92589844 1.12988281 3.38867188 C0 2 0 2 0 0 Z " fill="#363536" transform="translate(148,91)"/>
<path d="M0 0 C-0.33 2.64 -0.66 5.28 -1 8 C-1.66 7.67 -2.32 7.34 -3 7 C-3 5.68 -3 4.36 -3 3 C-4.65 2.67 -6.3 2.34 -8 2 C-8 1.67 -8 1.34 -8 1 C-5.23735711 0.40267181 -2.83967231 0 0 0 Z " fill="#CD6B26" transform="translate(247,9)"/>
<path d="M0 0 C2.97 0 5.94 0 9 0 C7.35 1.65 5.7 3.3 4 5 C2.68 3.35 1.36 1.7 0 0 Z " fill="#0E0C0E" transform="translate(96,168)"/>
<path d="M0 0 C0 2.97 0 5.94 0 9 C-1.65 7.35 -3.3 5.7 -5 4 C-1.125 0 -1.125 0 0 0 Z " fill="#0E0C0E" transform="translate(88,151)"/>
<path d="M0 0 C2 1.1875 2 1.1875 4 3 C4.25 5.6875 4.25 5.6875 4 8 C3.01 8 2.02 8 1 8 C0.67 5.36 0.34 2.72 0 0 Z " fill="#E8E5E2" transform="translate(228,32)"/>
<path d="M0 0 C0.99 0 1.98 0 3 0 C3.33 2.31 3.66 4.62 4 7 C2.02 5.35 0.04 3.7 -2 2 C-1.34 1.34 -0.68 0.68 0 0 Z " fill="#AEADAE" transform="translate(217,24)"/>
<path d="M0 0 C1.32 0 2.64 0 4 0 C4.33 2.31 4.66 4.62 5 7 C1.18461538 4.53846154 1.18461538 4.53846154 0.25 1.8125 C0.1675 1.214375 0.085 0.61625 0 0 Z " fill="#BEBDBE" transform="translate(224,32)"/>
<path d="M0 0 C1.32 0 2.64 0 4 0 C3.75 2.375 3.75 2.375 3 5 C0.9375 6.3125 0.9375 6.3125 -1 7 C-0.649375 6.21625 -0.29875 5.4325 0.0625 4.625 C0.371875 3.75875 0.68125 2.8925 1 2 C0.67 1.34 0.34 0.68 0 0 Z " fill="#E5E5E5" transform="translate(32,236)"/>
</svg>
