<?xml version="1.0" encoding="UTF-8"?>
<svg version="1.1" xmlns="http://www.w3.org/2000/svg" width="256" height="256">
<path d="M0 0 C2.41185533 1.66386143 4.32879465 3.66665271 6.3125 5.8125 C6.83650391 6.34681641 7.36050781 6.88113281 7.90039062 7.43164062 C13.02157277 12.76265354 13.02157277 12.76265354 14 16 C13.56385688 19.9152291 12.63372772 21.86360644 9.84936523 24.61819458 C9.17630341 25.29386475 8.50324158 25.96953491 7.80978394 26.66567993 C7.06689117 27.3910495 6.32399841 28.11641907 5.55859375 28.86376953 C4.77976837 29.63996643 4.00094299 30.41616333 3.19851685 31.21588135 C0.62057449 33.78083531 -1.9710092 36.33155426 -4.5625 38.8828125 C-6.35330689 40.66108067 -8.14308875 42.44038166 -9.93188477 44.22067261 C-14.1629984 48.42788547 -18.40217912 52.62678177 -22.64608479 56.82107723 C-30.69933645 64.78035514 -38.73840775 72.75386509 -46.76950073 80.73550034 C-49.41332927 83.35882919 -52.06385063 85.97525654 -54.71508789 88.59109497 C-56.32981785 90.19217324 -57.94433169 91.79346951 -59.55859375 93.39501953 C-60.30148651 94.12443756 -61.04437927 94.85385559 -61.80978394 95.6053772 C-62.48284576 96.27540771 -63.15590759 96.94543823 -63.84936523 97.63577271 C-64.43709213 98.21646074 -65.02481903 98.79714878 -65.63035583 99.39543343 C-67.23098823 101.06730343 -67.23098823 101.06730343 -68 104 C-69.96784373 105.72786279 -71.95539101 107.36789984 -74 109 C-77.88121006 112.21081923 -81.58580736 115.5402227 -85.0859375 119.1640625 C-95.29800625 129.72650852 -95.29800625 129.72650852 -102.1328125 133.03125 C-105.90702981 134.98942132 -108.34916573 137.86811431 -110.4375 141.5 C-112 144 -112 144 -115 146.375 C-118.21590739 148.80725312 -118.21590739 148.80725312 -119.5 152.5 C-121.31201096 156.72802558 -123.23168979 158.41390476 -127 161 C-128.051875 161.33 -129.10375 161.66 -130.1875 162 C-133.82390291 163.29294326 -134.22281458 164.63890396 -136 168 C-136.37898438 168.88816406 -136.75796875 169.77632812 -137.1484375 170.69140625 C-139.64891486 176.54443446 -142.38526945 180.70280736 -147.19921875 184.8828125 C-153.87632038 190.83847297 -160.23055803 197.10429097 -166.55859375 203.42578125 C-167.07628578 203.94268335 -167.59397781 204.45958546 -168.12735748 204.99215126 C-170.80683559 207.6686784 -173.4838057 210.34769162 -176.15893555 213.02856445 C-178.90433404 215.77970239 -181.65425892 218.52626553 -184.40550137 221.27155781 C-186.54957243 223.41199942 -188.6912368 225.55483641 -190.832201 227.69838524 C-191.84524514 228.71208982 -192.85901414 229.72507061 -193.87356377 230.73726845 C-200.3593368 237.19045151 -200.3593368 237.19045151 -206.40649414 244.04760742 C-209.4526587 247.51529716 -212.43034303 249.25997458 -217 250 C-222.42712715 249.21571265 -225.56733349 245.06426851 -229.3125 241.375 C-230.06595703 240.67503906 -230.81941406 239.97507813 -231.59570312 239.25390625 C-236.98433329 233.95860697 -236.98433329 233.95860697 -237.0625 229.17578125 C-235.27031489 223.81899265 -233.3602368 219.69959486 -229 216 C-228.0409375 215.566875 -228.0409375 215.566875 -227.0625 215.125 C-224.54415982 213.7513599 -223.17430266 211.86711599 -221.41796875 209.640625 C-219.90179993 207.88638009 -218.28806035 206.47388923 -216.5 205 C-214.17704148 203.07755157 -212.46009567 201.3521148 -210.5 199 C-208.07918825 196.0950259 -205.58218698 193.89560302 -202.6875 191.5 C-200.75444683 189.85667758 -200.75444683 189.85667758 -198.5 187 C-196.07918825 184.0950259 -193.58218698 181.89560302 -190.6875 179.5 C-188.75444683 177.85667758 -188.75444683 177.85667758 -186.5 175 C-184.57820091 172.69384109 -183.03607314 171.14240717 -180.75 169.3125 C-177.53204024 166.68531039 -175.19847881 163.7411864 -172.6875 160.4375 C-168.40079496 155.03698442 -164.27634384 152.59407556 -158 150 C-156.33020674 149.00522955 -154.66220581 148.00739746 -153 147 C-152.01 146.67 -151.02 146.34 -150 146 C-149.19450181 144.06107304 -149.19450181 144.06107304 -148.6875 141.75 C-147.21327499 136.93776292 -145.28576159 134.80222873 -141 132 C-139.80375 131.525625 -138.6075 131.05125 -137.375 130.5625 C-133.31857497 128.68452545 -132.32882248 126.72611597 -130 123 C-128.33720673 121.9935725 -126.67016516 120.99414593 -125 120 C-121.63051705 116.68530539 -118.99732471 113.03267842 -116.5625 109 C-112.49708084 102.69643785 -106.89618908 97.73969272 -101.5625 92.52734375 C-98.40700409 89.43622908 -95.49826471 86.20936661 -92.65778542 82.82760048 C-90.97056285 80.96754746 -89.20252839 79.37786267 -87.28793335 77.75448608 C-83.11952166 74.14830203 -79.21145362 70.33948621 -75.33056641 66.42822266 C-74.61084656 65.70704254 -73.89112671 64.98586243 -73.14959717 64.24282837 C-71.60220507 62.69165786 -70.05596822 61.13933419 -68.51079178 59.58595657 C-66.0672394 57.12955897 -63.62050494 54.67637072 -61.17294312 52.22396851 C-55.98747341 47.02712198 -50.8059645 41.82633746 -45.625 36.625 C-39.5990448 30.57545387 -33.57148251 24.52752729 -27.53971481 18.48377609 C-25.12571927 16.06328428 -22.71474574 13.63980927 -20.30386353 11.21621704 C-18.83374476 9.74246815 -17.36348676 8.26885813 -15.89306641 6.79541016 C-15.22087067 6.1180481 -14.54867493 5.44068604 -13.85610962 4.74279785 C-12.93535645 3.82193893 -12.93535645 3.82193893 -11.9960022 2.88247681 C-11.46253489 2.34678888 -10.92906757 1.81110096 -10.37943459 1.25918007 C-6.9963169 -1.82900867 -4.26916507 -1.04848925 0 0 Z " fill="#F8F7F8" transform="translate(240,4)"/>
<path d="M0 0 C3.0883902 1.47696491 5.23857616 2.98198728 7.671875 5.40625 C8.33574219 6.06753906 8.99960938 6.72882813 9.68359375 7.41015625 C10.36550781 8.09980469 11.04742187 8.78945312 11.75 9.5 C12.44738281 10.18964844 13.14476563 10.87929687 13.86328125 11.58984375 C14.52199219 12.25113281 15.18070312 12.91242188 15.859375 13.59375 C16.46233398 14.19896484 17.06529297 14.80417969 17.68652344 15.42773438 C19 17 19 17 19 19 C17.63122559 20.34877014 17.63122559 20.34877014 15.67773438 21.95336914 C10.21833297 26.59965388 5.20836988 31.66639261 0.15625 36.74609375 C-0.86342709 37.76764047 -1.88332856 38.78896326 -2.90344238 39.81007385 C-5.56225061 42.47266437 -8.21803958 45.13824599 -10.87316895 47.80450439 C-13.59328393 50.53492671 -16.31630185 53.26245074 -19.0390625 55.99023438 C-24.36218863 61.324022 -29.68212218 66.66097916 -35 72 C-38.11966041 70.51136264 -40.24012613 68.99711308 -42.671875 66.5234375 C-43.33574219 65.853125 -43.99960937 65.1828125 -44.68359375 64.4921875 C-45.36550781 63.79351562 -46.04742187 63.09484375 -46.75 62.375 C-47.44738281 61.66859375 -48.14476562 60.9621875 -48.86328125 60.234375 C-50.5801293 58.49400848 -52.29123998 56.74829728 -54 55 C-48.68985746 48.55309361 -42.82873116 42.70050563 -36.9140625 36.81640625 C-35.84624655 35.75045891 -34.77865378 34.68428795 -33.71127319 33.61790466 C-30.92207682 30.83249861 -28.129889 28.05011071 -25.33703613 25.26837158 C-22.47936425 22.42098936 -19.62457498 19.57072014 -16.76953125 16.72070312 C-11.18248158 11.14432919 -5.59226366 5.57114506 0 0 Z " fill="#000000" transform="translate(70,168)"/>
<path d="M0 0 C2.79570164 1.34727261 4.83967803 2.59706233 7.015625 4.8203125 C7.80839844 5.62275391 7.80839844 5.62275391 8.6171875 6.44140625 C9.15601563 6.99699219 9.69484375 7.55257813 10.25 8.125 C10.80429688 8.68832031 11.35859375 9.25164063 11.9296875 9.83203125 C13.29104485 11.21686028 14.64614859 12.60783204 16 14 C14.37369071 18.07560377 11.46478852 20.83784831 8.42041016 23.88598633 C7.56641884 24.75246292 7.56641884 24.75246292 6.69517517 25.63644409 C4.81523758 27.54044109 2.92775913 29.43672496 1.0390625 31.33203125 C-0.27136851 32.65142764 -1.58172103 33.97090198 -2.89199829 35.29045105 C-5.63717052 38.05210194 -8.38669664 40.8093382 -11.13867188 43.56420898 C-14.6703814 47.10131852 -18.18563116 50.65432077 -21.69716454 54.21144581 C-24.39615662 56.94011264 -27.10626555 59.65752404 -29.81962967 62.37189293 C-31.1211278 63.67760802 -32.41848795 64.98746096 -33.71165085 66.30143166 C-35.51675588 68.13326683 -37.33684784 69.94877272 -39.16162109 71.76098633 C-39.69579147 72.309991 -40.22996185 72.85899567 -40.78031921 73.42463684 C-42.29257202 74.90730286 -42.29257202 74.90730286 -45 77 C-48.37270636 76.86448927 -49.93347255 75.42852328 -52.234375 73.05859375 C-53.09482422 72.18364258 -53.09482422 72.18364258 -53.97265625 71.29101562 C-54.55917969 70.67935547 -55.14570313 70.06769531 -55.75 69.4375 C-56.65298828 68.51420898 -56.65298828 68.51420898 -57.57421875 67.57226562 C-59.05634381 66.05485187 -60.5290967 64.52829404 -62 63 C-56.19861308 55.89487994 -49.65610323 49.5298138 -43.1640625 43.06640625 C-41.9168849 41.82109655 -40.66992999 40.57556379 -39.42318726 39.32981873 C-36.16051895 36.07094634 -32.89485749 32.81508982 -29.62854004 29.55987549 C-26.28828938 26.22990221 -22.95091069 22.89705327 -19.61328125 19.56445312 C-13.07831107 13.04016861 -6.54017169 6.51907004 0 0 Z " fill="#040404" transform="translate(217,24)"/>
<path d="M0 0 C1.98 1.65 3.96 3.3 6 5 C4.4152642 8.86328627 1.94043113 11.28876923 -1.0078125 14.203125 C-1.73603714 14.9271048 -1.73603714 14.9271048 -2.47897339 15.66571045 C-4.02299866 17.19858562 -5.57384824 18.72434004 -7.125 20.25 C-8.17624009 21.29120361 -9.22702657 22.33286541 -10.27734375 23.375 C-12.84633004 25.92199464 -15.42148161 28.46265177 -18 31 C-17.34 31.66 -16.68 32.32 -16 33 C-8.08 25.08 -0.16 17.16 8 9 C12.85714286 11.42857143 12.85714286 11.42857143 15 14 C15 14.66 15 15.32 15 16 C13.42798828 16.8971875 13.42798828 16.8971875 11.82421875 17.8125 C4.84573864 22.00481309 -0.53562671 28.2227748 -6.1875 34 C-7.36062003 35.18819953 -8.53444318 36.37570528 -9.70898438 37.5625 C-11.86790411 39.74574543 -14.02265009 41.93292958 -16.17260742 44.125 C-23.14822726 51.22898224 -23.14822726 51.22898224 -25.73046875 53.56640625 C-27.25687461 55.29007071 -27.69039945 56.73264022 -28.3125 58.9375 C-29.83059238 63.26128143 -31.84716698 64.92358349 -36 67 C-37.2375 67.2165625 -37.2375 67.2165625 -38.5 67.4375 C-42.23205902 68.27721328 -44.18595339 70.44772517 -47 73 C-50.63 69.37 -54.26 65.74 -58 62 C-55.525 59.525 -55.525 59.525 -53 57 C-50.85693203 54.26359783 -50.85693203 54.26359783 -50.6875 51.625 C-49.71639583 47.91714771 -47.93251148 46.41117611 -45 44 C-44.030625 43.71125 -43.06125 43.4225 -42.0625 43.125 C-38.30863216 41.74602814 -37.05287674 39.97835548 -34.6171875 36.91796875 C-31.77736743 33.54996958 -28.34512844 30.85021639 -25 28 C-10.18572514 15.79500727 -10.18572514 15.79500727 0 0 Z " fill="#050505" transform="translate(146,95)"/>
<path d="M0 0 C0.99 1.485 0.99 1.485 2 3 C-1.465 6.465 -1.465 6.465 -5 10 C-3.02 12.31 -1.04 14.62 1 17 C-1.1875 17.3125 -1.1875 17.3125 -4 17 C-4.804375 16.154375 -5.60875 15.30875 -6.4375 14.4375 C-8.77283927 11.65539312 -8.77283927 11.65539312 -12 12 C-15.00142417 13.00047472 -17.38510826 14.23110264 -20 16 C-18.5757048 19.25779266 -16.84375932 21.38119131 -14.3046875 23.85546875 C-13.58925781 24.55994141 -12.87382813 25.26441406 -12.13671875 25.99023438 C-11.01716797 27.07788086 -11.01716797 27.07788086 -9.875 28.1875 C-8.39110476 29.63715151 -6.90921416 31.08885891 -5.4296875 32.54296875 C-4.77210449 33.18258545 -4.11452148 33.82220215 -3.43701172 34.48120117 C-2 36 -2 36 -2 37 C-4.94246185 37.26648711 -6.4903637 37.36087241 -8.94458008 35.62304688 C-9.54681396 34.99462891 -10.14904785 34.36621094 -10.76953125 33.71875 C-11.43017578 33.04199219 -12.09082031 32.36523438 -12.77148438 31.66796875 C-13.78178711 30.59482422 -13.78178711 30.59482422 -14.8125 29.5 C-15.50537109 28.78457031 -16.19824219 28.06914062 -16.91210938 27.33203125 C-18.61985699 25.56539579 -20.31486688 23.78817513 -22 22 C-25.8239492 23.57877433 -28.23642099 25.99501713 -31.13574219 28.90869141 C-31.63375839 29.40641556 -32.1317746 29.90413971 -32.6448822 30.41694641 C-34.28366733 32.0571207 -35.91526134 33.70425661 -37.546875 35.3515625 C-38.68415347 36.49257256 -39.8218754 37.63314077 -40.96002197 38.77328491 C-43.94989979 41.77078762 -46.93372191 44.77424851 -49.9163208 47.7789917 C-52.96271321 50.84586712 -56.01479703 53.90706694 -59.06640625 56.96875 C-65.04985434 62.97362783 -71.02691663 68.98481232 -77 75 C-76.05893615 76.1078354 -75.11643273 77.21444803 -74.17333984 78.32055664 C-73.64864105 78.93693497 -73.12394226 79.55331329 -72.58334351 80.18836975 C-70.37254722 82.71791903 -68.01599944 85.07881136 -65.625 87.4375 C-64.31402344 88.73494141 -64.31402344 88.73494141 -62.9765625 90.05859375 C-62.32429688 90.69925781 -61.67203125 91.33992188 -61 92 C-62.98 92.99 -62.98 92.99 -65 94 C-70.28 88.72 -75.56 83.44 -81 78 C-84.12455058 79.64179359 -84.12455058 79.64179359 -84.73046875 82.1640625 C-84.88128906 82.97617188 -85.03210938 83.78828125 -85.1875 84.625 C-85.34605469 85.44226563 -85.50460938 86.25953125 -85.66796875 87.1015625 C-85.77753906 87.72804688 -85.88710937 88.35453125 -86 89 C-87.32 89 -88.64 89 -90 89 C-89.97167215 82.75370915 -88.92230966 79.03634187 -84.66796875 74.41015625 C-83 73 -83 73 -80.9453125 71.98046875 C-78.43595052 70.71571 -77.13328908 68.81512338 -75.41796875 66.640625 C-73.90179993 64.88638009 -72.28806035 63.47388923 -70.5 62 C-68.17704148 60.07755157 -66.46009567 58.3521148 -64.5 56 C-62.07918825 53.0950259 -59.58218698 50.89560302 -56.6875 48.5 C-54.75444683 46.85667758 -54.75444683 46.85667758 -52.5 44 C-50.07918825 41.0950259 -47.58218698 38.89560302 -44.6875 36.5 C-42.75444683 34.85667758 -42.75444683 34.85667758 -40.5 32 C-38.57820091 29.69384109 -37.03607314 28.14240717 -34.75 26.3125 C-31.53204024 23.68531039 -29.19847881 20.7411864 -26.6875 17.4375 C-22.39566534 12.0397489 -18.30170572 9.55503571 -12 7 C-10.88625 6.38125 -9.7725 5.7625 -8.625 5.125 C-6 4 -6 4 -3.625 4.3125 C-3.08875 4.539375 -2.5525 4.76625 -2 5 C-1.855625 4.360625 -1.71125 3.72125 -1.5625 3.0625 C-1 1 -1 1 0 0 Z " fill="#F3F3F3" transform="translate(94,147)"/>
<path d="M0 0 C0 3 0 3 -1.73287964 5.06672668 C-2.94960861 6.25536568 -2.94960861 6.25536568 -4.19091797 7.46801758 C-5.56266678 8.82006035 -5.56266678 8.82006035 -6.96212769 10.19941711 C-7.45572659 10.67903711 -7.94932549 11.15865711 -8.45788193 11.65281105 C-10.00330061 13.15533591 -11.53873765 14.66742507 -13.07180786 16.18254089 C-17.43287352 20.4885324 -21.81331594 24.77466355 -26.19580078 29.05883789 C-28.87557347 31.67983004 -31.5454292 34.31061142 -34.2098732 36.94717979 C-35.71891354 38.43409847 -37.23917815 39.90887025 -38.75997925 41.38374329 C-39.68078278 42.29456161 -40.6015863 43.20537994 -41.55029297 44.14379883 C-42.3630368 44.9386116 -43.17578064 45.73342438 -44.01315308 46.55232239 C-46.23454405 49.28894436 -47.02595988 51.63930423 -48 55 C-52.25405154 61.26124488 -56.58662426 65.27021233 -64 67 C-69.4317841 66.37394805 -72.64406648 61.86881652 -76.3125 58.1875 C-77.06595703 57.46240234 -77.81941406 56.73730469 -78.59570312 55.99023438 C-79.30275391 55.28576172 -80.00980469 54.58128906 -80.73828125 53.85546875 C-81.38837158 53.21246826 -82.03846191 52.56946777 -82.70825195 51.90698242 C-84 50 -84 50 -83.70385742 47.7590332 C-83.355448 46.88831177 -83.355448 46.88831177 -83 46 C-83 46.99 -83 47.98 -83 49 C-81.515 48.505 -81.515 48.505 -80 48 C-79.08595895 45.96461053 -79.08595895 45.96461053 -78.5 43.5625 C-77.32876712 39.21917808 -77.32876712 39.21917808 -74 37 C-68.72 42.28 -63.44 47.56 -58 53 C-51.40839802 51.11668515 -49.97044242 50.59351527 -45.52368164 46.09130859 C-45.02522736 45.59358444 -44.52677307 45.09586029 -44.01321411 44.58305359 C-42.38337856 42.9497597 -40.77193444 41.2995366 -39.16015625 39.6484375 C-38.02782634 38.50677326 -36.89438081 37.36621454 -35.75987244 36.22671509 C-32.78792407 33.23574604 -29.83130301 30.23006603 -26.87768555 27.2210083 C-23.85665483 24.14867898 -20.82128376 21.0905897 -17.78710938 18.03125 C-11.84399228 12.03463225 -5.91700117 6.02238794 0 0 Z " fill="#E5E6E5" transform="translate(87,187)"/>
<path d="M0 0 C4.54600971 1.43207632 7.54287489 3.96195062 10.875 7.25 C11.38546875 7.71535156 11.8959375 8.18070313 12.421875 8.66015625 C14.87600479 11.06785656 15.96581522 12.49192033 16.19921875 15.9609375 C14.58094153 20.06197879 12.13408907 22.41587183 8.9375 25.375 C8.36966797 25.92027344 7.80183594 26.46554688 7.21679688 27.02734375 C5.82229978 28.36324853 4.41261282 29.68326588 3 31 C1.0625 30.1875 1.0625 30.1875 -1 29 C-1.33 28.01 -1.66 27.02 -2 26 C-4.00016466 24.79117904 -4.00016466 24.79117904 -6 24 C-6 23.34 -6 22.68 -6 22 C-7.32 21.34 -8.64 20.68 -10 20 C-10 19.34 -10 18.68 -10 18 C-11.32 17.34 -12.64 16.68 -14 16 C-12.34136495 11.67495164 -9.128959 8.90581175 -5.875 5.75 C-5.31167969 5.19570312 -4.74835938 4.64140625 -4.16796875 4.0703125 C-2.78313972 2.70895515 -1.39216796 1.35385141 0 0 Z " fill="#4D27B6" transform="translate(234,6)"/>
<path d="M0 0 C1.64746094 1.30688477 1.64746094 1.30688477 3.234375 2.94140625 C3.80800781 3.52470703 4.38164063 4.10800781 4.97265625 4.70898438 C5.55917969 5.32064453 6.14570312 5.93230469 6.75 6.5625 C7.35199219 7.17802734 7.95398438 7.79355469 8.57421875 8.42773438 C10.05634381 9.94514813 11.5290967 11.47170596 13 13 C12.60082968 14.44245638 12.17985483 15.87888841 11.75 17.3125 C11.51796875 18.11300781 11.2859375 18.91351563 11.046875 19.73828125 C10 22 10 22 6 25 C-0.27 18.73 -6.54 12.46 -13 6 C-11 2 -11 2 -7.625 0.1875 C-3.24806643 -1.24632307 -3.24806643 -1.24632307 0 0 Z " fill="#070707" transform="translate(86,159)"/>
<path d="M0 0 C7.15801225 5.82628904 13.52591766 12.4382985 20 19 C19.5 20.8125 19.5 20.8125 18 23 C15.36 23.99 12.72 24.98 10 26 C5.05 21.05 0.1 16.1 -5 11 C-2 2 -2 2 0 0 Z " fill="#020202" transform="translate(12,224)"/>
<path d="M0 0 C1.32 0.33 2.64 0.66 4 1 C-11.51 16.51 -27.02 32.02 -43 48 C-43.33 46.68 -43.66 45.36 -44 44 C-42.47676086 41.84184265 -42.47676086 41.84184265 -40.13793945 39.4909668 C-39.2698616 38.60712814 -38.40178375 37.72328949 -37.50740051 36.81266785 C-36.54332797 35.85754457 -35.57860549 34.90307694 -34.61328125 33.94921875 C-33.63420965 32.96678012 -32.65588139 31.98360019 -31.67826843 30.99971008 C-29.62566274 28.93972781 -27.56427205 26.88907319 -25.49633789 24.84448242 C-22.84378463 22.22041732 -20.21431104 19.57454397 -17.59100056 16.92128277 C-15.57456911 14.88679958 -13.54639946 12.86435696 -11.5144558 10.84537697 C-10.53993556 9.87419662 -9.56912831 8.899276 -8.60210609 7.9206295 C-7.24983693 6.55568992 -5.87981945 5.20840264 -4.5090332 3.86206055 C-3.73324417 3.09024948 -2.95745514 2.31843842 -2.15815735 1.52323914 C-1.44596542 1.02057022 -0.7337735 0.51790131 0 0 Z " fill="#FCFDFC" transform="translate(84,192)"/>
<path d="M0 0 C0.66 0 1.32 0 2 0 C3.4453125 1.46875 3.4453125 1.46875 5.125 3.5 C8.8615876 7.90524012 12.86943366 11.96599235 17 16 C16.34 17.32 15.68 18.64 15 20 C10.56373447 17.97699054 7.61748641 15.02132242 4.1875 11.625 C3.27194336 10.75875 3.27194336 10.75875 2.33789062 9.875 C1.76619141 9.31039062 1.19449219 8.74578125 0.60546875 8.1640625 C0.08106201 7.65311035 -0.44334473 7.1421582 -0.98364258 6.61572266 C-2 5 -2 5 -1.7253418 2.86474609 C-1 1 -1 1 0 0 Z " fill="#101010" transform="translate(151,88)"/>
<path d="M0 0 C4.92190829 4.00620442 9.44650752 8.33616202 13.9375 12.8125 C14.52942139 13.39990967 15.12134277 13.98731934 15.73120117 14.5925293 C20 18.87629543 20 18.87629543 20 20 C17.08940143 20.25745314 15.52030572 20.36590741 13.0871582 18.65478516 C12.49765381 18.03909668 11.90814941 17.4234082 11.30078125 16.7890625 C10.64916016 16.12132812 9.99753906 15.45359375 9.32617188 14.765625 C8.66166016 14.05921875 7.99714844 13.3528125 7.3125 12.625 C6.63638672 11.92632812 5.96027344 11.22765625 5.26367188 10.5078125 C4.01156157 9.21209636 2.76465019 7.91132192 1.5246582 6.60400391 C0.36697991 5.38607815 -0.81181605 4.18818395 -2 3 C-1.34 3 -0.68 3 0 3 C0 2.01 0 1.02 0 0 Z " fill="#E1E4E1" transform="translate(72,164)"/>
<path d="M0 0 C5.72996169 0.16433925 8.62475092 4.17726075 12.3125 8.0625 C12.95767578 8.72572266 13.60285156 9.38894531 14.26757812 10.07226562 C15.85447018 11.70617671 17.43126328 13.34868147 19 15 C17.02 15.99 17.02 15.99 15 17 C12.49195282 14.54976242 9.9949924 12.08852402 7.5 9.625 C6.78457031 8.92632812 6.06914062 8.22765625 5.33203125 7.5078125 C4.65527344 6.8375 3.97851562 6.1671875 3.28125 5.4765625 C2.65283203 4.85861816 2.02441406 4.24067383 1.37695312 3.60400391 C0 2 0 2 0 0 Z " fill="#E6E3E6" transform="translate(14,224)"/>
<path d="M0 0 C3.56511942 2.97444875 7.02598003 5.96697174 10.25 9.3125 C12.76896561 12.16571296 12.76896561 12.16571296 16 13 C16 13.99 16 14.98 16 16 C15.01 16 14.02 16 13 16 C12.67 16.66 12.34 17.32 12 18 C10.31598179 16.08181358 8.63500614 14.16126217 6.9609375 12.234375 C5.71299159 10.81241273 4.44890012 9.40434311 3.1640625 8.015625 C2.61492187 7.41234375 2.06578125 6.8090625 1.5 6.1875 C0.9946875 5.64480469 0.489375 5.10210937 -0.03125 4.54296875 C-0.3509375 4.03378906 -0.670625 3.52460937 -1 3 C-0.67 2.01 -0.34 1.02 0 0 Z " fill="#EAE9EA" transform="translate(156,88)"/>
<path d="M0 0 C2.93200474 2.85276137 5.64315404 5.65079784 8 9 C7.01 9 6.02 9 5 9 C4.67 9.66 4.34 10.32 4 11 C3.13050683 9.92892883 2.27985795 8.84254056 1.4375 7.75 C0.96183594 7.14671875 0.48617187 6.5434375 -0.00390625 5.921875 C-1 4 -1 4 -0.65234375 1.765625 C-0.43707031 1.18296875 -0.22179687 0.6003125 0 0 Z " fill="#E3E5E3" transform="translate(148,91)"/>
<path d="M0 0 C1.14926266 0.95421808 2.29430541 1.91352045 3.4375 2.875 C4.07558594 3.40867187 4.71367187 3.94234375 5.37109375 4.4921875 C7 6 7 6 8 8 C6.68 8.33 5.36 8.66 4 9 C-0.00390625 4.60546875 -0.00390625 4.60546875 -1 3 C-0.67 2.01 -0.34 1.02 0 0 Z " fill="#E8EAE8" transform="translate(156,100)"/>
<path d="M0 0 C0.66 0.99 1.32 1.98 2 3 C1.0479279 4.00596297 0.08812654 5.00461563 -0.875 6 C-1.40867187 6.556875 -1.94234375 7.11375 -2.4921875 7.6875 C-4 9 -4 9 -6 9 C-6 7.68 -6 6.36 -6 5 C-4.68 5 -3.36 5 -2 5 C-1.855625 4.360625 -1.71125 3.72125 -1.5625 3.0625 C-1 1 -1 1 0 0 Z " fill="#EDEDED" transform="translate(94,147)"/>
<path d="M0 0 C1.14926266 0.95421808 2.29430541 1.91352045 3.4375 2.875 C4.07558594 3.40867188 4.71367187 3.94234375 5.37109375 4.4921875 C7 6 7 6 8 8 C6.68 8 5.36 8 4 8 C3.67 6.68 3.34 5.36 3 4 C2.01 4 1.02 4 0 4 C0 2.68 0 1.36 0 0 Z " fill="#D7DAD7" transform="translate(8,236)"/>
</svg>
